0
SECTION
2
HEADER
9
$ACADVER
1
AC1006
0
ENDSEC
0
SECTION
2
TABLES
0
TABLE
2
LAYER
70
0
0
LAYER
2
Polyline
70
0
62
1
6
CONTINUOUS
0
ENDTAB
0
ENDSEC
0
SECTION
2
ENTITIES
0
LINE
8
Polyline
62
1
10
0.077
20
0.277
30
1.000
11
0.053
21
0.220
31
1.000
0
LINE
8
Polyline
62
1
10
0.053
20
0.220
30
1.000
11
0.037
21
0.368
31
1.000
0
LINE
8
Polyline
62
1
10
0.037
20
0.368
30
1.000
11
0.061
21
0.174
31
1.000
0
LINE
8
Polyline
62
1
10
0.061
20
0.174
30
1.000
11
0.044
21
0.169
31
1.000
0
LINE
8
Polyline
62
1
10
0.044
20
0.169
30
1.000
11
0.047
21
0.406
31
1.000
0
LINE
8
Polyline
62
1
10
0.047
20
0.406
30
1.000
11
0.011
21
0.322
31
1.000
0
LINE
8
Polyline
62
1
10
0.011
20
0.322
30
1.000
11
0.031
21
0.424
31
1.000
0
LINE
8
Polyline
62
1
10
0.031
20
0.424
30
1.000
11
0.035
21
0.425
31
1.000
0
LINE
8
Polyline
62
1
10
0.035
20
0.425
30
1.000
11
0.018
21
0.311
31
1.000
0
LINE
8
Polyline
62
1
10
0.018
20
0.311
30
1.000
11
0.038
21
0.432
31
1.000
0
LINE
8
Polyline
62
1
10
0.038
20
0.432
30
1.000
11
0.024
21
0.305
31
1.000
0
LINE
8
Polyline
62
1
10
0.024
20
0.305
30
1.000
11
0.032
21
0.299
31
1.000
0
LINE
8
Polyline
62
1
10
0.032
20
0.299
30
1.000
11
0.029
21
0.298
31
1.000
0
LINE
8
Polyline
62
1
10
0.029
20
0.298
30
1.000
11
0.033
21
0.292
31
1.000
0
LINE
8
Polyline
62
1
10
0.033
20
0.292
30
1.000
11
0.047
21
0.447
31
1.000
0
LINE
8
Polyline
62
1
10
0.047
20
0.447
30
1.000
11
0.068
21
0.074
31
1.000
0
LINE
8
Polyline
62
1
10
0.068
20
0.074
30
1.000
11
0.040
21
0.175
31
1.000
0
LINE
8
Polyline
62
1
10
0.040
20
0.175
30
1.000
11
0.034
21
0.159
31
1.000
0
LINE
8
Polyline
62
1
10
0.034
20
0.159
30
1.000
11
0.021
21
0.141
31
1.000
0
LINE
8
Polyline
62
1
10
0.021
20
0.141
30
1.000
11
0.027
21
0.280
31
1.000
0
LINE
8
Polyline
62
1
10
0.027
20
0.280
30
1.000
11
0.010
21
0.351
31
1.000
0
LINE
8
Polyline
62
1
10
0.010
20
0.351
30
1.000
11
0.026
21
0.281
31
1.000
0
LINE
8
Polyline
62
1
10
0.026
20
0.281
30
1.000
11
0.024
21
0.395
31
1.000
0
LINE
8
Polyline
62
1
10
0.024
20
0.395
30
1.000
11
0.017
21
0.403
31
1.000
0
LINE
8
Polyline
62
1
10
0.017
20
0.403
30
1.000
11
0.026
21
0.483
31
1.000
0
LINE
8
Polyline
62
1
10
0.026
20
0.483
30
1.000
11
0.040
21
0.496
31
1.000
0
LINE
8
Polyline
62
1
10
0.040
20
0.496
30
1.000
11
0.032
21
0.506
31
1.000
0
LINE
8
Polyline
62
1
10
0.032
20
0.506
30
1.000
11
0.039
21
0.510
31
1.000
0
LINE
8
Polyline
62
1
10
0.039
20
0.510
30
1.000
11
0.012
21
0.156
31
1.000
0
LINE
8
Polyline
62
1
10
0.012
20
0.156
30
1.000
11
0.019
21
0.102
31
1.000
0
LINE
8
Polyline
62
1
10
0.019
20
0.102
30
1.000
11
0.004
21
0.187
31
1.000
0
LINE
8
Polyline
62
1
10
0.004
20
0.187
30
1.000
11
0.009
21
0.192
31
1.000
0
LINE
8
Polyline
62
1
10
0.009
20
0.192
30
1.000
11
0.011
21
0.199
31
1.000
0
LINE
8
Polyline
62
1
10
0.011
20
0.199
30
1.000
11
0.003
21
0.368
31
1.000
0
LINE
8
Polyline
62
1
10
0.003
20
0.368
30
1.000
11
0.006
21
0.370
31
1.000
0
LINE
8
Polyline
62
1
10
0.006
20
0.370
30
1.000
11
0.000
21
0.387
31
0.996
0
LINE
8
Polyline
62
1
10
0.000
20
0.387
30
0.996
11
0.009
21
0.450
31
1.000
0
LINE
8
Polyline
62
1
10
0.009
20
0.450
30
1.000
11
0.010
21
0.521
31
1.000
0
LINE
8
Polyline
62
1
10
0.010
20
0.521
30
1.000
11
0.006
21
0.531
31
1.000
0
LINE
8
Polyline
62
1
10
0.006
20
0.531
30
1.000
11
0.015
21
0.537
31
1.000
0
LINE
8
Polyline
62
1
10
0.015
20
0.537
30
1.000
11
0.023
21
0.551
31
1.000
0
LINE
8
Polyline
62
1
10
0.023
20
0.551
30
1.000
11
0.014
21
0.553
31
1.000
0
LINE
8
Polyline
62
1
10
0.014
20
0.553
30
1.000
11
0.030
21
0.558
31
1.000
0
LINE
8
Polyline
62
1
10
0.030
20
0.558
30
1.000
11
0.040
21
0.573
31
1.000
0
LINE
8
Polyline
62
1
10
0.040
20
0.573
30
1.000
11
0.031
21
0.575
31
1.000
0
LINE
8
Polyline
62
1
10
0.031
20
0.575
30
1.000
11
0.048
21
0.584
31
1.000
0
LINE
8
Polyline
62
1
10
0.048
20
0.584
30
1.000
11
0.000
21
0.156
31
0.992
0
LINE
8
Polyline
62
1
10
0.000
20
0.156
30
0.992
11
0.018
21
0.230
31
1.000
0
LINE
8
Polyline
62
1
10
0.018
20
0.230
30
1.000
11
0.000
21
0.175
31
0.981
0
LINE
8
Polyline
62
1
10
0.000
20
0.175
30
0.981
11
0.000
21
0.393
31
1.000
0
LINE
8
Polyline
62
1
10
0.000
20
0.393
30
1.000
11
0.000
21
0.397
31
0.986
0
LINE
8
Polyline
62
1
10
0.000
20
0.397
30
0.986
11
0.000
21
0.406
31
0.991
0
LINE
8
Polyline
62
1
10
0.000
20
0.406
30
0.991
11
0.000
21
0.437
31
0.994
0
LINE
8
Polyline
62
1
10
0.000
20
0.437
30
0.994
11
0.000
21
0.446
31
0.996
0
LINE
8
Polyline
62
1
10
0.000
20
0.446
30
0.996
11
0.000
21
0.463
31
0.989
0
LINE
8
Polyline
62
1
10
0.000
20
0.463
30
0.989
11
0.005
21
0.521
31
1.000
0
LINE
8
Polyline
62
1
10
0.005
20
0.521
30
1.000
11
0.000
21
0.581
31
0.999
0
LINE
8
Polyline
62
1
10
0.000
20
0.581
30
0.999
11
0.017
21
0.590
31
1.000
0
LINE
8
Polyline
62
1
10
0.017
20
0.590
30
1.000
11
0.016
21
0.598
31
1.000
0
LINE
8
Polyline
62
1
10
0.016
20
0.598
30
1.000
11
0.026
21
0.624
31
1.000
0
LINE
8
Polyline
62
1
10
0.026
20
0.624
30
1.000
11
0.002
21
0.627
31
1.000
0
LINE
8
Polyline
62
1
10
0.002
20
0.627
30
1.000
11
0.021
21
0.653
31
1.000
0
LINE
8
Polyline
62
1
10
0.021
20
0.653
30
1.000
11
0.030
21
0.662
31
1.000
0
LINE
8
Polyline
62
1
10
0.030
20
0.662
30
1.000
11
0.000
21
0.289
31
0.988
0
LINE
8
Polyline
62
1
10
0.000
20
0.289
30
0.988
11
0.000
21
0.120
31
0.978
0
LINE
8
Polyline
62
1
10
0.000
20
0.120
30
0.978
11
0.000
21
0.123
31
0.949
0
LINE
8
Polyline
62
1
10
0.000
20
0.123
30
0.949
11
0.000
21
0.100
31
0.962
0
LINE
8
Polyline
62
1
10
0.000
20
0.100
30
0.962
11
0.000
21
0.391
31
0.978
0
LINE
8
Polyline
62
1
10
0.000
20
0.391
30
0.978
11
0.000
21
0.401
31
0.976
0
LINE
8
Polyline
62
1
10
0.000
20
0.401
30
0.976
11
0.000
21
0.426
31
0.993
0
LINE
8
Polyline
62
1
10
0.000
20
0.426
30
0.993
11
0.000
21
0.436
31
0.968
0
LINE
8
Polyline
62
1
10
0.000
20
0.436
30
0.968
11
0.000
21
0.343
31
0.969
0
LINE
8
Polyline
62
1
10
0.000
20
0.343
30
0.969
11
0.000
21
0.471
31
0.977
0
LINE
8
Polyline
62
1
10
0.000
20
0.471
30
0.977
11
0.000
21
0.482
31
0.972
0
LINE
8
Polyline
62
1
10
0.000
20
0.482
30
0.972
11
0.000
21
0.459
31
0.966
0
LINE
8
Polyline
62
1
10
0.000
20
0.459
30
0.966
11
0.000
21
0.520
31
0.980
0
LINE
8
Polyline
62
1
10
0.000
20
0.520
30
0.980
11
0.000
21
0.584
31
0.988
0
LINE
8
Polyline
62
1
10
0.000
20
0.584
30
0.988
11
0.000
21
0.622
31
0.985
0
LINE
8
Polyline
62
1
10
0.000
20
0.622
30
0.985
11
0.000
21
0.654
31
0.988
0
LINE
8
Polyline
62
1
10
0.000
20
0.654
30
0.988
11
0.011
21
0.673
31
1.000
0
LINE
8
Polyline
62
1
10
0.011
20
0.673
30
1.000
11
0.000
21
0.672
31
0.980
0
LINE
8
Polyline
62
1
10
0.000
20
0.672
30
0.980
11
0.023
21
0.661
31
1.000
0
LINE
8
Polyline
62
1
10
0.023
20
0.661
30
1.000
11
0.018
21
0.674
31
1.000
0
LINE
8
Polyline
62
1
10
0.018
20
0.674
30
1.000
11
0.034
21
0.705
31
1.000
0
LINE
8
Polyline
62
1
10
0.034
20
0.705
30
1.000
11
0.020
21
0.708
31
1.000
0
LINE
8
Polyline
62
1
10
0.020
20
0.708
30
1.000
11
0.003
21
0.676
31
1.000
0
LINE
8
Polyline
62
1
10
0.003
20
0.676
30
1.000
11
0.000
21
0.686
31
0.995
0
LINE
8
Polyline
62
1
10
0.000
20
0.686
30
0.995
11
0.000
21
0.716
31
0.995
0
LINE
8
Polyline
62
1
10
0.000
20
0.716
30
0.995
11
0.033
21
0.721
31
1.000
0
LINE
8
Polyline
62
1
10
0.033
20
0.721
30
1.000
11
0.029
21
0.742
31
1.000
0
LINE
8
Polyline
62
1
10
0.029
20
0.742
30
1.000
11
0.023
21
0.747
31
1.000
0
LINE
8
Polyline
62
1
10
0.023
20
0.747
30
1.000
11
0.000
21
0.309
31
0.970
0
LINE
8
Polyline
62
1
10
0.000
20
0.309
30
0.970
11
0.000
21
0.317
31
0.964
0
LINE
8
Polyline
62
1
10
0.000
20
0.317
30
0.964
11
0.000
21
0.102
31
0.958
0
LINE
8
Polyline
62
1
10
0.000
20
0.102
30
0.958
11
0.000
21
0.180
31
0.964
0
LINE
8
Polyline
62
1
10
0.000
20
0.180
30
0.964
11
0.000
21
0.219
31
0.955
0
LINE
8
Polyline
62
1
10
0.000
20
0.219
30
0.955
11
0.000
21
0.064
31
0.967
0
LINE
8
Polyline
62
1
10
0.000
20
0.064
30
0.967
11
0.000
21
0.062
31
0.945
0
LINE
8
Polyline
62
1
10
0.000
20
0.062
30
0.945
11
0.000
21
0.454
31
0.961
0
LINE
8
Polyline
62
1
10
0.000
20
0.454
30
0.961
11
0.000
21
0.472
31
0.970
0
LINE
8
Polyline
62
1
10
0.000
20
0.472
30
0.970
11
0.000
21
0.400
31
0.953
0
LINE
8
Polyline
62
1
10
0.000
20
0.400
30
0.953
11
0.000
21
0.517
31
0.968
0
LINE
8
Polyline
62
1
10
0.000
20
0.517
30
0.968
11
0.000
21
0.263
31
0.964
0
LINE
8
Polyline
62
1
10
0.000
20
0.263
30
0.964
11
0.000
21
0.261
31
0.966
0
LINE
8
Polyline
62
1
10
0.000
20
0.261
30
0.966
11
0.000
21
0.549
31
0.950
0
LINE
8
Polyline
62
1
10
0.000
20
0.549
30
0.950
11
0.000
21
0.566
31
0.975
0
LINE
8
Polyline
62
1
10
0.000
20
0.566
30
0.975
11
0.000
21
0.576
31
0.963
0
LINE
8
Polyline
62
1
10
0.000
20
0.576
30
0.963
11
0.000
21
0.580
31
0.978
0
LINE
8
Polyline
62
1
10
0.000
20
0.580
30
0.978
11
0.000
21
0.585
31
0.984
0
LINE
8
Polyline
62
1
10
0.000
20
0.585
30
0.984
11
0.000
21
0.673
31
0.975
0
LINE
8
Polyline
62
1
10
0.000
20
0.673
30
0.975
11
0.000
21
0.722
31
0.978
0
LINE
8
Polyline
62
1
10
0.000
20
0.722
30
0.978
11
0.000
21
0.749
31
0.986
0
LINE
8
Polyline
62
1
10
0.000
20
0.749
30
0.986
11
0.000
21
0.743
31
0.976
0
LINE
8
Polyline
62
1
10
0.000
20
0.743
30
0.976
11
0.000
21
0.752
31
0.973
0
LINE
8
Polyline
62
1
10
0.000
20
0.752
30
0.973
11
0.023
21
0.749
31
1.000
0
LINE
8
Polyline
62
1
10
0.023
20
0.749
30
1.000
11
0.036
21
0.777
31
1.000
0
LINE
8
Polyline
62
1
10
0.036
20
0.777
30
1.000
11
0.008
21
0.770
31
1.000
0
LINE
8
Polyline
62
1
10
0.008
20
0.770
30
1.000
11
0.000
21
0.788
31
0.990
0
LINE
8
Polyline
62
1
10
0.000
20
0.788
30
0.990
11
0.039
21
0.802
31
1.000
0
LINE
8
Polyline
62
1
10
0.039
20
0.802
30
1.000
11
0.010
21
0.802
31
1.000
0
LINE
8
Polyline
62
1
10
0.010
20
0.802
30
1.000
11
0.038
21
0.807
31
1.000
0
LINE
8
Polyline
62
1
10
0.038
20
0.807
30
1.000
11
0.015
21
0.808
31
1.000
0
LINE
8
Polyline
62
1
10
0.015
20
0.808
30
1.000
11
0.014
21
0.818
31
1.000
0
LINE
8
Polyline
62
1
10
0.014
20
0.818
30
1.000
11
0.042
21
0.823
31
1.000
0
LINE
8
Polyline
62
1
10
0.042
20
0.823
30
1.000
11
0.000
21
0.238
31
0.964
0
LINE
8
Polyline
62
1
10
0.000
20
0.238
30
0.964
11
0.000
21
0.058
31
0.940
0
LINE
8
Polyline
62
1
10
0.000
20
0.058
30
0.940
11
0.000
21
0.050
31
0.942
0
LINE
8
Polyline
62
1
10
0.000
20
0.050
30
0.942
11
0.000
21
0.029
31
0.961
0
LINE
8
Polyline
62
1
10
0.000
20
0.029
30
0.961
11
0.000
21
0.638
31
0.967
0
LINE
8
Polyline
62
1
10
0.000
20
0.638
30
0.967
11
0.000
21
0.643
31
0.976
0
LINE
8
Polyline
62
1
10
0.000
20
0.643
30
0.976
11
0.000
21
0.672
31
0.969
0
LINE
8
Polyline
62
1
10
0.000
20
0.672
30
0.969
11
0.000
21
0.708
31
0.961
0
LINE
8
Polyline
62
1
10
0.000
20
0.708
30
0.961
11
0.000
21
0.735
31
0.950
0
LINE
8
Polyline
62
1
10
0.000
20
0.735
30
0.950
11
0.000
21
0.785
31
0.973
0
LINE
8
Polyline
62
1
10
0.000
20
0.785
30
0.973
11
0.000
21
0.804
31
0.996
0
LINE
8
Polyline
62
1
10
0.000
20
0.804
30
0.996
11
0.000
21
0.818
31
1.000
0
LINE
8
Polyline
62
1
10
0.000
20
0.818
30
1.000
11
0.000
21
0.814
31
0.962
0
LINE
8
Polyline
62
1
10
0.000
20
0.814
30
0.962
11
0.045
21
0.819
31
1.000
0
LINE
8
Polyline
62
1
10
0.045
20
0.819
30
1.000
11
0.056
21
0.727
31
1.000
0
LINE
8
Polyline
62
1
10
0.056
20
0.727
30
1.000
11
0.046
21
0.841
31
1.000
0
LINE
8
Polyline
62
1
10
0.046
20
0.841
30
1.000
11
0.063
21
0.836
31
1.000
0
LINE
8
Polyline
62
1
10
0.063
20
0.836
30
1.000
11
0.008
21
0.834
31
1.000
0
LINE
8
Polyline
62
1
10
0.008
20
0.834
30
1.000
11
0.000
21
0.829
31
0.999
0
LINE
8
Polyline
62
1
10
0.000
20
0.829
30
0.999
11
0.001
21
0.839
31
1.000
0
LINE
8
Polyline
62
1
10
0.001
20
0.839
30
1.000
11
0.015
21
0.859
31
1.000
0
LINE
8
Polyline
62
1
10
0.015
20
0.859
30
1.000
11
0.023
21
0.858
31
1.000
0
LINE
8
Polyline
62
1
10
0.023
20
0.858
30
1.000
11
0.053
21
0.866
31
1.000
0
LINE
8
Polyline
62
1
10
0.053
20
0.866
30
1.000
11
0.040
21
0.871
31
1.000
0
LINE
8
Polyline
62
1
10
0.040
20
0.871
30
1.000
11
0.002
21
0.894
31
1.000
0
LINE
8
Polyline
62
1
10
0.002
20
0.894
30
1.000
11
0.021
21
0.898
31
1.000
0
LINE
8
Polyline
62
1
10
0.021
20
0.898
30
1.000
11
0.000
21
0.051
31
0.918
0
LINE
8
Polyline
62
1
10
0.000
20
0.051
30
0.918
11
0.000
21
0.014
31
0.971
0
LINE
8
Polyline
62
1
10
0.000
20
0.014
30
0.971
11
0.000
21
0.834
31
0.951
0
LINE
8
Polyline
62
1
10
0.000
20
0.834
30
0.951
11
0.000
21
0.847
31
0.977
0
LINE
8
Polyline
62
1
10
0.000
20
0.847
30
0.977
11
0.000
21
0.858
31
0.952
0
LINE
8
Polyline
62
1
10
0.000
20
0.858
30
0.952
11
0.000
21
0.894
31
0.986
0
LINE
8
Polyline
62
1
10
0.000
20
0.894
30
0.986
11
0.000
21
0.896
31
0.988
0
LINE
8
Polyline
62
1
10
0.000
20
0.896
30
0.988
11
0.000
21
0.900
31
0.993
0
LINE
8
Polyline
62
1
10
0.000
20
0.900
30
0.993
11
0.000
21
0.876
31
0.979
0
LINE
8
Polyline
62
1
10
0.000
20
0.876
30
0.979
11
0.000
21
0.884
31
0.969
0
LINE
8
Polyline
62
1
10
0.000
20
0.884
30
0.969
11
0.000
21
0.892
31
0.967
0
LINE
8
Polyline
62
1
10
0.000
20
0.892
30
0.967
11
0.018
21
0.925
31
1.000
0
LINE
8
Polyline
62
1
10
0.018
20
0.925
30
1.000
11
0.012
21
0.930
31
1.000
0
LINE
8
Polyline
62
1
10
0.012
20
0.930
30
1.000
11
0.000
21
0.045
31
0.891
0
LINE
8
Polyline
62
1
10
0.000
20
0.045
30
0.891
11
0.000
21
0.892
31
0.957
0
LINE
8
Polyline
62
1
10
0.000
20
0.892
30
0.957
11
0.000
21
0.901
31
0.958
0
LINE
8
Polyline
62
1
10
0.000
20
0.901
30
0.958
11
0.000
21
0.932
31
0.966
0
LINE
8
Polyline
62
1
10
0.000
20
0.932
30
0.966
11
0.008
21
0.945
31
1.000
0
LINE
8
Polyline
62
1
10
0.008
20
0.945
30
1.000
11
0.000
21
0.036
31
0.881
0
LINE
8
Polyline
62
1
10
0.000
20
0.036
30
0.881
11
0.000
21
0.032
31
0.895
0
LINE
8
Polyline
62
1
10
0.000
20
0.032
30
0.895
11
0.000
21
0.018
31
0.881
0
LINE
8
Polyline
62
1
10
0.000
20
0.018
30
0.881
11
0.000
21
0.016
31
0.906
0
LINE
8
Polyline
62
1
10
0.000
20
0.016
30
0.906
11
0.000
21
0.031
31
0.861
0
LINE
8
Polyline
62
1
10
0.000
20
0.031
30
0.861
11
0.000
21
0.029
31
0.855
0
LINE
8
Polyline
62
1
10
0.000
20
0.029
30
0.855
11
0.000
21
0.027
31
0.853
0
LINE
8
Polyline
62
1
10
0.000
20
0.027
30
0.853
11
0.000
21
0.012
31
0.864
0
LINE
8
Polyline
62
1
10
0.000
20
0.012
30
0.864
11
0.006
21
0.957
31
1.000
0
LINE
8
Polyline
62
1
10
0.006
20
0.957
30
1.000
11
0.000
21
0.957
31
0.999
0
LINE
8
Polyline
62
1
10
0.000
20
0.957
30
0.999
11
0.000
21
0.961
31
0.997
0
LINE
8
Polyline
62
1
10
0.000
20
0.961
30
0.997
11
0.035
21
0.953
31
1.000
0
LINE
8
Polyline
62
1
10
0.035
20
0.953
30
1.000
11
0.009
21
0.000
31
0.854
0
LINE
8
Polyline
62
1
10
0.009
20
0.000
30
0.854
11
0.000
21
0.013
31
0.802
0
LINE
8
Polyline
62
1
10
0.000
20
0.013
30
0.802
11
0.000
21
0.018
31
0.774
0
LINE
8
Polyline
62
1
10
0.000
20
0.018
30
0.774
11
0.001
21
0.000
31
0.925
0
LINE
8
Polyline
62
1
10
0.001
20
0.000
30
0.925
11
0.014
21
0.000
31
0.825
0
LINE
8
Polyline
62
1
10
0.014
20
0.000
30
0.825
11
0.008
21
0.000
31
0.910
0
LINE
8
Polyline
62
1
10
0.008
20
0.000
30
0.910
11
0.020
21
0.000
31
0.916
0
LINE
8
Polyline
62
1
10
0.020
20
0.000
30
0.916
11
0.028
21
0.000
31
0.839
0
LINE
8
Polyline
62
1
10
0.028
20
0.000
30
0.839
11
0.028
21
0.000
31
0.867
0
LINE
8
Polyline
62
1
10
0.028
20
0.000
30
0.867
11
0.000
21
0.001
31
0.679
0
LINE
8
Polyline
62
1
10
0.000
20
0.001
30
0.679
11
0.019
21
0.000
31
0.930
0
LINE
8
Polyline
62
1
10
0.019
20
0.000
30
0.930
11
0.036
21
0.000
31
0.801
0
LINE
8
Polyline
62
1
10
0.036
20
0.000
30
0.801
11
0.036
21
0.000
31
0.851
0
LINE
8
Polyline
62
1
10
0.036
20
0.000
30
0.851
11
0.027
21
0.000
31
0.901
0
LINE
8
Polyline
62
1
10
0.027
20
0.000
30
0.901
11
0.000
21
0.003
31
0.667
0
LINE
8
Polyline
62
1
10
0.000
20
0.003
30
0.667
11
0.016
21
0.000
31
0.665
0
LINE
8
Polyline
62
1
10
0.016
20
0.000
30
0.665
11
0.011
21
0.000
31
0.743
0
LINE
8
Polyline
62
1
10
0.011
20
0.000
30
0.743
11
0.000
21
0.003
31
0.603
0
LINE
8
Polyline
62
1
10
0.000
20
0.003
30
0.603
11
0.015
21
0.000
31
0.602
0
LINE
8
Polyline
62
1
10
0.015
20
0.000
30
0.602
11
0.000
21
0.009
31
0.594
0
LINE
8
Polyline
62
1
10
0.000
20
0.009
30
0.594
11
0.029
21
0.000
31
0.947
0
LINE
8
Polyline
62
1
10
0.029
20
0.000
30
0.947
11
0.049
21
0.000
31
0.740
0
LINE
8
Polyline
62
1
10
0.049
20
0.000
30
0.740
11
0.045
21
0.000
31
0.705
0
LINE
8
Polyline
62
1
10
0.045
20
0.000
30
0.705
11
0.042
21
0.000
31
0.916
0
LINE
8
Polyline
62
1
10
0.042
20
0.000
30
0.916
11
0.052
21
0.000
31
0.877
0
LINE
8
Polyline
62
1
10
0.052
20
0.000
30
0.877
11
0.055
21
0.000
31
0.941
0
LINE
8
Polyline
62
1
10
0.055
20
0.000
30
0.941
11
0.027
21
0.000
31
0.655
0
LINE
8
Polyline
62
1
10
0.027
20
0.000
30
0.655
11
0.023
21
0.000
31
0.685
0
LINE
8
Polyline
62
1
10
0.023
20
0.000
30
0.685
11
0.016
21
0.000
31
0.640
0
LINE
8
Polyline
62
1
10
0.016
20
0.000
30
0.640
11
0.017
21
0.000
31
0.636
0
LINE
8
Polyline
62
1
10
0.017
20
0.000
30
0.636
11
0.032
21
0.000
31
0.692
0
LINE
8
Polyline
62
1
10
0.032
20
0.000
30
0.692
11
0.022
21
0.000
31
0.629
0
LINE
8
Polyline
62
1
10
0.022
20
0.000
30
0.629
11
0.037
21
0.000
31
0.697
0
LINE
8
Polyline
62
1
10
0.037
20
0.000
30
0.697
11
0.000
21
0.017
31
0.602
0
LINE
8
Polyline
62
1
10
0.000
20
0.017
30
0.602
11
0.000
21
0.015
31
0.613
0
LINE
8
Polyline
62
1
10
0.000
20
0.015
30
0.613
11
0.000
21
0.006
31
0.563
0
LINE
8
Polyline
62
1
10
0.000
20
0.006
30
0.563
11
0.049
21
0.000
31
0.697
0
LINE
8
Polyline
62
1
10
0.049
20
0.000
30
0.697
11
0.034
21
0.000
31
0.617
0
LINE
8
Polyline
62
1
10
0.034
20
0.000
30
0.617
11
0.031
21
0.000
31
0.562
0
LINE
8
Polyline
62
1
10
0.031
20
0.000
30
0.562
11
0.000
21
0.036
31
0.577
0
LINE
8
Polyline
62
1
10
0.000
20
0.036
30
0.577
11
0.000
21
0.050
31
0.584
0
LINE
8
Polyline
62
1
10
0.000
20
0.050
30
0.584
11
0.007
21
0.000
31
0.546
0
LINE
8
Polyline
62
1
10
0.007
20
0.000
30
0.546
11
0.006
21
0.000
31
0.544
0
LINE
8
Polyline
62
1
10
0.006
20
0.000
30
0.544
11
0.017
21
0.000
31
0.496
0
LINE
8
Polyline
62
1
10
0.017
20
0.000
30
0.496
11
0.048
21
0.000
31
0.623
0
LINE
8
Polyline
62
1
10
0.048
20
0.000
30
0.623
11
0.055
21
0.000
31
0.608
0
LINE
8
Polyline
62
1
10
0.055
20
0.000
30
0.608
11
0.049
21
0.000
31
0.592
0
LINE
8
Polyline
62
1
10
0.049
20
0.000
30
0.592
11
0.056
21
0.000
31
0.599
0
LINE
8
Polyline
62
1
10
0.056
20
0.000
30
0.599
11
0.023
21
0.000
31
0.510
0
LINE
8
Polyline
62
1
10
0.023
20
0.000
30
0.510
11
0.000
21
0.037
31
0.567
0
LINE
8
Polyline
62
1
10
0.000
20
0.037
30
0.567
11
0.000
21
0.048
31
0.595
0
LINE
8
Polyline
62
1
10
0.000
20
0.048
30
0.595
11
0.000
21
0.014
31
0.494
0
LINE
8
Polyline
62
1
10
0.000
20
0.014
30
0.494
11
0.000
21
0.042
31
0.672
0
LINE
8
Polyline
62
1
10
0.000
20
0.042
30
0.672
11
0.003
21
0.000
31
0.447
0
LINE
8
Polyline
62
1
10
0.003
20
0.000
30
0.447
11
0.014
21
0.000
31
0.442
0
LINE
8
Polyline
62
1
10
0.014
20
0.000
30
0.442
11
0.029
21
0.000
31
0.419
0
LINE
8
Polyline
62
1
10
0.029
20
0.000
30
0.419
11
0.048
21
0.000
31
0.449
0
LINE
8
Polyline
62
1
10
0.048
20
0.000
30
0.449
11
0.056
21
0.000
31
0.448
0
LINE
8
Polyline
62
1
10
0.056
20
0.000
30
0.448
11
0.000
21
0.027
31
0.480
0
LINE
8
Polyline
62
1
10
0.000
20
0.027
30
0.480
11
0.000
21
0.027
31
0.478
0
LINE
8
Polyline
62
1
10
0.000
20
0.027
30
0.478
11
0.000
21
0.006
31
0.479
0
LINE
8
Polyline
62
1
10
0.000
20
0.006
30
0.479
11
0.000
21
0.021
31
0.468
0
LINE
8
Polyline
62
1
10
0.000
20
0.021
30
0.468
11
0.000
21
0.036
31
0.467
0
LINE
8
Polyline
62
1
10
0.000
20
0.036
30
0.467
11
0.000
21
0.023
31
0.459
0
LINE
8
Polyline
62
1
10
0.000
20
0.023
30
0.459
11
0.000
21
0.001
31
0.460
0
LINE
8
Polyline
62
1
10
0.000
20
0.001
30
0.460
11
0.000
21
0.035
31
0.453
0
LINE
8
Polyline
62
1
10
0.000
20
0.035
30
0.453
11
0.000
21
0.036
31
0.415
0
LINE
8
Polyline
62
1
10
0.000
20
0.036
30
0.415
11
0.000
21
0.041
31
0.414
0
LINE
8
Polyline
62
1
10
0.000
20
0.041
30
0.414
11
0.000
21
0.024
31
0.680
0
LINE
8
Polyline
62
1
10
0.000
20
0.024
30
0.680
11
0.000
21
0.018
31
0.679
0
LINE
8
Polyline
62
1
10
0.000
20
0.018
30
0.679
11
0.000
21
0.001
31
0.457
0
LINE
8
Polyline
62
1
10
0.000
20
0.001
30
0.457
11
0.010
21
0.000
31
0.477
0
LINE
8
Polyline
62
1
10
0.010
20
0.000
30
0.477
11
0.006
21
0.000
31
0.391
0
LINE
8
Polyline
62
1
10
0.006
20
0.000
30
0.391
11
0.020
21
0.000
31
0.355
0
LINE
8
Polyline
62
1
10
0.020
20
0.000
30
0.355
11
0.027
21
0.000
31
0.391
0
LINE
8
Polyline
62
1
10
0.027
20
0.000
30
0.391
11
0.032
21
0.000
31
0.385
0
LINE
8
Polyline
62
1
10
0.032
20
0.000
30
0.385
11
0.036
21
0.000
31
0.412
0
LINE
8
Polyline
62
1
10
0.036
20
0.000
30
0.412
11
0.023
21
0.000
31
0.343
0
LINE
8
Polyline
62
1
10
0.023
20
0.000
30
0.343
11
0.000
21
0.052
31
0.466
0
LINE
8
Polyline
62
1
10
0.000
20
0.052
30
0.466
11
0.000
21
0.049
31
0.444
0
LINE
8
Polyline
62
1
10
0.000
20
0.049
30
0.444
11
0.000
21
0.049
31
0.425
0
LINE
8
Polyline
62
1
10
0.000
20
0.049
30
0.425
11
0.000
21
0.020
31
0.394
0
LINE
8
Polyline
62
1
10
0.000
20
0.020
30
0.394
11
0.000
21
0.024
31
0.375
0
LINE
8
Polyline
62
1
10
0.000
20
0.024
30
0.375
11
0.000
21
0.015
31
0.372
0
LINE
8
Polyline
62
1
10
0.000
20
0.015
30
0.372
11
0.000
21
0.019
31
0.367
0
LINE
8
Polyline
62
1
10
0.000
20
0.019
30
0.367
11
0.000
21
0.032
31
0.337
0
LINE
8
Polyline
62
1
10
0.000
20
0.032
30
0.337
11
0.026
21
0.000
31
0.312
0
LINE
8
Polyline
62
1
10
0.026
20
0.000
30
0.312
11
0.000
21
0.006
31
0.279
0
LINE
8
Polyline
62
1
10
0.000
20
0.006
30
0.279
11
0.046
21
0.000
31
0.320
0
LINE
8
Polyline
62
1
10
0.046
20
0.000
30
0.320
11
0.029
21
0.000
31
0.296
0
LINE
8
Polyline
62
1
10
0.029
20
0.000
30
0.296
11
0.000
21
0.005
31
0.261
0
LINE
8
Polyline
62
1
10
0.000
20
0.005
30
0.261
11
0.000
21
0.017
31
0.312
0
LINE
8
Polyline
62
1
10
0.000
20
0.017
30
0.312
11
0.000
21
0.012
31
0.293
0
LINE
8
Polyline
62
1
10
0.000
20
0.012
30
0.293
11
0.000
21
0.039
31
0.312
0
LINE
8
Polyline
62
1
10
0.000
20
0.039
30
0.312
11
0.000
21
0.046
31
0.315
0
LINE
8
Polyline
62
1
10
0.000
20
0.046
30
0.315
11
0.000
21
0.041
31
0.310
0
LINE
8
Polyline
62
1
10
0.000
20
0.041
30
0.310
11
0.000
21
0.048
31
0.309
0
LINE
8
Polyline
62
1
10
0.000
20
0.048
30
0.309
11
0.000
21
0.046
31
0.288
0
LINE
8
Polyline
62
1
10
0.000
20
0.046
30
0.288
11
0.000
21
0.034
31
0.272
0
LINE
8
Polyline
62
1
10
0.000
20
0.034
30
0.272
11
0.000
21
0.044
31
0.242
0
LINE
8
Polyline
62
1
10
0.000
20
0.044
30
0.242
11
0.014
21
0.000
31
0.241
0
LINE
8
Polyline
62
1
10
0.014
20
0.000
30
0.241
11
0.019
21
0.000
31
0.226
0
LINE
8
Polyline
62
1
10
0.019
20
0.000
30
0.226
11
0.000
21
0.015
31
0.240
0
LINE
8
Polyline
62
1
10
0.000
20
0.015
30
0.240
11
0.000
21
0.002
31
0.198
0
LINE
8
Polyline
62
1
10
0.000
20
0.002
30
0.198
11
0.000
21
0.010
31
0.191
0
LINE
8
Polyline
62
1
10
0.000
20
0.010
30
0.191
11
0.045
21
0.000
31
0.275
0
LINE
8
Polyline
62
1
10
0.045
20
0.000
30
0.275
11
0.000
21
0.046
31
0.237
0
LINE
8
Polyline
62
1
10
0.000
20
0.046
30
0.237
11
0.000
21
0.029
31
0.198
0
LINE
8
Polyline
62
1
10
0.000
20
0.029
30
0.198
11
0.000
21
0.054
31
0.180
0
LINE
8
Polyline
62
1
10
0.000
20
0.054
30
0.180
11
0.000
21
0.050
31
0.177
0
LINE
8
Polyline
62
1
10
0.000
20
0.050
30
0.177
11
0.015
21
0.000
31
0.200
0
LINE
8
Polyline
62
1
10
0.015
20
0.000
30
0.200
11
0.020
21
0.000
31
0.199
0
LINE
8
Polyline
62
1
10
0.020
20
0.000
30
0.199
11
0.048
21
0.000
31
0.211
0
LINE
8
Polyline
62
1
10
0.048
20
0.000
30
0.211
11
0.034
21
0.000
31
0.184
0
LINE
8
Polyline
62
1
10
0.034
20
0.000
30
0.184
11
0.043
21
0.000
31
0.188
0
LINE
8
Polyline
62
1
10
0.043
20
0.000
30
0.188
11
0.037
21
0.000
31
0.171
0
LINE
8
Polyline
62
1
10
0.037
20
0.000
30
0.171
11
0.013
21
0.000
31
0.159
0
LINE
8
Polyline
62
1
10
0.013
20
0.000
30
0.159
11
0.049
21
0.000
31
0.154
0
LINE
8
Polyline
62
1
10
0.049
20
0.000
30
0.154
11
0.049
21
0.000
31
0.143
0
LINE
8
Polyline
62
1
10
0.049
20
0.000
30
0.143
11
0.000
21
0.005
31
0.158
0
LINE
8
Polyline
62
1
10
0.000
20
0.005
30
0.158
11
0.020
21
0.000
31
0.120
0
LINE
8
Polyline
62
1
10
0.020
20
0.000
30
0.120
11
0.030
21
0.000
31
0.111
0
LINE
8
Polyline
62
1
10
0.030
20
0.000
30
0.111
11
0.014
21
0.000
31
0.102
0
LINE
8
Polyline
62
1
10
0.014
20
0.000
30
0.102
11
0.000
21
0.004
31
0.097
0
LINE
8
Polyline
62
1
10
0.000
20
0.004
30
0.097
11
0.000
21
0.009
31
0.127
0
LINE
8
Polyline
62
1
10
0.000
20
0.009
30
0.127
11
0.000
21
0.036
31
0.137
0
LINE
8
Polyline
62
1
10
0.000
20
0.036
30
0.137
11
0.000
21
0.041
31
0.113
0
LINE
8
Polyline
62
1
10
0.000
20
0.041
30
0.113
11
0.027
21
0.000
31
0.093
0
LINE
8
Polyline
62
1
10
0.027
20
0.000
30
0.093
11
0.035
21
0.000
31
0.088
0
LINE
8
Polyline
62
1
10
0.035
20
0.000
30
0.088
11
0.005
21
0.000
31
0.085
0
LINE
8
Polyline
62
1
10
0.005
20
0.000
30
0.085
11
0.049
21
0.000
31
0.081
0
LINE
8
Polyline
62
1
10
0.049
20
0.000
30
0.081
11
0.035
21
0.000
31
0.078
0
LINE
8
Polyline
62
1
10
0.035
20
0.000
30
0.078
11
0.042
21
0.000
31
0.074
0
LINE
8
Polyline
62
1
10
0.042
20
0.000
30
0.074
11
0.036
21
0.000
31
0.068
0
LINE
8
Polyline
62
1
10
0.036
20
0.000
30
0.068
11
0.000
21
0.062
31
0.066
0
LINE
8
Polyline
62
1
10
0.000
20
0.062
30
0.066
11
0.000
21
0.067
31
0.049
0
ENDSEC
0
EOF
