0
SECTION
2
HEADER
9
$ACADVER
1
AC1006
0
ENDSEC
0
SECTION
2
TABLES
0
TABLE
2
LAYER
70
0
0
LAYER
2
Polyline
70
0
62
1
6
CONTINUOUS
0
ENDTAB
0
ENDSEC
0
SECTION
2
ENTITIES
0
LINE
8
Polyline
62
1
10
0.000
20
0.876
30
0.273
11
1.000
21
0.181
31
0.575
0
LINE
8
Polyline
62
1
10
1.000
20
0.181
30
0.575
11
0.000
21
0.559
31
0.257
0
LINE
8
Polyline
62
1
10
0.000
20
0.559
30
0.257
11
1.000
21
0.626
31
0.115
0
LINE
8
Polyline
62
1
10
1.000
20
0.626
30
0.115
11
0.000
21
0.290
31
0.627
0
LINE
8
Polyline
62
1
10
0.000
20
0.290
30
0.627
11
1.000
21
0.765
31
0.713
0
LINE
8
Polyline
62
1
10
1.000
20
0.765
30
0.713
11
0.000
21
0.414
31
0.774
0
LINE
8
Polyline
62
1
10
0.000
20
0.414
30
0.774
11
0.000
21
0.578
31
0.289
0
LINE
8
Polyline
62
1
10
0.000
20
0.578
30
0.289
11
0.000
21
0.796
31
0.879
0
LINE
8
Polyline
62
1
10
0.000
20
0.796
30
0.879
11
0.000
21
0.214
31
0.180
0
LINE
8
Polyline
62
1
10
0.000
20
0.214
30
0.180
11
1.000
21
0.869
31
0.246
0
LINE
8
Polyline
62
1
10
1.000
20
0.869
30
0.246
11
1.000
21
0.859
31
0.076
0
LINE
8
Polyline
62
1
10
1.000
20
0.859
30
0.076
11
1.000
21
0.738
31
0.812
0
LINE
8
Polyline
62
1
10
1.000
20
0.738
30
0.812
11
0.000
21
0.575
31
0.936
0
LINE
8
Polyline
62
1
10
0.000
20
0.575
30
0.936
11
0.000
21
0.577
31
0.133
0
LINE
8
Polyline
62
1
10
0.000
20
0.577
30
0.133
11
0.000
21
0.641
31
0.782
0
LINE
8
Polyline
62
1
10
0.000
20
0.641
30
0.782
11
0.000
21
0.662
31
0.903
0
LINE
8
Polyline
62
1
10
0.000
20
0.662
30
0.903
11
0.000
21
0.171
31
0.856
0
LINE
8
Polyline
62
1
10
0.000
20
0.171
30
0.856
11
0.000
21
0.463
31
0.537
0
LINE
8
Polyline
62
1
10
0.000
20
0.463
30
0.537
11
0.000
21
0.275
31
0.524
0
LINE
8
Polyline
62
1
10
0.000
20
0.275
30
0.524
11
0.000
21
0.285
31
0.447
0
LINE
8
Polyline
62
1
10
0.000
20
0.285
30
0.447
11
1.000
21
0.611
31
0.672
0
LINE
8
Polyline
62
1
10
1.000
20
0.611
30
0.672
11
0.000
21
0.831
31
0.403
0
LINE
8
Polyline
62
1
10
0.000
20
0.831
30
0.403
11
0.000
21
0.690
31
0.867
0
LINE
8
Polyline
62
1
10
0.000
20
0.690
30
0.867
11
0.000
21
0.151
31
0.817
0
LINE
8
Polyline
62
1
10
0.000
20
0.151
30
0.817
11
1.000
21
0.366
31
0.802
0
LINE
8
Polyline
62
1
10
1.000
20
0.366
30
0.802
11
0.000
21
0.940
31
0.851
0
LINE
8
Polyline
62
1
10
0.000
20
0.940
30
0.851
11
0.000
21
0.760
31
0.268
0
LINE
8
Polyline
62
1
10
0.000
20
0.760
30
0.268
11
0.000
21
0.782
31
0.816
0
LINE
8
Polyline
62
1
10
0.000
20
0.782
30
0.816
11
0.000
21
0.219
31
0.791
0
LINE
8
Polyline
62
1
10
0.000
20
0.219
30
0.791
11
0.000
21
0.228
31
0.717
0
LINE
8
Polyline
62
1
10
0.000
20
0.228
30
0.717
11
1.000
21
0.658
31
0.284
0
LINE
8
Polyline
62
1
10
1.000
20
0.658
30
0.284
11
0.000
21
0.822
31
0.166
0
LINE
8
Polyline
62
1
10
0.000
20
0.822
30
0.166
11
0.000
21
0.749
31
0.659
0
LINE
8
Polyline
62
1
10
0.000
20
0.749
30
0.659
11
1.000
21
0.717
31
0.579
0
LINE
8
Polyline
62
1
10
1.000
20
0.717
30
0.579
11
0.000
21
0.245
31
0.712
0
LINE
8
Polyline
62
1
10
0.000
20
0.245
30
0.712
11
0.000
21
0.082
31
0.618
0
LINE
8
Polyline
62
1
10
0.000
20
0.082
30
0.618
11
1.000
21
0.888
31
0.825
0
LINE
8
Polyline
62
1
10
1.000
20
0.888
30
0.825
11
0.000
21
0.250
31
0.121
0
LINE
8
Polyline
62
1
10
0.000
20
0.250
30
0.121
11
1.000
21
0.472
31
0.155
0
LINE
8
Polyline
62
1
10
1.000
20
0.472
30
0.155
11
1.000
21
0.078
31
0.274
0
LINE
8
Polyline
62
1
10
1.000
20
0.078
30
0.274
11
1.000
21
0.638
31
0.602
0
LINE
8
Polyline
62
1
10
1.000
20
0.638
30
0.602
11
1.000
21
0.520
31
0.361
0
LINE
8
Polyline
62
1
10
1.000
20
0.520
30
0.361
11
0.000
21
0.592
31
0.863
0
LINE
8
Polyline
62
1
10
0.000
20
0.592
30
0.863
11
1.000
21
0.796
31
0.050
0
LINE
8
Polyline
62
1
10
1.000
20
0.796
30
0.050
11
0.000
21
0.860
31
0.715
0
LINE
8
Polyline
62
1
10
0.000
20
0.860
30
0.715
11
0.000
21
0.784
31
0.439
0
LINE
8
Polyline
62
1
10
0.000
20
0.784
30
0.439
11
1.000
21
0.089
31
0.311
0
LINE
8
Polyline
62
1
10
1.000
20
0.089
30
0.311
11
0.000
21
0.909
31
0.849
0
LINE
8
Polyline
62
1
10
0.000
20
0.909
30
0.849
11
0.000
21
0.295
31
0.796
0
LINE
8
Polyline
62
1
10
0.000
20
0.295
30
0.796
11
1.000
21
0.653
31
0.832
0
LINE
8
Polyline
62
1
10
1.000
20
0.653
30
0.832
11
1.000
21
0.296
31
0.870
0
LINE
8
Polyline
62
1
10
1.000
20
0.296
30
0.870
11
0.000
21
0.864
31
0.093
0
LINE
8
Polyline
62
1
10
0.000
20
0.864
30
0.093
11
0.000
21
0.165
31
0.287
0
LINE
8
Polyline
62
1
10
0.000
20
0.165
30
0.287
11
0.000
21
0.842
31
0.855
0
LINE
8
Polyline
62
1
10
0.000
20
0.842
30
0.855
11
1.000
21
0.351
31
0.892
0
LINE
8
Polyline
62
1
10
1.000
20
0.351
30
0.892
11
0.000
21
0.848
31
0.432
0
LINE
8
Polyline
62
1
10
0.000
20
0.848
30
0.432
11
1.000
21
0.535
31
0.518
0
LINE
8
Polyline
62
1
10
1.000
20
0.535
30
0.518
11
1.000
21
0.442
31
0.380
0
LINE
8
Polyline
62
1
10
1.000
20
0.442
30
0.380
11
0.000
21
0.576
31
0.477
0
LINE
8
Polyline
62
1
10
0.000
20
0.576
30
0.477
11
1.000
21
0.581
31
0.441
0
LINE
8
Polyline
62
1
10
1.000
20
0.581
30
0.441
11
1.000
21
0.420
31
0.273
0
LINE
8
Polyline
62
1
10
1.000
20
0.420
30
0.273
11
0.000
21
0.706
31
0.241
0
LINE
8
Polyline
62
1
10
0.000
20
0.706
30
0.241
11
1.000
21
0.767
31
0.914
0
LINE
8
Polyline
62
1
10
1.000
20
0.767
30
0.914
11
1.000
21
0.411
31
0.713
0
LINE
8
Polyline
62
1
10
1.000
20
0.411
30
0.713
11
0.000
21
0.893
31
0.146
0
LINE
8
Polyline
62
1
10
0.000
20
0.893
30
0.146
11
0.000
21
0.129
31
0.380
0
LINE
8
Polyline
62
1
10
0.000
20
0.129
30
0.380
11
0.000
21
0.637
31
0.133
0
LINE
8
Polyline
62
1
10
0.000
20
0.637
30
0.133
11
1.000
21
0.812
31
0.796
0
LINE
8
Polyline
62
1
10
1.000
20
0.812
30
0.796
11
0.000
21
0.569
31
0.413
0
LINE
8
Polyline
62
1
10
0.000
20
0.569
30
0.413
11
0.000
21
0.576
31
0.088
0
LINE
8
Polyline
62
1
10
0.000
20
0.576
30
0.088
11
0.000
21
0.167
31
0.255
0
LINE
8
Polyline
62
1
10
0.000
20
0.167
30
0.255
11
0.000
21
0.516
31
0.523
0
LINE
8
Polyline
62
1
10
0.000
20
0.516
30
0.523
11
1.000
21
0.702
31
0.446
0
LINE
8
Polyline
62
1
10
1.000
20
0.702
30
0.446
11
0.000
21
0.952
31
0.779
0
LINE
8
Polyline
62
1
10
0.000
20
0.952
30
0.779
11
1.000
21
0.346
31
0.299
0
LINE
8
Polyline
62
1
10
1.000
20
0.346
30
0.299
11
0.000
21
0.940
31
0.415
0
LINE
8
Polyline
62
1
10
0.000
20
0.940
30
0.415
11
1.000
21
0.237
31
0.110
0
LINE
8
Polyline
62
1
10
1.000
20
0.237
30
0.110
11
1.000
21
0.088
31
0.711
0
LINE
8
Polyline
62
1
10
1.000
20
0.088
30
0.711
11
0.000
21
0.382
31
0.637
0
LINE
8
Polyline
62
1
10
0.000
20
0.382
30
0.637
11
0.000
21
0.897
31
0.443
0
LINE
8
Polyline
62
1
10
0.000
20
0.897
30
0.443
11
0.000
21
0.212
31
0.576
0
LINE
8
Polyline
62
1
10
0.000
20
0.212
30
0.576
11
1.000
21
0.150
31
0.490
0
LINE
8
Polyline
62
1
10
1.000
20
0.150
30
0.490
11
0.000
21
0.186
31
0.641
0
LINE
8
Polyline
62
1
10
0.000
20
0.186
30
0.641
11
0.000
21
0.457
31
0.351
0
LINE
8
Polyline
62
1
10
0.000
20
0.457
30
0.351
11
1.000
21
0.576
31
0.258
0
LINE
8
Polyline
62
1
10
1.000
20
0.576
30
0.258
11
0.000
21
0.520
31
0.632
0
LINE
8
Polyline
62
1
10
0.000
20
0.520
30
0.632
11
1.000
21
0.128
31
0.764
0
LINE
8
Polyline
62
1
10
1.000
20
0.128
30
0.764
11
1.000
21
0.115
31
0.264
0
LINE
8
Polyline
62
1
10
1.000
20
0.115
30
0.264
11
1.000
21
0.124
31
0.600
0
LINE
8
Polyline
62
1
10
1.000
20
0.124
30
0.600
11
0.000
21
0.521
31
0.515
0
LINE
8
Polyline
62
1
10
0.000
20
0.521
30
0.515
11
0.000
21
0.600
31
0.078
0
LINE
8
Polyline
62
1
10
0.000
20
0.600
30
0.078
11
0.000
21
0.597
31
0.830
0
LINE
8
Polyline
62
1
10
0.000
20
0.597
30
0.830
11
0.000
21
0.792
31
0.672
0
LINE
8
Polyline
62
1
10
0.000
20
0.792
30
0.672
11
1.000
21
0.155
31
0.625
0
LINE
8
Polyline
62
1
10
1.000
20
0.155
30
0.625
11
0.000
21
0.710
31
0.316
0
LINE
8
Polyline
62
1
10
0.000
20
0.710
30
0.316
11
0.000
21
0.458
31
0.119
0
LINE
8
Polyline
62
1
10
0.000
20
0.458
30
0.119
11
0.000
21
0.833
31
0.167
0
LINE
8
Polyline
62
1
10
0.000
20
0.833
30
0.167
11
1.000
21
0.863
31
0.846
0
LINE
8
Polyline
62
1
10
1.000
20
0.863
30
0.846
11
1.000
21
0.932
31
0.438
0
LINE
8
Polyline
62
1
10
1.000
20
0.932
30
0.438
11
1.000
21
0.639
31
0.504
0
LINE
8
Polyline
62
1
10
1.000
20
0.639
30
0.504
11
0.000
21
0.414
31
0.318
0
LINE
8
Polyline
62
1
10
0.000
20
0.414
30
0.318
11
1.000
21
0.273
31
0.347
0
LINE
8
Polyline
62
1
10
1.000
20
0.273
30
0.347
11
0.000
21
0.377
31
0.562
0
LINE
8
Polyline
62
1
10
0.000
20
0.377
30
0.562
11
1.000
21
0.667
31
0.855
0
LINE
8
Polyline
62
1
10
1.000
20
0.667
30
0.855
11
1.000
21
0.475
31
0.654
0
LINE
8
Polyline
62
1
10
1.000
20
0.475
30
0.654
11
0.000
21
0.076
31
0.356
0
LINE
8
Polyline
62
1
10
0.000
20
0.076
30
0.356
11
0.000
21
0.444
31
0.560
0
LINE
8
Polyline
62
1
10
0.000
20
0.444
30
0.560
11
0.000
21
0.370
31
0.355
0
LINE
8
Polyline
62
1
10
0.000
20
0.370
30
0.355
11
0.000
21
0.419
31
0.673
0
LINE
8
Polyline
62
1
10
0.000
20
0.419
30
0.673
11
1.000
21
0.833
31
0.836
0
LINE
8
Polyline
62
1
10
1.000
20
0.833
30
0.836
11
1.000
21
0.405
31
0.198
0
LINE
8
Polyline
62
1
10
1.000
20
0.405
30
0.198
11
1.000
21
0.095
31
0.777
0
LINE
8
Polyline
62
1
10
1.000
20
0.095
30
0.777
11
1.000
21
0.403
31
0.528
0
LINE
8
Polyline
62
1
10
1.000
20
0.403
30
0.528
11
0.000
21
0.490
31
0.598
0
LINE
8
Polyline
62
1
10
0.000
20
0.490
30
0.598
11
0.000
21
0.738
31
0.421
0
LINE
8
Polyline
62
1
10
0.000
20
0.738
30
0.421
11
0.000
21
0.675
31
0.393
0
LINE
8
Polyline
62
1
10
0.000
20
0.675
30
0.393
11
0.000
21
0.730
31
0.715
0
LINE
8
Polyline
62
1
10
0.000
20
0.730
30
0.715
11
0.000
21
0.874
31
0.244
0
LINE
8
Polyline
62
1
10
0.000
20
0.874
30
0.244
11
0.000
21
0.616
31
0.319
0
LINE
8
Polyline
62
1
10
0.000
20
0.616
30
0.319
11
0.000
21
0.600
31
0.635
0
LINE
8
Polyline
62
1
10
0.000
20
0.600
30
0.635
11
0.000
21
0.858
31
0.518
0
LINE
8
Polyline
62
1
10
0.000
20
0.858
30
0.518
11
0.000
21
0.494
31
0.788
0
LINE
8
Polyline
62
1
10
0.000
20
0.494
30
0.788
11
1.000
21
0.857
31
0.303
0
LINE
8
Polyline
62
1
10
1.000
20
0.857
30
0.303
11
0.000
21
0.421
31
0.468
0
LINE
8
Polyline
62
1
10
0.000
20
0.421
30
0.468
11
1.000
21
0.923
31
0.265
0
LINE
8
Polyline
62
1
10
1.000
20
0.923
30
0.265
11
0.000
21
0.339
31
0.244
0
LINE
8
Polyline
62
1
10
0.000
20
0.339
30
0.244
11
0.000
21
0.296
31
0.825
0
LINE
8
Polyline
62
1
10
0.000
20
0.296
30
0.825
11
0.000
21
0.208
31
0.747
0
LINE
8
Polyline
62
1
10
0.000
20
0.208
30
0.747
11
0.000
21
0.466
31
0.596
0
LINE
8
Polyline
62
1
10
0.000
20
0.466
30
0.596
11
1.000
21
0.902
31
0.271
0
LINE
8
Polyline
62
1
10
1.000
20
0.902
30
0.271
11
0.000
21
0.111
31
0.486
0
LINE
8
Polyline
62
1
10
0.000
20
0.111
30
0.486
11
1.000
21
0.744
31
0.517
0
LINE
8
Polyline
62
1
10
1.000
20
0.744
30
0.517
11
1.000
21
0.669
31
0.843
0
LINE
8
Polyline
62
1
10
1.000
20
0.669
30
0.843
11
1.000
21
0.104
31
0.066
0
LINE
8
Polyline
62
1
10
1.000
20
0.104
30
0.066
11
0.000
21
0.770
31
0.652
0
LINE
8
Polyline
62
1
10
0.000
20
0.770
30
0.652
11
0.000
21
0.276
31
0.822
0
LINE
8
Polyline
62
1
10
0.000
20
0.276
30
0.822
11
0.000
21
0.892
31
0.957
0
LINE
8
Polyline
62
1
10
0.000
20
0.892
30
0.957
11
0.000
21
0.633
31
0.070
0
LINE
8
Polyline
62
1
10
0.000
20
0.633
30
0.070
11
0.000
21
0.779
31
0.402
0
LINE
8
Polyline
62
1
10
0.000
20
0.779
30
0.402
11
0.000
21
0.358
31
0.229
0
LINE
8
Polyline
62
1
10
0.000
20
0.358
30
0.229
11
1.000
21
0.402
31
0.060
0
LINE
8
Polyline
62
1
10
1.000
20
0.402
30
0.060
11
1.000
21
0.686
31
0.254
0
LINE
8
Polyline
62
1
10
1.000
20
0.686
30
0.254
11
1.000
21
0.467
31
0.592
0
LINE
8
Polyline
62
1
10
1.000
20
0.467
30
0.592
11
0.000
21
0.888
31
0.724
0
LINE
8
Polyline
62
1
10
0.000
20
0.888
30
0.724
11
0.000
21
0.766
31
0.175
0
LINE
8
Polyline
62
1
10
0.000
20
0.766
30
0.175
11
1.000
21
0.772
31
0.035
0
LINE
8
Polyline
62
1
10
1.000
20
0.772
30
0.035
11
1.000
21
0.380
31
0.727
0
LINE
8
Polyline
62
1
10
1.000
20
0.380
30
0.727
11
1.000
21
0.203
31
0.145
0
LINE
8
Polyline
62
1
10
1.000
20
0.203
30
0.145
11
0.000
21
0.310
31
0.310
0
LINE
8
Polyline
62
1
10
0.000
20
0.310
30
0.310
11
0.000
21
0.665
31
0.310
0
LINE
8
Polyline
62
1
10
0.000
20
0.665
30
0.310
11
1.000
21
0.297
31
0.165
0
LINE
8
Polyline
62
1
10
1.000
20
0.297
30
0.165
11
0.000
21
0.652
31
0.610
0
LINE
8
Polyline
62
1
10
0.000
20
0.652
30
0.610
11
0.000
21
0.895
31
0.467
0
LINE
8
Polyline
62
1
10
0.000
20
0.895
30
0.467
11
1.000
21
0.142
31
0.291
0
LINE
8
Polyline
62
1
10
1.000
20
0.142
30
0.291
11
0.000
21
0.361
31
0.141
0
LINE
8
Polyline
62
1
10
0.000
20
0.361
30
0.141
11
0.000
21
0.904
31
0.903
0
LINE
8
Polyline
62
1
10
0.000
20
0.904
30
0.903
11
1.000
21
0.921
31
0.295
0
LINE
8
Polyline
62
1
10
1.000
20
0.921
30
0.295
11
1.000
21
0.158
31
0.647
0
LINE
8
Polyline
62
1
10
1.000
20
0.158
30
0.647
11
1.000
21
0.592
31
0.896
0
LINE
8
Polyline
62
1
10
1.000
20
0.592
30
0.896
11
1.000
21
0.704
31
0.606
0
LINE
8
Polyline
62
1
10
1.000
20
0.704
30
0.606
11
0.000
21
0.129
31
0.568
0
LINE
8
Polyline
62
1
10
0.000
20
0.129
30
0.568
11
0.000
21
0.370
31
0.838
0
LINE
8
Polyline
62
1
10
0.000
20
0.370
30
0.838
11
1.000
21
0.350
31
0.713
0
LINE
8
Polyline
62
1
10
1.000
20
0.350
30
0.713
11
0.000
21
0.538
31
0.561
0
LINE
8
Polyline
62
1
10
0.000
20
0.538
30
0.561
11
1.000
21
0.383
31
0.197
0
LINE
8
Polyline
62
1
10
1.000
20
0.383
30
0.197
11
0.000
21
0.080
31
0.332
0
LINE
8
Polyline
62
1
10
0.000
20
0.080
30
0.332
11
1.000
21
0.618
31
0.380
0
LINE
8
Polyline
62
1
10
1.000
20
0.618
30
0.380
11
1.000
21
0.129
31
0.644
0
LINE
8
Polyline
62
1
10
1.000
20
0.129
30
0.644
11
1.000
21
0.204
31
0.358
0
LINE
8
Polyline
62
1
10
1.000
20
0.204
30
0.358
11
1.000
21
0.589
31
0.689
0
LINE
8
Polyline
62
1
10
1.000
20
0.589
30
0.689
11
0.000
21
0.816
31
0.508
0
LINE
8
Polyline
62
1
10
0.000
20
0.816
30
0.508
11
0.000
21
0.700
31
0.267
0
LINE
8
Polyline
62
1
10
0.000
20
0.700
30
0.267
11
0.000
21
0.712
31
0.328
0
LINE
8
Polyline
62
1
10
0.000
20
0.712
30
0.328
11
0.000
21
0.830
31
0.302
0
LINE
8
Polyline
62
1
10
0.000
20
0.830
30
0.302
11
0.000
21
0.561
31
0.369
0
LINE
8
Polyline
62
1
10
0.000
20
0.561
30
0.369
11
0.000
21
0.482
31
0.392
0
LINE
8
Polyline
62
1
10
0.000
20
0.482
30
0.392
11
1.000
21
0.582
31
0.610
0
LINE
8
Polyline
62
1
10
1.000
20
0.582
30
0.610
11
1.000
21
0.911
31
0.916
0
LINE
8
Polyline
62
1
10
1.000
20
0.911
30
0.916
11
1.000
21
0.564
31
0.073
0
LINE
8
Polyline
62
1
10
1.000
20
0.564
30
0.073
11
1.000
21
0.374
31
0.809
0
LINE
8
Polyline
62
1
10
1.000
20
0.374
30
0.809
11
0.000
21
0.311
31
0.068
0
LINE
8
Polyline
62
1
10
0.000
20
0.311
30
0.068
11
0.000
21
0.243
31
0.108
0
LINE
8
Polyline
62
1
10
0.000
20
0.243
30
0.108
11
1.000
21
0.831
31
0.378
0
LINE
8
Polyline
62
1
10
1.000
20
0.831
30
0.378
11
0.000
21
0.230
31
0.766
0
LINE
8
Polyline
62
1
10
0.000
20
0.230
30
0.766
11
0.000
21
0.648
31
0.165
0
LINE
8
Polyline
62
1
10
0.000
20
0.648
30
0.165
11
1.000
21
0.364
31
0.297
0
LINE
8
Polyline
62
1
10
1.000
20
0.364
30
0.297
11
0.000
21
0.641
31
0.934
0
LINE
8
Polyline
62
1
10
0.000
20
0.641
30
0.934
11
0.000
21
0.561
31
0.175
0
LINE
8
Polyline
62
1
10
0.000
20
0.561
30
0.175
11
1.000
21
0.101
31
0.636
0
LINE
8
Polyline
62
1
10
1.000
20
0.101
30
0.636
11
0.000
21
0.774
31
0.737
0
LINE
8
Polyline
62
1
10
0.000
20
0.774
30
0.737
11
1.000
21
0.336
31
0.219
0
LINE
8
Polyline
62
1
10
1.000
20
0.336
30
0.219
11
1.000
21
0.370
31
0.535
0
LINE
8
Polyline
62
1
10
1.000
20
0.370
30
0.535
11
0.000
21
0.386
31
0.189
0
LINE
8
Polyline
62
1
10
0.000
20
0.386
30
0.189
11
1.000
21
0.492
31
0.443
0
LINE
8
Polyline
62
1
10
1.000
20
0.492
30
0.443
11
0.000
21
0.245
31
0.876
0
LINE
8
Polyline
62
1
10
0.000
20
0.245
30
0.876
11
1.000
21
0.063
31
0.498
0
LINE
8
Polyline
62
1
10
1.000
20
0.063
30
0.498
11
0.000
21
0.165
31
0.783
0
LINE
8
Polyline
62
1
10
0.000
20
0.165
30
0.783
11
1.000
21
0.826
31
0.053
0
LINE
8
Polyline
62
1
10
1.000
20
0.826
30
0.053
11
1.000
21
0.327
31
0.518
0
LINE
8
Polyline
62
1
10
1.000
20
0.327
30
0.518
11
0.000
21
0.839
31
0.201
0
LINE
8
Polyline
62
1
10
0.000
20
0.839
30
0.201
11
0.000
21
0.336
31
0.235
0
LINE
8
Polyline
62
1
10
0.000
20
0.336
30
0.235
11
0.000
21
0.426
31
0.275
0
LINE
8
Polyline
62
1
10
0.000
20
0.426
30
0.275
11
1.000
21
0.840
31
0.666
0
LINE
8
Polyline
62
1
10
1.000
20
0.840
30
0.666
11
1.000
21
0.701
31
0.760
0
LINE
8
Polyline
62
1
10
1.000
20
0.701
30
0.760
11
0.000
21
0.203
31
0.432
0
LINE
8
Polyline
62
1
10
0.000
20
0.203
30
0.432
11
0.000
21
0.425
31
0.852
0
LINE
8
Polyline
62
1
10
0.000
20
0.425
30
0.852
11
1.000
21
0.741
31
0.565
0
LINE
8
Polyline
62
1
10
1.000
20
0.741
30
0.565
11
0.000
21
0.124
31
0.310
0
LINE
8
Polyline
62
1
10
0.000
20
0.124
30
0.310
11
0.000
21
0.079
31
0.705
0
LINE
8
Polyline
62
1
10
0.000
20
0.079
30
0.705
11
0.000
21
0.701
31
0.491
0
LINE
8
Polyline
62
1
10
0.000
20
0.701
30
0.491
11
0.000
21
0.476
31
0.091
0
LINE
8
Polyline
62
1
10
0.000
20
0.476
30
0.091
11
0.000
21
0.411
31
0.214
0
LINE
8
Polyline
62
1
10
0.000
20
0.411
30
0.214
11
0.000
21
0.054
31
0.644
0
LINE
8
Polyline
62
1
10
0.000
20
0.054
30
0.644
11
1.000
21
0.220
31
0.063
0
LINE
8
Polyline
62
1
10
1.000
20
0.220
30
0.063
11
0.000
21
0.186
31
0.361
0
LINE
8
Polyline
62
1
10
0.000
20
0.186
30
0.361
11
0.000
21
0.394
31
0.531
0
LINE
8
Polyline
62
1
10
0.000
20
0.394
30
0.531
11
0.000
21
0.902
31
0.378
0
LINE
8
Polyline
62
1
10
0.000
20
0.902
30
0.378
11
0.000
21
0.425
31
0.085
0
LINE
8
Polyline
62
1
10
0.000
20
0.425
30
0.085
11
0.000
21
0.542
31
0.787
0
LINE
8
Polyline
62
1
10
0.000
20
0.542
30
0.787
11
1.000
21
0.415
31
0.699
0
LINE
8
Polyline
62
1
10
1.000
20
0.415
30
0.699
11
0.000
21
0.261
31
0.594
0
LINE
8
Polyline
62
1
10
0.000
20
0.261
30
0.594
11
1.000
21
0.850
31
0.550
0
LINE
8
Polyline
62
1
10
1.000
20
0.850
30
0.550
11
1.000
21
0.484
31
0.347
0
LINE
8
Polyline
62
1
10
1.000
20
0.484
30
0.347
11
1.000
21
0.504
31
0.088
0
LINE
8
Polyline
62
1
10
1.000
20
0.504
30
0.088
11
0.000
21
0.612
31
0.068
0
LINE
8
Polyline
62
1
10
0.000
20
0.612
30
0.068
11
1.000
21
0.318
31
0.251
0
LINE
8
Polyline
62
1
10
1.000
20
0.318
30
0.251
11
1.000
21
0.938
31
0.367
0
LINE
8
Polyline
62
1
10
1.000
20
0.938
30
0.367
11
1.000
21
0.426
31
0.704
0
LINE
8
Polyline
62
1
10
1.000
20
0.426
30
0.704
11
1.000
21
0.729
31
0.473
0
LINE
8
Polyline
62
1
10
1.000
20
0.729
30
0.473
11
0.000
21
0.830
31
0.944
0
LINE
8
Polyline
62
1
10
0.000
20
0.830
30
0.944
11
1.000
21
0.782
31
0.128
0
LINE
8
Polyline
62
1
10
1.000
20
0.782
30
0.128
11
0.000
21
0.678
31
0.356
0
LINE
8
Polyline
62
1
10
0.000
20
0.678
30
0.356
11
1.000
21
0.653
31
0.107
0
LINE
8
Polyline
62
1
10
1.000
20
0.653
30
0.107
11
1.000
21
0.212
31
0.779
0
LINE
8
Polyline
62
1
10
1.000
20
0.212
30
0.779
11
1.000
21
0.068
31
0.550
0
LINE
8
Polyline
62
1
10
1.000
20
0.068
30
0.550
11
0.000
21
0.184
31
0.545
0
LINE
8
Polyline
62
1
10
0.000
20
0.184
30
0.545
11
1.000
21
0.693
31
0.271
0
LINE
8
Polyline
62
1
10
1.000
20
0.693
30
0.271
11
0.000
21
0.263
31
0.296
0
LINE
8
Polyline
62
1
10
0.000
20
0.263
30
0.296
11
0.000
21
0.445
31
0.927
0
LINE
8
Polyline
62
1
10
0.000
20
0.445
30
0.927
11
0.000
21
0.487
31
0.615
0
LINE
8
Polyline
62
1
10
0.000
20
0.487
30
0.615
11
1.000
21
0.072
31
0.315
0
LINE
8
Polyline
62
1
10
1.000
20
0.072
30
0.315
11
1.000
21
0.859
31
0.169
0
LINE
8
Polyline
62
1
10
1.000
20
0.859
30
0.169
11
1.000
21
0.334
31
0.574
0
LINE
8
Polyline
62
1
10
1.000
20
0.334
30
0.574
11
1.000
21
0.445
31
0.178
0
LINE
8
Polyline
62
1
10
1.000
20
0.445
30
0.178
11
0.000
21
0.145
31
0.522
0
LINE
8
Polyline
62
1
10
0.000
20
0.145
30
0.522
11
1.000
21
0.127
31
0.433
0
LINE
8
Polyline
62
1
10
1.000
20
0.127
30
0.433
11
1.000
21
0.187
31
0.640
0
LINE
8
Polyline
62
1
10
1.000
20
0.187
30
0.640
11
0.000
21
0.213
31
0.253
0
LINE
8
Polyline
62
1
10
0.000
20
0.213
30
0.253
11
1.000
21
0.510
31
0.833
0
LINE
8
Polyline
62
1
10
1.000
20
0.510
30
0.833
11
1.000
21
0.665
31
0.171
0
LINE
8
Polyline
62
1
10
1.000
20
0.665
30
0.171
11
1.000
21
0.241
31
0.106
0
LINE
8
Polyline
62
1
10
1.000
20
0.241
30
0.106
11
0.000
21
0.807
31
0.791
0
LINE
8
Polyline
62
1
10
0.000
20
0.807
30
0.791
11
0.000
21
0.561
31
0.208
0
LINE
8
Polyline
62
1
10
0.000
20
0.561
30
0.208
11
0.000
21
0.632
31
0.564
0
LINE
8
Polyline
62
1
10
0.000
20
0.632
30
0.564
11
1.000
21
0.674
31
0.685
0
LINE
8
Polyline
62
1
10
1.000
20
0.674
30
0.685
11
0.000
21
0.167
31
0.777
0
LINE
8
Polyline
62
1
10
0.000
20
0.167
30
0.777
11
0.000
21
0.398
31
0.891
0
LINE
8
Polyline
62
1
10
0.000
20
0.398
30
0.891
11
0.000
21
0.531
31
0.513
0
LINE
8
Polyline
62
1
10
0.000
20
0.531
30
0.513
11
1.000
21
0.198
31
0.397
0
LINE
8
Polyline
62
1
10
1.000
20
0.198
30
0.397
11
1.000
21
0.213
31
0.500
0
LINE
8
Polyline
62
1
10
1.000
20
0.213
30
0.500
11
0.000
21
0.438
31
0.335
0
LINE
8
Polyline
62
1
10
0.000
20
0.438
30
0.335
11
0.000
21
0.641
31
0.821
0
LINE
8
Polyline
62
1
10
0.000
20
0.641
30
0.821
11
1.000
21
0.065
31
0.624
0
LINE
8
Polyline
62
1
10
1.000
20
0.065
30
0.624
11
0.000
21
0.261
31
0.598
0
LINE
8
Polyline
62
1
10
0.000
20
0.261
30
0.598
11
0.000
21
0.157
31
0.737
0
LINE
8
Polyline
62
1
10
0.000
20
0.157
30
0.737
11
0.000
21
0.460
31
0.135
0
LINE
8
Polyline
62
1
10
0.000
20
0.460
30
0.135
11
0.000
21
0.304
31
0.168
0
LINE
8
Polyline
62
1
10
0.000
20
0.304
30
0.168
11
1.000
21
0.114
31
0.361
0
LINE
8
Polyline
62
1
10
1.000
20
0.114
30
0.361
11
0.000
21
0.155
31
0.553
0
LINE
8
Polyline
62
1
10
0.000
20
0.155
30
0.553
11
0.000
21
0.159
31
0.659
0
LINE
8
Polyline
62
1
10
0.000
20
0.159
30
0.659
11
0.000
21
0.379
31
0.396
0
LINE
8
Polyline
62
1
10
0.000
20
0.379
30
0.396
11
0.000
21
0.400
31
0.564
0
LINE
8
Polyline
62
1
10
0.000
20
0.400
30
0.564
11
1.000
21
0.095
31
0.055
0
LINE
8
Polyline
62
1
10
1.000
20
0.095
30
0.055
11
1.000
21
0.324
31
0.262
0
LINE
8
Polyline
62
1
10
1.000
20
0.324
30
0.262
11
1.000
21
0.147
31
0.664
0
LINE
8
Polyline
62
1
10
1.000
20
0.147
30
0.664
11
1.000
21
0.318
31
0.400
0
LINE
8
Polyline
62
1
10
1.000
20
0.318
30
0.400
11
1.000
21
0.669
31
0.676
0
LINE
8
Polyline
62
1
10
1.000
20
0.669
30
0.676
11
1.000
21
0.212
31
0.216
0
LINE
8
Polyline
62
1
10
1.000
20
0.212
30
0.216
11
0.000
21
0.954
31
0.836
0
LINE
8
Polyline
62
1
10
0.000
20
0.954
30
0.836
11
1.000
21
0.445
31
0.735
0
LINE
8
Polyline
62
1
10
1.000
20
0.445
30
0.735
11
0.000
21
0.418
31
0.171
0
LINE
8
Polyline
62
1
10
0.000
20
0.418
30
0.171
11
1.000
21
0.229
31
0.938
0
LINE
8
Polyline
62
1
10
1.000
20
0.229
30
0.938
11
1.000
21
0.836
31
0.072
0
LINE
8
Polyline
62
1
10
1.000
20
0.836
30
0.072
11
0.000
21
0.743
31
0.217
0
LINE
8
Polyline
62
1
10
0.000
20
0.743
30
0.217
11
1.000
21
0.601
31
0.156
0
LINE
8
Polyline
62
1
10
1.000
20
0.601
30
0.156
11
1.000
21
0.933
31
0.120
0
LINE
8
Polyline
62
1
10
1.000
20
0.933
30
0.120
11
1.000
21
0.117
31
0.373
0
LINE
8
Polyline
62
1
10
1.000
20
0.117
30
0.373
11
0.000
21
0.381
31
0.722
0
LINE
8
Polyline
62
1
10
0.000
20
0.381
30
0.722
11
1.000
21
0.891
31
0.056
0
LINE
8
Polyline
62
1
10
1.000
20
0.891
30
0.056
11
1.000
21
0.487
31
0.832
0
LINE
8
Polyline
62
1
10
1.000
20
0.487
30
0.832
11
1.000
21
0.656
31
0.224
0
LINE
8
Polyline
62
1
10
1.000
20
0.656
30
0.224
11
0.000
21
0.713
31
0.859
0
LINE
8
Polyline
62
1
10
0.000
20
0.713
30
0.859
11
1.000
21
0.945
31
0.322
0
LINE
8
Polyline
62
1
10
1.000
20
0.945
30
0.322
11
1.000
21
0.552
31
0.875
0
LINE
8
Polyline
62
1
10
1.000
20
0.552
30
0.875
11
0.000
21
0.543
31
0.545
0
LINE
8
Polyline
62
1
10
0.000
20
0.543
30
0.545
11
0.000
21
0.162
31
0.667
0
LINE
8
Polyline
62
1
10
0.000
20
0.162
30
0.667
11
1.000
21
0.944
31
0.454
0
LINE
8
Polyline
62
1
10
1.000
20
0.944
30
0.454
11
0.000
21
0.333
31
0.419
0
LINE
8
Polyline
62
1
10
0.000
20
0.333
30
0.419
11
0.000
21
0.453
31
0.614
0
LINE
8
Polyline
62
1
10
0.000
20
0.453
30
0.614
11
0.000
21
0.377
31
0.357
0
LINE
8
Polyline
62
1
10
0.000
20
0.377
30
0.357
11
0.000
21
0.219
31
0.127
0
LINE
8
Polyline
62
1
10
0.000
20
0.219
30
0.127
11
1.000
21
0.383
31
0.305
0
LINE
8
Polyline
62
1
10
1.000
20
0.383
30
0.305
11
0.000
21
0.903
31
0.193
0
LINE
8
Polyline
62
1
10
0.000
20
0.903
30
0.193
11
1.000
21
0.592
31
0.793
0
LINE
8
Polyline
62
1
10
1.000
20
0.592
30
0.793
11
1.000
21
0.661
31
0.784
0
LINE
8
Polyline
62
1
10
1.000
20
0.661
30
0.784
11
1.000
21
0.223
31
0.198
0
LINE
8
Polyline
62
1
10
1.000
20
0.223
30
0.198
11
0.000
21
0.466
31
0.388
0
LINE
8
Polyline
62
1
10
0.000
20
0.466
30
0.388
11
0.000
21
0.636
31
0.899
0
LINE
8
Polyline
62
1
10
0.000
20
0.636
30
0.899
11
0.000
21
0.243
31
0.083
0
LINE
8
Polyline
62
1
10
0.000
20
0.243
30
0.083
11
0.000
21
0.340
31
0.068
0
LINE
8
Polyline
62
1
10
0.000
20
0.340
30
0.068
11
1.000
21
0.379
31
0.253
0
LINE
8
Polyline
62
1
10
1.000
20
0.379
30
0.253
11
0.000
21
0.147
31
0.405
0
LINE
8
Polyline
62
1
10
0.000
20
0.147
30
0.405
11
1.000
21
0.862
31
0.072
0
LINE
8
Polyline
62
1
10
1.000
20
0.862
30
0.072
11
1.000
21
0.724
31
0.940
0
LINE
8
Polyline
62
1
10
1.000
20
0.724
30
0.940
11
1.000
21
0.314
31
0.724
0
LINE
8
Polyline
62
1
10
1.000
20
0.314
30
0.724
11
0.000
21
0.132
31
0.288
0
LINE
8
Polyline
62
1
10
0.000
20
0.132
30
0.288
11
0.000
21
0.233
31
0.615
0
LINE
8
Polyline
62
1
10
0.000
20
0.233
30
0.615
11
1.000
21
0.671
31
0.088
0
LINE
8
Polyline
62
1
10
1.000
20
0.671
30
0.088
11
0.000
21
0.256
31
0.433
0
LINE
8
Polyline
62
1
10
0.000
20
0.256
30
0.433
11
0.000
21
0.697
31
0.137
0
LINE
8
Polyline
62
1
10
0.000
20
0.697
30
0.137
11
0.000
21
0.462
31
0.921
0
LINE
8
Polyline
62
1
10
0.000
20
0.462
30
0.921
11
0.000
21
0.388
31
0.187
0
LINE
8
Polyline
62
1
10
0.000
20
0.388
30
0.187
11
0.000
21
0.789
31
0.829
0
LINE
8
Polyline
62
1
10
0.000
20
0.789
30
0.829
11
1.000
21
0.418
31
0.908
0
LINE
8
Polyline
62
1
10
1.000
20
0.418
30
0.908
11
1.000
21
0.860
31
0.839
0
LINE
8
Polyline
62
1
10
1.000
20
0.860
30
0.839
11
0.000
21
0.396
31
0.471
0
LINE
8
Polyline
62
1
10
0.000
20
0.396
30
0.471
11
0.000
21
0.464
31
0.750
0
LINE
8
Polyline
62
1
10
0.000
20
0.464
30
0.750
11
1.000
21
0.191
31
0.663
0
LINE
8
Polyline
62
1
10
1.000
20
0.191
30
0.663
11
0.000
21
0.342
31
0.384
0
LINE
8
Polyline
62
1
10
0.000
20
0.342
30
0.384
11
1.000
21
0.386
31
0.520
0
LINE
8
Polyline
62
1
10
1.000
20
0.386
30
0.520
11
1.000
21
0.908
31
0.681
0
LINE
8
Polyline
62
1
10
1.000
20
0.908
30
0.681
11
0.000
21
0.087
31
0.614
0
LINE
8
Polyline
62
1
10
0.000
20
0.087
30
0.614
11
0.000
21
0.257
31
0.916
0
LINE
8
Polyline
62
1
10
0.000
20
0.257
30
0.916
11
1.000
21
0.110
31
0.580
0
LINE
8
Polyline
62
1
10
1.000
20
0.110
30
0.580
11
1.000
21
0.207
31
0.598
0
LINE
8
Polyline
62
1
10
1.000
20
0.207
30
0.598
11
0.000
21
0.119
31
0.640
0
LINE
8
Polyline
62
1
10
0.000
20
0.119
30
0.640
11
1.000
21
0.458
31
0.332
0
LINE
8
Polyline
62
1
10
1.000
20
0.458
30
0.332
11
0.000
21
0.246
31
0.222
0
LINE
8
Polyline
62
1
10
0.000
20
0.246
30
0.222
11
1.000
21
0.210
31
0.894
0
LINE
8
Polyline
62
1
10
1.000
20
0.210
30
0.894
11
0.000
21
0.167
31
0.519
0
LINE
8
Polyline
62
1
10
0.000
20
0.167
30
0.519
11
0.000
21
0.845
31
0.149
0
LINE
8
Polyline
62
1
10
0.000
20
0.845
30
0.149
11
1.000
21
0.514
31
0.496
0
LINE
8
Polyline
62
1
10
1.000
20
0.514
30
0.496
11
1.000
21
0.379
31
0.765
0
LINE
8
Polyline
62
1
10
1.000
20
0.379
30
0.765
11
0.000
21
0.716
31
0.178
0
LINE
8
Polyline
62
1
10
0.000
20
0.716
30
0.178
11
1.000
21
0.803
31
0.282
0
LINE
8
Polyline
62
1
10
1.000
20
0.803
30
0.282
11
1.000
21
0.801
31
0.176
0
LINE
8
Polyline
62
1
10
1.000
20
0.801
30
0.176
11
1.000
21
0.558
31
0.208
0
LINE
8
Polyline
62
1
10
1.000
20
0.558
30
0.208
11
0.000
21
0.592
31
0.595
0
LINE
8
Polyline
62
1
10
0.000
20
0.592
30
0.595
11
1.000
21
0.824
31
0.051
0
LINE
8
Polyline
62
1
10
1.000
20
0.824
30
0.051
11
0.000
21
0.889
31
0.797
0
LINE
8
Polyline
62
1
10
0.000
20
0.889
30
0.797
11
1.000
21
0.166
31
0.446
0
LINE
8
Polyline
62
1
10
1.000
20
0.166
30
0.446
11
1.000
21
0.094
31
0.203
0
LINE
8
Polyline
62
1
10
1.000
20
0.094
30
0.203
11
1.000
21
0.173
31
0.282
0
LINE
8
Polyline
62
1
10
1.000
20
0.173
30
0.282
11
0.000
21
0.366
31
0.808
0
LINE
8
Polyline
62
1
10
0.000
20
0.366
30
0.808
11
0.000
21
0.553
31
0.885
0
LINE
8
Polyline
62
1
10
0.000
20
0.553
30
0.885
11
0.000
21
0.885
31
0.868
0
LINE
8
Polyline
62
1
10
0.000
20
0.885
30
0.868
11
1.000
21
0.381
31
0.825
0
LINE
8
Polyline
62
1
10
1.000
20
0.381
30
0.825
11
0.000
21
0.137
31
0.433
0
LINE
8
Polyline
62
1
10
0.000
20
0.137
30
0.433
11
0.000
21
0.118
31
0.289
0
LINE
8
Polyline
62
1
10
0.000
20
0.118
30
0.289
11
1.000
21
0.833
31
0.085
0
LINE
8
Polyline
62
1
10
1.000
20
0.833
30
0.085
11
0.000
21
0.247
31
0.310
0
LINE
8
Polyline
62
1
10
0.000
20
0.247
30
0.310
11
0.000
21
0.063
31
0.407
0
LINE
8
Polyline
62
1
10
0.000
20
0.063
30
0.407
11
1.000
21
0.727
31
0.500
0
LINE
8
Polyline
62
1
10
1.000
20
0.727
30
0.500
11
1.000
21
0.526
31
0.413
0
LINE
8
Polyline
62
1
10
1.000
20
0.526
30
0.413
11
1.000
21
0.435
31
0.539
0
LINE
8
Polyline
62
1
10
1.000
20
0.435
30
0.539
11
0.000
21
0.615
31
0.744
0
LINE
8
Polyline
62
1
10
0.000
20
0.615
30
0.744
11
1.000
21
0.368
31
0.885
0
LINE
8
Polyline
62
1
10
1.000
20
0.368
30
0.885
11
0.000
21
0.550
31
0.590
0
LINE
8
Polyline
62
1
10
0.000
20
0.550
30
0.590
11
0.000
21
0.173
31
0.610
0
LINE
8
Polyline
62
1
10
0.000
20
0.173
30
0.610
11
0.000
21
0.765
31
0.592
0
LINE
8
Polyline
62
1
10
0.000
20
0.765
30
0.592
11
1.000
21
0.227
31
0.690
0
LINE
8
Polyline
62
1
10
1.000
20
0.227
30
0.690
11
1.000
21
0.247
31
0.451
0
LINE
8
Polyline
62
1
10
1.000
20
0.247
30
0.451
11
1.000
21
0.171
31
0.819
0
LINE
8
Polyline
62
1
10
1.000
20
0.171
30
0.819
11
1.000
21
0.883
31
0.378
0
LINE
8
Polyline
62
1
10
1.000
20
0.883
30
0.378
11
1.000
21
0.414
31
0.816
0
LINE
8
Polyline
62
1
10
1.000
20
0.414
30
0.816
11
0.000
21
0.104
31
0.700
0
LINE
8
Polyline
62
1
10
0.000
20
0.104
30
0.700
11
0.000
21
0.845
31
0.270
0
LINE
8
Polyline
62
1
10
0.000
20
0.845
30
0.270
11
0.000
21
0.246
31
0.147
0
LINE
8
Polyline
62
1
10
0.000
20
0.246
30
0.147
11
0.000
21
0.648
31
0.545
0
LINE
8
Polyline
62
1
10
0.000
20
0.648
30
0.545
11
0.000
21
0.446
31
0.662
0
LINE
8
Polyline
62
1
10
0.000
20
0.446
30
0.662
11
0.000
21
0.766
31
0.581
0
LINE
8
Polyline
62
1
10
0.000
20
0.766
30
0.581
11
0.000
21
0.546
31
0.170
0
LINE
8
Polyline
62
1
10
0.000
20
0.546
30
0.170
11
1.000
21
0.124
31
0.196
0
LINE
8
Polyline
62
1
10
1.000
20
0.124
30
0.196
11
0.000
21
0.759
31
0.468
0
LINE
8
Polyline
62
1
10
0.000
20
0.759
30
0.468
11
1.000
21
0.491
31
0.537
0
LINE
8
Polyline
62
1
10
1.000
20
0.491
30
0.537
11
1.000
21
0.525
31
0.820
0
LINE
8
Polyline
62
1
10
1.000
20
0.525
30
0.820
11
0.000
21
0.684
31
0.383
0
LINE
8
Polyline
62
1
10
0.000
20
0.684
30
0.383
11
0.000
21
0.603
31
0.286
0
LINE
8
Polyline
62
1
10
0.000
20
0.603
30
0.286
11
0.000
21
0.561
31
0.866
0
LINE
8
Polyline
62
1
10
0.000
20
0.561
30
0.866
11
1.000
21
0.927
31
0.103
0
LINE
8
Polyline
62
1
10
1.000
20
0.927
30
0.103
11
1.000
21
0.232
31
0.553
0
LINE
8
Polyline
62
1
10
1.000
20
0.232
30
0.553
11
1.000
21
0.151
31
0.675
0
LINE
8
Polyline
62
1
10
1.000
20
0.151
30
0.675
11
1.000
21
0.807
31
0.653
0
LINE
8
Polyline
62
1
10
1.000
20
0.807
30
0.653
11
1.000
21
0.481
31
0.393
0
LINE
8
Polyline
62
1
10
1.000
20
0.481
30
0.393
11
0.000
21
0.645
31
0.248
0
LINE
8
Polyline
62
1
10
0.000
20
0.645
30
0.248
11
1.000
21
0.393
31
0.534
0
LINE
8
Polyline
62
1
10
1.000
20
0.393
30
0.534
11
1.000
21
0.142
31
0.282
0
LINE
8
Polyline
62
1
10
1.000
20
0.142
30
0.282
11
0.000
21
0.909
31
0.333
0
LINE
8
Polyline
62
1
10
0.000
20
0.909
30
0.333
11
1.000
21
0.411
31
0.075
0
LINE
8
Polyline
62
1
10
1.000
20
0.411
30
0.075
11
1.000
21
0.874
31
0.538
0
LINE
8
Polyline
62
1
10
1.000
20
0.874
30
0.538
11
1.000
21
0.666
31
0.106
0
LINE
8
Polyline
62
1
10
1.000
20
0.666
30
0.106
11
1.000
21
0.627
31
0.099
0
LINE
8
Polyline
62
1
10
1.000
20
0.627
30
0.099
11
0.000
21
0.555
31
0.256
0
LINE
8
Polyline
62
1
10
0.000
20
0.555
30
0.256
11
1.000
21
0.358
31
0.668
0
LINE
8
Polyline
62
1
10
1.000
20
0.358
30
0.668
11
0.000
21
0.904
31
0.078
0
LINE
8
Polyline
62
1
10
0.000
20
0.904
30
0.078
11
1.000
21
0.101
31
0.346
0
LINE
8
Polyline
62
1
10
1.000
20
0.101
30
0.346
11
0.000
21
0.189
31
0.924
0
LINE
8
Polyline
62
1
10
0.000
20
0.189
30
0.924
11
1.000
21
0.668
31
0.683
0
LINE
8
Polyline
62
1
10
1.000
20
0.668
30
0.683
11
1.000
21
0.875
31
0.551
0
LINE
8
Polyline
62
1
10
1.000
20
0.875
30
0.551
11
0.000
21
0.077
31
0.612
0
LINE
8
Polyline
62
1
10
0.000
20
0.077
30
0.612
11
1.000
21
0.669
31
0.121
0
LINE
8
Polyline
62
1
10
1.000
20
0.669
30
0.121
11
0.000
21
0.745
31
0.514
0
LINE
8
Polyline
62
1
10
0.000
20
0.745
30
0.514
11
0.000
21
0.790
31
0.411
0
LINE
8
Polyline
62
1
10
0.000
20
0.790
30
0.411
11
1.000
21
0.226
31
0.937
0
LINE
8
Polyline
62
1
10
1.000
20
0.226
30
0.937
11
0.000
21
0.220
31
0.159
0
LINE
8
Polyline
62
1
10
0.000
20
0.220
30
0.159
11
0.000
21
0.820
31
0.246
0
LINE
8
Polyline
62
1
10
0.000
20
0.820
30
0.246
11
1.000
21
0.074
31
0.814
0
LINE
8
Polyline
62
1
10
1.000
20
0.074
30
0.814
11
1.000
21
0.227
31
0.493
0
LINE
8
Polyline
62
1
10
1.000
20
0.227
30
0.493
11
0.000
21
0.526
31
0.126
0
LINE
8
Polyline
62
1
10
0.000
20
0.526
30
0.126
11
1.000
21
0.577
31
0.351
0
LINE
8
Polyline
62
1
10
1.000
20
0.577
30
0.351
11
0.000
21
0.166
31
0.472
0
LINE
8
Polyline
62
1
10
0.000
20
0.166
30
0.472
11
0.000
21
0.570
31
0.275
0
LINE
8
Polyline
62
1
10
0.000
20
0.570
30
0.275
11
0.000
21
0.362
31
0.159
0
LINE
8
Polyline
62
1
10
0.000
20
0.362
30
0.159
11
1.000
21
0.918
31
0.711
0
LINE
8
Polyline
62
1
10
1.000
20
0.918
30
0.711
11
0.000
21
0.259
31
0.587
0
LINE
8
Polyline
62
1
10
0.000
20
0.259
30
0.587
11
0.000
21
0.457
31
0.559
0
LINE
8
Polyline
62
1
10
0.000
20
0.457
30
0.559
11
0.000
21
0.596
31
0.347
0
LINE
8
Polyline
62
1
10
0.000
20
0.596
30
0.347
11
0.000
21
0.846
31
0.450
0
LINE
8
Polyline
62
1
10
0.000
20
0.846
30
0.450
11
0.000
21
0.525
31
0.660
0
LINE
8
Polyline
62
1
10
0.000
20
0.525
30
0.660
11
1.000
21
0.817
31
0.641
0
LINE
8
Polyline
62
1
10
1.000
20
0.817
30
0.641
11
1.000
21
0.521
31
0.911
0
LINE
8
Polyline
62
1
10
1.000
20
0.521
30
0.911
11
1.000
21
0.529
31
0.172
0
LINE
8
Polyline
62
1
10
1.000
20
0.529
30
0.172
11
1.000
21
0.924
31
0.473
0
LINE
8
Polyline
62
1
10
1.000
20
0.924
30
0.473
11
0.000
21
0.902
31
0.550
0
LINE
8
Polyline
62
1
10
0.000
20
0.902
30
0.550
11
1.000
21
0.637
31
0.116
0
LINE
8
Polyline
62
1
10
1.000
20
0.637
30
0.116
11
1.000
21
0.940
31
0.086
0
LINE
8
Polyline
62
1
10
1.000
20
0.940
30
0.086
11
1.000
21
0.512
31
0.932
0
LINE
8
Polyline
62
1
10
1.000
20
0.512
30
0.932
11
1.000
21
0.499
31
0.426
0
LINE
8
Polyline
62
1
10
1.000
20
0.499
30
0.426
11
0.000
21
0.394
31
0.054
0
LINE
8
Polyline
62
1
10
0.000
20
0.394
30
0.054
11
1.000
21
0.427
31
0.061
0
LINE
8
Polyline
62
1
10
1.000
20
0.427
30
0.061
11
1.000
21
0.525
31
0.135
0
LINE
8
Polyline
62
1
10
1.000
20
0.525
30
0.135
11
1.000
21
0.143
31
0.978
0
LINE
8
Polyline
62
1
10
1.000
20
0.143
30
0.978
11
0.000
21
0.248
31
0.045
0
LINE
8
Polyline
62
1
10
0.000
20
0.248
30
0.045
11
0.000
21
0.218
31
0.072
0
LINE
8
Polyline
62
1
10
0.000
20
0.218
30
0.072
11
1.000
21
0.067
31
0.836
0
LINE
8
Polyline
62
1
10
1.000
20
0.067
30
0.836
11
0.000
21
0.217
31
0.024
0
LINE
8
Polyline
62
1
10
0.000
20
0.217
30
0.024
11
0.000
21
0.346
31
0.262
0
LINE
8
Polyline
62
1
10
0.000
20
0.346
30
0.262
11
1.000
21
0.248
31
0.174
0
LINE
8
Polyline
62
1
10
1.000
20
0.248
30
0.174
11
0.000
21
0.275
31
0.617
0
LINE
8
Polyline
62
1
10
0.000
20
0.275
30
0.617
11
1.000
21
0.106
31
0.748
0
LINE
8
Polyline
62
1
10
1.000
20
0.106
30
0.748
11
0.000
21
0.333
31
0.093
0
LINE
8
Polyline
62
1
10
0.000
20
0.333
30
0.093
11
0.000
21
0.608
31
0.878
0
LINE
8
Polyline
62
1
10
0.000
20
0.608
30
0.878
11
0.000
21
0.904
31
0.869
0
LINE
8
Polyline
62
1
10
0.000
20
0.904
30
0.869
11
0.000
21
0.744
31
0.752
0
LINE
8
Polyline
62
1
10
0.000
20
0.744
30
0.752
11
1.000
21
0.927
31
0.514
0
LINE
8
Polyline
62
1
10
1.000
20
0.927
30
0.514
11
0.000
21
0.129
31
0.825
0
LINE
8
Polyline
62
1
10
0.000
20
0.129
30
0.825
11
0.000
21
0.664
31
0.777
0
LINE
8
Polyline
62
1
10
0.000
20
0.664
30
0.777
11
0.000
21
0.369
31
0.216
0
LINE
8
Polyline
62
1
10
0.000
20
0.369
30
0.216
11
0.000
21
0.183
31
0.505
0
LINE
8
Polyline
62
1
10
0.000
20
0.183
30
0.505
11
1.000
21
0.882
31
0.546
0
LINE
8
Polyline
62
1
10
1.000
20
0.882
30
0.546
11
0.000
21
0.914
31
0.864
0
LINE
8
Polyline
62
1
10
0.000
20
0.914
30
0.864
11
1.000
21
0.127
31
0.475
0
LINE
8
Polyline
62
1
10
1.000
20
0.127
30
0.475
11
1.000
21
0.742
31
0.677
0
LINE
8
Polyline
62
1
10
1.000
20
0.742
30
0.677
11
1.000
21
0.311
31
0.911
0
LINE
8
Polyline
62
1
10
1.000
20
0.311
30
0.911
11
0.000
21
0.576
31
0.580
0
LINE
8
Polyline
62
1
10
0.000
20
0.576
30
0.580
11
1.000
21
0.198
31
0.819
0
LINE
8
Polyline
62
1
10
1.000
20
0.198
30
0.819
11
0.000
21
0.852
31
0.129
0
LINE
8
Polyline
62
1
10
0.000
20
0.852
30
0.129
11
1.000
21
0.755
31
0.868
0
LINE
8
Polyline
62
1
10
1.000
20
0.755
30
0.868
11
0.000
21
0.504
31
0.327
0
LINE
8
Polyline
62
1
10
0.000
20
0.504
30
0.327
11
1.000
21
0.623
31
0.600
0
LINE
8
Polyline
62
1
10
1.000
20
0.623
30
0.600
11
0.000
21
0.578
31
0.172
0
LINE
8
Polyline
62
1
10
0.000
20
0.578
30
0.172
11
0.000
21
0.598
31
0.356
0
LINE
8
Polyline
62
1
10
0.000
20
0.598
30
0.356
11
0.000
21
0.528
31
0.708
0
LINE
8
Polyline
62
1
10
0.000
20
0.528
30
0.708
11
1.000
21
0.796
31
0.204
0
LINE
8
Polyline
62
1
10
1.000
20
0.796
30
0.204
11
0.000
21
0.780
31
0.277
0
LINE
8
Polyline
62
1
10
0.000
20
0.780
30
0.277
11
1.000
21
0.615
31
0.708
0
LINE
8
Polyline
62
1
10
1.000
20
0.615
30
0.708
11
1.000
21
0.910
31
0.137
0
LINE
8
Polyline
62
1
10
1.000
20
0.910
30
0.137
11
0.000
21
0.360
31
0.402
0
LINE
8
Polyline
62
1
10
0.000
20
0.360
30
0.402
11
1.000
21
0.479
31
0.838
0
LINE
8
Polyline
62
1
10
1.000
20
0.479
30
0.838
11
0.000
21
0.577
31
0.483
0
LINE
8
Polyline
62
1
10
0.000
20
0.577
30
0.483
11
0.000
21
0.288
31
0.136
0
LINE
8
Polyline
62
1
10
0.000
20
0.288
30
0.136
11
0.000
21
0.110
31
0.503
0
LINE
8
Polyline
62
1
10
0.000
20
0.110
30
0.503
11
1.000
21
0.786
31
0.797
0
LINE
8
Polyline
62
1
10
1.000
20
0.786
30
0.797
11
0.000
21
0.234
31
0.183
0
LINE
8
Polyline
62
1
10
0.000
20
0.234
30
0.183
11
0.000
21
0.360
31
0.583
0
ENDSEC
0
EOF
