0
SECTION
2
HEADER
9
$ACADVER
1
AC1006
0
ENDSEC
0
SECTION
2
TABLES
0
TABLE
2
LAYER
70
0
0
LAYER
2
Polyline
70
0
62
1
6
CONTINUOUS
0
ENDTAB
0
ENDSEC
0
SECTION
2
ENTITIES
0
LINE
8
Polyline
62
1
10
0.000
20
0.997
30
0.540
11
0.000
21
0.997
31
0.530
0
LINE
8
Polyline
62
1
10
0.000
20
0.997
30
0.530
11
0.000
21
0.980
31
0.534
0
LINE
8
Polyline
62
1
10
0.000
20
0.980
30
0.534
11
0.000
21
0.983
31
0.522
0
LINE
8
Polyline
62
1
10
0.000
20
0.983
30
0.522
11
0.007
21
1.000
31
0.562
0
LINE
8
Polyline
62
1
10
0.007
20
1.000
30
0.562
11
0.000
21
0.976
31
0.526
0
LINE
8
Polyline
62
1
10
0.000
20
0.976
30
0.526
11
0.000
21
0.981
31
0.517
0
LINE
8
Polyline
62
1
10
0.000
20
0.981
30
0.517
11
0.000
21
0.988
31
0.510
0
LINE
8
Polyline
62
1
10
0.000
20
0.988
30
0.510
11
0.027
21
1.000
31
0.565
0
LINE
8
Polyline
62
1
10
0.027
20
1.000
30
0.565
11
0.000
21
0.977
31
0.585
0
LINE
8
Polyline
62
1
10
0.000
20
0.977
30
0.585
11
0.009
21
1.000
31
0.592
0
LINE
8
Polyline
62
1
10
0.009
20
1.000
30
0.592
11
0.036
21
1.000
31
0.595
0
LINE
8
Polyline
62
1
10
0.036
20
1.000
30
0.595
11
0.000
21
0.983
31
0.474
0
LINE
8
Polyline
62
1
10
0.000
20
0.983
30
0.474
11
0.000
21
0.971
31
0.477
0
LINE
8
Polyline
62
1
10
0.000
20
0.971
30
0.477
11
0.023
21
1.000
31
0.606
0
LINE
8
Polyline
62
1
10
0.023
20
1.000
30
0.606
11
0.000
21
0.992
31
0.609
0
LINE
8
Polyline
62
1
10
0.000
20
0.992
30
0.609
11
0.000
21
0.993
31
0.614
0
LINE
8
Polyline
62
1
10
0.000
20
0.993
30
0.614
11
0.000
21
0.989
31
0.466
0
LINE
8
Polyline
62
1
10
0.000
20
0.989
30
0.466
11
0.023
21
1.000
31
0.613
0
LINE
8
Polyline
62
1
10
0.023
20
1.000
30
0.613
11
0.014
21
1.000
31
0.465
0
LINE
8
Polyline
62
1
10
0.014
20
1.000
30
0.465
11
0.027
21
1.000
31
0.618
0
LINE
8
Polyline
62
1
10
0.027
20
1.000
30
0.618
11
0.027
21
1.000
31
0.460
0
LINE
8
Polyline
62
1
10
0.027
20
1.000
30
0.460
11
0.000
21
1.000
31
0.449
0
LINE
8
Polyline
62
1
10
0.000
20
1.000
30
0.449
11
0.017
21
1.000
31
0.630
0
LINE
8
Polyline
62
1
10
0.017
20
1.000
30
0.630
11
0.007
21
1.000
31
0.449
0
LINE
8
Polyline
62
1
10
0.007
20
1.000
30
0.449
11
0.050
21
1.000
31
0.620
0
LINE
8
Polyline
62
1
10
0.050
20
1.000
30
0.620
11
0.027
21
1.000
31
0.633
0
LINE
8
Polyline
62
1
10
0.027
20
1.000
30
0.633
11
0.006
21
1.000
31
0.435
0
LINE
8
Polyline
62
1
10
0.006
20
1.000
30
0.435
11
0.000
21
0.987
31
0.435
0
LINE
8
Polyline
62
1
10
0.000
20
0.987
30
0.435
11
0.018
21
1.000
31
0.431
0
LINE
8
Polyline
62
1
10
0.018
20
1.000
30
0.431
11
0.019
21
1.000
31
0.651
0
LINE
8
Polyline
62
1
10
0.019
20
1.000
30
0.651
11
0.027
21
1.000
31
0.656
0
LINE
8
Polyline
62
1
10
0.027
20
1.000
30
0.656
11
0.025
21
1.000
31
0.419
0
LINE
8
Polyline
62
1
10
0.025
20
1.000
30
0.419
11
0.026
21
1.000
31
0.417
0
LINE
8
Polyline
62
1
10
0.026
20
1.000
30
0.417
11
0.024
21
1.000
31
0.416
0
LINE
8
Polyline
62
1
10
0.024
20
1.000
30
0.416
11
0.000
21
0.999
31
0.412
0
LINE
8
Polyline
62
1
10
0.000
20
0.999
30
0.412
11
0.020
21
1.000
31
0.405
0
LINE
8
Polyline
62
1
10
0.020
20
1.000
30
0.405
11
0.009
21
1.000
31
0.402
0
LINE
8
Polyline
62
1
10
0.009
20
1.000
30
0.402
11
0.034
21
1.000
31
0.676
0
LINE
8
Polyline
62
1
10
0.034
20
1.000
30
0.676
11
0.000
21
0.995
31
0.399
0
LINE
8
Polyline
62
1
10
0.000
20
0.995
30
0.399
11
0.000
21
0.982
31
0.399
0
LINE
8
Polyline
62
1
10
0.000
20
0.982
30
0.399
11
0.000
21
0.960
31
0.397
0
LINE
8
Polyline
62
1
10
0.000
20
0.960
30
0.397
11
0.022
21
1.000
31
0.692
0
LINE
8
Polyline
62
1
10
0.022
20
1.000
30
0.692
11
0.000
21
0.961
31
0.391
0
LINE
8
Polyline
62
1
10
0.000
20
0.961
30
0.391
11
0.029
21
1.000
31
0.389
0
LINE
8
Polyline
62
1
10
0.029
20
1.000
30
0.389
11
0.000
21
0.997
31
0.380
0
LINE
8
Polyline
62
1
10
0.000
20
0.997
30
0.380
11
0.000
21
0.973
31
0.699
0
LINE
8
Polyline
62
1
10
0.000
20
0.973
30
0.699
11
0.029
21
1.000
31
0.702
0
LINE
8
Polyline
62
1
10
0.029
20
1.000
30
0.702
11
0.002
21
1.000
31
0.710
0
LINE
8
Polyline
62
1
10
0.002
20
1.000
30
0.710
11
0.061
21
1.000
31
0.701
0
LINE
8
Polyline
62
1
10
0.061
20
1.000
30
0.701
11
0.060
21
1.000
31
0.705
0
LINE
8
Polyline
62
1
10
0.060
20
1.000
30
0.705
11
0.026
21
1.000
31
0.714
0
LINE
8
Polyline
62
1
10
0.026
20
1.000
30
0.714
11
0.009
21
1.000
31
0.370
0
LINE
8
Polyline
62
1
10
0.009
20
1.000
30
0.370
11
0.045
21
1.000
31
0.713
0
LINE
8
Polyline
62
1
10
0.045
20
1.000
30
0.713
11
0.007
21
1.000
31
0.729
0
LINE
8
Polyline
62
1
10
0.007
20
1.000
30
0.729
11
0.000
21
0.965
31
0.743
0
LINE
8
Polyline
62
1
10
0.000
20
0.965
30
0.743
11
0.000
21
0.998
31
0.742
0
LINE
8
Polyline
62
1
10
0.000
20
0.998
30
0.742
11
0.038
21
1.000
31
0.749
0
LINE
8
Polyline
62
1
10
0.038
20
1.000
30
0.749
11
0.000
21
0.982
31
0.368
0
LINE
8
Polyline
62
1
10
0.000
20
0.982
30
0.368
11
0.000
21
0.973
31
0.366
0
LINE
8
Polyline
62
1
10
0.000
20
0.973
30
0.366
11
0.000
21
0.968
31
0.755
0
LINE
8
Polyline
62
1
10
0.000
20
0.968
30
0.755
11
0.000
21
0.990
31
0.771
0
LINE
8
Polyline
62
1
10
0.000
20
0.990
30
0.771
11
0.019
21
1.000
31
0.771
0
LINE
8
Polyline
62
1
10
0.019
20
1.000
30
0.771
11
0.000
21
0.995
31
0.332
0
LINE
8
Polyline
62
1
10
0.000
20
0.995
30
0.332
11
0.000
21
0.987
31
0.330
0
LINE
8
Polyline
62
1
10
0.000
20
0.987
30
0.330
11
0.014
21
1.000
31
0.327
0
LINE
8
Polyline
62
1
10
0.014
20
1.000
30
0.327
11
0.000
21
0.967
31
0.321
0
LINE
8
Polyline
62
1
10
0.000
20
0.967
30
0.321
11
0.042
21
1.000
31
0.779
0
LINE
8
Polyline
62
1
10
0.042
20
1.000
30
0.779
11
0.019
21
1.000
31
0.792
0
LINE
8
Polyline
62
1
10
0.019
20
1.000
30
0.792
11
0.029
21
1.000
31
0.791
0
LINE
8
Polyline
62
1
10
0.029
20
1.000
30
0.791
11
0.000
21
0.975
31
0.311
0
LINE
8
Polyline
62
1
10
0.000
20
0.975
30
0.311
11
0.000
21
1.000
31
0.307
0
LINE
8
Polyline
62
1
10
0.000
20
1.000
30
0.307
11
0.000
21
0.965
31
0.312
0
LINE
8
Polyline
62
1
10
0.000
20
0.965
30
0.312
11
0.000
21
0.969
31
0.800
0
LINE
8
Polyline
62
1
10
0.000
20
0.969
30
0.800
11
0.000
21
0.976
31
0.802
0
LINE
8
Polyline
62
1
10
0.000
20
0.976
30
0.802
11
0.022
21
1.000
31
0.302
0
LINE
8
Polyline
62
1
10
0.022
20
1.000
30
0.302
11
0.000
21
0.985
31
0.825
0
LINE
8
Polyline
62
1
10
0.000
20
0.985
30
0.825
11
0.008
21
1.000
31
0.839
0
LINE
8
Polyline
62
1
10
0.008
20
1.000
30
0.839
11
0.028
21
1.000
31
0.843
0
LINE
8
Polyline
62
1
10
0.028
20
1.000
30
0.843
11
0.024
21
1.000
31
0.854
0
LINE
8
Polyline
62
1
10
0.024
20
1.000
30
0.854
11
0.018
21
1.000
31
0.859
0
LINE
8
Polyline
62
1
10
0.018
20
1.000
30
0.859
11
0.000
21
0.993
31
0.865
0
LINE
8
Polyline
62
1
10
0.000
20
0.993
30
0.865
11
0.006
21
1.000
31
0.867
0
LINE
8
Polyline
62
1
10
0.006
20
1.000
30
0.867
11
0.019
21
1.000
31
0.884
0
LINE
8
Polyline
62
1
10
0.019
20
1.000
30
0.884
11
0.017
21
1.000
31
0.886
0
LINE
8
Polyline
62
1
10
0.017
20
1.000
30
0.886
11
0.015
21
1.000
31
0.900
0
LINE
8
Polyline
62
1
10
0.015
20
1.000
30
0.900
11
0.000
21
0.991
31
0.903
0
LINE
8
Polyline
62
1
10
0.000
20
0.991
30
0.903
11
0.023
21
1.000
31
0.904
0
LINE
8
Polyline
62
1
10
0.023
20
1.000
30
0.904
11
0.000
21
0.980
31
0.911
0
LINE
8
Polyline
62
1
10
0.000
20
0.980
30
0.911
11
0.013
21
1.000
31
0.944
0
LINE
8
Polyline
62
1
10
0.013
20
1.000
30
0.944
11
0.011
21
1.000
31
0.952
0
LINE
8
Polyline
62
1
10
0.011
20
1.000
30
0.952
11
0.036
21
1.000
31
0.948
0
LINE
8
Polyline
62
1
10
0.036
20
1.000
30
0.948
11
0.005
21
1.000
31
0.964
0
LINE
8
Polyline
62
1
10
0.005
20
1.000
30
0.964
11
0.000
21
0.940
31
0.318
0
LINE
8
Polyline
62
1
10
0.000
20
0.940
30
0.318
11
0.026
21
1.000
31
0.508
0
LINE
8
Polyline
62
1
10
0.026
20
1.000
30
0.508
11
0.000
21
0.989
31
0.877
0
LINE
8
Polyline
62
1
10
0.000
20
0.989
30
0.877
11
0.000
21
0.951
31
0.371
0
LINE
8
Polyline
62
1
10
0.000
20
0.951
30
0.371
11
0.035
21
1.000
31
0.885
0
ENDSEC
0
EOF
