0
SECTION
2
HEADER
9
$ACADVER
1
AC1006
0
ENDSEC
0
SECTION
2
TABLES
0
TABLE
2
LAYER
70
0
0
LAYER
2
Source_points
70
0
62
5
6
CONTINUOUS
0
LAYER
2
Facilities
70
0
62
3
6
CONTINUOUS
0
LAYER
2
Facilities_lines
70
0
62
3
6
CONTINUOUS
0
LAYER
2
Clients
70
0
62
3
6
CONTINUOUS
0
LAYER
2
Normals
70
0
62
1
6
CONTINUOUS
0
LAYER
2
Text
70
0
62
3
6
CONTINUOUS
0
LAYER
2
Min_max_boxes
70
0
62
1
6
CONTINUOUS
0
ENDTAB
0
ENDSEC
0
SECTION
2
ENTITIES
0
POINT
8
Source_points
62
5
10
0.495
20
0.051
30
0.000
0
TEXT
7
PNTNUM
50
0.000
8
Text
62
3
10
0.496
20
0.051
30
0.000
40
0.001
1
0
0
LINE
8
Normals
62
1
10
0.495
20
0.051
30
0.000
11
0.495
21
0.051
31
0.100
0
POINT
8
Source_points
62
5
10
0.706
20
0.593
30
0.000
0
TEXT
7
PNTNUM
50
0.000
8
Text
62
3
10
0.707
20
0.592
30
0.000
40
0.001
1
1
0
LINE
8
Normals
62
1
10
0.706
20
0.593
30
0.000
11
0.706
21
0.593
31
0.100
0
POINT
8
Source_points
62
5
10
0.244
20
0.163
30
0.000
0
TEXT
7
PNTNUM
50
0.000
8
Text
62
3
10
0.244
20
0.162
30
0.000
40
0.001
1
2
0
LINE
8
Normals
62
1
10
0.244
20
0.163
30
0.000
11
0.244
21
0.163
31
0.100
0
POINT
8
Source_points
62
5
10
0.785
20
0.838
30
0.000
0
TEXT
7
PNTNUM
50
0.000
8
Text
62
3
10
0.786
20
0.838
30
0.000
40
0.001
1
3
0
LINE
8
Normals
62
1
10
0.785
20
0.838
30
0.000
11
0.785
21
0.838
31
0.100
0
POINT
8
Source_points
62
5
10
0.074
20
0.168
30
0.000
0
TEXT
7
PNTNUM
50
0.000
8
Text
62
3
10
0.075
20
0.167
30
0.000
40
0.001
1
4
0
LINE
8
Normals
62
1
10
0.074
20
0.168
30
0.000
11
0.074
21
0.168
31
0.100
0
POINT
8
Source_points
62
5
10
0.394
20
0.502
30
0.000
0
TEXT
7
PNTNUM
50
0.000
8
Text
62
3
10
0.394
20
0.502
30
0.000
40
0.001
1
5
0
LINE
8
Normals
62
1
10
0.394
20
0.502
30
0.000
11
0.394
21
0.502
31
0.100
0
POINT
8
Source_points
62
5
10
0.003
20
0.999
30
0.000
0
TEXT
7
PNTNUM
50
0.000
8
Text
62
3
10
0.004
20
0.999
30
0.000
40
0.001
1
6
0
LINE
8
Normals
62
1
10
0.003
20
0.999
30
0.000
11
0.003
21
0.999
31
0.100
0
POINT
8
Source_points
62
5
10
0.221
20
0.355
30
0.000
0
TEXT
7
PNTNUM
50
0.000
8
Text
62
3
10
0.221
20
0.355
30
0.000
40
0.001
1
7
0
LINE
8
Normals
62
1
10
0.221
20
0.355
30
0.000
11
0.221
21
0.355
31
0.100
0
POINT
8
Source_points
62
5
10
0.001
20
0.047
30
0.000
0
TEXT
7
PNTNUM
50
0.000
8
Text
62
3
10
0.002
20
0.047
30
0.000
40
0.001
1
8
0
LINE
8
Normals
62
1
10
0.001
20
0.047
30
0.000
11
0.001
21
0.047
31
0.100
0
POINT
8
Source_points
62
5
10
0.189
20
0.214
30
0.000
0
TEXT
7
PNTNUM
50
0.000
8
Text
62
3
10
0.190
20
0.213
30
0.000
40
0.001
1
9
0
LINE
8
Normals
62
1
10
0.189
20
0.214
30
0.000
11
0.189
21
0.214
31
0.100
0
POINT
8
Source_points
62
5
10
0.142
20
0.398
30
0.000
0
TEXT
7
PNTNUM
50
0.000
8
Text
62
3
10
0.143
20
0.397
30
0.000
40
0.001
1
10
0
LINE
8
Normals
62
1
10
0.142
20
0.398
30
0.000
11
0.142
21
0.398
31
0.100
0
POINT
8
Source_points
62
5
10
0.268
20
0.334
30
0.000
0
TEXT
7
PNTNUM
50
0.000
8
Text
62
3
10
0.269
20
0.333
30
0.000
40
0.001
1
11
0
LINE
8
Normals
62
1
10
0.268
20
0.334
30
0.000
11
0.268
21
0.334
31
0.100
0
POINT
8
Source_points
62
5
10
0.175
20
0.230
30
0.000
0
TEXT
7
PNTNUM
50
0.000
8
Text
62
3
10
0.175
20
0.229
30
0.000
40
0.001
1
12
0
LINE
8
Normals
62
1
10
0.175
20
0.230
30
0.000
11
0.175
21
0.230
31
0.100
0
POINT
8
Source_points
62
5
10
0.139
20
0.936
30
0.000
0
TEXT
7
PNTNUM
50
0.000
8
Text
62
3
10
0.139
20
0.936
30
0.000
40
0.001
1
13
0
LINE
8
Normals
62
1
10
0.139
20
0.936
30
0.000
11
0.139
21
0.936
31
0.100
0
POINT
8
Source_points
62
5
10
0.599
20
0.683
30
0.000
0
TEXT
7
PNTNUM
50
0.000
8
Text
62
3
10
0.599
20
0.683
30
0.000
40
0.001
1
14
0
LINE
8
Normals
62
1
10
0.599
20
0.683
30
0.000
11
0.599
21
0.683
31
0.100
0
POINT
8
Source_points
62
5
10
0.901
20
0.962
30
0.000
0
TEXT
7
PNTNUM
50
0.000
8
Text
62
3
10
0.902
20
0.962
30
0.000
40
0.001
1
15
0
LINE
8
Normals
62
1
10
0.901
20
0.962
30
0.000
11
0.901
21
0.962
31
0.100
0
POINT
8
Source_points
62
5
10
0.939
20
0.438
30
0.000
0
TEXT
7
PNTNUM
50
0.000
8
Text
62
3
10
0.940
20
0.437
30
0.000
40
0.001
1
16
0
LINE
8
Normals
62
1
10
0.939
20
0.438
30
0.000
11
0.939
21
0.438
31
0.100
0
POINT
8
Source_points
62
5
10
0.221
20
0.940
30
0.000
0
TEXT
7
PNTNUM
50
0.000
8
Text
62
3
10
0.222
20
0.940
30
0.000
40
0.001
1
17
0
LINE
8
Normals
62
1
10
0.221
20
0.940
30
0.000
11
0.221
21
0.940
31
0.100
0
POINT
8
Source_points
62
5
10
0.483
20
0.006
30
0.000
0
TEXT
7
PNTNUM
50
0.000
8
Text
62
3
10
0.483
20
0.005
30
0.000
40
0.001
1
18
0
LINE
8
Normals
62
1
10
0.483
20
0.006
30
0.000
11
0.483
21
0.006
31
0.100
0
POINT
8
Source_points
62
5
10
0.376
20
0.610
30
0.000
0
TEXT
7
PNTNUM
50
0.000
8
Text
62
3
10
0.377
20
0.610
30
0.000
40
0.001
1
19
0
LINE
8
Normals
62
1
10
0.376
20
0.610
30
0.000
11
0.376
21
0.610
31
0.100
0
POINT
8
Source_points
62
5
10
0.524
20
0.801
30
0.000
0
TEXT
7
PNTNUM
50
0.000
8
Text
62
3
10
0.524
20
0.801
30
0.000
40
0.001
1
20
0
LINE
8
Normals
62
1
10
0.524
20
0.801
30
0.000
11
0.524
21
0.801
31
0.100
0
POINT
8
Source_points
62
5
10
0.265
20
0.233
30
0.000
0
TEXT
7
PNTNUM
50
0.000
8
Text
62
3
10
0.265
20
0.232
30
0.000
40
0.001
1
21
0
LINE
8
Normals
62
1
10
0.265
20
0.233
30
0.000
11
0.265
21
0.233
31
0.100
0
POINT
8
Source_points
62
5
10
0.068
20
0.932
30
0.000
0
TEXT
7
PNTNUM
50
0.000
8
Text
62
3
10
0.069
20
0.932
30
0.000
40
0.001
1
22
0
LINE
8
Normals
62
1
10
0.068
20
0.932
30
0.000
11
0.068
21
0.932
31
0.100
0
POINT
8
Source_points
62
5
10
0.436
20
0.763
30
0.000
0
TEXT
7
PNTNUM
50
0.000
8
Text
62
3
10
0.437
20
0.763
30
0.000
40
0.001
1
23
0
LINE
8
Normals
62
1
10
0.436
20
0.763
30
0.000
11
0.436
21
0.763
31
0.100
0
POINT
8
Source_points
62
5
10
0.174
20
0.826
30
0.000
0
TEXT
7
PNTNUM
50
0.000
8
Text
62
3
10
0.174
20
0.826
30
0.000
40
0.001
1
24
0
LINE
8
Normals
62
1
10
0.174
20
0.826
30
0.000
11
0.174
21
0.826
31
0.100
0
POINT
8
Source_points
62
5
10
0.026
20
0.573
30
0.000
0
TEXT
7
PNTNUM
50
0.000
8
Text
62
3
10
0.027
20
0.573
30
0.000
40
0.001
1
25
0
LINE
8
Normals
62
1
10
0.026
20
0.573
30
0.000
11
0.026
21
0.573
31
0.100
0
POINT
8
Source_points
62
5
10
0.955
20
0.793
30
0.000
0
TEXT
7
PNTNUM
50
0.000
8
Text
62
3
10
0.955
20
0.792
30
0.000
40
0.001
1
26
0
LINE
8
Normals
62
1
10
0.955
20
0.793
30
0.000
11
0.955
21
0.793
31
0.100
0
POINT
8
Source_points
62
5
10
0.431
20
0.329
30
0.000
0
TEXT
7
PNTNUM
50
0.000
8
Text
62
3
10
0.431
20
0.329
30
0.000
40
0.001
1
27
0
LINE
8
Normals
62
1
10
0.431
20
0.329
30
0.000
11
0.431
21
0.329
31
0.100
0
POINT
8
Source_points
62
5
10
0.962
20
0.223
30
0.000
0
TEXT
7
PNTNUM
50
0.000
8
Text
62
3
10
0.962
20
0.223
30
0.000
40
0.001
1
28
0
LINE
8
Normals
62
1
10
0.962
20
0.223
30
0.000
11
0.962
21
0.223
31
0.100
0
POINT
8
Source_points
62
5
10
0.762
20
0.312
30
0.000
0
TEXT
7
PNTNUM
50
0.000
8
Text
62
3
10
0.763
20
0.312
30
0.000
40
0.001
1
29
0
LINE
8
Normals
62
1
10
0.762
20
0.312
30
0.000
11
0.762
21
0.312
31
0.100
0
POINT
8
Source_points
62
5
10
0.007
20
0.585
30
0.000
0
TEXT
7
PNTNUM
50
0.000
8
Text
62
3
10
0.008
20
0.584
30
0.000
40
0.001
1
30
0
LINE
8
Normals
62
1
10
0.007
20
0.585
30
0.000
11
0.007
21
0.585
31
0.100
0
POINT
8
Source_points
62
5
10
0.680
20
0.830
30
0.000
0
TEXT
7
PNTNUM
50
0.000
8
Text
62
3
10
0.681
20
0.829
30
0.000
40
0.001
1
31
0
LINE
8
Normals
62
1
10
0.680
20
0.830
30
0.000
11
0.680
21
0.830
31
0.100
0
POINT
8
Source_points
62
5
10
0.706
20
0.290
30
0.000
0
TEXT
7
PNTNUM
50
0.000
8
Text
62
3
10
0.706
20
0.290
30
0.000
40
0.001
1
32
0
LINE
8
Normals
62
1
10
0.706
20
0.290
30
0.000
11
0.706
21
0.290
31
0.100
0
POINT
8
Source_points
62
5
10
0.645
20
0.403
30
0.000
0
TEXT
7
PNTNUM
50
0.000
8
Text
62
3
10
0.646
20
0.402
30
0.000
40
0.001
1
33
0
LINE
8
Normals
62
1
10
0.645
20
0.403
30
0.000
11
0.645
21
0.403
31
0.100
0
POINT
8
Source_points
62
5
10
0.552
20
0.862
30
0.000
0
TEXT
7
PNTNUM
50
0.000
8
Text
62
3
10
0.553
20
0.862
30
0.000
40
0.001
1
34
0
LINE
8
Normals
62
1
10
0.552
20
0.862
30
0.000
11
0.552
21
0.862
31
0.100
0
POINT
8
Source_points
62
5
10
0.218
20
0.615
30
0.000
0
TEXT
7
PNTNUM
50
0.000
8
Text
62
3
10
0.219
20
0.614
30
0.000
40
0.001
1
35
0
LINE
8
Normals
62
1
10
0.218
20
0.615
30
0.000
11
0.218
21
0.615
31
0.100
0
POINT
8
Source_points
62
5
10
0.772
20
0.991
30
0.000
0
TEXT
7
PNTNUM
50
0.000
8
Text
62
3
10
0.773
20
0.991
30
0.000
40
0.001
1
36
0
LINE
8
Normals
62
1
10
0.772
20
0.991
30
0.000
11
0.772
21
0.991
31
0.100
0
POINT
8
Source_points
62
5
10
0.228
20
0.204
30
0.000
0
TEXT
7
PNTNUM
50
0.000
8
Text
62
3
10
0.229
20
0.203
30
0.000
40
0.001
1
37
0
LINE
8
Normals
62
1
10
0.228
20
0.204
30
0.000
11
0.228
21
0.204
31
0.100
0
POINT
8
Source_points
62
5
10
0.371
20
0.827
30
0.000
0
TEXT
7
PNTNUM
50
0.000
8
Text
62
3
10
0.371
20
0.827
30
0.000
40
0.001
1
38
0
LINE
8
Normals
62
1
10
0.371
20
0.827
30
0.000
11
0.371
21
0.827
31
0.100
0
POINT
8
Source_points
62
5
10
0.891
20
0.676
30
0.000
0
TEXT
7
PNTNUM
50
0.000
8
Text
62
3
10
0.891
20
0.675
30
0.000
40
0.001
1
39
0
LINE
8
Normals
62
1
10
0.891
20
0.676
30
0.000
11
0.891
21
0.676
31
0.100
0
POINT
8
Source_points
62
5
10
0.856
20
0.249
30
0.000
0
TEXT
7
PNTNUM
50
0.000
8
Text
62
3
10
0.857
20
0.248
30
0.000
40
0.001
1
40
0
LINE
8
Normals
62
1
10
0.856
20
0.249
30
0.000
11
0.856
21
0.249
31
0.100
0
POINT
8
Source_points
62
5
10
0.402
20
0.476
30
0.000
0
TEXT
7
PNTNUM
50
0.000
8
Text
62
3
10
0.403
20
0.475
30
0.000
40
0.001
1
41
0
LINE
8
Normals
62
1
10
0.402
20
0.476
30
0.000
11
0.402
21
0.476
31
0.100
0
POINT
8
Source_points
62
5
10
0.318
20
0.399
30
0.000
0
TEXT
7
PNTNUM
50
0.000
8
Text
62
3
10
0.319
20
0.399
30
0.000
40
0.001
1
42
0
LINE
8
Normals
62
1
10
0.318
20
0.399
30
0.000
11
0.318
21
0.399
31
0.100
0
POINT
8
Source_points
62
5
10
0.609
20
0.599
30
0.000
0
TEXT
7
PNTNUM
50
0.000
8
Text
62
3
10
0.609
20
0.599
30
0.000
40
0.001
1
43
0
LINE
8
Normals
62
1
10
0.609
20
0.599
30
0.000
11
0.609
21
0.599
31
0.100
0
POINT
8
Source_points
62
5
10
0.910
20
0.801
30
0.000
0
TEXT
7
PNTNUM
50
0.000
8
Text
62
3
10
0.911
20
0.800
30
0.000
40
0.001
1
44
0
LINE
8
Normals
62
1
10
0.910
20
0.801
30
0.000
11
0.910
21
0.801
31
0.100
0
POINT
8
Source_points
62
5
10
0.909
20
0.105
30
0.000
0
TEXT
7
PNTNUM
50
0.000
8
Text
62
3
10
0.910
20
0.105
30
0.000
40
0.001
1
45
0
LINE
8
Normals
62
1
10
0.909
20
0.105
30
0.000
11
0.909
21
0.105
31
0.100
0
POINT
8
Source_points
62
5
10
0.592
20
0.821
30
0.000
0
TEXT
7
PNTNUM
50
0.000
8
Text
62
3
10
0.592
20
0.821
30
0.000
40
0.001
1
46
0
LINE
8
Normals
62
1
10
0.592
20
0.821
30
0.000
11
0.592
21
0.821
31
0.100
0
POINT
8
Source_points
62
5
10
0.333
20
0.841
30
0.000
0
TEXT
7
PNTNUM
50
0.000
8
Text
62
3
10
0.333
20
0.841
30
0.000
40
0.001
1
47
0
LINE
8
Normals
62
1
10
0.333
20
0.841
30
0.000
11
0.333
21
0.841
31
0.100
0
POINT
8
Source_points
62
5
10
0.853
20
0.355
30
0.000
0
TEXT
7
PNTNUM
50
0.000
8
Text
62
3
10
0.854
20
0.354
30
0.000
40
0.001
1
48
0
LINE
8
Normals
62
1
10
0.853
20
0.355
30
0.000
11
0.853
21
0.355
31
0.100
0
POINT
8
Source_points
62
5
10
0.442
20
0.430
30
0.000
0
TEXT
7
PNTNUM
50
0.000
8
Text
62
3
10
0.443
20
0.430
30
0.000
40
0.001
1
49
0
LINE
8
Normals
62
1
10
0.442
20
0.430
30
0.000
11
0.442
21
0.430
31
0.100
0
POINT
8
Source_points
62
5
10
0.904
20
0.572
30
0.000
0
TEXT
7
PNTNUM
50
0.000
8
Text
62
3
10
0.905
20
0.572
30
0.000
40
0.001
1
50
0
LINE
8
Normals
62
1
10
0.904
20
0.572
30
0.000
11
0.904
21
0.572
31
0.100
0
POINT
8
Source_points
62
5
10
0.033
20
0.701
30
0.000
0
TEXT
7
PNTNUM
50
0.000
8
Text
62
3
10
0.034
20
0.700
30
0.000
40
0.001
1
51
0
LINE
8
Normals
62
1
10
0.033
20
0.701
30
0.000
11
0.033
21
0.701
31
0.100
0
POINT
8
Source_points
62
5
10
0.532
20
0.742
30
0.000
0
TEXT
7
PNTNUM
50
0.000
8
Text
62
3
10
0.533
20
0.742
30
0.000
40
0.001
1
52
0
LINE
8
Normals
62
1
10
0.532
20
0.742
30
0.000
11
0.532
21
0.742
31
0.100
0
POINT
8
Source_points
62
5
10
0.716
20
0.758
30
0.000
0
TEXT
7
PNTNUM
50
0.000
8
Text
62
3
10
0.717
20
0.757
30
0.000
40
0.001
1
53
0
LINE
8
Normals
62
1
10
0.716
20
0.758
30
0.000
11
0.716
21
0.758
31
0.100
0
POINT
8
Source_points
62
5
10
0.179
20
0.389
30
0.000
0
TEXT
7
PNTNUM
50
0.000
8
Text
62
3
10
0.180
20
0.389
30
0.000
40
0.001
1
54
0
LINE
8
Normals
62
1
10
0.179
20
0.389
30
0.000
11
0.179
21
0.389
31
0.100
0
POINT
8
Source_points
62
5
10
0.337
20
0.429
30
0.000
0
TEXT
7
PNTNUM
50
0.000
8
Text
62
3
10
0.337
20
0.429
30
0.000
40
0.001
1
55
0
LINE
8
Normals
62
1
10
0.337
20
0.429
30
0.000
11
0.337
21
0.429
31
0.100
0
POINT
8
Source_points
62
5
10
0.188
20
0.956
30
0.000
0
TEXT
7
PNTNUM
50
0.000
8
Text
62
3
10
0.188
20
0.956
30
0.000
40
0.001
1
56
0
LINE
8
Normals
62
1
10
0.188
20
0.956
30
0.000
11
0.188
21
0.956
31
0.100
0
POINT
8
Source_points
62
5
10
0.322
20
0.573
30
0.000
0
TEXT
7
PNTNUM
50
0.000
8
Text
62
3
10
0.322
20
0.572
30
0.000
40
0.001
1
57
0
LINE
8
Normals
62
1
10
0.322
20
0.573
30
0.000
11
0.322
21
0.573
31
0.100
0
POINT
8
Source_points
62
5
10
0.404
20
0.850
30
0.000
0
TEXT
7
PNTNUM
50
0.000
8
Text
62
3
10
0.404
20
0.849
30
0.000
40
0.001
1
58
0
LINE
8
Normals
62
1
10
0.404
20
0.850
30
0.000
11
0.404
21
0.850
31
0.100
0
POINT
8
Source_points
62
5
10
0.549
20
0.276
30
0.000
0
TEXT
7
PNTNUM
50
0.000
8
Text
62
3
10
0.549
20
0.276
30
0.000
40
0.001
1
59
0
LINE
8
Normals
62
1
10
0.549
20
0.276
30
0.000
11
0.549
21
0.276
31
0.100
0
POINT
8
Source_points
62
5
10
0.049
20
0.622
30
0.000
0
TEXT
7
PNTNUM
50
0.000
8
Text
62
3
10
0.049
20
0.622
30
0.000
40
0.001
1
60
0
LINE
8
Normals
62
1
10
0.049
20
0.622
30
0.000
11
0.049
21
0.622
31
0.100
0
POINT
8
Source_points
62
5
10
0.553
20
0.588
30
0.000
0
TEXT
7
PNTNUM
50
0.000
8
Text
62
3
10
0.553
20
0.588
30
0.000
40
0.001
1
61
0
LINE
8
Normals
62
1
10
0.553
20
0.588
30
0.000
11
0.553
21
0.588
31
0.100
0
POINT
8
Source_points
62
5
10
0.275
20
0.963
30
0.000
0
TEXT
7
PNTNUM
50
0.000
8
Text
62
3
10
0.275
20
0.963
30
0.000
40
0.001
1
62
0
LINE
8
Normals
62
1
10
0.275
20
0.963
30
0.000
11
0.275
21
0.963
31
0.100
0
POINT
8
Source_points
62
5
10
0.242
20
0.086
30
0.000
0
TEXT
7
PNTNUM
50
0.000
8
Text
62
3
10
0.242
20
0.085
30
0.000
40
0.001
1
63
0
LINE
8
Normals
62
1
10
0.242
20
0.086
30
0.000
11
0.242
21
0.086
31
0.100
0
POINT
8
Source_points
62
5
10
0.243
20
0.500
30
0.000
0
TEXT
7
PNTNUM
50
0.000
8
Text
62
3
10
0.244
20
0.500
30
0.000
40
0.001
1
64
0
LINE
8
Normals
62
1
10
0.243
20
0.500
30
0.000
11
0.243
21
0.500
31
0.100
0
POINT
8
Source_points
62
5
10
0.154
20
0.522
30
0.000
0
TEXT
7
PNTNUM
50
0.000
8
Text
62
3
10
0.155
20
0.521
30
0.000
40
0.001
1
65
0
LINE
8
Normals
62
1
10
0.154
20
0.522
30
0.000
11
0.154
21
0.522
31
0.100
0
POINT
8
Source_points
62
5
10
0.956
20
0.090
30
0.000
0
TEXT
7
PNTNUM
50
0.000
8
Text
62
3
10
0.957
20
0.090
30
0.000
40
0.001
1
66
0
LINE
8
Normals
62
1
10
0.956
20
0.090
30
0.000
11
0.956
21
0.090
31
0.100
0
POINT
8
Source_points
62
5
10
0.936
20
0.905
30
0.000
0
TEXT
7
PNTNUM
50
0.000
8
Text
62
3
10
0.936
20
0.904
30
0.000
40
0.001
1
67
0
LINE
8
Normals
62
1
10
0.936
20
0.905
30
0.000
11
0.936
21
0.905
31
0.100
0
POINT
8
Source_points
62
5
10
0.819
20
0.884
30
0.000
0
TEXT
7
PNTNUM
50
0.000
8
Text
62
3
10
0.819
20
0.884
30
0.000
40
0.001
1
68
0
LINE
8
Normals
62
1
10
0.819
20
0.884
30
0.000
11
0.819
21
0.884
31
0.100
0
POINT
8
Source_points
62
5
10
0.728
20
0.439
30
0.000
0
TEXT
7
PNTNUM
50
0.000
8
Text
62
3
10
0.729
20
0.438
30
0.000
40
0.001
1
69
0
LINE
8
Normals
62
1
10
0.728
20
0.439
30
0.000
11
0.728
21
0.439
31
0.100
0
POINT
8
Source_points
62
5
10
0.176
20
0.782
30
0.000
0
TEXT
7
PNTNUM
50
0.000
8
Text
62
3
10
0.176
20
0.781
30
0.000
40
0.001
1
70
0
LINE
8
Normals
62
1
10
0.176
20
0.782
30
0.000
11
0.176
21
0.782
31
0.100
0
POINT
8
Source_points
62
5
10
0.360
20
0.148
30
0.000
0
TEXT
7
PNTNUM
50
0.000
8
Text
62
3
10
0.361
20
0.148
30
0.000
40
0.001
1
71
0
LINE
8
Normals
62
1
10
0.360
20
0.148
30
0.000
11
0.360
21
0.148
31
0.100
0
POINT
8
Source_points
62
5
10
0.189
20
0.620
30
0.000
0
TEXT
7
PNTNUM
50
0.000
8
Text
62
3
10
0.189
20
0.619
30
0.000
40
0.001
1
72
0
LINE
8
Normals
62
1
10
0.189
20
0.620
30
0.000
11
0.189
21
0.620
31
0.100
0
POINT
8
Source_points
62
5
10
0.001
20
0.261
30
0.000
0
TEXT
7
PNTNUM
50
0.000
8
Text
62
3
10
0.002
20
0.260
30
0.000
40
0.001
1
73
0
LINE
8
Normals
62
1
10
0.001
20
0.261
30
0.000
11
0.001
21
0.261
31
0.100
0
POINT
8
Source_points
62
5
10
0.316
20
0.446
30
0.000
0
TEXT
7
PNTNUM
50
0.000
8
Text
62
3
10
0.317
20
0.445
30
0.000
40
0.001
1
74
0
LINE
8
Normals
62
1
10
0.316
20
0.446
30
0.000
11
0.316
21
0.446
31
0.100
0
POINT
8
Source_points
62
5
10
0.700
20
0.844
30
0.000
0
TEXT
7
PNTNUM
50
0.000
8
Text
62
3
10
0.700
20
0.843
30
0.000
40
0.001
1
75
0
LINE
8
Normals
62
1
10
0.700
20
0.844
30
0.000
11
0.700
21
0.844
31
0.100
0
POINT
8
Source_points
62
5
10
0.625
20
0.196
30
0.000
0
TEXT
7
PNTNUM
50
0.000
8
Text
62
3
10
0.626
20
0.196
30
0.000
40
0.001
1
76
0
LINE
8
Normals
62
1
10
0.625
20
0.196
30
0.000
11
0.625
21
0.196
31
0.100
0
POINT
8
Source_points
62
5
10
0.543
20
0.304
30
0.000
0
TEXT
7
PNTNUM
50
0.000
8
Text
62
3
10
0.544
20
0.303
30
0.000
40
0.001
1
77
0
LINE
8
Normals
62
1
10
0.543
20
0.304
30
0.000
11
0.543
21
0.304
31
0.100
0
POINT
8
Source_points
62
5
10
0.439
20
0.483
30
0.000
0
TEXT
7
PNTNUM
50
0.000
8
Text
62
3
10
0.440
20
0.483
30
0.000
40
0.001
1
78
0
LINE
8
Normals
62
1
10
0.439
20
0.483
30
0.000
11
0.439
21
0.483
31
0.100
0
POINT
8
Source_points
62
5
10
0.287
20
0.338
30
0.000
0
TEXT
7
PNTNUM
50
0.000
8
Text
62
3
10
0.288
20
0.337
30
0.000
40
0.001
1
79
0
LINE
8
Normals
62
1
10
0.287
20
0.338
30
0.000
11
0.287
21
0.338
31
0.100
0
POINT
8
Source_points
62
5
10
0.502
20
0.798
30
0.000
0
TEXT
7
PNTNUM
50
0.000
8
Text
62
3
10
0.502
20
0.798
30
0.000
40
0.001
1
80
0
LINE
8
Normals
62
1
10
0.502
20
0.798
30
0.000
11
0.502
21
0.798
31
0.100
0
POINT
8
Source_points
62
5
10
0.762
20
0.987
30
0.000
0
TEXT
7
PNTNUM
50
0.000
8
Text
62
3
10
0.762
20
0.987
30
0.000
40
0.001
1
81
0
LINE
8
Normals
62
1
10
0.762
20
0.987
30
0.000
11
0.762
21
0.987
31
0.100
0
POINT
8
Source_points
62
5
10
0.762
20
0.159
30
0.000
0
TEXT
7
PNTNUM
50
0.000
8
Text
62
3
10
0.763
20
0.159
30
0.000
40
0.001
1
82
0
LINE
8
Normals
62
1
10
0.762
20
0.159
30
0.000
11
0.762
21
0.159
31
0.100
0
POINT
8
Source_points
62
5
10
0.576
20
0.237
30
0.000
0
TEXT
7
PNTNUM
50
0.000
8
Text
62
3
10
0.577
20
0.236
30
0.000
40
0.001
1
83
0
LINE
8
Normals
62
1
10
0.576
20
0.237
30
0.000
11
0.576
21
0.237
31
0.100
0
POINT
8
Source_points
62
5
10
0.748
20
0.702
30
0.000
0
TEXT
7
PNTNUM
50
0.000
8
Text
62
3
10
0.748
20
0.702
30
0.000
40
0.001
1
84
0
LINE
8
Normals
62
1
10
0.748
20
0.702
30
0.000
11
0.748
21
0.702
31
0.100
0
POINT
8
Source_points
62
5
10
0.646
20
0.375
30
0.000
0
TEXT
7
PNTNUM
50
0.000
8
Text
62
3
10
0.646
20
0.375
30
0.000
40
0.001
1
85
0
LINE
8
Normals
62
1
10
0.646
20
0.375
30
0.000
11
0.646
21
0.375
31
0.100
0
POINT
8
Source_points
62
5
10
0.123
20
0.974
30
0.000
0
TEXT
7
PNTNUM
50
0.000
8
Text
62
3
10
0.124
20
0.973
30
0.000
40
0.001
1
86
0
LINE
8
Normals
62
1
10
0.123
20
0.974
30
0.000
11
0.123
21
0.974
31
0.100
0
POINT
8
Source_points
62
5
10
0.504
20
0.972
30
0.000
0
TEXT
7
PNTNUM
50
0.000
8
Text
62
3
10
0.505
20
0.972
30
0.000
40
0.001
1
87
0
LINE
8
Normals
62
1
10
0.504
20
0.972
30
0.000
11
0.504
21
0.972
31
0.100
0
POINT
8
Source_points
62
5
10
0.347
20
0.644
30
0.000
0
TEXT
7
PNTNUM
50
0.000
8
Text
62
3
10
0.348
20
0.643
30
0.000
40
0.001
1
88
0
LINE
8
Normals
62
1
10
0.347
20
0.644
30
0.000
11
0.347
21
0.644
31
0.100
0
POINT
8
Source_points
62
5
10
0.092
20
0.860
30
0.000
0
TEXT
7
PNTNUM
50
0.000
8
Text
62
3
10
0.093
20
0.860
30
0.000
40
0.001
1
89
0
LINE
8
Normals
62
1
10
0.092
20
0.860
30
0.000
11
0.092
21
0.860
31
0.100
0
POINT
8
Source_points
62
5
10
0.148
20
0.402
30
0.000
0
TEXT
7
PNTNUM
50
0.000
8
Text
62
3
10
0.148
20
0.401
30
0.000
40
0.001
1
90
0
LINE
8
Normals
62
1
10
0.148
20
0.402
30
0.000
11
0.148
21
0.402
31
0.100
0
POINT
8
Source_points
62
5
10
0.198
20
0.632
30
0.000
0
TEXT
7
PNTNUM
50
0.000
8
Text
62
3
10
0.199
20
0.631
30
0.000
40
0.001
1
91
0
LINE
8
Normals
62
1
10
0.198
20
0.632
30
0.000
11
0.198
21
0.632
31
0.100
0
POINT
8
Source_points
62
5
10
0.672
20
0.985
30
0.000
0
TEXT
7
PNTNUM
50
0.000
8
Text
62
3
10
0.673
20
0.985
30
0.000
40
0.001
1
92
0
LINE
8
Normals
62
1
10
0.672
20
0.985
30
0.000
11
0.672
21
0.985
31
0.100
0
POINT
8
Source_points
62
5
10
0.432
20
0.559
30
0.000
0
TEXT
7
PNTNUM
50
0.000
8
Text
62
3
10
0.432
20
0.559
30
0.000
40
0.001
1
93
0
LINE
8
Normals
62
1
10
0.432
20
0.559
30
0.000
11
0.432
21
0.559
31
0.100
0
POINT
8
Source_points
62
5
10
0.694
20
0.934
30
0.000
0
TEXT
7
PNTNUM
50
0.000
8
Text
62
3
10
0.695
20
0.933
30
0.000
40
0.001
1
94
0
LINE
8
Normals
62
1
10
0.694
20
0.934
30
0.000
11
0.694
21
0.934
31
0.100
0
POINT
8
Source_points
62
5
10
0.257
20
0.720
30
0.000
0
TEXT
7
PNTNUM
50
0.000
8
Text
62
3
10
0.257
20
0.720
30
0.000
40
0.001
1
95
0
LINE
8
Normals
62
1
10
0.257
20
0.720
30
0.000
11
0.257
21
0.720
31
0.100
0
POINT
8
Source_points
62
5
10
0.010
20
0.484
30
0.000
0
TEXT
7
PNTNUM
50
0.000
8
Text
62
3
10
0.010
20
0.484
30
0.000
40
0.001
1
96
0
LINE
8
Normals
62
1
10
0.010
20
0.484
30
0.000
11
0.010
21
0.484
31
0.100
0
POINT
8
Source_points
62
5
10
0.532
20
0.639
30
0.000
0
TEXT
7
PNTNUM
50
0.000
8
Text
62
3
10
0.533
20
0.639
30
0.000
40
0.001
1
97
0
LINE
8
Normals
62
1
10
0.532
20
0.639
30
0.000
11
0.532
21
0.639
31
0.100
0
POINT
8
Source_points
62
5
10
0.279
20
0.888
30
0.000
0
TEXT
7
PNTNUM
50
0.000
8
Text
62
3
10
0.280
20
0.887
30
0.000
40
0.001
1
98
0
LINE
8
Normals
62
1
10
0.279
20
0.888
30
0.000
11
0.279
21
0.888
31
0.100
0
POINT
8
Source_points
62
5
10
0.946
20
0.199
30
0.000
0
TEXT
7
PNTNUM
50
0.000
8
Text
62
3
10
0.947
20
0.198
30
0.000
40
0.001
1
99
0
LINE
8
Normals
62
1
10
0.946
20
0.199
30
0.000
11
0.946
21
0.199
31
0.100
0
POINT
8
Source_points
62
5
10
0.906
20
0.395
30
0.000
0
TEXT
7
PNTNUM
50
0.000
8
Text
62
3
10
0.907
20
0.395
30
0.000
40
0.001
1
100
0
LINE
8
Normals
62
1
10
0.906
20
0.395
30
0.000
11
0.906
21
0.395
31
0.100
0
POINT
8
Source_points
62
5
10
0.393
20
0.992
30
0.000
0
TEXT
7
PNTNUM
50
0.000
8
Text
62
3
10
0.393
20
0.992
30
0.000
40
0.001
1
101
0
LINE
8
Normals
62
1
10
0.393
20
0.992
30
0.000
11
0.393
21
0.992
31
0.100
0
POINT
8
Source_points
62
5
10
0.025
20
0.402
30
0.000
0
TEXT
7
PNTNUM
50
0.000
8
Text
62
3
10
0.025
20
0.402
30
0.000
40
0.001
1
102
0
LINE
8
Normals
62
1
10
0.025
20
0.402
30
0.000
11
0.025
21
0.402
31
0.100
0
POINT
8
Source_points
62
5
10
0.671
20
0.659
30
0.000
0
TEXT
7
PNTNUM
50
0.000
8
Text
62
3
10
0.672
20
0.658
30
0.000
40
0.001
1
103
0
LINE
8
Normals
62
1
10
0.671
20
0.659
30
0.000
11
0.671
21
0.659
31
0.100
0
POINT
8
Source_points
62
5
10
0.837
20
0.901
30
0.000
0
TEXT
7
PNTNUM
50
0.000
8
Text
62
3
10
0.838
20
0.901
30
0.000
40
0.001
1
104
0
LINE
8
Normals
62
1
10
0.837
20
0.901
30
0.000
11
0.837
21
0.901
31
0.100
0
POINT
8
Source_points
62
5
10
0.971
20
0.995
30
0.000
0
TEXT
7
PNTNUM
50
0.000
8
Text
62
3
10
0.972
20
0.995
30
0.000
40
0.001
1
105
0
LINE
8
Normals
62
1
10
0.971
20
0.995
30
0.000
11
0.971
21
0.995
31
0.100
0
POINT
8
Source_points
62
5
10
0.057
20
0.653
30
0.000
0
TEXT
7
PNTNUM
50
0.000
8
Text
62
3
10
0.057
20
0.653
30
0.000
40
0.001
1
106
0
LINE
8
Normals
62
1
10
0.057
20
0.653
30
0.000
11
0.057
21
0.653
31
0.100
0
POINT
8
Source_points
62
5
10
0.450
20
0.108
30
0.000
0
TEXT
7
PNTNUM
50
0.000
8
Text
62
3
10
0.451
20
0.108
30
0.000
40
0.001
1
107
0
LINE
8
Normals
62
1
10
0.450
20
0.108
30
0.000
11
0.450
21
0.108
31
0.100
0
POINT
8
Source_points
62
5
10
0.582
20
0.036
30
0.000
0
TEXT
7
PNTNUM
50
0.000
8
Text
62
3
10
0.583
20
0.036
30
0.000
40
0.001
1
108
0
LINE
8
Normals
62
1
10
0.582
20
0.036
30
0.000
11
0.582
21
0.036
31
0.100
0
POINT
8
Source_points
62
5
10
0.687
20
0.618
30
0.000
0
TEXT
7
PNTNUM
50
0.000
8
Text
62
3
10
0.687
20
0.618
30
0.000
40
0.001
1
109
0
LINE
8
Normals
62
1
10
0.687
20
0.618
30
0.000
11
0.687
21
0.618
31
0.100
0
POINT
8
Source_points
62
5
10
0.719
20
0.567
30
0.000
0
TEXT
7
PNTNUM
50
0.000
8
Text
62
3
10
0.720
20
0.567
30
0.000
40
0.001
1
110
0
LINE
8
Normals
62
1
10
0.719
20
0.567
30
0.000
11
0.719
21
0.567
31
0.100
0
POINT
8
Source_points
62
5
10
0.650
20
0.962
30
0.000
0
TEXT
7
PNTNUM
50
0.000
8
Text
62
3
10
0.651
20
0.961
30
0.000
40
0.001
1
111
0
LINE
8
Normals
62
1
10
0.650
20
0.962
30
0.000
11
0.650
21
0.962
31
0.100
0
POINT
8
Source_points
62
5
10
0.727
20
0.746
30
0.000
0
TEXT
7
PNTNUM
50
0.000
8
Text
62
3
10
0.727
20
0.746
30
0.000
40
0.001
1
112
0
LINE
8
Normals
62
1
10
0.727
20
0.746
30
0.000
11
0.727
21
0.746
31
0.100
0
POINT
8
Source_points
62
5
10
0.374
20
0.663
30
0.000
0
TEXT
7
PNTNUM
50
0.000
8
Text
62
3
10
0.374
20
0.662
30
0.000
40
0.001
1
113
0
LINE
8
Normals
62
1
10
0.374
20
0.663
30
0.000
11
0.374
21
0.663
31
0.100
0
POINT
8
Source_points
62
5
10
0.582
20
0.523
30
0.000
0
TEXT
7
PNTNUM
50
0.000
8
Text
62
3
10
0.582
20
0.523
30
0.000
40
0.001
1
114
0
LINE
8
Normals
62
1
10
0.582
20
0.523
30
0.000
11
0.582
21
0.523
31
0.100
0
POINT
8
Source_points
62
5
10
0.116
20
0.260
30
0.000
0
TEXT
7
PNTNUM
50
0.000
8
Text
62
3
10
0.117
20
0.259
30
0.000
40
0.001
1
115
0
LINE
8
Normals
62
1
10
0.116
20
0.260
30
0.000
11
0.116
21
0.260
31
0.100
0
POINT
8
Source_points
62
5
10
0.058
20
0.962
30
0.000
0
TEXT
7
PNTNUM
50
0.000
8
Text
62
3
10
0.058
20
0.961
30
0.000
40
0.001
1
116
0
LINE
8
Normals
62
1
10
0.058
20
0.962
30
0.000
11
0.058
21
0.962
31
0.100
0
POINT
8
Source_points
62
5
10
0.980
20
0.540
30
0.000
0
TEXT
7
PNTNUM
50
0.000
8
Text
62
3
10
0.980
20
0.540
30
0.000
40
0.001
1
117
0
LINE
8
Normals
62
1
10
0.980
20
0.540
30
0.000
11
0.980
21
0.540
31
0.100
0
POINT
8
Source_points
62
5
10
0.285
20
0.030
30
0.000
0
TEXT
7
PNTNUM
50
0.000
8
Text
62
3
10
0.285
20
0.030
30
0.000
40
0.001
1
118
0
LINE
8
Normals
62
1
10
0.285
20
0.030
30
0.000
11
0.285
21
0.030
31
0.100
0
POINT
8
Source_points
62
5
10
0.595
20
0.696
30
0.000
0
TEXT
7
PNTNUM
50
0.000
8
Text
62
3
10
0.595
20
0.696
30
0.000
40
0.001
1
119
0
LINE
8
Normals
62
1
10
0.595
20
0.696
30
0.000
11
0.595
21
0.696
31
0.100
0
POINT
8
Source_points
62
5
10
0.962
20
0.520
30
0.000
0
TEXT
7
PNTNUM
50
0.000
8
Text
62
3
10
0.963
20
0.519
30
0.000
40
0.001
1
120
0
LINE
8
Normals
62
1
10
0.962
20
0.520
30
0.000
11
0.962
21
0.520
31
0.100
0
POINT
8
Source_points
62
5
10
0.186
20
0.059
30
0.000
0
TEXT
7
PNTNUM
50
0.000
8
Text
62
3
10
0.186
20
0.059
30
0.000
40
0.001
1
121
0
LINE
8
Normals
62
1
10
0.186
20
0.059
30
0.000
11
0.186
21
0.059
31
0.100
0
POINT
8
Source_points
62
5
10
0.193
20
0.890
30
0.000
0
TEXT
7
PNTNUM
50
0.000
8
Text
62
3
10
0.194
20
0.890
30
0.000
40
0.001
1
122
0
LINE
8
Normals
62
1
10
0.193
20
0.890
30
0.000
11
0.193
21
0.890
31
0.100
0
POINT
8
Source_points
62
5
10
0.342
20
0.330
30
0.000
0
TEXT
7
PNTNUM
50
0.000
8
Text
62
3
10
0.342
20
0.330
30
0.000
40
0.001
1
123
0
LINE
8
Normals
62
1
10
0.342
20
0.330
30
0.000
11
0.342
21
0.330
31
0.100
0
POINT
8
Source_points
62
5
10
0.933
20
0.230
30
0.000
0
TEXT
7
PNTNUM
50
0.000
8
Text
62
3
10
0.933
20
0.229
30
0.000
40
0.001
1
124
0
LINE
8
Normals
62
1
10
0.933
20
0.230
30
0.000
11
0.933
21
0.230
31
0.100
0
POINT
8
Source_points
62
5
10
0.391
20
0.114
30
0.000
0
TEXT
7
PNTNUM
50
0.000
8
Text
62
3
10
0.391
20
0.113
30
0.000
40
0.001
1
125
0
LINE
8
Normals
62
1
10
0.391
20
0.114
30
0.000
11
0.391
21
0.114
31
0.100
0
POINT
8
Source_points
62
5
10
0.273
20
0.311
30
0.000
0
TEXT
7
PNTNUM
50
0.000
8
Text
62
3
10
0.274
20
0.310
30
0.000
40
0.001
1
126
0
LINE
8
Normals
62
1
10
0.273
20
0.311
30
0.000
11
0.273
21
0.311
31
0.100
0
POINT
8
Source_points
62
5
10
0.152
20
0.228
30
0.000
0
TEXT
7
PNTNUM
50
0.000
8
Text
62
3
10
0.152
20
0.228
30
0.000
40
0.001
1
127
0
LINE
8
Normals
62
1
10
0.152
20
0.228
30
0.000
11
0.152
21
0.228
31
0.100
0
POINT
8
Source_points
62
5
10
0.397
20
0.652
30
0.000
0
TEXT
7
PNTNUM
50
0.000
8
Text
62
3
10
0.398
20
0.651
30
0.000
40
0.001
1
128
0
LINE
8
Normals
62
1
10
0.397
20
0.652
30
0.000
11
0.397
21
0.652
31
0.100
0
POINT
8
Source_points
62
5
10
0.375
20
0.066
30
0.000
0
TEXT
7
PNTNUM
50
0.000
8
Text
62
3
10
0.375
20
0.066
30
0.000
40
0.001
1
129
0
LINE
8
Normals
62
1
10
0.375
20
0.066
30
0.000
11
0.375
21
0.066
31
0.100
0
POINT
8
Source_points
62
5
10
0.131
20
0.275
30
0.000
0
TEXT
7
PNTNUM
50
0.000
8
Text
62
3
10
0.132
20
0.275
30
0.000
40
0.001
1
130
0
LINE
8
Normals
62
1
10
0.131
20
0.275
30
0.000
11
0.131
21
0.275
31
0.100
0
POINT
8
Source_points
62
5
10
0.435
20
0.282
30
0.000
0
TEXT
7
PNTNUM
50
0.000
8
Text
62
3
10
0.436
20
0.281
30
0.000
40
0.001
1
131
0
LINE
8
Normals
62
1
10
0.435
20
0.282
30
0.000
11
0.435
21
0.282
31
0.100
0
POINT
8
Source_points
62
5
10
0.092
20
0.880
30
0.000
0
TEXT
7
PNTNUM
50
0.000
8
Text
62
3
10
0.092
20
0.880
30
0.000
40
0.001
1
132
0
LINE
8
Normals
62
1
10
0.092
20
0.880
30
0.000
11
0.092
21
0.880
31
0.100
0
POINT
8
Source_points
62
5
10
0.615
20
0.444
30
0.000
0
TEXT
7
PNTNUM
50
0.000
8
Text
62
3
10
0.615
20
0.444
30
0.000
40
0.001
1
133
0
LINE
8
Normals
62
1
10
0.615
20
0.444
30
0.000
11
0.615
21
0.444
31
0.100
0
POINT
8
Source_points
62
5
10
0.011
20
0.756
30
0.000
0
TEXT
7
PNTNUM
50
0.000
8
Text
62
3
10
0.011
20
0.755
30
0.000
40
0.001
1
134
0
LINE
8
Normals
62
1
10
0.011
20
0.756
30
0.000
11
0.011
21
0.756
31
0.100
0
POINT
8
Source_points
62
5
10
0.573
20
0.603
30
0.000
0
TEXT
7
PNTNUM
50
0.000
8
Text
62
3
10
0.574
20
0.603
30
0.000
40
0.001
1
135
0
LINE
8
Normals
62
1
10
0.573
20
0.603
30
0.000
11
0.573
21
0.603
31
0.100
0
POINT
8
Source_points
62
5
10
0.790
20
0.783
30
0.000
0
TEXT
7
PNTNUM
50
0.000
8
Text
62
3
10
0.790
20
0.783
30
0.000
40
0.001
1
136
0
LINE
8
Normals
62
1
10
0.790
20
0.783
30
0.000
11
0.790
21
0.783
31
0.100
0
POINT
8
Source_points
62
5
10
0.235
20
0.114
30
0.000
0
TEXT
7
PNTNUM
50
0.000
8
Text
62
3
10
0.236
20
0.113
30
0.000
40
0.001
1
137
0
LINE
8
Normals
62
1
10
0.235
20
0.114
30
0.000
11
0.235
21
0.114
31
0.100
0
POINT
8
Source_points
62
5
10
0.448
20
0.979
30
0.000
0
TEXT
7
PNTNUM
50
0.000
8
Text
62
3
10
0.449
20
0.978
30
0.000
40
0.001
1
138
0
LINE
8
Normals
62
1
10
0.448
20
0.979
30
0.000
11
0.448
21
0.979
31
0.100
0
POINT
8
Source_points
62
5
10
0.569
20
0.849
30
0.000
0
TEXT
7
PNTNUM
50
0.000
8
Text
62
3
10
0.570
20
0.848
30
0.000
40
0.001
1
139
0
LINE
8
Normals
62
1
10
0.569
20
0.849
30
0.000
11
0.569
21
0.849
31
0.100
0
POINT
8
Source_points
62
5
10
0.061
20
0.051
30
0.000
0
TEXT
7
PNTNUM
50
0.000
8
Text
62
3
10
0.062
20
0.050
30
0.000
40
0.001
1
140
0
LINE
8
Normals
62
1
10
0.061
20
0.051
30
0.000
11
0.061
21
0.051
31
0.100
0
POINT
8
Source_points
62
5
10
0.496
20
0.466
30
0.000
0
TEXT
7
PNTNUM
50
0.000
8
Text
62
3
10
0.497
20
0.466
30
0.000
40
0.001
1
141
0
LINE
8
Normals
62
1
10
0.496
20
0.466
30
0.000
11
0.496
21
0.466
31
0.100
0
POINT
8
Source_points
62
5
10
0.642
20
0.326
30
0.000
0
TEXT
7
PNTNUM
50
0.000
8
Text
62
3
10
0.643
20
0.325
30
0.000
40
0.001
1
142
0
LINE
8
Normals
62
1
10
0.642
20
0.326
30
0.000
11
0.642
21
0.326
31
0.100
0
POINT
8
Source_points
62
5
10
0.221
20
0.630
30
0.000
0
TEXT
7
PNTNUM
50
0.000
8
Text
62
3
10
0.222
20
0.630
30
0.000
40
0.001
1
143
0
LINE
8
Normals
62
1
10
0.221
20
0.630
30
0.000
11
0.221
21
0.630
31
0.100
0
POINT
8
Source_points
62
5
10
0.837
20
0.230
30
0.000
0
TEXT
7
PNTNUM
50
0.000
8
Text
62
3
10
0.838
20
0.230
30
0.000
40
0.001
1
144
0
LINE
8
Normals
62
1
10
0.837
20
0.230
30
0.000
11
0.837
21
0.230
31
0.100
0
POINT
8
Source_points
62
5
10
0.971
20
0.580
30
0.000
0
TEXT
7
PNTNUM
50
0.000
8
Text
62
3
10
0.972
20
0.579
30
0.000
40
0.001
1
145
0
LINE
8
Normals
62
1
10
0.971
20
0.580
30
0.000
11
0.971
21
0.580
31
0.100
0
POINT
8
Source_points
62
5
10
0.846
20
0.603
30
0.000
0
TEXT
7
PNTNUM
50
0.000
8
Text
62
3
10
0.847
20
0.603
30
0.000
40
0.001
1
146
0
LINE
8
Normals
62
1
10
0.846
20
0.603
30
0.000
11
0.846
21
0.603
31
0.100
0
POINT
8
Source_points
62
5
10
0.506
20
0.600
30
0.000
0
TEXT
7
PNTNUM
50
0.000
8
Text
62
3
10
0.506
20
0.599
30
0.000
40
0.001
1
147
0
LINE
8
Normals
62
1
10
0.506
20
0.600
30
0.000
11
0.506
21
0.600
31
0.100
0
POINT
8
Source_points
62
5
10
0.279
20
0.448
30
0.000
0
TEXT
7
PNTNUM
50
0.000
8
Text
62
3
10
0.279
20
0.448
30
0.000
40
0.001
1
148
0
LINE
8
Normals
62
1
10
0.279
20
0.448
30
0.000
11
0.279
21
0.448
31
0.100
0
POINT
8
Source_points
62
5
10
0.747
20
0.035
30
0.000
0
TEXT
7
PNTNUM
50
0.000
8
Text
62
3
10
0.747
20
0.035
30
0.000
40
0.001
1
149
0
LINE
8
Normals
62
1
10
0.747
20
0.035
30
0.000
11
0.747
21
0.035
31
0.100
0
POINT
8
Source_points
62
5
10
0.237
20
0.514
30
0.000
0
TEXT
7
PNTNUM
50
0.000
8
Text
62
3
10
0.237
20
0.513
30
0.000
40
0.001
1
150
0
LINE
8
Normals
62
1
10
0.237
20
0.514
30
0.000
11
0.237
21
0.514
31
0.100
0
POINT
8
Source_points
62
5
10
0.957
20
0.408
30
0.000
0
TEXT
7
PNTNUM
50
0.000
8
Text
62
3
10
0.958
20
0.407
30
0.000
40
0.001
1
151
0
LINE
8
Normals
62
1
10
0.957
20
0.408
30
0.000
11
0.957
21
0.408
31
0.100
0
POINT
8
Source_points
62
5
10
0.620
20
0.108
30
0.000
0
TEXT
7
PNTNUM
50
0.000
8
Text
62
3
10
0.621
20
0.108
30
0.000
40
0.001
1
152
0
LINE
8
Normals
62
1
10
0.620
20
0.108
30
0.000
11
0.620
21
0.108
31
0.100
0
POINT
8
Source_points
62
5
10
0.600
20
0.460
30
0.000
0
TEXT
7
PNTNUM
50
0.000
8
Text
62
3
10
0.601
20
0.459
30
0.000
40
0.001
1
153
0
LINE
8
Normals
62
1
10
0.600
20
0.460
30
0.000
11
0.600
21
0.460
31
0.100
0
POINT
8
Source_points
62
5
10
0.173
20
0.451
30
0.000
0
TEXT
7
PNTNUM
50
0.000
8
Text
62
3
10
0.173
20
0.450
30
0.000
40
0.001
1
154
0
LINE
8
Normals
62
1
10
0.173
20
0.451
30
0.000
11
0.173
21
0.451
31
0.100
0
POINT
8
Source_points
62
5
10
0.090
20
0.551
30
0.000
0
TEXT
7
PNTNUM
50
0.000
8
Text
62
3
10
0.091
20
0.551
30
0.000
40
0.001
1
155
0
LINE
8
Normals
62
1
10
0.090
20
0.551
30
0.000
11
0.090
21
0.551
31
0.100
0
POINT
8
Source_points
62
5
10
0.255
20
0.805
30
0.000
0
TEXT
7
PNTNUM
50
0.000
8
Text
62
3
10
0.256
20
0.805
30
0.000
40
0.001
1
156
0
LINE
8
Normals
62
1
10
0.255
20
0.805
30
0.000
11
0.255
21
0.805
31
0.100
0
POINT
8
Source_points
62
5
10
0.859
20
0.701
30
0.000
0
TEXT
7
PNTNUM
50
0.000
8
Text
62
3
10
0.859
20
0.700
30
0.000
40
0.001
1
157
0
LINE
8
Normals
62
1
10
0.859
20
0.701
30
0.000
11
0.859
21
0.701
31
0.100
0
POINT
8
Source_points
62
5
10
0.911
20
0.872
30
0.000
0
TEXT
7
PNTNUM
50
0.000
8
Text
62
3
10
0.912
20
0.872
30
0.000
40
0.001
1
158
0
LINE
8
Normals
62
1
10
0.911
20
0.872
30
0.000
11
0.911
21
0.872
31
0.100
0
POINT
8
Source_points
62
5
10
0.700
20
0.052
30
0.000
0
TEXT
7
PNTNUM
50
0.000
8
Text
62
3
10
0.700
20
0.052
30
0.000
40
0.001
1
159
0
LINE
8
Normals
62
1
10
0.700
20
0.052
30
0.000
11
0.700
21
0.052
31
0.100
0
POINT
8
Source_points
62
5
10
0.725
20
0.220
30
0.000
0
TEXT
7
PNTNUM
50
0.000
8
Text
62
3
10
0.726
20
0.219
30
0.000
40
0.001
1
160
0
LINE
8
Normals
62
1
10
0.725
20
0.220
30
0.000
11
0.725
21
0.220
31
0.100
0
POINT
8
Source_points
62
5
10
0.230
20
0.460
30
0.000
0
TEXT
7
PNTNUM
50
0.000
8
Text
62
3
10
0.230
20
0.459
30
0.000
40
0.001
1
161
0
LINE
8
Normals
62
1
10
0.230
20
0.460
30
0.000
11
0.230
21
0.460
31
0.100
0
POINT
8
Source_points
62
5
10
0.576
20
0.959
30
0.000
0
TEXT
7
PNTNUM
50
0.000
8
Text
62
3
10
0.577
20
0.958
30
0.000
40
0.001
1
162
0
LINE
8
Normals
62
1
10
0.576
20
0.959
30
0.000
11
0.576
21
0.959
31
0.100
0
POINT
8
Source_points
62
5
10
0.811
20
0.790
30
0.000
0
TEXT
7
PNTNUM
50
0.000
8
Text
62
3
10
0.811
20
0.790
30
0.000
40
0.001
1
163
0
LINE
8
Normals
62
1
10
0.811
20
0.790
30
0.000
11
0.811
21
0.790
31
0.100
0
POINT
8
Source_points
62
5
10
0.404
20
0.452
30
0.000
0
TEXT
7
PNTNUM
50
0.000
8
Text
62
3
10
0.404
20
0.451
30
0.000
40
0.001
1
164
0
LINE
8
Normals
62
1
10
0.404
20
0.452
30
0.000
11
0.404
21
0.452
31
0.100
0
POINT
8
Source_points
62
5
10
0.988
20
0.333
30
0.000
0
TEXT
7
PNTNUM
50
0.000
8
Text
62
3
10
0.989
20
0.333
30
0.000
40
0.001
1
165
0
LINE
8
Normals
62
1
10
0.988
20
0.333
30
0.000
11
0.988
21
0.333
31
0.100
0
POINT
8
Source_points
62
5
10
0.090
20
0.059
30
0.000
0
TEXT
7
PNTNUM
50
0.000
8
Text
62
3
10
0.090
20
0.059
30
0.000
40
0.001
1
166
0
LINE
8
Normals
62
1
10
0.090
20
0.059
30
0.000
11
0.090
21
0.059
31
0.100
0
POINT
8
Source_points
62
5
10
0.321
20
0.741
30
0.000
0
TEXT
7
PNTNUM
50
0.000
8
Text
62
3
10
0.321
20
0.740
30
0.000
40
0.001
1
167
0
LINE
8
Normals
62
1
10
0.321
20
0.741
30
0.000
11
0.321
21
0.741
31
0.100
0
POINT
8
Source_points
62
5
10
0.511
20
0.507
30
0.000
0
TEXT
7
PNTNUM
50
0.000
8
Text
62
3
10
0.512
20
0.506
30
0.000
40
0.001
1
168
0
LINE
8
Normals
62
1
10
0.511
20
0.507
30
0.000
11
0.511
21
0.507
31
0.100
0
POINT
8
Source_points
62
5
10
0.061
20
0.200
30
0.000
0
TEXT
7
PNTNUM
50
0.000
8
Text
62
3
10
0.061
20
0.199
30
0.000
40
0.001
1
169
0
LINE
8
Normals
62
1
10
0.061
20
0.200
30
0.000
11
0.061
21
0.200
31
0.100
0
POINT
8
Source_points
62
5
10
0.726
20
0.427
30
0.000
0
TEXT
7
PNTNUM
50
0.000
8
Text
62
3
10
0.726
20
0.427
30
0.000
40
0.001
1
170
0
LINE
8
Normals
62
1
10
0.726
20
0.427
30
0.000
11
0.726
21
0.427
31
0.100
0
POINT
8
Source_points
62
5
10
0.557
20
0.169
30
0.000
0
TEXT
7
PNTNUM
50
0.000
8
Text
62
3
10
0.557
20
0.168
30
0.000
40
0.001
1
171
0
LINE
8
Normals
62
1
10
0.557
20
0.169
30
0.000
11
0.557
21
0.169
31
0.100
0
POINT
8
Source_points
62
5
10
0.529
20
0.752
30
0.000
0
TEXT
7
PNTNUM
50
0.000
8
Text
62
3
10
0.530
20
0.751
30
0.000
40
0.001
1
172
0
LINE
8
Normals
62
1
10
0.529
20
0.752
30
0.000
11
0.529
21
0.752
31
0.100
0
POINT
8
Source_points
62
5
10
0.830
20
0.368
30
0.000
0
TEXT
7
PNTNUM
50
0.000
8
Text
62
3
10
0.830
20
0.368
30
0.000
40
0.001
1
173
0
LINE
8
Normals
62
1
10
0.830
20
0.368
30
0.000
11
0.830
21
0.368
31
0.100
0
POINT
8
Source_points
62
5
10
0.859
20
0.942
30
0.000
0
TEXT
7
PNTNUM
50
0.000
8
Text
62
3
10
0.859
20
0.941
30
0.000
40
0.001
1
174
0
LINE
8
Normals
62
1
10
0.859
20
0.942
30
0.000
11
0.859
21
0.942
31
0.100
0
POINT
8
Source_points
62
5
10
0.789
20
0.017
30
0.000
0
TEXT
7
PNTNUM
50
0.000
8
Text
62
3
10
0.790
20
0.017
30
0.000
40
0.001
1
175
0
LINE
8
Normals
62
1
10
0.789
20
0.017
30
0.000
11
0.789
21
0.017
31
0.100
0
POINT
8
Source_points
62
5
10
0.318
20
0.829
30
0.000
0
TEXT
7
PNTNUM
50
0.000
8
Text
62
3
10
0.318
20
0.829
30
0.000
40
0.001
1
176
0
LINE
8
Normals
62
1
10
0.318
20
0.829
30
0.000
11
0.318
21
0.829
31
0.100
0
POINT
8
Source_points
62
5
10
0.452
20
0.627
30
0.000
0
TEXT
7
PNTNUM
50
0.000
8
Text
62
3
10
0.453
20
0.626
30
0.000
40
0.001
1
177
0
LINE
8
Normals
62
1
10
0.452
20
0.627
30
0.000
11
0.452
21
0.627
31
0.100
0
POINT
8
Source_points
62
5
10
0.752
20
0.539
30
0.000
0
TEXT
7
PNTNUM
50
0.000
8
Text
62
3
10
0.753
20
0.538
30
0.000
40
0.001
1
178
0
LINE
8
Normals
62
1
10
0.752
20
0.539
30
0.000
11
0.752
21
0.539
31
0.100
0
POINT
8
Source_points
62
5
10
0.110
20
0.651
30
0.000
0
TEXT
7
PNTNUM
50
0.000
8
Text
62
3
10
0.110
20
0.650
30
0.000
40
0.001
1
179
0
LINE
8
Normals
62
1
10
0.110
20
0.651
30
0.000
11
0.110
21
0.651
31
0.100
0
POINT
8
Source_points
62
5
10
0.110
20
0.727
30
0.000
0
TEXT
7
PNTNUM
50
0.000
8
Text
62
3
10
0.110
20
0.726
30
0.000
40
0.001
1
180
0
LINE
8
Normals
62
1
10
0.110
20
0.727
30
0.000
11
0.110
21
0.727
31
0.100
0
POINT
8
Source_points
62
5
10
0.270
20
0.094
30
0.000
0
TEXT
7
PNTNUM
50
0.000
8
Text
62
3
10
0.270
20
0.094
30
0.000
40
0.001
1
181
0
LINE
8
Normals
62
1
10
0.270
20
0.094
30
0.000
11
0.270
21
0.094
31
0.100
0
POINT
8
Source_points
62
5
10
0.525
20
0.878
30
0.000
0
TEXT
7
PNTNUM
50
0.000
8
Text
62
3
10
0.525
20
0.877
30
0.000
40
0.001
1
182
0
LINE
8
Normals
62
1
10
0.525
20
0.878
30
0.000
11
0.525
21
0.878
31
0.100
0
POINT
8
Source_points
62
5
10
0.973
20
0.014
30
0.000
0
TEXT
7
PNTNUM
50
0.000
8
Text
62
3
10
0.973
20
0.014
30
0.000
40
0.001
1
183
0
LINE
8
Normals
62
1
10
0.973
20
0.014
30
0.000
11
0.973
21
0.014
31
0.100
0
POINT
8
Source_points
62
5
10
0.710
20
0.294
30
0.000
0
TEXT
7
PNTNUM
50
0.000
8
Text
62
3
10
0.711
20
0.294
30
0.000
40
0.001
1
184
0
LINE
8
Normals
62
1
10
0.710
20
0.294
30
0.000
11
0.710
21
0.294
31
0.100
0
POINT
8
Source_points
62
5
10
0.312
20
0.180
30
0.000
0
TEXT
7
PNTNUM
50
0.000
8
Text
62
3
10
0.312
20
0.179
30
0.000
40
0.001
1
185
0
LINE
8
Normals
62
1
10
0.312
20
0.180
30
0.000
11
0.312
21
0.180
31
0.100
0
POINT
8
Source_points
62
5
10
0.291
20
0.926
30
0.000
0
TEXT
7
PNTNUM
50
0.000
8
Text
62
3
10
0.292
20
0.926
30
0.000
40
0.001
1
186
0
LINE
8
Normals
62
1
10
0.291
20
0.926
30
0.000
11
0.291
21
0.926
31
0.100
0
POINT
8
Source_points
62
5
10
0.850
20
0.068
30
0.000
0
TEXT
7
PNTNUM
50
0.000
8
Text
62
3
10
0.851
20
0.068
30
0.000
40
0.001
1
187
0
LINE
8
Normals
62
1
10
0.850
20
0.068
30
0.000
11
0.850
21
0.068
31
0.100
0
POINT
8
Source_points
62
5
10
0.912
20
0.581
30
0.000
0
TEXT
7
PNTNUM
50
0.000
8
Text
62
3
10
0.912
20
0.581
30
0.000
40
0.001
1
188
0
LINE
8
Normals
62
1
10
0.912
20
0.581
30
0.000
11
0.912
21
0.581
31
0.100
0
POINT
8
Source_points
62
5
10
0.639
20
0.637
30
0.000
0
TEXT
7
PNTNUM
50
0.000
8
Text
62
3
10
0.640
20
0.637
30
0.000
40
0.001
1
189
0
LINE
8
Normals
62
1
10
0.639
20
0.637
30
0.000
11
0.639
21
0.637
31
0.100
0
POINT
8
Source_points
62
5
10
0.255
20
0.651
30
0.000
0
TEXT
7
PNTNUM
50
0.000
8
Text
62
3
10
0.256
20
0.651
30
0.000
40
0.001
1
190
0
LINE
8
Normals
62
1
10
0.255
20
0.651
30
0.000
11
0.255
21
0.651
31
0.100
0
POINT
8
Source_points
62
5
10
0.089
20
0.865
30
0.000
0
TEXT
7
PNTNUM
50
0.000
8
Text
62
3
10
0.089
20
0.864
30
0.000
40
0.001
1
191
0
LINE
8
Normals
62
1
10
0.089
20
0.865
30
0.000
11
0.089
21
0.865
31
0.100
0
POINT
8
Source_points
62
5
10
0.838
20
0.056
30
0.000
0
TEXT
7
PNTNUM
50
0.000
8
Text
62
3
10
0.839
20
0.055
30
0.000
40
0.001
1
192
0
LINE
8
Normals
62
1
10
0.838
20
0.056
30
0.000
11
0.838
21
0.056
31
0.100
0
POINT
8
Source_points
62
5
10
0.585
20
0.817
30
0.000
0
TEXT
7
PNTNUM
50
0.000
8
Text
62
3
10
0.585
20
0.816
30
0.000
40
0.001
1
193
0
LINE
8
Normals
62
1
10
0.585
20
0.817
30
0.000
11
0.585
21
0.817
31
0.100
0
POINT
8
Source_points
62
5
10
0.948
20
0.529
30
0.000
0
TEXT
7
PNTNUM
50
0.000
8
Text
62
3
10
0.949
20
0.528
30
0.000
40
0.001
1
194
0
LINE
8
Normals
62
1
10
0.948
20
0.529
30
0.000
11
0.948
21
0.529
31
0.100
0
POINT
8
Source_points
62
5
10
0.061
20
0.694
30
0.000
0
TEXT
7
PNTNUM
50
0.000
8
Text
62
3
10
0.062
20
0.694
30
0.000
40
0.001
1
195
0
LINE
8
Normals
62
1
10
0.061
20
0.694
30
0.000
11
0.061
21
0.694
31
0.100
0
POINT
8
Source_points
62
5
10
0.585
20
0.212
30
0.000
0
TEXT
7
PNTNUM
50
0.000
8
Text
62
3
10
0.585
20
0.212
30
0.000
40
0.001
1
196
0
LINE
8
Normals
62
1
10
0.585
20
0.212
30
0.000
11
0.585
21
0.212
31
0.100
0
POINT
8
Source_points
62
5
10
0.285
20
0.543
30
0.000
0
TEXT
7
PNTNUM
50
0.000
8
Text
62
3
10
0.286
20
0.543
30
0.000
40
0.001
1
197
0
LINE
8
Normals
62
1
10
0.285
20
0.543
30
0.000
11
0.285
21
0.543
31
0.100
0
POINT
8
Source_points
62
5
10
0.828
20
0.703
30
0.000
0
TEXT
7
PNTNUM
50
0.000
8
Text
62
3
10
0.828
20
0.702
30
0.000
40
0.001
1
198
0
LINE
8
Normals
62
1
10
0.828
20
0.703
30
0.000
11
0.828
21
0.703
31
0.100
0
POINT
8
Source_points
62
5
10
0.191
20
0.956
30
0.000
0
TEXT
7
PNTNUM
50
0.000
8
Text
62
3
10
0.191
20
0.956
30
0.000
40
0.001
1
199
0
LINE
8
Normals
62
1
10
0.191
20
0.956
30
0.000
11
0.191
21
0.956
31
0.100
0
POINT
8
Source_points
62
5
10
0.443
20
0.445
30
0.000
0
TEXT
7
PNTNUM
50
0.000
8
Text
62
3
10
0.443
20
0.444
30
0.000
40
0.001
1
200
0
LINE
8
Normals
62
1
10
0.443
20
0.445
30
0.000
11
0.443
21
0.445
31
0.100
0
POINT
8
Source_points
62
5
10
0.393
20
0.085
30
0.000
0
TEXT
7
PNTNUM
50
0.000
8
Text
62
3
10
0.394
20
0.085
30
0.000
40
0.001
1
201
0
LINE
8
Normals
62
1
10
0.393
20
0.085
30
0.000
11
0.393
21
0.085
31
0.100
0
POINT
8
Source_points
62
5
10
0.827
20
0.057
30
0.000
0
TEXT
7
PNTNUM
50
0.000
8
Text
62
3
10
0.827
20
0.057
30
0.000
40
0.001
1
202
0
LINE
8
Normals
62
1
10
0.827
20
0.057
30
0.000
11
0.827
21
0.057
31
0.100
0
POINT
8
Source_points
62
5
10
0.677
20
0.629
30
0.000
0
TEXT
7
PNTNUM
50
0.000
8
Text
62
3
10
0.677
20
0.629
30
0.000
40
0.001
1
203
0
LINE
8
Normals
62
1
10
0.677
20
0.629
30
0.000
11
0.677
21
0.629
31
0.100
0
POINT
8
Source_points
62
5
10
0.208
20
0.796
30
0.000
0
TEXT
7
PNTNUM
50
0.000
8
Text
62
3
10
0.208
20
0.796
30
0.000
40
0.001
1
204
0
LINE
8
Normals
62
1
10
0.208
20
0.796
30
0.000
11
0.208
21
0.796
31
0.100
0
POINT
8
Source_points
62
5
10
0.318
20
0.691
30
0.000
0
TEXT
7
PNTNUM
50
0.000
8
Text
62
3
10
0.319
20
0.691
30
0.000
40
0.001
1
205
0
LINE
8
Normals
62
1
10
0.318
20
0.691
30
0.000
11
0.318
21
0.691
31
0.100
0
POINT
8
Source_points
62
5
10
0.134
20
0.345
30
0.000
0
TEXT
7
PNTNUM
50
0.000
8
Text
62
3
10
0.134
20
0.345
30
0.000
40
0.001
1
206
0
LINE
8
Normals
62
1
10
0.134
20
0.345
30
0.000
11
0.134
21
0.345
31
0.100
0
POINT
8
Source_points
62
5
10
0.671
20
0.947
30
0.000
0
TEXT
7
PNTNUM
50
0.000
8
Text
62
3
10
0.672
20
0.946
30
0.000
40
0.001
1
207
0
LINE
8
Normals
62
1
10
0.671
20
0.947
30
0.000
11
0.671
21
0.947
31
0.100
0
POINT
8
Source_points
62
5
10
0.571
20
0.520
30
0.000
0
TEXT
7
PNTNUM
50
0.000
8
Text
62
3
10
0.571
20
0.520
30
0.000
40
0.001
1
208
0
LINE
8
Normals
62
1
10
0.571
20
0.520
30
0.000
11
0.571
21
0.520
31
0.100
0
POINT
8
Source_points
62
5
10
0.170
20
0.954
30
0.000
0
TEXT
7
PNTNUM
50
0.000
8
Text
62
3
10
0.170
20
0.953
30
0.000
40
0.001
1
209
0
LINE
8
Normals
62
1
10
0.170
20
0.954
30
0.000
11
0.170
21
0.954
31
0.100
0
POINT
8
Source_points
62
5
10
0.148
20
0.074
30
0.000
0
TEXT
7
PNTNUM
50
0.000
8
Text
62
3
10
0.148
20
0.073
30
0.000
40
0.001
1
210
0
LINE
8
Normals
62
1
10
0.148
20
0.074
30
0.000
11
0.148
21
0.074
31
0.100
0
POINT
8
Source_points
62
5
10
0.476
20
0.207
30
0.000
0
TEXT
7
PNTNUM
50
0.000
8
Text
62
3
10
0.477
20
0.207
30
0.000
40
0.001
1
211
0
LINE
8
Normals
62
1
10
0.476
20
0.207
30
0.000
11
0.476
21
0.207
31
0.100
0
POINT
8
Source_points
62
5
10
0.908
20
0.775
30
0.000
0
TEXT
7
PNTNUM
50
0.000
8
Text
62
3
10
0.909
20
0.775
30
0.000
40
0.001
1
212
0
LINE
8
Normals
62
1
10
0.908
20
0.775
30
0.000
11
0.908
21
0.775
31
0.100
0
POINT
8
Source_points
62
5
10
0.552
20
0.914
30
0.000
0
TEXT
7
PNTNUM
50
0.000
8
Text
62
3
10
0.553
20
0.914
30
0.000
40
0.001
1
213
0
LINE
8
Normals
62
1
10
0.552
20
0.914
30
0.000
11
0.552
21
0.914
31
0.100
0
POINT
8
Source_points
62
5
10
0.033
20
0.783
30
0.000
0
TEXT
7
PNTNUM
50
0.000
8
Text
62
3
10
0.033
20
0.782
30
0.000
40
0.001
1
214
0
LINE
8
Normals
62
1
10
0.033
20
0.783
30
0.000
11
0.033
21
0.783
31
0.100
0
POINT
8
Source_points
62
5
10
0.054
20
0.296
30
0.000
0
TEXT
7
PNTNUM
50
0.000
8
Text
62
3
10
0.054
20
0.295
30
0.000
40
0.001
1
215
0
LINE
8
Normals
62
1
10
0.054
20
0.296
30
0.000
11
0.054
21
0.296
31
0.100
0
POINT
8
Source_points
62
5
10
0.805
20
0.152
30
0.000
0
TEXT
7
PNTNUM
50
0.000
8
Text
62
3
10
0.806
20
0.151
30
0.000
40
0.001
1
216
0
LINE
8
Normals
62
1
10
0.805
20
0.152
30
0.000
11
0.805
21
0.152
31
0.100
0
POINT
8
Source_points
62
5
10
0.451
20
0.848
30
0.000
0
TEXT
7
PNTNUM
50
0.000
8
Text
62
3
10
0.452
20
0.847
30
0.000
40
0.001
1
217
0
LINE
8
Normals
62
1
10
0.451
20
0.848
30
0.000
11
0.451
21
0.848
31
0.100
0
POINT
8
Source_points
62
5
10
0.383
20
0.785
30
0.000
0
TEXT
7
PNTNUM
50
0.000
8
Text
62
3
10
0.383
20
0.784
30
0.000
40
0.001
1
218
0
LINE
8
Normals
62
1
10
0.383
20
0.785
30
0.000
11
0.383
21
0.785
31
0.100
0
POINT
8
Source_points
62
5
10
0.790
20
0.271
30
0.000
0
TEXT
7
PNTNUM
50
0.000
8
Text
62
3
10
0.790
20
0.270
30
0.000
40
0.001
1
219
0
LINE
8
Normals
62
1
10
0.790
20
0.271
30
0.000
11
0.790
21
0.271
31
0.100
0
POINT
8
Source_points
62
5
10
0.364
20
0.228
30
0.000
0
TEXT
7
PNTNUM
50
0.000
8
Text
62
3
10
0.365
20
0.227
30
0.000
40
0.001
1
220
0
LINE
8
Normals
62
1
10
0.364
20
0.228
30
0.000
11
0.364
21
0.228
31
0.100
0
POINT
8
Source_points
62
5
10
0.532
20
0.321
30
0.000
0
TEXT
7
PNTNUM
50
0.000
8
Text
62
3
10
0.533
20
0.321
30
0.000
40
0.001
1
221
0
LINE
8
Normals
62
1
10
0.532
20
0.321
30
0.000
11
0.532
21
0.321
31
0.100
0
POINT
8
Source_points
62
5
10
0.712
20
0.830
30
0.000
0
TEXT
7
PNTNUM
50
0.000
8
Text
62
3
10
0.712
20
0.829
30
0.000
40
0.001
1
222
0
LINE
8
Normals
62
1
10
0.712
20
0.830
30
0.000
11
0.712
21
0.830
31
0.100
0
POINT
8
Source_points
62
5
10
0.871
20
0.822
30
0.000
0
TEXT
7
PNTNUM
50
0.000
8
Text
62
3
10
0.872
20
0.822
30
0.000
40
0.001
1
223
0
LINE
8
Normals
62
1
10
0.871
20
0.822
30
0.000
11
0.871
21
0.822
31
0.100
0
POINT
8
Source_points
62
5
10
0.329
20
0.571
30
0.000
0
TEXT
7
PNTNUM
50
0.000
8
Text
62
3
10
0.329
20
0.570
30
0.000
40
0.001
1
224
0
LINE
8
Normals
62
1
10
0.329
20
0.571
30
0.000
11
0.329
21
0.571
31
0.100
0
POINT
8
Source_points
62
5
10
0.650
20
0.572
30
0.000
0
TEXT
7
PNTNUM
50
0.000
8
Text
62
3
10
0.651
20
0.571
30
0.000
40
0.001
1
225
0
LINE
8
Normals
62
1
10
0.650
20
0.572
30
0.000
11
0.650
21
0.572
31
0.100
0
POINT
8
Source_points
62
5
10
0.975
20
0.286
30
0.000
0
TEXT
7
PNTNUM
50
0.000
8
Text
62
3
10
0.975
20
0.286
30
0.000
40
0.001
1
226
0
LINE
8
Normals
62
1
10
0.975
20
0.286
30
0.000
11
0.975
21
0.286
31
0.100
0
POINT
8
Source_points
62
5
10
0.076
20
0.699
30
0.000
0
TEXT
7
PNTNUM
50
0.000
8
Text
62
3
10
0.076
20
0.699
30
0.000
40
0.001
1
227
0
LINE
8
Normals
62
1
10
0.076
20
0.699
30
0.000
11
0.076
21
0.699
31
0.100
0
POINT
8
Source_points
62
5
10
0.587
20
0.796
30
0.000
0
TEXT
7
PNTNUM
50
0.000
8
Text
62
3
10
0.588
20
0.796
30
0.000
40
0.001
1
228
0
LINE
8
Normals
62
1
10
0.587
20
0.796
30
0.000
11
0.587
21
0.796
31
0.100
0
POINT
8
Source_points
62
5
10
0.414
20
0.442
30
0.000
0
TEXT
7
PNTNUM
50
0.000
8
Text
62
3
10
0.414
20
0.441
30
0.000
40
0.001
1
229
0
LINE
8
Normals
62
1
10
0.414
20
0.442
30
0.000
11
0.414
21
0.442
31
0.100
0
POINT
8
Source_points
62
5
10
0.309
20
0.446
30
0.000
0
TEXT
7
PNTNUM
50
0.000
8
Text
62
3
10
0.310
20
0.446
30
0.000
40
0.001
1
230
0
LINE
8
Normals
62
1
10
0.309
20
0.446
30
0.000
11
0.309
21
0.446
31
0.100
0
POINT
8
Source_points
62
5
10
0.264
20
0.466
30
0.000
0
TEXT
7
PNTNUM
50
0.000
8
Text
62
3
10
0.264
20
0.465
30
0.000
40
0.001
1
231
0
LINE
8
Normals
62
1
10
0.264
20
0.466
30
0.000
11
0.264
21
0.466
31
0.100
0
POINT
8
Source_points
62
5
10
0.759
20
0.279
30
0.000
0
TEXT
7
PNTNUM
50
0.000
8
Text
62
3
10
0.759
20
0.279
30
0.000
40
0.001
1
232
0
LINE
8
Normals
62
1
10
0.759
20
0.279
30
0.000
11
0.759
21
0.279
31
0.100
0
POINT
8
Source_points
62
5
10
0.995
20
0.675
30
0.000
0
TEXT
7
PNTNUM
50
0.000
8
Text
62
3
10
0.996
20
0.675
30
0.000
40
0.001
1
233
0
LINE
8
Normals
62
1
10
0.995
20
0.675
30
0.000
11
0.995
21
0.675
31
0.100
0
POINT
8
Source_points
62
5
10
0.187
20
0.904
30
0.000
0
TEXT
7
PNTNUM
50
0.000
8
Text
62
3
10
0.187
20
0.903
30
0.000
40
0.001
1
234
0
LINE
8
Normals
62
1
10
0.187
20
0.904
30
0.000
11
0.187
21
0.904
31
0.100
0
POINT
8
Source_points
62
5
10
0.781
20
0.909
30
0.000
0
TEXT
7
PNTNUM
50
0.000
8
Text
62
3
10
0.782
20
0.908
30
0.000
40
0.001
1
235
0
LINE
8
Normals
62
1
10
0.781
20
0.909
30
0.000
11
0.781
21
0.909
31
0.100
0
POINT
8
Source_points
62
5
10
0.196
20
0.747
30
0.000
0
TEXT
7
PNTNUM
50
0.000
8
Text
62
3
10
0.196
20
0.747
30
0.000
40
0.001
1
236
0
LINE
8
Normals
62
1
10
0.196
20
0.747
30
0.000
11
0.196
21
0.747
31
0.100
0
POINT
8
Source_points
62
5
10
0.992
20
0.261
30
0.000
0
TEXT
7
PNTNUM
50
0.000
8
Text
62
3
10
0.993
20
0.260
30
0.000
40
0.001
1
237
0
LINE
8
Normals
62
1
10
0.992
20
0.261
30
0.000
11
0.992
21
0.261
31
0.100
0
POINT
8
Source_points
62
5
10
0.802
20
0.690
30
0.000
0
TEXT
7
PNTNUM
50
0.000
8
Text
62
3
10
0.803
20
0.689
30
0.000
40
0.001
1
238
0
LINE
8
Normals
62
1
10
0.802
20
0.690
30
0.000
11
0.802
21
0.690
31
0.100
0
POINT
8
Source_points
62
5
10
0.424
20
0.132
30
0.000
0
TEXT
7
PNTNUM
50
0.000
8
Text
62
3
10
0.425
20
0.131
30
0.000
40
0.001
1
239
0
LINE
8
Normals
62
1
10
0.424
20
0.132
30
0.000
11
0.424
21
0.132
31
0.100
0
POINT
8
Source_points
62
5
10
0.729
20
0.124
30
0.000
0
TEXT
7
PNTNUM
50
0.000
8
Text
62
3
10
0.729
20
0.123
30
0.000
40
0.001
1
240
0
LINE
8
Normals
62
1
10
0.729
20
0.124
30
0.000
11
0.729
21
0.124
31
0.100
0
POINT
8
Source_points
62
5
10
0.498
20
0.191
30
0.000
0
TEXT
7
PNTNUM
50
0.000
8
Text
62
3
10
0.499
20
0.190
30
0.000
40
0.001
1
241
0
LINE
8
Normals
62
1
10
0.498
20
0.191
30
0.000
11
0.498
21
0.191
31
0.100
0
POINT
8
Source_points
62
5
10
0.809
20
0.146
30
0.000
0
TEXT
7
PNTNUM
50
0.000
8
Text
62
3
10
0.809
20
0.145
30
0.000
40
0.001
1
242
0
LINE
8
Normals
62
1
10
0.809
20
0.146
30
0.000
11
0.809
21
0.146
31
0.100
0
POINT
8
Source_points
62
5
10
0.357
20
0.585
30
0.000
0
TEXT
7
PNTNUM
50
0.000
8
Text
62
3
10
0.357
20
0.585
30
0.000
40
0.001
1
243
0
LINE
8
Normals
62
1
10
0.357
20
0.585
30
0.000
11
0.357
21
0.585
31
0.100
0
POINT
8
Source_points
62
5
10
0.073
20
0.073
30
0.000
0
TEXT
7
PNTNUM
50
0.000
8
Text
62
3
10
0.074
20
0.073
30
0.000
40
0.001
1
244
0
LINE
8
Normals
62
1
10
0.073
20
0.073
30
0.000
11
0.073
21
0.073
31
0.100
0
POINT
8
Source_points
62
5
10
0.591
20
0.822
30
0.000
0
TEXT
7
PNTNUM
50
0.000
8
Text
62
3
10
0.591
20
0.822
30
0.000
40
0.001
1
245
0
LINE
8
Normals
62
1
10
0.591
20
0.822
30
0.000
11
0.591
21
0.822
31
0.100
0
POINT
8
Source_points
62
5
10
0.910
20
0.723
30
0.000
0
TEXT
7
PNTNUM
50
0.000
8
Text
62
3
10
0.911
20
0.722
30
0.000
40
0.001
1
246
0
LINE
8
Normals
62
1
10
0.910
20
0.723
30
0.000
11
0.910
21
0.723
31
0.100
0
POINT
8
Source_points
62
5
10
0.194
20
0.926
30
0.000
0
TEXT
7
PNTNUM
50
0.000
8
Text
62
3
10
0.194
20
0.925
30
0.000
40
0.001
1
247
0
LINE
8
Normals
62
1
10
0.194
20
0.926
30
0.000
11
0.194
21
0.926
31
0.100
0
POINT
8
Source_points
62
5
10
0.432
20
0.493
30
0.000
0
TEXT
7
PNTNUM
50
0.000
8
Text
62
3
10
0.433
20
0.492
30
0.000
40
0.001
1
248
0
LINE
8
Normals
62
1
10
0.432
20
0.493
30
0.000
11
0.432
21
0.493
31
0.100
0
POINT
8
Source_points
62
5
10
0.749
20
0.655
30
0.000
0
TEXT
7
PNTNUM
50
0.000
8
Text
62
3
10
0.750
20
0.654
30
0.000
40
0.001
1
249
0
LINE
8
Normals
62
1
10
0.749
20
0.655
30
0.000
11
0.749
21
0.655
31
0.100
0
POINT
8
Source_points
62
5
10
0.039
20
0.890
30
0.000
0
TEXT
7
PNTNUM
50
0.000
8
Text
62
3
10
0.040
20
0.890
30
0.000
40
0.001
1
250
0
LINE
8
Normals
62
1
10
0.039
20
0.890
30
0.000
11
0.039
21
0.890
31
0.100
0
POINT
8
Source_points
62
5
10
0.946
20
0.539
30
0.000
0
TEXT
7
PNTNUM
50
0.000
8
Text
62
3
10
0.947
20
0.538
30
0.000
40
0.001
1
251
0
LINE
8
Normals
62
1
10
0.946
20
0.539
30
0.000
11
0.946
21
0.539
31
0.100
0
POINT
8
Source_points
62
5
10
0.764
20
0.282
30
0.000
0
TEXT
7
PNTNUM
50
0.000
8
Text
62
3
10
0.764
20
0.282
30
0.000
40
0.001
1
252
0
LINE
8
Normals
62
1
10
0.764
20
0.282
30
0.000
11
0.764
21
0.282
31
0.100
0
POINT
8
Source_points
62
5
10
0.559
20
0.976
30
0.000
0
TEXT
7
PNTNUM
50
0.000
8
Text
62
3
10
0.559
20
0.975
30
0.000
40
0.001
1
253
0
LINE
8
Normals
62
1
10
0.559
20
0.976
30
0.000
11
0.559
21
0.976
31
0.100
0
POINT
8
Source_points
62
5
10
0.184
20
0.036
30
0.000
0
TEXT
7
PNTNUM
50
0.000
8
Text
62
3
10
0.184
20
0.036
30
0.000
40
0.001
1
254
0
LINE
8
Normals
62
1
10
0.184
20
0.036
30
0.000
11
0.184
21
0.036
31
0.100
0
POINT
8
Source_points
62
5
10
0.498
20
0.326
30
0.000
0
TEXT
7
PNTNUM
50
0.000
8
Text
62
3
10
0.498
20
0.326
30
0.000
40
0.001
1
255
0
LINE
8
Normals
62
1
10
0.498
20
0.326
30
0.000
11
0.498
21
0.326
31
0.100
0
POINT
8
Source_points
62
5
10
0.518
20
0.973
30
0.000
0
TEXT
7
PNTNUM
50
0.000
8
Text
62
3
10
0.518
20
0.973
30
0.000
40
0.001
1
256
0
LINE
8
Normals
62
1
10
0.518
20
0.973
30
0.000
11
0.518
21
0.973
31
0.100
0
POINT
8
Source_points
62
5
10
0.994
20
0.365
30
0.000
0
TEXT
7
PNTNUM
50
0.000
8
Text
62
3
10
0.995
20
0.365
30
0.000
40
0.001
1
257
0
LINE
8
Normals
62
1
10
0.994
20
0.365
30
0.000
11
0.994
21
0.365
31
0.100
0
POINT
8
Source_points
62
5
10
0.855
20
0.309
30
0.000
0
TEXT
7
PNTNUM
50
0.000
8
Text
62
3
10
0.855
20
0.309
30
0.000
40
0.001
1
258
0
LINE
8
Normals
62
1
10
0.855
20
0.309
30
0.000
11
0.855
21
0.309
31
0.100
0
POINT
8
Source_points
62
5
10
0.962
20
0.121
30
0.000
0
TEXT
7
PNTNUM
50
0.000
8
Text
62
3
10
0.963
20
0.120
30
0.000
40
0.001
1
259
0
LINE
8
Normals
62
1
10
0.962
20
0.121
30
0.000
11
0.962
21
0.121
31
0.100
0
POINT
8
Source_points
62
5
10
0.679
20
0.916
30
0.000
0
TEXT
7
PNTNUM
50
0.000
8
Text
62
3
10
0.679
20
0.915
30
0.000
40
0.001
1
260
0
LINE
8
Normals
62
1
10
0.679
20
0.916
30
0.000
11
0.679
21
0.916
31
0.100
0
POINT
8
Source_points
62
5
10
0.404
20
0.135
30
0.000
0
TEXT
7
PNTNUM
50
0.000
8
Text
62
3
10
0.404
20
0.135
30
0.000
40
0.001
1
261
0
LINE
8
Normals
62
1
10
0.404
20
0.135
30
0.000
11
0.404
21
0.135
31
0.100
0
POINT
8
Source_points
62
5
10
0.935
20
0.332
30
0.000
0
TEXT
7
PNTNUM
50
0.000
8
Text
62
3
10
0.935
20
0.332
30
0.000
40
0.001
1
262
0
LINE
8
Normals
62
1
10
0.935
20
0.332
30
0.000
11
0.935
21
0.332
31
0.100
0
POINT
8
Source_points
62
5
10
0.479
20
0.897
30
0.000
0
TEXT
7
PNTNUM
50
0.000
8
Text
62
3
10
0.480
20
0.897
30
0.000
40
0.001
1
263
0
LINE
8
Normals
62
1
10
0.479
20
0.897
30
0.000
11
0.479
21
0.897
31
0.100
0
POINT
8
Source_points
62
5
10
0.232
20
0.500
30
0.000
0
TEXT
7
PNTNUM
50
0.000
8
Text
62
3
10
0.232
20
0.499
30
0.000
40
0.001
1
264
0
LINE
8
Normals
62
1
10
0.232
20
0.500
30
0.000
11
0.232
21
0.500
31
0.100
0
POINT
8
Source_points
62
5
10
0.396
20
0.615
30
0.000
0
TEXT
7
PNTNUM
50
0.000
8
Text
62
3
10
0.397
20
0.615
30
0.000
40
0.001
1
265
0
LINE
8
Normals
62
1
10
0.396
20
0.615
30
0.000
11
0.396
21
0.615
31
0.100
0
POINT
8
Source_points
62
5
10
0.705
20
0.583
30
0.000
0
TEXT
7
PNTNUM
50
0.000
8
Text
62
3
10
0.706
20
0.583
30
0.000
40
0.001
1
266
0
LINE
8
Normals
62
1
10
0.705
20
0.583
30
0.000
11
0.705
21
0.583
31
0.100
0
POINT
8
Source_points
62
5
10
0.559
20
0.698
30
0.000
0
TEXT
7
PNTNUM
50
0.000
8
Text
62
3
10
0.559
20
0.698
30
0.000
40
0.001
1
267
0
LINE
8
Normals
62
1
10
0.559
20
0.698
30
0.000
11
0.559
21
0.698
31
0.100
0
POINT
8
Source_points
62
5
10
0.757
20
0.029
30
0.000
0
TEXT
7
PNTNUM
50
0.000
8
Text
62
3
10
0.757
20
0.029
30
0.000
40
0.001
1
268
0
LINE
8
Normals
62
1
10
0.757
20
0.029
30
0.000
11
0.757
21
0.029
31
0.100
0
POINT
8
Source_points
62
5
10
0.995
20
0.528
30
0.000
0
TEXT
7
PNTNUM
50
0.000
8
Text
62
3
10
0.996
20
0.527
30
0.000
40
0.001
1
269
0
LINE
8
Normals
62
1
10
0.995
20
0.528
30
0.000
11
0.995
21
0.528
31
0.100
0
POINT
8
Source_points
62
5
10
0.962
20
0.032
30
0.000
0
TEXT
7
PNTNUM
50
0.000
8
Text
62
3
10
0.963
20
0.032
30
0.000
40
0.001
1
270
0
LINE
8
Normals
62
1
10
0.962
20
0.032
30
0.000
11
0.962
21
0.032
31
0.100
0
POINT
8
Source_points
62
5
10
0.535
20
0.827
30
0.000
0
TEXT
7
PNTNUM
50
0.000
8
Text
62
3
10
0.536
20
0.827
30
0.000
40
0.001
1
271
0
LINE
8
Normals
62
1
10
0.535
20
0.827
30
0.000
11
0.535
21
0.827
31
0.100
0
POINT
8
Source_points
62
5
10
0.964
20
0.340
30
0.000
0
TEXT
7
PNTNUM
50
0.000
8
Text
62
3
10
0.964
20
0.339
30
0.000
40
0.001
1
272
0
LINE
8
Normals
62
1
10
0.964
20
0.340
30
0.000
11
0.964
21
0.340
31
0.100
0
POINT
8
Source_points
62
5
10
0.116
20
0.847
30
0.000
0
TEXT
7
PNTNUM
50
0.000
8
Text
62
3
10
0.116
20
0.846
30
0.000
40
0.001
1
273
0
LINE
8
Normals
62
1
10
0.116
20
0.847
30
0.000
11
0.116
21
0.847
31
0.100
0
POINT
8
Source_points
62
5
10
0.051
20
0.246
30
0.000
0
TEXT
7
PNTNUM
50
0.000
8
Text
62
3
10
0.052
20
0.246
30
0.000
40
0.001
1
274
0
LINE
8
Normals
62
1
10
0.051
20
0.246
30
0.000
11
0.051
21
0.246
31
0.100
0
POINT
8
Source_points
62
5
10
0.304
20
0.581
30
0.000
0
TEXT
7
PNTNUM
50
0.000
8
Text
62
3
10
0.305
20
0.581
30
0.000
40
0.001
1
275
0
LINE
8
Normals
62
1
10
0.304
20
0.581
30
0.000
11
0.304
21
0.581
31
0.100
0
POINT
8
Source_points
62
5
10
0.580
20
0.938
30
0.000
0
TEXT
7
PNTNUM
50
0.000
8
Text
62
3
10
0.581
20
0.937
30
0.000
40
0.001
1
276
0
LINE
8
Normals
62
1
10
0.580
20
0.938
30
0.000
11
0.580
21
0.938
31
0.100
0
POINT
8
Source_points
62
5
10
0.531
20
0.048
30
0.000
0
TEXT
7
PNTNUM
50
0.000
8
Text
62
3
10
0.531
20
0.047
30
0.000
40
0.001
1
277
0
LINE
8
Normals
62
1
10
0.531
20
0.048
30
0.000
11
0.531
21
0.048
31
0.100
0
POINT
8
Source_points
62
5
10
0.901
20
0.054
30
0.000
0
TEXT
7
PNTNUM
50
0.000
8
Text
62
3
10
0.902
20
0.053
30
0.000
40
0.001
1
278
0
LINE
8
Normals
62
1
10
0.901
20
0.054
30
0.000
11
0.901
21
0.054
31
0.100
0
POINT
8
Source_points
62
5
10
0.541
20
0.021
30
0.000
0
TEXT
7
PNTNUM
50
0.000
8
Text
62
3
10
0.541
20
0.020
30
0.000
40
0.001
1
279
0
LINE
8
Normals
62
1
10
0.541
20
0.021
30
0.000
11
0.541
21
0.021
31
0.100
0
POINT
8
Source_points
62
5
10
0.432
20
0.681
30
0.000
0
TEXT
7
PNTNUM
50
0.000
8
Text
62
3
10
0.432
20
0.681
30
0.000
40
0.001
1
280
0
LINE
8
Normals
62
1
10
0.432
20
0.681
30
0.000
11
0.432
21
0.681
31
0.100
0
POINT
8
Source_points
62
5
10
0.543
20
0.599
30
0.000
0
TEXT
7
PNTNUM
50
0.000
8
Text
62
3
10
0.543
20
0.598
30
0.000
40
0.001
1
281
0
LINE
8
Normals
62
1
10
0.543
20
0.599
30
0.000
11
0.543
21
0.599
31
0.100
0
POINT
8
Source_points
62
5
10
0.712
20
0.114
30
0.000
0
TEXT
7
PNTNUM
50
0.000
8
Text
62
3
10
0.713
20
0.114
30
0.000
40
0.001
1
282
0
LINE
8
Normals
62
1
10
0.712
20
0.114
30
0.000
11
0.712
21
0.114
31
0.100
0
POINT
8
Source_points
62
5
10
0.017
20
0.796
30
0.000
0
TEXT
7
PNTNUM
50
0.000
8
Text
62
3
10
0.017
20
0.796
30
0.000
40
0.001
1
283
0
LINE
8
Normals
62
1
10
0.017
20
0.796
30
0.000
11
0.017
21
0.796
31
0.100
0
POINT
8
Source_points
62
5
10
0.801
20
0.618
30
0.000
0
TEXT
7
PNTNUM
50
0.000
8
Text
62
3
10
0.801
20
0.617
30
0.000
40
0.001
1
284
0
LINE
8
Normals
62
1
10
0.801
20
0.618
30
0.000
11
0.801
21
0.618
31
0.100
0
POINT
8
Source_points
62
5
10
0.143
20
0.070
30
0.000
0
TEXT
7
PNTNUM
50
0.000
8
Text
62
3
10
0.143
20
0.070
30
0.000
40
0.001
1
285
0
LINE
8
Normals
62
1
10
0.143
20
0.070
30
0.000
11
0.143
21
0.070
31
0.100
0
POINT
8
Source_points
62
5
10
0.478
20
0.069
30
0.000
0
TEXT
7
PNTNUM
50
0.000
8
Text
62
3
10
0.479
20
0.069
30
0.000
40
0.001
1
286
0
LINE
8
Normals
62
1
10
0.478
20
0.069
30
0.000
11
0.478
21
0.069
31
0.100
0
POINT
8
Source_points
62
5
10
0.257
20
0.136
30
0.000
0
TEXT
7
PNTNUM
50
0.000
8
Text
62
3
10
0.257
20
0.136
30
0.000
40
0.001
1
287
0
LINE
8
Normals
62
1
10
0.257
20
0.136
30
0.000
11
0.257
21
0.136
31
0.100
0
POINT
8
Source_points
62
5
10
0.369
20
0.789
30
0.000
0
TEXT
7
PNTNUM
50
0.000
8
Text
62
3
10
0.370
20
0.788
30
0.000
40
0.001
1
288
0
LINE
8
Normals
62
1
10
0.369
20
0.789
30
0.000
11
0.369
21
0.789
31
0.100
0
POINT
8
Source_points
62
5
10
0.662
20
0.092
30
0.000
0
TEXT
7
PNTNUM
50
0.000
8
Text
62
3
10
0.662
20
0.092
30
0.000
40
0.001
1
289
0
LINE
8
Normals
62
1
10
0.662
20
0.092
30
0.000
11
0.662
21
0.092
31
0.100
0
POINT
8
Source_points
62
5
10
0.170
20
0.238
30
0.000
0
TEXT
7
PNTNUM
50
0.000
8
Text
62
3
10
0.170
20
0.237
30
0.000
40
0.001
1
290
0
LINE
8
Normals
62
1
10
0.170
20
0.238
30
0.000
11
0.170
21
0.238
31
0.100
0
POINT
8
Source_points
62
5
10
0.279
20
0.244
30
0.000
0
TEXT
7
PNTNUM
50
0.000
8
Text
62
3
10
0.279
20
0.243
30
0.000
40
0.001
1
291
0
LINE
8
Normals
62
1
10
0.279
20
0.244
30
0.000
11
0.279
21
0.244
31
0.100
0
POINT
8
Source_points
62
5
10
0.198
20
0.105
30
0.000
0
TEXT
7
PNTNUM
50
0.000
8
Text
62
3
10
0.199
20
0.104
30
0.000
40
0.001
1
292
0
LINE
8
Normals
62
1
10
0.198
20
0.105
30
0.000
11
0.198
21
0.105
31
0.100
0
POINT
8
Source_points
62
5
10
0.195
20
0.858
30
0.000
0
TEXT
7
PNTNUM
50
0.000
8
Text
62
3
10
0.196
20
0.858
30
0.000
40
0.001
1
293
0
LINE
8
Normals
62
1
10
0.195
20
0.858
30
0.000
11
0.195
21
0.858
31
0.100
0
POINT
8
Source_points
62
5
10
0.327
20
0.698
30
0.000
0
TEXT
7
PNTNUM
50
0.000
8
Text
62
3
10
0.327
20
0.698
30
0.000
40
0.001
1
294
0
LINE
8
Normals
62
1
10
0.327
20
0.698
30
0.000
11
0.327
21
0.698
31
0.100
0
POINT
8
Source_points
62
5
10
0.880
20
0.734
30
0.000
0
TEXT
7
PNTNUM
50
0.000
8
Text
62
3
10
0.881
20
0.733
30
0.000
40
0.001
1
295
0
LINE
8
Normals
62
1
10
0.880
20
0.734
30
0.000
11
0.880
21
0.734
31
0.100
0
POINT
8
Source_points
62
5
10
0.471
20
0.651
30
0.000
0
TEXT
7
PNTNUM
50
0.000
8
Text
62
3
10
0.472
20
0.650
30
0.000
40
0.001
1
296
0
LINE
8
Normals
62
1
10
0.471
20
0.651
30
0.000
11
0.471
21
0.651
31
0.100
0
POINT
8
Source_points
62
5
10
0.404
20
0.516
30
0.000
0
TEXT
7
PNTNUM
50
0.000
8
Text
62
3
10
0.404
20
0.516
30
0.000
40
0.001
1
297
0
LINE
8
Normals
62
1
10
0.404
20
0.516
30
0.000
11
0.404
21
0.516
31
0.100
0
POINT
8
Source_points
62
5
10
0.179
20
0.326
30
0.000
0
TEXT
7
PNTNUM
50
0.000
8
Text
62
3
10
0.180
20
0.326
30
0.000
40
0.001
1
298
0
LINE
8
Normals
62
1
10
0.179
20
0.326
30
0.000
11
0.179
21
0.326
31
0.100
0
POINT
8
Source_points
62
5
10
0.969
20
0.662
30
0.000
0
TEXT
7
PNTNUM
50
0.000
8
Text
62
3
10
0.969
20
0.661
30
0.000
40
0.001
1
299
0
LINE
8
Normals
62
1
10
0.969
20
0.662
30
0.000
11
0.969
21
0.662
31
0.100
0
POINT
8
Source_points
62
5
10
0.407
20
0.118
30
0.000
0
TEXT
7
PNTNUM
50
0.000
8
Text
62
3
10
0.408
20
0.117
30
0.000
40
0.001
1
300
0
LINE
8
Normals
62
1
10
0.407
20
0.118
30
0.000
11
0.407
21
0.118
31
0.100
0
POINT
8
Source_points
62
5
10
0.844
20
0.148
30
0.000
0
TEXT
7
PNTNUM
50
0.000
8
Text
62
3
10
0.845
20
0.147
30
0.000
40
0.001
1
301
0
LINE
8
Normals
62
1
10
0.844
20
0.148
30
0.000
11
0.844
21
0.148
31
0.100
0
POINT
8
Source_points
62
5
10
0.615
20
0.020
30
0.000
0
TEXT
7
PNTNUM
50
0.000
8
Text
62
3
10
0.616
20
0.019
30
0.000
40
0.001
1
302
0
LINE
8
Normals
62
1
10
0.615
20
0.020
30
0.000
11
0.615
21
0.020
31
0.100
0
POINT
8
Source_points
62
5
10
0.377
20
0.964
30
0.000
0
TEXT
7
PNTNUM
50
0.000
8
Text
62
3
10
0.377
20
0.964
30
0.000
40
0.001
1
303
0
LINE
8
Normals
62
1
10
0.377
20
0.964
30
0.000
11
0.377
21
0.964
31
0.100
0
POINT
8
Source_points
62
5
10
0.877
20
0.970
30
0.000
0
TEXT
7
PNTNUM
50
0.000
8
Text
62
3
10
0.878
20
0.970
30
0.000
40
0.001
1
304
0
LINE
8
Normals
62
1
10
0.877
20
0.970
30
0.000
11
0.877
21
0.970
31
0.100
0
POINT
8
Source_points
62
5
10
0.785
20
0.124
30
0.000
0
TEXT
7
PNTNUM
50
0.000
8
Text
62
3
10
0.785
20
0.123
30
0.000
40
0.001
1
305
0
LINE
8
Normals
62
1
10
0.785
20
0.124
30
0.000
11
0.785
21
0.124
31
0.100
0
POINT
8
Source_points
62
5
10
0.465
20
0.467
30
0.000
0
TEXT
7
PNTNUM
50
0.000
8
Text
62
3
10
0.465
20
0.467
30
0.000
40
0.001
1
306
0
LINE
8
Normals
62
1
10
0.465
20
0.467
30
0.000
11
0.465
21
0.467
31
0.100
0
POINT
8
Source_points
62
5
10
0.814
20
0.657
30
0.000
0
TEXT
7
PNTNUM
50
0.000
8
Text
62
3
10
0.814
20
0.656
30
0.000
40
0.001
1
307
0
LINE
8
Normals
62
1
10
0.814
20
0.657
30
0.000
11
0.814
21
0.657
31
0.100
0
POINT
8
Source_points
62
5
10
0.898
20
0.290
30
0.000
0
TEXT
7
PNTNUM
50
0.000
8
Text
62
3
10
0.899
20
0.290
30
0.000
40
0.001
1
308
0
LINE
8
Normals
62
1
10
0.898
20
0.290
30
0.000
11
0.898
21
0.290
31
0.100
0
POINT
8
Source_points
62
5
10
0.429
20
0.755
30
0.000
0
TEXT
7
PNTNUM
50
0.000
8
Text
62
3
10
0.430
20
0.754
30
0.000
40
0.001
1
309
0
LINE
8
Normals
62
1
10
0.429
20
0.755
30
0.000
11
0.429
21
0.755
31
0.100
0
POINT
8
Source_points
62
5
10
0.334
20
0.558
30
0.000
0
TEXT
7
PNTNUM
50
0.000
8
Text
62
3
10
0.335
20
0.558
30
0.000
40
0.001
1
310
0
LINE
8
Normals
62
1
10
0.334
20
0.558
30
0.000
11
0.334
21
0.558
31
0.100
0
POINT
8
Source_points
62
5
10
0.597
20
0.428
30
0.000
0
TEXT
7
PNTNUM
50
0.000
8
Text
62
3
10
0.597
20
0.427
30
0.000
40
0.001
1
311
0
LINE
8
Normals
62
1
10
0.597
20
0.428
30
0.000
11
0.597
21
0.428
31
0.100
0
POINT
8
Source_points
62
5
10
0.902
20
0.267
30
0.000
0
TEXT
7
PNTNUM
50
0.000
8
Text
62
3
10
0.902
20
0.267
30
0.000
40
0.001
1
312
0
LINE
8
Normals
62
1
10
0.902
20
0.267
30
0.000
11
0.902
21
0.267
31
0.100
0
POINT
8
Source_points
62
5
10
0.702
20
0.754
30
0.000
0
TEXT
7
PNTNUM
50
0.000
8
Text
62
3
10
0.703
20
0.753
30
0.000
40
0.001
1
313
0
LINE
8
Normals
62
1
10
0.702
20
0.754
30
0.000
11
0.702
21
0.754
31
0.100
0
POINT
8
Source_points
62
5
10
0.377
20
0.898
30
0.000
0
TEXT
7
PNTNUM
50
0.000
8
Text
62
3
10
0.378
20
0.898
30
0.000
40
0.001
1
314
0
LINE
8
Normals
62
1
10
0.377
20
0.898
30
0.000
11
0.377
21
0.898
31
0.100
0
POINT
8
Source_points
62
5
10
0.735
20
0.728
30
0.000
0
TEXT
7
PNTNUM
50
0.000
8
Text
62
3
10
0.735
20
0.728
30
0.000
40
0.001
1
315
0
LINE
8
Normals
62
1
10
0.735
20
0.728
30
0.000
11
0.735
21
0.728
31
0.100
0
POINT
8
Source_points
62
5
10
0.954
20
0.407
30
0.000
0
TEXT
7
PNTNUM
50
0.000
8
Text
62
3
10
0.955
20
0.406
30
0.000
40
0.001
1
316
0
LINE
8
Normals
62
1
10
0.954
20
0.407
30
0.000
11
0.954
21
0.407
31
0.100
0
POINT
8
Source_points
62
5
10
0.543
20
0.938
30
0.000
0
TEXT
7
PNTNUM
50
0.000
8
Text
62
3
10
0.543
20
0.938
30
0.000
40
0.001
1
317
0
LINE
8
Normals
62
1
10
0.543
20
0.938
30
0.000
11
0.543
21
0.938
31
0.100
0
POINT
8
Source_points
62
5
10
0.540
20
0.255
30
0.000
0
TEXT
7
PNTNUM
50
0.000
8
Text
62
3
10
0.541
20
0.255
30
0.000
40
0.001
1
318
0
LINE
8
Normals
62
1
10
0.540
20
0.255
30
0.000
11
0.540
21
0.255
31
0.100
0
POINT
8
Source_points
62
5
10
0.311
20
0.533
30
0.000
0
TEXT
7
PNTNUM
50
0.000
8
Text
62
3
10
0.312
20
0.533
30
0.000
40
0.001
1
319
0
LINE
8
Normals
62
1
10
0.311
20
0.533
30
0.000
11
0.311
21
0.533
31
0.100
0
POINT
8
Source_points
62
5
10
0.071
20
0.955
30
0.000
0
TEXT
7
PNTNUM
50
0.000
8
Text
62
3
10
0.072
20
0.954
30
0.000
40
0.001
1
320
0
LINE
8
Normals
62
1
10
0.071
20
0.955
30
0.000
11
0.071
21
0.955
31
0.100
0
POINT
8
Source_points
62
5
10
0.182
20
0.268
30
0.000
0
TEXT
7
PNTNUM
50
0.000
8
Text
62
3
10
0.182
20
0.267
30
0.000
40
0.001
1
321
0
LINE
8
Normals
62
1
10
0.182
20
0.268
30
0.000
11
0.182
21
0.268
31
0.100
0
POINT
8
Source_points
62
5
10
0.093
20
0.250
30
0.000
0
TEXT
7
PNTNUM
50
0.000
8
Text
62
3
10
0.093
20
0.250
30
0.000
40
0.001
1
322
0
LINE
8
Normals
62
1
10
0.093
20
0.250
30
0.000
11
0.093
21
0.250
31
0.100
0
POINT
8
Source_points
62
5
10
0.463
20
0.928
30
0.000
0
TEXT
7
PNTNUM
50
0.000
8
Text
62
3
10
0.464
20
0.927
30
0.000
40
0.001
1
323
0
LINE
8
Normals
62
1
10
0.463
20
0.928
30
0.000
11
0.463
21
0.928
31
0.100
0
POINT
8
Source_points
62
5
10
0.009
20
0.069
30
0.000
0
TEXT
7
PNTNUM
50
0.000
8
Text
62
3
10
0.010
20
0.068
30
0.000
40
0.001
1
324
0
LINE
8
Normals
62
1
10
0.009
20
0.069
30
0.000
11
0.009
21
0.069
31
0.100
0
POINT
8
Source_points
62
5
10
0.915
20
0.299
30
0.000
0
TEXT
7
PNTNUM
50
0.000
8
Text
62
3
10
0.916
20
0.299
30
0.000
40
0.001
1
325
0
LINE
8
Normals
62
1
10
0.915
20
0.299
30
0.000
11
0.915
21
0.299
31
0.100
0
POINT
8
Source_points
62
5
10
0.643
20
0.592
30
0.000
0
TEXT
7
PNTNUM
50
0.000
8
Text
62
3
10
0.643
20
0.591
30
0.000
40
0.001
1
326
0
LINE
8
Normals
62
1
10
0.643
20
0.592
30
0.000
11
0.643
21
0.592
31
0.100
0
POINT
8
Source_points
62
5
10
0.001
20
0.203
30
0.000
0
TEXT
7
PNTNUM
50
0.000
8
Text
62
3
10
0.002
20
0.203
30
0.000
40
0.001
1
327
0
LINE
8
Normals
62
1
10
0.001
20
0.203
30
0.000
11
0.001
21
0.203
31
0.100
0
POINT
8
Source_points
62
5
10
0.030
20
0.636
30
0.000
0
TEXT
7
PNTNUM
50
0.000
8
Text
62
3
10
0.031
20
0.635
30
0.000
40
0.001
1
328
0
LINE
8
Normals
62
1
10
0.030
20
0.636
30
0.000
11
0.030
21
0.636
31
0.100
0
POINT
8
Source_points
62
5
10
0.208
20
0.798
30
0.000
0
TEXT
7
PNTNUM
50
0.000
8
Text
62
3
10
0.209
20
0.798
30
0.000
40
0.001
1
329
0
LINE
8
Normals
62
1
10
0.208
20
0.798
30
0.000
11
0.208
21
0.798
31
0.100
0
POINT
8
Source_points
62
5
10
0.455
20
0.502
30
0.000
0
TEXT
7
PNTNUM
50
0.000
8
Text
62
3
10
0.455
20
0.501
30
0.000
40
0.001
1
330
0
LINE
8
Normals
62
1
10
0.455
20
0.502
30
0.000
11
0.455
21
0.502
31
0.100
0
POINT
8
Source_points
62
5
10
0.127
20
0.651
30
0.000
0
TEXT
7
PNTNUM
50
0.000
8
Text
62
3
10
0.128
20
0.650
30
0.000
40
0.001
1
331
0
LINE
8
Normals
62
1
10
0.127
20
0.651
30
0.000
11
0.127
21
0.651
31
0.100
0
POINT
8
Source_points
62
5
10
0.009
20
0.796
30
0.000
0
TEXT
7
PNTNUM
50
0.000
8
Text
62
3
10
0.009
20
0.795
30
0.000
40
0.001
1
332
0
LINE
8
Normals
62
1
10
0.009
20
0.796
30
0.000
11
0.009
21
0.796
31
0.100
0
POINT
8
Source_points
62
5
10
0.727
20
0.233
30
0.000
0
TEXT
7
PNTNUM
50
0.000
8
Text
62
3
10
0.728
20
0.233
30
0.000
40
0.001
1
333
0
LINE
8
Normals
62
1
10
0.727
20
0.233
30
0.000
11
0.727
21
0.233
31
0.100
0
POINT
8
Source_points
62
5
10
0.354
20
0.601
30
0.000
0
TEXT
7
PNTNUM
50
0.000
8
Text
62
3
10
0.355
20
0.600
30
0.000
40
0.001
1
334
0
LINE
8
Normals
62
1
10
0.354
20
0.601
30
0.000
11
0.354
21
0.601
31
0.100
0
POINT
8
Source_points
62
5
10
0.780
20
0.112
30
0.000
0
TEXT
7
PNTNUM
50
0.000
8
Text
62
3
10
0.781
20
0.112
30
0.000
40
0.001
1
335
0
LINE
8
Normals
62
1
10
0.780
20
0.112
30
0.000
11
0.780
21
0.112
31
0.100
0
POINT
8
Source_points
62
5
10
0.437
20
0.516
30
0.000
0
TEXT
7
PNTNUM
50
0.000
8
Text
62
3
10
0.437
20
0.515
30
0.000
40
0.001
1
336
0
LINE
8
Normals
62
1
10
0.437
20
0.516
30
0.000
11
0.437
21
0.516
31
0.100
0
POINT
8
Source_points
62
5
10
0.437
20
0.838
30
0.000
0
TEXT
7
PNTNUM
50
0.000
8
Text
62
3
10
0.437
20
0.837
30
0.000
40
0.001
1
337
0
LINE
8
Normals
62
1
10
0.437
20
0.838
30
0.000
11
0.437
21
0.838
31
0.100
0
POINT
8
Source_points
62
5
10
0.049
20
0.921
30
0.000
0
TEXT
7
PNTNUM
50
0.000
8
Text
62
3
10
0.050
20
0.920
30
0.000
40
0.001
1
338
0
LINE
8
Normals
62
1
10
0.049
20
0.921
30
0.000
11
0.049
21
0.921
31
0.100
0
POINT
8
Source_points
62
5
10
0.050
20
0.498
30
0.000
0
TEXT
7
PNTNUM
50
0.000
8
Text
62
3
10
0.050
20
0.498
30
0.000
40
0.001
1
339
0
LINE
8
Normals
62
1
10
0.050
20
0.498
30
0.000
11
0.050
21
0.498
31
0.100
0
POINT
8
Source_points
62
5
10
0.091
20
0.278
30
0.000
0
TEXT
7
PNTNUM
50
0.000
8
Text
62
3
10
0.092
20
0.277
30
0.000
40
0.001
1
340
0
LINE
8
Normals
62
1
10
0.091
20
0.278
30
0.000
11
0.091
21
0.278
31
0.100
0
POINT
8
Source_points
62
5
10
0.594
20
0.653
30
0.000
0
TEXT
7
PNTNUM
50
0.000
8
Text
62
3
10
0.595
20
0.652
30
0.000
40
0.001
1
341
0
LINE
8
Normals
62
1
10
0.594
20
0.653
30
0.000
11
0.594
21
0.653
31
0.100
0
POINT
8
Source_points
62
5
10
0.241
20
0.917
30
0.000
0
TEXT
7
PNTNUM
50
0.000
8
Text
62
3
10
0.242
20
0.917
30
0.000
40
0.001
1
342
0
LINE
8
Normals
62
1
10
0.241
20
0.917
30
0.000
11
0.241
21
0.917
31
0.100
0
POINT
8
Source_points
62
5
10
0.841
20
0.510
30
0.000
0
TEXT
7
PNTNUM
50
0.000
8
Text
62
3
10
0.842
20
0.509
30
0.000
40
0.001
1
343
0
LINE
8
Normals
62
1
10
0.841
20
0.510
30
0.000
11
0.841
21
0.510
31
0.100
0
POINT
8
Source_points
62
5
10
0.857
20
0.974
30
0.000
0
TEXT
7
PNTNUM
50
0.000
8
Text
62
3
10
0.858
20
0.974
30
0.000
40
0.001
1
344
0
LINE
8
Normals
62
1
10
0.857
20
0.974
30
0.000
11
0.857
21
0.974
31
0.100
0
POINT
8
Source_points
62
5
10
0.964
20
0.197
30
0.000
0
TEXT
7
PNTNUM
50
0.000
8
Text
62
3
10
0.964
20
0.197
30
0.000
40
0.001
1
345
0
LINE
8
Normals
62
1
10
0.964
20
0.197
30
0.000
11
0.964
21
0.197
31
0.100
0
POINT
8
Source_points
62
5
10
0.489
20
0.111
30
0.000
0
TEXT
7
PNTNUM
50
0.000
8
Text
62
3
10
0.489
20
0.111
30
0.000
40
0.001
1
346
0
LINE
8
Normals
62
1
10
0.489
20
0.111
30
0.000
11
0.489
21
0.111
31
0.100
0
POINT
8
Source_points
62
5
10
0.220
20
0.297
30
0.000
0
TEXT
7
PNTNUM
50
0.000
8
Text
62
3
10
0.221
20
0.297
30
0.000
40
0.001
1
347
0
LINE
8
Normals
62
1
10
0.220
20
0.297
30
0.000
11
0.220
21
0.297
31
0.100
0
POINT
8
Source_points
62
5
10
0.226
20
0.396
30
0.000
0
TEXT
7
PNTNUM
50
0.000
8
Text
62
3
10
0.227
20
0.396
30
0.000
40
0.001
1
348
0
LINE
8
Normals
62
1
10
0.226
20
0.396
30
0.000
11
0.226
21
0.396
31
0.100
0
POINT
8
Source_points
62
5
10
0.537
20
0.421
30
0.000
0
TEXT
7
PNTNUM
50
0.000
8
Text
62
3
10
0.537
20
0.420
30
0.000
40
0.001
1
349
0
LINE
8
Normals
62
1
10
0.537
20
0.421
30
0.000
11
0.537
21
0.421
31
0.100
0
POINT
8
Source_points
62
5
10
0.762
20
0.311
30
0.000
0
TEXT
7
PNTNUM
50
0.000
8
Text
62
3
10
0.763
20
0.311
30
0.000
40
0.001
1
350
0
LINE
8
Normals
62
1
10
0.762
20
0.311
30
0.000
11
0.762
21
0.311
31
0.100
0
POINT
8
Source_points
62
5
10
0.348
20
0.694
30
0.000
0
TEXT
7
PNTNUM
50
0.000
8
Text
62
3
10
0.348
20
0.693
30
0.000
40
0.001
1
351
0
LINE
8
Normals
62
1
10
0.348
20
0.694
30
0.000
11
0.348
21
0.694
31
0.100
0
POINT
8
Source_points
62
5
10
0.461
20
0.092
30
0.000
0
TEXT
7
PNTNUM
50
0.000
8
Text
62
3
10
0.462
20
0.091
30
0.000
40
0.001
1
352
0
LINE
8
Normals
62
1
10
0.461
20
0.092
30
0.000
11
0.461
21
0.092
31
0.100
0
POINT
8
Source_points
62
5
10
0.639
20
0.402
30
0.000
0
TEXT
7
PNTNUM
50
0.000
8
Text
62
3
10
0.640
20
0.402
30
0.000
40
0.001
1
353
0
LINE
8
Normals
62
1
10
0.639
20
0.402
30
0.000
11
0.639
21
0.402
31
0.100
0
POINT
8
Source_points
62
5
10
0.917
20
0.295
30
0.000
0
TEXT
7
PNTNUM
50
0.000
8
Text
62
3
10
0.918
20
0.295
30
0.000
40
0.001
1
354
0
LINE
8
Normals
62
1
10
0.917
20
0.295
30
0.000
11
0.917
21
0.295
31
0.100
0
POINT
8
Source_points
62
5
10
0.162
20
0.306
30
0.000
0
TEXT
7
PNTNUM
50
0.000
8
Text
62
3
10
0.162
20
0.306
30
0.000
40
0.001
1
355
0
LINE
8
Normals
62
1
10
0.162
20
0.306
30
0.000
11
0.162
21
0.306
31
0.100
0
POINT
8
Source_points
62
5
10
0.716
20
0.106
30
0.000
0
TEXT
7
PNTNUM
50
0.000
8
Text
62
3
10
0.716
20
0.105
30
0.000
40
0.001
1
356
0
LINE
8
Normals
62
1
10
0.716
20
0.106
30
0.000
11
0.716
21
0.106
31
0.100
0
POINT
8
Source_points
62
5
10
0.578
20
0.594
30
0.000
0
TEXT
7
PNTNUM
50
0.000
8
Text
62
3
10
0.578
20
0.593
30
0.000
40
0.001
1
357
0
LINE
8
Normals
62
1
10
0.578
20
0.594
30
0.000
11
0.578
21
0.594
31
0.100
0
POINT
8
Source_points
62
5
10
0.433
20
0.283
30
0.000
0
TEXT
7
PNTNUM
50
0.000
8
Text
62
3
10
0.434
20
0.282
30
0.000
40
0.001
1
358
0
LINE
8
Normals
62
1
10
0.433
20
0.283
30
0.000
11
0.433
21
0.283
31
0.100
0
POINT
8
Source_points
62
5
10
0.884
20
0.155
30
0.000
0
TEXT
7
PNTNUM
50
0.000
8
Text
62
3
10
0.885
20
0.155
30
0.000
40
0.001
1
359
0
LINE
8
Normals
62
1
10
0.884
20
0.155
30
0.000
11
0.884
21
0.155
31
0.100
0
POINT
8
Source_points
62
5
10
0.393
20
0.001
30
0.000
0
TEXT
7
PNTNUM
50
0.000
8
Text
62
3
10
0.394
20
0.000
30
0.000
40
0.001
1
360
0
LINE
8
Normals
62
1
10
0.393
20
0.001
30
0.000
11
0.393
21
0.001
31
0.100
0
POINT
8
Source_points
62
5
10
0.179
20
0.284
30
0.000
0
TEXT
7
PNTNUM
50
0.000
8
Text
62
3
10
0.179
20
0.283
30
0.000
40
0.001
1
361
0
LINE
8
Normals
62
1
10
0.179
20
0.284
30
0.000
11
0.179
21
0.284
31
0.100
0
POINT
8
Source_points
62
5
10
0.633
20
0.551
30
0.000
0
TEXT
7
PNTNUM
50
0.000
8
Text
62
3
10
0.634
20
0.550
30
0.000
40
0.001
1
362
0
LINE
8
Normals
62
1
10
0.633
20
0.551
30
0.000
11
0.633
21
0.551
31
0.100
0
POINT
8
Source_points
62
5
10
0.624
20
0.871
30
0.000
0
TEXT
7
PNTNUM
50
0.000
8
Text
62
3
10
0.625
20
0.870
30
0.000
40
0.001
1
363
0
LINE
8
Normals
62
1
10
0.624
20
0.871
30
0.000
11
0.624
21
0.871
31
0.100
0
POINT
8
Source_points
62
5
10
0.328
20
0.042
30
0.000
0
TEXT
7
PNTNUM
50
0.000
8
Text
62
3
10
0.328
20
0.042
30
0.000
40
0.001
1
364
0
LINE
8
Normals
62
1
10
0.328
20
0.042
30
0.000
11
0.328
21
0.042
31
0.100
0
POINT
8
Source_points
62
5
10
0.803
20
0.905
30
0.000
0
TEXT
7
PNTNUM
50
0.000
8
Text
62
3
10
0.803
20
0.904
30
0.000
40
0.001
1
365
0
LINE
8
Normals
62
1
10
0.803
20
0.905
30
0.000
11
0.803
21
0.905
31
0.100
0
POINT
8
Source_points
62
5
10
0.999
20
0.131
30
0.000
0
TEXT
7
PNTNUM
50
0.000
8
Text
62
3
10
1.000
20
0.130
30
0.000
40
0.001
1
366
0
LINE
8
Normals
62
1
10
0.999
20
0.131
30
0.000
11
0.999
21
0.131
31
0.100
0
POINT
8
Source_points
62
5
10
0.981
20
0.834
30
0.000
0
TEXT
7
PNTNUM
50
0.000
8
Text
62
3
10
0.981
20
0.833
30
0.000
40
0.001
1
367
0
LINE
8
Normals
62
1
10
0.981
20
0.834
30
0.000
11
0.981
21
0.834
31
0.100
0
POINT
8
Source_points
62
5
10
0.127
20
0.800
30
0.000
0
TEXT
7
PNTNUM
50
0.000
8
Text
62
3
10
0.128
20
0.800
30
0.000
40
0.001
1
368
0
LINE
8
Normals
62
1
10
0.127
20
0.800
30
0.000
11
0.127
21
0.800
31
0.100
0
POINT
8
Source_points
62
5
10
0.232
20
0.918
30
0.000
0
TEXT
7
PNTNUM
50
0.000
8
Text
62
3
10
0.233
20
0.917
30
0.000
40
0.001
1
369
0
LINE
8
Normals
62
1
10
0.232
20
0.918
30
0.000
11
0.232
21
0.918
31
0.100
0
POINT
8
Source_points
62
5
10
0.024
20
0.137
30
0.000
0
TEXT
7
PNTNUM
50
0.000
8
Text
62
3
10
0.024
20
0.137
30
0.000
40
0.001
1
370
0
LINE
8
Normals
62
1
10
0.024
20
0.137
30
0.000
11
0.024
21
0.137
31
0.100
0
POINT
8
Source_points
62
5
10
0.607
20
0.505
30
0.000
0
TEXT
7
PNTNUM
50
0.000
8
Text
62
3
10
0.608
20
0.504
30
0.000
40
0.001
1
371
0
LINE
8
Normals
62
1
10
0.607
20
0.505
30
0.000
11
0.607
21
0.505
31
0.100
0
POINT
8
Source_points
62
5
10
0.111
20
0.405
30
0.000
0
TEXT
7
PNTNUM
50
0.000
8
Text
62
3
10
0.111
20
0.404
30
0.000
40
0.001
1
372
0
LINE
8
Normals
62
1
10
0.111
20
0.405
30
0.000
11
0.111
21
0.405
31
0.100
0
POINT
8
Source_points
62
5
10
0.407
20
0.174
30
0.000
0
TEXT
7
PNTNUM
50
0.000
8
Text
62
3
10
0.408
20
0.173
30
0.000
40
0.001
1
373
0
LINE
8
Normals
62
1
10
0.407
20
0.174
30
0.000
11
0.407
21
0.174
31
0.100
0
POINT
8
Source_points
62
5
10
0.884
20
0.575
30
0.000
0
TEXT
7
PNTNUM
50
0.000
8
Text
62
3
10
0.885
20
0.575
30
0.000
40
0.001
1
374
0
LINE
8
Normals
62
1
10
0.884
20
0.575
30
0.000
11
0.884
21
0.575
31
0.100
0
POINT
8
Source_points
62
5
10
0.548
20
0.606
30
0.000
0
TEXT
7
PNTNUM
50
0.000
8
Text
62
3
10
0.549
20
0.606
30
0.000
40
0.001
1
375
0
LINE
8
Normals
62
1
10
0.548
20
0.606
30
0.000
11
0.548
21
0.606
31
0.100
0
POINT
8
Source_points
62
5
10
0.369
20
0.214
30
0.000
0
TEXT
7
PNTNUM
50
0.000
8
Text
62
3
10
0.370
20
0.214
30
0.000
40
0.001
1
376
0
LINE
8
Normals
62
1
10
0.369
20
0.214
30
0.000
11
0.369
21
0.214
31
0.100
0
POINT
8
Source_points
62
5
10
0.208
20
0.520
30
0.000
0
TEXT
7
PNTNUM
50
0.000
8
Text
62
3
10
0.209
20
0.519
30
0.000
40
0.001
1
377
0
LINE
8
Normals
62
1
10
0.208
20
0.520
30
0.000
11
0.208
21
0.520
31
0.100
0
POINT
8
Source_points
62
5
10
0.441
20
0.989
30
0.000
0
TEXT
7
PNTNUM
50
0.000
8
Text
62
3
10
0.441
20
0.989
30
0.000
40
0.001
1
378
0
LINE
8
Normals
62
1
10
0.441
20
0.989
30
0.000
11
0.441
21
0.989
31
0.100
0
POINT
8
Source_points
62
5
10
0.956
20
0.490
30
0.000
0
TEXT
7
PNTNUM
50
0.000
8
Text
62
3
10
0.957
20
0.489
30
0.000
40
0.001
1
379
0
LINE
8
Normals
62
1
10
0.956
20
0.490
30
0.000
11
0.956
21
0.490
31
0.100
0
POINT
8
Source_points
62
5
10
0.124
20
0.695
30
0.000
0
TEXT
7
PNTNUM
50
0.000
8
Text
62
3
10
0.125
20
0.694
30
0.000
40
0.001
1
380
0
LINE
8
Normals
62
1
10
0.124
20
0.695
30
0.000
11
0.124
21
0.695
31
0.100
0
POINT
8
Source_points
62
5
10
0.471
20
0.411
30
0.000
0
TEXT
7
PNTNUM
50
0.000
8
Text
62
3
10
0.471
20
0.411
30
0.000
40
0.001
1
381
0
LINE
8
Normals
62
1
10
0.471
20
0.411
30
0.000
11
0.471
21
0.411
31
0.100
0
POINT
8
Source_points
62
5
10
0.857
20
0.035
30
0.000
0
TEXT
7
PNTNUM
50
0.000
8
Text
62
3
10
0.857
20
0.034
30
0.000
40
0.001
1
382
0
LINE
8
Normals
62
1
10
0.857
20
0.035
30
0.000
11
0.857
21
0.035
31
0.100
0
POINT
8
Source_points
62
5
10
0.043
20
0.293
30
0.000
0
TEXT
7
PNTNUM
50
0.000
8
Text
62
3
10
0.044
20
0.292
30
0.000
40
0.001
1
383
0
LINE
8
Normals
62
1
10
0.043
20
0.293
30
0.000
11
0.043
21
0.293
31
0.100
0
POINT
8
Source_points
62
5
10
0.692
20
0.801
30
0.000
0
TEXT
7
PNTNUM
50
0.000
8
Text
62
3
10
0.692
20
0.801
30
0.000
40
0.001
1
384
0
LINE
8
Normals
62
1
10
0.692
20
0.801
30
0.000
11
0.692
21
0.801
31
0.100
0
POINT
8
Source_points
62
5
10
0.979
20
0.347
30
0.000
0
TEXT
7
PNTNUM
50
0.000
8
Text
62
3
10
0.979
20
0.346
30
0.000
40
0.001
1
385
0
LINE
8
Normals
62
1
10
0.979
20
0.347
30
0.000
11
0.979
21
0.347
31
0.100
0
POINT
8
Source_points
62
5
10
0.283
20
0.083
30
0.000
0
TEXT
7
PNTNUM
50
0.000
8
Text
62
3
10
0.284
20
0.083
30
0.000
40
0.001
1
386
0
LINE
8
Normals
62
1
10
0.283
20
0.083
30
0.000
11
0.283
21
0.083
31
0.100
0
POINT
8
Source_points
62
5
10
0.134
20
0.511
30
0.000
0
TEXT
7
PNTNUM
50
0.000
8
Text
62
3
10
0.134
20
0.511
30
0.000
40
0.001
1
387
0
LINE
8
Normals
62
1
10
0.134
20
0.511
30
0.000
11
0.134
21
0.511
31
0.100
0
POINT
8
Source_points
62
5
10
0.685
20
0.367
30
0.000
0
TEXT
7
PNTNUM
50
0.000
8
Text
62
3
10
0.686
20
0.366
30
0.000
40
0.001
1
388
0
LINE
8
Normals
62
1
10
0.685
20
0.367
30
0.000
11
0.685
21
0.367
31
0.100
0
POINT
8
Source_points
62
5
10
0.909
20
0.739
30
0.000
0
TEXT
7
PNTNUM
50
0.000
8
Text
62
3
10
0.910
20
0.739
30
0.000
40
0.001
1
389
0
LINE
8
Normals
62
1
10
0.909
20
0.739
30
0.000
11
0.909
21
0.739
31
0.100
0
POINT
8
Source_points
62
5
10
0.611
20
0.525
30
0.000
0
TEXT
7
PNTNUM
50
0.000
8
Text
62
3
10
0.611
20
0.524
30
0.000
40
0.001
1
390
0
LINE
8
Normals
62
1
10
0.611
20
0.525
30
0.000
11
0.611
21
0.525
31
0.100
0
POINT
8
Source_points
62
5
10
0.900
20
0.805
30
0.000
0
TEXT
7
PNTNUM
50
0.000
8
Text
62
3
10
0.900
20
0.804
30
0.000
40
0.001
1
391
0
LINE
8
Normals
62
1
10
0.900
20
0.805
30
0.000
11
0.900
21
0.805
31
0.100
0
POINT
8
Source_points
62
5
10
0.193
20
0.817
30
0.000
0
TEXT
7
PNTNUM
50
0.000
8
Text
62
3
10
0.194
20
0.816
30
0.000
40
0.001
1
392
0
LINE
8
Normals
62
1
10
0.193
20
0.817
30
0.000
11
0.193
21
0.817
31
0.100
0
POINT
8
Source_points
62
5
10
0.754
20
0.189
30
0.000
0
TEXT
7
PNTNUM
50
0.000
8
Text
62
3
10
0.755
20
0.189
30
0.000
40
0.001
1
393
0
LINE
8
Normals
62
1
10
0.754
20
0.189
30
0.000
11
0.754
21
0.189
31
0.100
0
POINT
8
Source_points
62
5
10
0.346
20
0.124
30
0.000
0
TEXT
7
PNTNUM
50
0.000
8
Text
62
3
10
0.347
20
0.123
30
0.000
40
0.001
1
394
0
LINE
8
Normals
62
1
10
0.346
20
0.124
30
0.000
11
0.346
21
0.124
31
0.100
0
POINT
8
Source_points
62
5
10
0.419
20
0.821
30
0.000
0
TEXT
7
PNTNUM
50
0.000
8
Text
62
3
10
0.419
20
0.820
30
0.000
40
0.001
1
395
0
LINE
8
Normals
62
1
10
0.419
20
0.821
30
0.000
11
0.419
21
0.821
31
0.100
0
POINT
8
Source_points
62
5
10
0.156
20
0.638
30
0.000
0
TEXT
7
PNTNUM
50
0.000
8
Text
62
3
10
0.156
20
0.637
30
0.000
40
0.001
1
396
0
LINE
8
Normals
62
1
10
0.156
20
0.638
30
0.000
11
0.156
21
0.638
31
0.100
0
POINT
8
Source_points
62
5
10
0.819
20
0.016
30
0.000
0
TEXT
7
PNTNUM
50
0.000
8
Text
62
3
10
0.820
20
0.016
30
0.000
40
0.001
1
397
0
LINE
8
Normals
62
1
10
0.819
20
0.016
30
0.000
11
0.819
21
0.016
31
0.100
0
POINT
8
Source_points
62
5
10
0.625
20
0.896
30
0.000
0
TEXT
7
PNTNUM
50
0.000
8
Text
62
3
10
0.625
20
0.895
30
0.000
40
0.001
1
398
0
LINE
8
Normals
62
1
10
0.625
20
0.896
30
0.000
11
0.625
21
0.896
31
0.100
0
POINT
8
Source_points
62
5
10
0.739
20
0.515
30
0.000
0
TEXT
7
PNTNUM
50
0.000
8
Text
62
3
10
0.739
20
0.515
30
0.000
40
0.001
1
399
0
LINE
8
Normals
62
1
10
0.739
20
0.515
30
0.000
11
0.739
21
0.515
31
0.100
0
POINT
8
Source_points
62
5
10
0.805
20
0.545
30
0.000
0
TEXT
7
PNTNUM
50
0.000
8
Text
62
3
10
0.806
20
0.544
30
0.000
40
0.001
1
400
0
LINE
8
Normals
62
1
10
0.805
20
0.545
30
0.000
11
0.805
21
0.545
31
0.100
0
POINT
8
Source_points
62
5
10
0.067
20
0.606
30
0.000
0
TEXT
7
PNTNUM
50
0.000
8
Text
62
3
10
0.068
20
0.606
30
0.000
40
0.001
1
401
0
LINE
8
Normals
62
1
10
0.067
20
0.606
30
0.000
11
0.067
21
0.606
31
0.100
0
POINT
8
Source_points
62
5
10
0.951
20
0.760
30
0.000
0
TEXT
7
PNTNUM
50
0.000
8
Text
62
3
10
0.951
20
0.760
30
0.000
40
0.001
1
402
0
LINE
8
Normals
62
1
10
0.951
20
0.760
30
0.000
11
0.951
21
0.760
31
0.100
0
POINT
8
Source_points
62
5
10
0.498
20
0.855
30
0.000
0
TEXT
7
PNTNUM
50
0.000
8
Text
62
3
10
0.498
20
0.855
30
0.000
40
0.001
1
403
0
LINE
8
Normals
62
1
10
0.498
20
0.855
30
0.000
11
0.498
21
0.855
31
0.100
0
POINT
8
Source_points
62
5
10
0.755
20
0.383
30
0.000
0
TEXT
7
PNTNUM
50
0.000
8
Text
62
3
10
0.756
20
0.382
30
0.000
40
0.001
1
404
0
LINE
8
Normals
62
1
10
0.755
20
0.383
30
0.000
11
0.755
21
0.383
31
0.100
0
POINT
8
Source_points
62
5
10
0.742
20
0.085
30
0.000
0
TEXT
7
PNTNUM
50
0.000
8
Text
62
3
10
0.743
20
0.084
30
0.000
40
0.001
1
405
0
LINE
8
Normals
62
1
10
0.742
20
0.085
30
0.000
11
0.742
21
0.085
31
0.100
0
POINT
8
Source_points
62
5
10
0.831
20
0.734
30
0.000
0
TEXT
7
PNTNUM
50
0.000
8
Text
62
3
10
0.832
20
0.733
30
0.000
40
0.001
1
406
0
LINE
8
Normals
62
1
10
0.831
20
0.734
30
0.000
11
0.831
21
0.734
31
0.100
0
POINT
8
Source_points
62
5
10
0.157
20
0.332
30
0.000
0
TEXT
7
PNTNUM
50
0.000
8
Text
62
3
10
0.157
20
0.331
30
0.000
40
0.001
1
407
0
LINE
8
Normals
62
1
10
0.157
20
0.332
30
0.000
11
0.157
21
0.332
31
0.100
0
POINT
8
Source_points
62
5
10
0.457
20
0.840
30
0.000
0
TEXT
7
PNTNUM
50
0.000
8
Text
62
3
10
0.458
20
0.839
30
0.000
40
0.001
1
408
0
LINE
8
Normals
62
1
10
0.457
20
0.840
30
0.000
11
0.457
21
0.840
31
0.100
0
POINT
8
Source_points
62
5
10
0.618
20
0.372
30
0.000
0
TEXT
7
PNTNUM
50
0.000
8
Text
62
3
10
0.619
20
0.371
30
0.000
40
0.001
1
409
0
LINE
8
Normals
62
1
10
0.618
20
0.372
30
0.000
11
0.618
21
0.372
31
0.100
0
POINT
8
Source_points
62
5
10
0.932
20
0.828
30
0.000
0
TEXT
7
PNTNUM
50
0.000
8
Text
62
3
10
0.933
20
0.828
30
0.000
40
0.001
1
410
0
LINE
8
Normals
62
1
10
0.932
20
0.828
30
0.000
11
0.932
21
0.828
31
0.100
0
POINT
8
Source_points
62
5
10
0.835
20
0.177
30
0.000
0
TEXT
7
PNTNUM
50
0.000
8
Text
62
3
10
0.836
20
0.176
30
0.000
40
0.001
1
411
0
LINE
8
Normals
62
1
10
0.835
20
0.177
30
0.000
11
0.835
21
0.177
31
0.100
0
POINT
8
Source_points
62
5
10
0.895
20
0.130
30
0.000
0
TEXT
7
PNTNUM
50
0.000
8
Text
62
3
10
0.896
20
0.129
30
0.000
40
0.001
1
412
0
LINE
8
Normals
62
1
10
0.895
20
0.130
30
0.000
11
0.895
21
0.130
31
0.100
0
POINT
8
Source_points
62
5
10
0.583
20
0.880
30
0.000
0
TEXT
7
PNTNUM
50
0.000
8
Text
62
3
10
0.583
20
0.879
30
0.000
40
0.001
1
413
0
LINE
8
Normals
62
1
10
0.583
20
0.880
30
0.000
11
0.583
21
0.880
31
0.100
0
POINT
8
Source_points
62
5
10
0.583
20
0.044
30
0.000
0
TEXT
7
PNTNUM
50
0.000
8
Text
62
3
10
0.583
20
0.044
30
0.000
40
0.001
1
414
0
LINE
8
Normals
62
1
10
0.583
20
0.044
30
0.000
11
0.583
21
0.044
31
0.100
0
POINT
8
Source_points
62
5
10
0.855
20
0.687
30
0.000
0
TEXT
7
PNTNUM
50
0.000
8
Text
62
3
10
0.855
20
0.686
30
0.000
40
0.001
1
415
0
LINE
8
Normals
62
1
10
0.855
20
0.687
30
0.000
11
0.855
21
0.687
31
0.100
0
POINT
8
Source_points
62
5
10
0.035
20
0.734
30
0.000
0
TEXT
7
PNTNUM
50
0.000
8
Text
62
3
10
0.035
20
0.733
30
0.000
40
0.001
1
416
0
LINE
8
Normals
62
1
10
0.035
20
0.734
30
0.000
11
0.035
21
0.734
31
0.100
0
POINT
8
Source_points
62
5
10
0.885
20
0.437
30
0.000
0
TEXT
7
PNTNUM
50
0.000
8
Text
62
3
10
0.886
20
0.437
30
0.000
40
0.001
1
417
0
LINE
8
Normals
62
1
10
0.885
20
0.437
30
0.000
11
0.885
21
0.437
31
0.100
0
POINT
8
Source_points
62
5
10
0.408
20
0.380
30
0.000
0
TEXT
7
PNTNUM
50
0.000
8
Text
62
3
10
0.408
20
0.379
30
0.000
40
0.001
1
418
0
LINE
8
Normals
62
1
10
0.408
20
0.380
30
0.000
11
0.408
21
0.380
31
0.100
0
POINT
8
Source_points
62
5
10
0.036
20
0.980
30
0.000
0
TEXT
7
PNTNUM
50
0.000
8
Text
62
3
10
0.037
20
0.979
30
0.000
40
0.001
1
419
0
LINE
8
Normals
62
1
10
0.036
20
0.980
30
0.000
11
0.036
21
0.980
31
0.100
0
POINT
8
Source_points
62
5
10
0.746
20
0.399
30
0.000
0
TEXT
7
PNTNUM
50
0.000
8
Text
62
3
10
0.747
20
0.398
30
0.000
40
0.001
1
420
0
LINE
8
Normals
62
1
10
0.746
20
0.399
30
0.000
11
0.746
21
0.399
31
0.100
0
POINT
8
Source_points
62
5
10
0.155
20
0.440
30
0.000
0
TEXT
7
PNTNUM
50
0.000
8
Text
62
3
10
0.155
20
0.440
30
0.000
40
0.001
1
421
0
LINE
8
Normals
62
1
10
0.155
20
0.440
30
0.000
11
0.155
21
0.440
31
0.100
0
POINT
8
Source_points
62
5
10
0.144
20
0.157
30
0.000
0
TEXT
7
PNTNUM
50
0.000
8
Text
62
3
10
0.144
20
0.156
30
0.000
40
0.001
1
422
0
LINE
8
Normals
62
1
10
0.144
20
0.157
30
0.000
11
0.144
21
0.157
31
0.100
0
POINT
8
Source_points
62
5
10
0.606
20
0.326
30
0.000
0
TEXT
7
PNTNUM
50
0.000
8
Text
62
3
10
0.606
20
0.326
30
0.000
40
0.001
1
423
0
LINE
8
Normals
62
1
10
0.606
20
0.326
30
0.000
11
0.606
21
0.326
31
0.100
0
POINT
8
Source_points
62
5
10
0.254
20
0.314
30
0.000
0
TEXT
7
PNTNUM
50
0.000
8
Text
62
3
10
0.255
20
0.314
30
0.000
40
0.001
1
424
0
LINE
8
Normals
62
1
10
0.254
20
0.314
30
0.000
11
0.254
21
0.314
31
0.100
0
POINT
8
Source_points
62
5
10
0.324
20
0.895
30
0.000
0
TEXT
7
PNTNUM
50
0.000
8
Text
62
3
10
0.325
20
0.894
30
0.000
40
0.001
1
425
0
LINE
8
Normals
62
1
10
0.324
20
0.895
30
0.000
11
0.324
21
0.895
31
0.100
0
POINT
8
Source_points
62
5
10
0.402
20
0.247
30
0.000
0
TEXT
7
PNTNUM
50
0.000
8
Text
62
3
10
0.402
20
0.247
30
0.000
40
0.001
1
426
0
LINE
8
Normals
62
1
10
0.402
20
0.247
30
0.000
11
0.402
21
0.247
31
0.100
0
POINT
8
Source_points
62
5
10
0.406
20
0.311
30
0.000
0
TEXT
7
PNTNUM
50
0.000
8
Text
62
3
10
0.407
20
0.310
30
0.000
40
0.001
1
427
0
LINE
8
Normals
62
1
10
0.406
20
0.311
30
0.000
11
0.406
21
0.311
31
0.100
0
POINT
8
Source_points
62
5
10
0.386
20
0.409
30
0.000
0
TEXT
7
PNTNUM
50
0.000
8
Text
62
3
10
0.387
20
0.408
30
0.000
40
0.001
1
428
0
LINE
8
Normals
62
1
10
0.386
20
0.409
30
0.000
11
0.386
21
0.409
31
0.100
0
POINT
8
Source_points
62
5
10
0.610
20
0.708
30
0.000
0
TEXT
7
PNTNUM
50
0.000
8
Text
62
3
10
0.610
20
0.708
30
0.000
40
0.001
1
429
0
LINE
8
Normals
62
1
10
0.610
20
0.708
30
0.000
11
0.610
21
0.708
31
0.100
0
POINT
8
Source_points
62
5
10
0.167
20
0.144
30
0.000
0
TEXT
7
PNTNUM
50
0.000
8
Text
62
3
10
0.167
20
0.143
30
0.000
40
0.001
1
430
0
LINE
8
Normals
62
1
10
0.167
20
0.144
30
0.000
11
0.167
21
0.144
31
0.100
0
POINT
8
Source_points
62
5
10
0.188
20
0.871
30
0.000
0
TEXT
7
PNTNUM
50
0.000
8
Text
62
3
10
0.189
20
0.871
30
0.000
40
0.001
1
431
0
LINE
8
Normals
62
1
10
0.188
20
0.871
30
0.000
11
0.188
21
0.871
31
0.100
0
POINT
8
Source_points
62
5
10
0.095
20
0.083
30
0.000
0
TEXT
7
PNTNUM
50
0.000
8
Text
62
3
10
0.095
20
0.083
30
0.000
40
0.001
1
432
0
LINE
8
Normals
62
1
10
0.095
20
0.083
30
0.000
11
0.095
21
0.083
31
0.100
0
POINT
8
Source_points
62
5
10
0.323
20
0.462
30
0.000
0
TEXT
7
PNTNUM
50
0.000
8
Text
62
3
10
0.324
20
0.461
30
0.000
40
0.001
1
433
0
LINE
8
Normals
62
1
10
0.323
20
0.462
30
0.000
11
0.323
21
0.462
31
0.100
0
POINT
8
Source_points
62
5
10
0.770
20
0.030
30
0.000
0
TEXT
7
PNTNUM
50
0.000
8
Text
62
3
10
0.770
20
0.030
30
0.000
40
0.001
1
434
0
LINE
8
Normals
62
1
10
0.770
20
0.030
30
0.000
11
0.770
21
0.030
31
0.100
0
POINT
8
Source_points
62
5
10
0.234
20
0.753
30
0.000
0
TEXT
7
PNTNUM
50
0.000
8
Text
62
3
10
0.235
20
0.753
30
0.000
40
0.001
1
435
0
LINE
8
Normals
62
1
10
0.234
20
0.753
30
0.000
11
0.234
21
0.753
31
0.100
0
POINT
8
Source_points
62
5
10
0.740
20
0.700
30
0.000
0
TEXT
7
PNTNUM
50
0.000
8
Text
62
3
10
0.741
20
0.700
30
0.000
40
0.001
1
436
0
LINE
8
Normals
62
1
10
0.740
20
0.700
30
0.000
11
0.740
21
0.700
31
0.100
0
POINT
8
Source_points
62
5
10
0.693
20
0.215
30
0.000
0
TEXT
7
PNTNUM
50
0.000
8
Text
62
3
10
0.693
20
0.214
30
0.000
40
0.001
1
437
0
LINE
8
Normals
62
1
10
0.693
20
0.215
30
0.000
11
0.693
21
0.215
31
0.100
0
POINT
8
Source_points
62
5
10
0.824
20
0.680
30
0.000
0
TEXT
7
PNTNUM
50
0.000
8
Text
62
3
10
0.825
20
0.679
30
0.000
40
0.001
1
438
0
LINE
8
Normals
62
1
10
0.824
20
0.680
30
0.000
11
0.824
21
0.680
31
0.100
0
POINT
8
Source_points
62
5
10
0.828
20
0.557
30
0.000
0
TEXT
7
PNTNUM
50
0.000
8
Text
62
3
10
0.828
20
0.557
30
0.000
40
0.001
1
439
0
LINE
8
Normals
62
1
10
0.828
20
0.557
30
0.000
11
0.828
21
0.557
31
0.100
0
POINT
8
Source_points
62
5
10
0.293
20
0.851
30
0.000
0
TEXT
7
PNTNUM
50
0.000
8
Text
62
3
10
0.294
20
0.850
30
0.000
40
0.001
1
440
0
LINE
8
Normals
62
1
10
0.293
20
0.851
30
0.000
11
0.293
21
0.851
31
0.100
0
POINT
8
Source_points
62
5
10
0.309
20
0.559
30
0.000
0
TEXT
7
PNTNUM
50
0.000
8
Text
62
3
10
0.310
20
0.558
30
0.000
40
0.001
1
441
0
LINE
8
Normals
62
1
10
0.309
20
0.559
30
0.000
11
0.309
21
0.559
31
0.100
0
POINT
8
Source_points
62
5
10
0.523
20
0.902
30
0.000
0
TEXT
7
PNTNUM
50
0.000
8
Text
62
3
10
0.524
20
0.901
30
0.000
40
0.001
1
442
0
LINE
8
Normals
62
1
10
0.523
20
0.902
30
0.000
11
0.523
21
0.902
31
0.100
0
POINT
8
Source_points
62
5
10
0.325
20
0.420
30
0.000
0
TEXT
7
PNTNUM
50
0.000
8
Text
62
3
10
0.326
20
0.419
30
0.000
40
0.001
1
443
0
LINE
8
Normals
62
1
10
0.325
20
0.420
30
0.000
11
0.325
21
0.420
31
0.100
0
POINT
8
Source_points
62
5
10
0.832
20
0.358
30
0.000
0
TEXT
7
PNTNUM
50
0.000
8
Text
62
3
10
0.832
20
0.358
30
0.000
40
0.001
1
444
0
LINE
8
Normals
62
1
10
0.832
20
0.358
30
0.000
11
0.832
21
0.358
31
0.100
0
POINT
8
Source_points
62
5
10
0.810
20
0.489
30
0.000
0
TEXT
7
PNTNUM
50
0.000
8
Text
62
3
10
0.811
20
0.488
30
0.000
40
0.001
1
445
0
LINE
8
Normals
62
1
10
0.810
20
0.489
30
0.000
11
0.810
21
0.489
31
0.100
0
POINT
8
Source_points
62
5
10
0.557
20
0.256
30
0.000
0
TEXT
7
PNTNUM
50
0.000
8
Text
62
3
10
0.557
20
0.255
30
0.000
40
0.001
1
446
0
LINE
8
Normals
62
1
10
0.557
20
0.256
30
0.000
11
0.557
21
0.256
31
0.100
0
POINT
8
Source_points
62
5
10
0.263
20
0.929
30
0.000
0
TEXT
7
PNTNUM
50
0.000
8
Text
62
3
10
0.263
20
0.929
30
0.000
40
0.001
1
447
0
LINE
8
Normals
62
1
10
0.263
20
0.929
30
0.000
11
0.263
21
0.929
31
0.100
0
POINT
8
Source_points
62
5
10
0.681
20
0.467
30
0.000
0
TEXT
7
PNTNUM
50
0.000
8
Text
62
3
10
0.681
20
0.466
30
0.000
40
0.001
1
448
0
LINE
8
Normals
62
1
10
0.681
20
0.467
30
0.000
11
0.681
21
0.467
31
0.100
0
POINT
8
Source_points
62
5
10
0.234
20
0.254
30
0.000
0
TEXT
7
PNTNUM
50
0.000
8
Text
62
3
10
0.234
20
0.254
30
0.000
40
0.001
1
449
0
LINE
8
Normals
62
1
10
0.234
20
0.254
30
0.000
11
0.234
21
0.254
31
0.100
0
POINT
8
Source_points
62
5
10
0.456
20
0.431
30
0.000
0
TEXT
7
PNTNUM
50
0.000
8
Text
62
3
10
0.457
20
0.431
30
0.000
40
0.001
1
450
0
LINE
8
Normals
62
1
10
0.456
20
0.431
30
0.000
11
0.456
21
0.431
31
0.100
0
POINT
8
Source_points
62
5
10
0.385
20
0.703
30
0.000
0
TEXT
7
PNTNUM
50
0.000
8
Text
62
3
10
0.385
20
0.702
30
0.000
40
0.001
1
451
0
LINE
8
Normals
62
1
10
0.385
20
0.703
30
0.000
11
0.385
21
0.703
31
0.100
0
POINT
8
Source_points
62
5
10
0.539
20
0.402
30
0.000
0
TEXT
7
PNTNUM
50
0.000
8
Text
62
3
10
0.539
20
0.402
30
0.000
40
0.001
1
452
0
LINE
8
Normals
62
1
10
0.539
20
0.402
30
0.000
11
0.539
21
0.402
31
0.100
0
POINT
8
Source_points
62
5
10
0.992
20
0.182
30
0.000
0
TEXT
7
PNTNUM
50
0.000
8
Text
62
3
10
0.992
20
0.181
30
0.000
40
0.001
1
453
0
LINE
8
Normals
62
1
10
0.992
20
0.182
30
0.000
11
0.992
21
0.182
31
0.100
0
POINT
8
Source_points
62
5
10
0.755
20
0.856
30
0.000
0
TEXT
7
PNTNUM
50
0.000
8
Text
62
3
10
0.756
20
0.856
30
0.000
40
0.001
1
454
0
LINE
8
Normals
62
1
10
0.755
20
0.856
30
0.000
11
0.755
21
0.856
31
0.100
0
POINT
8
Source_points
62
5
10
0.980
20
0.584
30
0.000
0
TEXT
7
PNTNUM
50
0.000
8
Text
62
3
10
0.981
20
0.584
30
0.000
40
0.001
1
455
0
LINE
8
Normals
62
1
10
0.980
20
0.584
30
0.000
11
0.980
21
0.584
31
0.100
0
POINT
8
Source_points
62
5
10
0.235
20
0.374
30
0.000
0
TEXT
7
PNTNUM
50
0.000
8
Text
62
3
10
0.235
20
0.373
30
0.000
40
0.001
1
456
0
LINE
8
Normals
62
1
10
0.235
20
0.374
30
0.000
11
0.235
21
0.374
31
0.100
0
POINT
8
Source_points
62
5
10
0.529
20
0.222
30
0.000
0
TEXT
7
PNTNUM
50
0.000
8
Text
62
3
10
0.529
20
0.221
30
0.000
40
0.001
1
457
0
LINE
8
Normals
62
1
10
0.529
20
0.222
30
0.000
11
0.529
21
0.222
31
0.100
0
POINT
8
Source_points
62
5
10
0.051
20
0.219
30
0.000
0
TEXT
7
PNTNUM
50
0.000
8
Text
62
3
10
0.052
20
0.218
30
0.000
40
0.001
1
458
0
LINE
8
Normals
62
1
10
0.051
20
0.219
30
0.000
11
0.051
21
0.219
31
0.100
0
POINT
8
Source_points
62
5
10
0.757
20
0.522
30
0.000
0
TEXT
7
PNTNUM
50
0.000
8
Text
62
3
10
0.757
20
0.522
30
0.000
40
0.001
1
459
0
LINE
8
Normals
62
1
10
0.757
20
0.522
30
0.000
11
0.757
21
0.522
31
0.100
0
POINT
8
Source_points
62
5
10
0.602
20
0.433
30
0.000
0
TEXT
7
PNTNUM
50
0.000
8
Text
62
3
10
0.602
20
0.433
30
0.000
40
0.001
1
460
0
LINE
8
Normals
62
1
10
0.602
20
0.433
30
0.000
11
0.602
21
0.433
31
0.100
0
POINT
8
Source_points
62
5
10
0.857
20
0.741
30
0.000
0
TEXT
7
PNTNUM
50
0.000
8
Text
62
3
10
0.858
20
0.741
30
0.000
40
0.001
1
461
0
LINE
8
Normals
62
1
10
0.857
20
0.741
30
0.000
11
0.857
21
0.741
31
0.100
0
POINT
8
Source_points
62
5
10
0.988
20
0.070
30
0.000
0
TEXT
7
PNTNUM
50
0.000
8
Text
62
3
10
0.989
20
0.070
30
0.000
40
0.001
1
462
0
LINE
8
Normals
62
1
10
0.988
20
0.070
30
0.000
11
0.988
21
0.070
31
0.100
0
POINT
8
Source_points
62
5
10
0.929
20
0.847
30
0.000
0
TEXT
7
PNTNUM
50
0.000
8
Text
62
3
10
0.930
20
0.847
30
0.000
40
0.001
1
463
0
LINE
8
Normals
62
1
10
0.929
20
0.847
30
0.000
11
0.929
21
0.847
31
0.100
0
POINT
8
Source_points
62
5
10
0.410
20
0.680
30
0.000
0
TEXT
7
PNTNUM
50
0.000
8
Text
62
3
10
0.410
20
0.679
30
0.000
40
0.001
1
464
0
LINE
8
Normals
62
1
10
0.410
20
0.680
30
0.000
11
0.410
21
0.680
31
0.100
0
POINT
8
Source_points
62
5
10
0.000
20
0.137
30
0.000
0
TEXT
7
PNTNUM
50
0.000
8
Text
62
3
10
0.001
20
0.136
30
0.000
40
0.001
1
465
0
LINE
8
Normals
62
1
10
0.000
20
0.137
30
0.000
11
0.000
21
0.137
31
0.100
0
POINT
8
Source_points
62
5
10
0.541
20
0.858
30
0.000
0
TEXT
7
PNTNUM
50
0.000
8
Text
62
3
10
0.541
20
0.858
30
0.000
40
0.001
1
466
0
LINE
8
Normals
62
1
10
0.541
20
0.858
30
0.000
11
0.541
21
0.858
31
0.100
0
POINT
8
Source_points
62
5
10
0.208
20
0.200
30
0.000
0
TEXT
7
PNTNUM
50
0.000
8
Text
62
3
10
0.208
20
0.199
30
0.000
40
0.001
1
467
0
LINE
8
Normals
62
1
10
0.208
20
0.200
30
0.000
11
0.208
21
0.200
31
0.100
0
POINT
8
Source_points
62
5
10
0.219
20
0.607
30
0.000
0
TEXT
7
PNTNUM
50
0.000
8
Text
62
3
10
0.220
20
0.607
30
0.000
40
0.001
1
468
0
LINE
8
Normals
62
1
10
0.219
20
0.607
30
0.000
11
0.219
21
0.607
31
0.100
0
POINT
8
Source_points
62
5
10
0.326
20
0.543
30
0.000
0
TEXT
7
PNTNUM
50
0.000
8
Text
62
3
10
0.326
20
0.543
30
0.000
40
0.001
1
469
0
LINE
8
Normals
62
1
10
0.326
20
0.543
30
0.000
11
0.326
21
0.543
31
0.100
0
POINT
8
Source_points
62
5
10
0.096
20
0.162
30
0.000
0
TEXT
7
PNTNUM
50
0.000
8
Text
62
3
10
0.096
20
0.162
30
0.000
40
0.001
1
470
0
LINE
8
Normals
62
1
10
0.096
20
0.162
30
0.000
11
0.096
21
0.162
31
0.100
0
POINT
8
Source_points
62
5
10
0.748
20
0.006
30
0.000
0
TEXT
7
PNTNUM
50
0.000
8
Text
62
3
10
0.748
20
0.005
30
0.000
40
0.001
1
471
0
LINE
8
Normals
62
1
10
0.748
20
0.006
30
0.000
11
0.748
21
0.006
31
0.100
0
POINT
8
Source_points
62
5
10
0.749
20
0.771
30
0.000
0
TEXT
7
PNTNUM
50
0.000
8
Text
62
3
10
0.749
20
0.771
30
0.000
40
0.001
1
472
0
LINE
8
Normals
62
1
10
0.749
20
0.771
30
0.000
11
0.749
21
0.771
31
0.100
0
POINT
8
Source_points
62
5
10
0.543
20
0.765
30
0.000
0
TEXT
7
PNTNUM
50
0.000
8
Text
62
3
10
0.544
20
0.764
30
0.000
40
0.001
1
473
0
LINE
8
Normals
62
1
10
0.543
20
0.765
30
0.000
11
0.543
21
0.765
31
0.100
0
POINT
8
Source_points
62
5
10
0.338
20
0.421
30
0.000
0
TEXT
7
PNTNUM
50
0.000
8
Text
62
3
10
0.339
20
0.421
30
0.000
40
0.001
1
474
0
LINE
8
Normals
62
1
10
0.338
20
0.421
30
0.000
11
0.338
21
0.421
31
0.100
0
POINT
8
Source_points
62
5
10
0.832
20
0.057
30
0.000
0
TEXT
7
PNTNUM
50
0.000
8
Text
62
3
10
0.833
20
0.056
30
0.000
40
0.001
1
475
0
LINE
8
Normals
62
1
10
0.832
20
0.057
30
0.000
11
0.832
21
0.057
31
0.100
0
POINT
8
Source_points
62
5
10
0.553
20
0.586
30
0.000
0
TEXT
7
PNTNUM
50
0.000
8
Text
62
3
10
0.553
20
0.585
30
0.000
40
0.001
1
476
0
LINE
8
Normals
62
1
10
0.553
20
0.586
30
0.000
11
0.553
21
0.586
31
0.100
0
POINT
8
Source_points
62
5
10
0.958
20
0.174
30
0.000
0
TEXT
7
PNTNUM
50
0.000
8
Text
62
3
10
0.958
20
0.174
30
0.000
40
0.001
1
477
0
LINE
8
Normals
62
1
10
0.958
20
0.174
30
0.000
11
0.958
21
0.174
31
0.100
0
POINT
8
Source_points
62
5
10
0.893
20
0.729
30
0.000
0
TEXT
7
PNTNUM
50
0.000
8
Text
62
3
10
0.893
20
0.728
30
0.000
40
0.001
1
478
0
LINE
8
Normals
62
1
10
0.893
20
0.729
30
0.000
11
0.893
21
0.729
31
0.100
0
POINT
8
Source_points
62
5
10
0.357
20
0.534
30
0.000
0
TEXT
7
PNTNUM
50
0.000
8
Text
62
3
10
0.357
20
0.534
30
0.000
40
0.001
1
479
0
LINE
8
Normals
62
1
10
0.357
20
0.534
30
0.000
11
0.357
21
0.534
31
0.100
0
POINT
8
Source_points
62
5
10
0.546
20
0.253
30
0.000
0
TEXT
7
PNTNUM
50
0.000
8
Text
62
3
10
0.547
20
0.253
30
0.000
40
0.001
1
480
0
LINE
8
Normals
62
1
10
0.546
20
0.253
30
0.000
11
0.546
21
0.253
31
0.100
0
POINT
8
Source_points
62
5
10
0.347
20
0.917
30
0.000
0
TEXT
7
PNTNUM
50
0.000
8
Text
62
3
10
0.347
20
0.917
30
0.000
40
0.001
1
481
0
LINE
8
Normals
62
1
10
0.347
20
0.917
30
0.000
11
0.347
21
0.917
31
0.100
0
POINT
8
Source_points
62
5
10
0.623
20
0.758
30
0.000
0
TEXT
7
PNTNUM
50
0.000
8
Text
62
3
10
0.623
20
0.758
30
0.000
40
0.001
1
482
0
LINE
8
Normals
62
1
10
0.623
20
0.758
30
0.000
11
0.623
21
0.758
31
0.100
0
POINT
8
Source_points
62
5
10
0.797
20
0.887
30
0.000
0
TEXT
7
PNTNUM
50
0.000
8
Text
62
3
10
0.797
20
0.887
30
0.000
40
0.001
1
483
0
LINE
8
Normals
62
1
10
0.797
20
0.887
30
0.000
11
0.797
21
0.887
31
0.100
0
POINT
8
Source_points
62
5
10
0.746
20
0.069
30
0.000
0
TEXT
7
PNTNUM
50
0.000
8
Text
62
3
10
0.746
20
0.068
30
0.000
40
0.001
1
484
0
LINE
8
Normals
62
1
10
0.746
20
0.069
30
0.000
11
0.746
21
0.069
31
0.100
0
POINT
8
Source_points
62
5
10
0.126
20
0.184
30
0.000
0
TEXT
7
PNTNUM
50
0.000
8
Text
62
3
10
0.126
20
0.183
30
0.000
40
0.001
1
485
0
LINE
8
Normals
62
1
10
0.126
20
0.184
30
0.000
11
0.126
21
0.184
31
0.100
0
POINT
8
Source_points
62
5
10
0.822
20
0.737
30
0.000
0
TEXT
7
PNTNUM
50
0.000
8
Text
62
3
10
0.823
20
0.737
30
0.000
40
0.001
1
486
0
LINE
8
Normals
62
1
10
0.822
20
0.737
30
0.000
11
0.822
21
0.737
31
0.100
0
POINT
8
Source_points
62
5
10
0.025
20
0.697
30
0.000
0
TEXT
7
PNTNUM
50
0.000
8
Text
62
3
10
0.026
20
0.696
30
0.000
40
0.001
1
487
0
LINE
8
Normals
62
1
10
0.025
20
0.697
30
0.000
11
0.025
21
0.697
31
0.100
0
POINT
8
Source_points
62
5
10
0.414
20
0.777
30
0.000
0
TEXT
7
PNTNUM
50
0.000
8
Text
62
3
10
0.415
20
0.776
30
0.000
40
0.001
1
488
0
LINE
8
Normals
62
1
10
0.414
20
0.777
30
0.000
11
0.414
21
0.777
31
0.100
0
POINT
8
Source_points
62
5
10
0.731
20
0.502
30
0.000
0
TEXT
7
PNTNUM
50
0.000
8
Text
62
3
10
0.732
20
0.501
30
0.000
40
0.001
1
489
0
LINE
8
Normals
62
1
10
0.731
20
0.502
30
0.000
11
0.731
21
0.502
31
0.100
0
POINT
8
Source_points
62
5
10
0.781
20
0.425
30
0.000
0
TEXT
7
PNTNUM
50
0.000
8
Text
62
3
10
0.782
20
0.425
30
0.000
40
0.001
1
490
0
LINE
8
Normals
62
1
10
0.781
20
0.425
30
0.000
11
0.781
21
0.425
31
0.100
0
POINT
8
Source_points
62
5
10
0.367
20
0.611
30
0.000
0
TEXT
7
PNTNUM
50
0.000
8
Text
62
3
10
0.368
20
0.611
30
0.000
40
0.001
1
491
0
LINE
8
Normals
62
1
10
0.367
20
0.611
30
0.000
11
0.367
21
0.611
31
0.100
0
POINT
8
Source_points
62
5
10
0.745
20
0.856
30
0.000
0
TEXT
7
PNTNUM
50
0.000
8
Text
62
3
10
0.745
20
0.855
30
0.000
40
0.001
1
492
0
LINE
8
Normals
62
1
10
0.745
20
0.856
30
0.000
11
0.745
21
0.856
31
0.100
0
POINT
8
Source_points
62
5
10
0.892
20
0.671
30
0.000
0
TEXT
7
PNTNUM
50
0.000
8
Text
62
3
10
0.893
20
0.670
30
0.000
40
0.001
1
493
0
LINE
8
Normals
62
1
10
0.892
20
0.671
30
0.000
11
0.892
21
0.671
31
0.100
0
POINT
8
Source_points
62
5
10
0.243
20
0.524
30
0.000
0
TEXT
7
PNTNUM
50
0.000
8
Text
62
3
10
0.243
20
0.523
30
0.000
40
0.001
1
494
0
LINE
8
Normals
62
1
10
0.243
20
0.524
30
0.000
11
0.243
21
0.524
31
0.100
0
POINT
8
Source_points
62
5
10
0.130
20
0.299
30
0.000
0
TEXT
7
PNTNUM
50
0.000
8
Text
62
3
10
0.130
20
0.298
30
0.000
40
0.001
1
495
0
LINE
8
Normals
62
1
10
0.130
20
0.299
30
0.000
11
0.130
21
0.299
31
0.100
0
POINT
8
Source_points
62
5
10
0.225
20
0.704
30
0.000
0
TEXT
7
PNTNUM
50
0.000
8
Text
62
3
10
0.226
20
0.703
30
0.000
40
0.001
1
496
0
LINE
8
Normals
62
1
10
0.225
20
0.704
30
0.000
11
0.225
21
0.704
31
0.100
0
POINT
8
Source_points
62
5
10
0.350
20
0.382
30
0.000
0
TEXT
7
PNTNUM
50
0.000
8
Text
62
3
10
0.351
20
0.381
30
0.000
40
0.001
1
497
0
LINE
8
Normals
62
1
10
0.350
20
0.382
30
0.000
11
0.350
21
0.382
31
0.100
0
POINT
8
Source_points
62
5
10
0.287
20
0.568
30
0.000
0
TEXT
7
PNTNUM
50
0.000
8
Text
62
3
10
0.288
20
0.567
30
0.000
40
0.001
1
498
0
LINE
8
Normals
62
1
10
0.287
20
0.568
30
0.000
11
0.287
21
0.568
31
0.100
0
POINT
8
Source_points
62
5
10
0.927
20
0.888
30
0.000
0
TEXT
7
PNTNUM
50
0.000
8
Text
62
3
10
0.928
20
0.887
30
0.000
40
0.001
1
499
0
LINE
8
Normals
62
1
10
0.927
20
0.888
30
0.000
11
0.927
21
0.888
31
0.100
0
POINT
8
Facilities
62
3
10
0.051
20
0.219
30
0.000
0
POINT
8
Clients
62
5
10
0.001
20
0.047
30
0.000
0
LINE
8
Facilities_lines
62
3
10
0.051
20
0.219
30
0.000
11
0.001
21
0.047
31
0.000
0
POINT
8
Clients
62
5
10
0.074
20
0.168
30
0.000
0
LINE
8
Facilities_lines
62
3
10
0.051
20
0.219
30
0.000
11
0.074
21
0.168
31
0.000
0
POINT
8
Clients
62
5
10
0.001
20
0.261
30
0.000
0
LINE
8
Facilities_lines
62
3
10
0.051
20
0.219
30
0.000
11
0.001
21
0.261
31
0.000
0
POINT
8
Clients
62
5
10
0.061
20
0.051
30
0.000
0
LINE
8
Facilities_lines
62
3
10
0.051
20
0.219
30
0.000
11
0.061
21
0.051
31
0.000
0
POINT
8
Clients
62
5
10
0.090
20
0.059
30
0.000
0
LINE
8
Facilities_lines
62
3
10
0.051
20
0.219
30
0.000
11
0.090
21
0.059
31
0.000
0
POINT
8
Clients
62
5
10
0.061
20
0.200
30
0.000
0
LINE
8
Facilities_lines
62
3
10
0.051
20
0.219
30
0.000
11
0.061
21
0.200
31
0.000
0
POINT
8
Clients
62
5
10
0.054
20
0.296
30
0.000
0
LINE
8
Facilities_lines
62
3
10
0.051
20
0.219
30
0.000
11
0.054
21
0.296
31
0.000
0
POINT
8
Clients
62
5
10
0.073
20
0.073
30
0.000
0
LINE
8
Facilities_lines
62
3
10
0.051
20
0.219
30
0.000
11
0.073
21
0.073
31
0.000
0
POINT
8
Clients
62
5
10
0.051
20
0.246
30
0.000
0
LINE
8
Facilities_lines
62
3
10
0.051
20
0.219
30
0.000
11
0.051
21
0.246
31
0.000
0
POINT
8
Clients
62
5
10
0.009
20
0.069
30
0.000
0
LINE
8
Facilities_lines
62
3
10
0.051
20
0.219
30
0.000
11
0.009
21
0.069
31
0.000
0
POINT
8
Clients
62
5
10
0.001
20
0.203
30
0.000
0
LINE
8
Facilities_lines
62
3
10
0.051
20
0.219
30
0.000
11
0.001
21
0.203
31
0.000
0
POINT
8
Clients
62
5
10
0.024
20
0.137
30
0.000
0
LINE
8
Facilities_lines
62
3
10
0.051
20
0.219
30
0.000
11
0.024
21
0.137
31
0.000
0
POINT
8
Clients
62
5
10
0.043
20
0.293
30
0.000
0
LINE
8
Facilities_lines
62
3
10
0.051
20
0.219
30
0.000
11
0.043
21
0.293
31
0.000
0
POINT
8
Clients
62
5
10
0.095
20
0.083
30
0.000
0
LINE
8
Facilities_lines
62
3
10
0.051
20
0.219
30
0.000
11
0.095
21
0.083
31
0.000
0
POINT
8
Clients
62
5
10
0.000
20
0.137
30
0.000
0
LINE
8
Facilities_lines
62
3
10
0.051
20
0.219
30
0.000
11
0.000
21
0.137
31
0.000
0
POINT
8
Clients
62
5
10
0.096
20
0.162
30
0.000
0
LINE
8
Facilities_lines
62
3
10
0.051
20
0.219
30
0.000
11
0.096
21
0.162
31
0.000
0
LINE
8
Min_max_boxes
62
1
10
0.000
20
0.047
30
0.000
11
0.096
21
0.047
31
0.000
0
LINE
8
Min_max_boxes
62
1
10
0.096
20
0.047
30
0.000
11
0.096
21
0.296
31
0.000
0
LINE
8
Min_max_boxes
62
1
10
0.096
20
0.296
30
0.000
11
0.000
21
0.296
31
0.000
0
LINE
8
Min_max_boxes
62
1
10
0.000
20
0.296
30
0.000
11
0.000
21
0.047
31
0.000
0
LINE
8
Min_max_boxes
62
1
10
0.000
20
0.047
30
0.000
11
0.096
21
0.047
31
0.000
0
LINE
8
Min_max_boxes
62
1
10
0.096
20
0.047
30
0.000
11
0.096
21
0.296
31
0.000
0
LINE
8
Min_max_boxes
62
1
10
0.096
20
0.296
30
0.000
11
0.000
21
0.296
31
0.000
0
LINE
8
Min_max_boxes
62
1
10
0.000
20
0.296
30
0.000
11
0.000
21
0.047
31
0.000
0
LINE
8
Min_max_boxes
62
1
10
0.000
20
0.047
30
0.000
11
0.000
21
0.047
31
0.000
0
LINE
8
Min_max_boxes
62
1
10
0.096
20
0.047
30
0.000
11
0.096
21
0.047
31
0.000
0
LINE
8
Min_max_boxes
62
1
10
0.096
20
0.296
30
0.000
11
0.096
21
0.296
31
0.000
0
LINE
8
Min_max_boxes
62
1
10
0.000
20
0.296
30
0.000
11
0.000
21
0.296
31
0.000
0
POINT
8
Facilities
62
3
10
0.529
20
0.222
30
0.000
0
POINT
8
Clients
62
5
10
0.450
20
0.108
30
0.000
0
LINE
8
Facilities_lines
62
3
10
0.529
20
0.222
30
0.000
11
0.450
21
0.108
31
0.000
0
POINT
8
Clients
62
5
10
0.483
20
0.006
30
0.000
0
LINE
8
Facilities_lines
62
3
10
0.529
20
0.222
30
0.000
11
0.483
21
0.006
31
0.000
0
POINT
8
Clients
62
5
10
0.495
20
0.051
30
0.000
0
LINE
8
Facilities_lines
62
3
10
0.529
20
0.222
30
0.000
11
0.495
21
0.051
31
0.000
0
POINT
8
Clients
62
5
10
0.476
20
0.207
30
0.000
0
LINE
8
Facilities_lines
62
3
10
0.529
20
0.222
30
0.000
11
0.476
21
0.207
31
0.000
0
POINT
8
Clients
62
5
10
0.498
20
0.191
30
0.000
0
LINE
8
Facilities_lines
62
3
10
0.529
20
0.222
30
0.000
11
0.498
21
0.191
31
0.000
0
POINT
8
Clients
62
5
10
0.531
20
0.048
30
0.000
0
LINE
8
Facilities_lines
62
3
10
0.529
20
0.222
30
0.000
11
0.531
21
0.048
31
0.000
0
POINT
8
Clients
62
5
10
0.541
20
0.021
30
0.000
0
LINE
8
Facilities_lines
62
3
10
0.529
20
0.222
30
0.000
11
0.541
21
0.021
31
0.000
0
POINT
8
Clients
62
5
10
0.582
20
0.036
30
0.000
0
LINE
8
Facilities_lines
62
3
10
0.529
20
0.222
30
0.000
11
0.582
21
0.036
31
0.000
0
POINT
8
Clients
62
5
10
0.557
20
0.169
30
0.000
0
LINE
8
Facilities_lines
62
3
10
0.529
20
0.222
30
0.000
11
0.557
21
0.169
31
0.000
0
POINT
8
Clients
62
5
10
0.532
20
0.321
30
0.000
0
LINE
8
Facilities_lines
62
3
10
0.529
20
0.222
30
0.000
11
0.532
21
0.321
31
0.000
0
POINT
8
Clients
62
5
10
0.540
20
0.255
30
0.000
0
LINE
8
Facilities_lines
62
3
10
0.529
20
0.222
30
0.000
11
0.540
21
0.255
31
0.000
0
POINT
8
Clients
62
5
10
0.478
20
0.069
30
0.000
0
LINE
8
Facilities_lines
62
3
10
0.529
20
0.222
30
0.000
11
0.478
21
0.069
31
0.000
0
POINT
8
Clients
62
5
10
0.549
20
0.276
30
0.000
0
LINE
8
Facilities_lines
62
3
10
0.529
20
0.222
30
0.000
11
0.549
21
0.276
31
0.000
0
POINT
8
Clients
62
5
10
0.543
20
0.304
30
0.000
0
LINE
8
Facilities_lines
62
3
10
0.529
20
0.222
30
0.000
11
0.543
21
0.304
31
0.000
0
POINT
8
Clients
62
5
10
0.461
20
0.092
30
0.000
0
LINE
8
Facilities_lines
62
3
10
0.529
20
0.222
30
0.000
11
0.461
21
0.092
31
0.000
0
POINT
8
Clients
62
5
10
0.393
20
0.001
30
0.000
0
LINE
8
Facilities_lines
62
3
10
0.529
20
0.222
30
0.000
11
0.393
21
0.001
31
0.000
0
POINT
8
Clients
62
5
10
0.583
20
0.044
30
0.000
0
LINE
8
Facilities_lines
62
3
10
0.529
20
0.222
30
0.000
11
0.583
21
0.044
31
0.000
0
POINT
8
Clients
62
5
10
0.557
20
0.256
30
0.000
0
LINE
8
Facilities_lines
62
3
10
0.529
20
0.222
30
0.000
11
0.557
21
0.256
31
0.000
0
POINT
8
Clients
62
5
10
0.489
20
0.111
30
0.000
0
LINE
8
Facilities_lines
62
3
10
0.529
20
0.222
30
0.000
11
0.489
21
0.111
31
0.000
0
POINT
8
Clients
62
5
10
0.498
20
0.326
30
0.000
0
LINE
8
Facilities_lines
62
3
10
0.529
20
0.222
30
0.000
11
0.498
21
0.326
31
0.000
0
POINT
8
Clients
62
5
10
0.576
20
0.237
30
0.000
0
LINE
8
Facilities_lines
62
3
10
0.529
20
0.222
30
0.000
11
0.576
21
0.237
31
0.000
0
POINT
8
Clients
62
5
10
0.620
20
0.108
30
0.000
0
LINE
8
Facilities_lines
62
3
10
0.529
20
0.222
30
0.000
11
0.620
21
0.108
31
0.000
0
POINT
8
Clients
62
5
10
0.585
20
0.212
30
0.000
0
LINE
8
Facilities_lines
62
3
10
0.529
20
0.222
30
0.000
11
0.585
21
0.212
31
0.000
0
POINT
8
Clients
62
5
10
0.615
20
0.020
30
0.000
0
LINE
8
Facilities_lines
62
3
10
0.529
20
0.222
30
0.000
11
0.615
21
0.020
31
0.000
0
POINT
8
Clients
62
5
10
0.546
20
0.253
30
0.000
0
LINE
8
Facilities_lines
62
3
10
0.529
20
0.222
30
0.000
11
0.546
21
0.253
31
0.000
0
LINE
8
Min_max_boxes
62
1
10
0.393
20
0.001
30
0.000
11
0.620
21
0.001
31
0.000
0
LINE
8
Min_max_boxes
62
1
10
0.620
20
0.001
30
0.000
11
0.620
21
0.326
31
0.000
0
LINE
8
Min_max_boxes
62
1
10
0.620
20
0.326
30
0.000
11
0.393
21
0.326
31
0.000
0
LINE
8
Min_max_boxes
62
1
10
0.393
20
0.326
30
0.000
11
0.393
21
0.001
31
0.000
0
LINE
8
Min_max_boxes
62
1
10
0.393
20
0.001
30
0.000
11
0.620
21
0.001
31
0.000
0
LINE
8
Min_max_boxes
62
1
10
0.620
20
0.001
30
0.000
11
0.620
21
0.326
31
0.000
0
LINE
8
Min_max_boxes
62
1
10
0.620
20
0.326
30
0.000
11
0.393
21
0.326
31
0.000
0
LINE
8
Min_max_boxes
62
1
10
0.393
20
0.326
30
0.000
11
0.393
21
0.001
31
0.000
0
LINE
8
Min_max_boxes
62
1
10
0.393
20
0.001
30
0.000
11
0.393
21
0.001
31
0.000
0
LINE
8
Min_max_boxes
62
1
10
0.620
20
0.001
30
0.000
11
0.620
21
0.001
31
0.000
0
LINE
8
Min_max_boxes
62
1
10
0.620
20
0.326
30
0.000
11
0.620
21
0.326
31
0.000
0
LINE
8
Min_max_boxes
62
1
10
0.393
20
0.326
30
0.000
11
0.393
21
0.326
31
0.000
0
POINT
8
Facilities
62
3
10
0.809
20
0.146
30
0.000
0
POINT
8
Clients
62
5
10
0.762
20
0.312
30
0.000
0
LINE
8
Facilities_lines
62
3
10
0.809
20
0.146
30
0.000
11
0.762
21
0.312
31
0.000
0
POINT
8
Clients
62
5
10
0.762
20
0.159
30
0.000
0
LINE
8
Facilities_lines
62
3
10
0.809
20
0.146
30
0.000
11
0.762
21
0.159
31
0.000
0
POINT
8
Clients
62
5
10
0.747
20
0.035
30
0.000
0
LINE
8
Facilities_lines
62
3
10
0.809
20
0.146
30
0.000
11
0.747
21
0.035
31
0.000
0
POINT
8
Clients
62
5
10
0.725
20
0.220
30
0.000
0
LINE
8
Facilities_lines
62
3
10
0.809
20
0.146
30
0.000
11
0.725
21
0.220
31
0.000
0
POINT
8
Clients
62
5
10
0.789
20
0.017
30
0.000
0
LINE
8
Facilities_lines
62
3
10
0.809
20
0.146
30
0.000
11
0.789
21
0.017
31
0.000
0
POINT
8
Clients
62
5
10
0.827
20
0.057
30
0.000
0
LINE
8
Facilities_lines
62
3
10
0.809
20
0.146
30
0.000
11
0.827
21
0.057
31
0.000
0
POINT
8
Clients
62
5
10
0.805
20
0.152
30
0.000
0
LINE
8
Facilities_lines
62
3
10
0.809
20
0.146
30
0.000
11
0.805
21
0.152
31
0.000
0
POINT
8
Clients
62
5
10
0.838
20
0.056
30
0.000
0
LINE
8
Facilities_lines
62
3
10
0.809
20
0.146
30
0.000
11
0.838
21
0.056
31
0.000
0
POINT
8
Clients
62
5
10
0.837
20
0.230
30
0.000
0
LINE
8
Facilities_lines
62
3
10
0.809
20
0.146
30
0.000
11
0.837
21
0.230
31
0.000
0
POINT
8
Clients
62
5
10
0.856
20
0.249
30
0.000
0
LINE
8
Facilities_lines
62
3
10
0.809
20
0.146
30
0.000
11
0.856
21
0.249
31
0.000
0
POINT
8
Clients
62
5
10
0.853
20
0.355
30
0.000
0
LINE
8
Facilities_lines
62
3
10
0.809
20
0.146
30
0.000
11
0.853
21
0.355
31
0.000
0
POINT
8
Clients
62
5
10
0.830
20
0.368
30
0.000
0
LINE
8
Facilities_lines
62
3
10
0.809
20
0.146
30
0.000
11
0.830
21
0.368
31
0.000
0
POINT
8
Clients
62
5
10
0.850
20
0.068
30
0.000
0
LINE
8
Facilities_lines
62
3
10
0.809
20
0.146
30
0.000
11
0.850
21
0.068
31
0.000
0
POINT
8
Clients
62
5
10
0.759
20
0.279
30
0.000
0
LINE
8
Facilities_lines
62
3
10
0.809
20
0.146
30
0.000
11
0.759
21
0.279
31
0.000
0
POINT
8
Clients
62
5
10
0.729
20
0.124
30
0.000
0
LINE
8
Facilities_lines
62
3
10
0.809
20
0.146
30
0.000
11
0.729
21
0.124
31
0.000
0
POINT
8
Clients
62
5
10
0.790
20
0.271
30
0.000
0
LINE
8
Facilities_lines
62
3
10
0.809
20
0.146
30
0.000
11
0.790
21
0.271
31
0.000
0
POINT
8
Clients
62
5
10
0.764
20
0.282
30
0.000
0
LINE
8
Facilities_lines
62
3
10
0.809
20
0.146
30
0.000
11
0.764
21
0.282
31
0.000
0
POINT
8
Clients
62
5
10
0.855
20
0.309
30
0.000
0
LINE
8
Facilities_lines
62
3
10
0.809
20
0.146
30
0.000
11
0.855
21
0.309
31
0.000
0
POINT
8
Clients
62
5
10
0.757
20
0.029
30
0.000
0
LINE
8
Facilities_lines
62
3
10
0.809
20
0.146
30
0.000
11
0.757
21
0.029
31
0.000
0
POINT
8
Clients
62
5
10
0.901
20
0.054
30
0.000
0
LINE
8
Facilities_lines
62
3
10
0.809
20
0.146
30
0.000
11
0.901
21
0.054
31
0.000
0
POINT
8
Clients
62
5
10
0.712
20
0.114
30
0.000
0
LINE
8
Facilities_lines
62
3
10
0.809
20
0.146
30
0.000
11
0.712
21
0.114
31
0.000
0
POINT
8
Clients
62
5
10
0.844
20
0.148
30
0.000
0
LINE
8
Facilities_lines
62
3
10
0.809
20
0.146
30
0.000
11
0.844
21
0.148
31
0.000
0
POINT
8
Clients
62
5
10
0.785
20
0.124
30
0.000
0
LINE
8
Facilities_lines
62
3
10
0.809
20
0.146
30
0.000
11
0.785
21
0.124
31
0.000
0
POINT
8
Clients
62
5
10
0.727
20
0.233
30
0.000
0
LINE
8
Facilities_lines
62
3
10
0.809
20
0.146
30
0.000
11
0.727
21
0.233
31
0.000
0
POINT
8
Clients
62
5
10
0.780
20
0.112
30
0.000
0
LINE
8
Facilities_lines
62
3
10
0.809
20
0.146
30
0.000
11
0.780
21
0.112
31
0.000
0
POINT
8
Clients
62
5
10
0.762
20
0.311
30
0.000
0
LINE
8
Facilities_lines
62
3
10
0.809
20
0.146
30
0.000
11
0.762
21
0.311
31
0.000
0
POINT
8
Clients
62
5
10
0.716
20
0.106
30
0.000
0
LINE
8
Facilities_lines
62
3
10
0.809
20
0.146
30
0.000
11
0.716
21
0.106
31
0.000
0
POINT
8
Clients
62
5
10
0.884
20
0.155
30
0.000
0
LINE
8
Facilities_lines
62
3
10
0.809
20
0.146
30
0.000
11
0.884
21
0.155
31
0.000
0
POINT
8
Clients
62
5
10
0.857
20
0.035
30
0.000
0
LINE
8
Facilities_lines
62
3
10
0.809
20
0.146
30
0.000
11
0.857
21
0.035
31
0.000
0
POINT
8
Clients
62
5
10
0.754
20
0.189
30
0.000
0
LINE
8
Facilities_lines
62
3
10
0.809
20
0.146
30
0.000
11
0.754
21
0.189
31
0.000
0
POINT
8
Clients
62
5
10
0.819
20
0.016
30
0.000
0
LINE
8
Facilities_lines
62
3
10
0.809
20
0.146
30
0.000
11
0.819
21
0.016
31
0.000
0
POINT
8
Clients
62
5
10
0.755
20
0.383
30
0.000
0
LINE
8
Facilities_lines
62
3
10
0.809
20
0.146
30
0.000
11
0.755
21
0.383
31
0.000
0
POINT
8
Clients
62
5
10
0.742
20
0.085
30
0.000
0
LINE
8
Facilities_lines
62
3
10
0.809
20
0.146
30
0.000
11
0.742
21
0.085
31
0.000
0
POINT
8
Clients
62
5
10
0.835
20
0.177
30
0.000
0
LINE
8
Facilities_lines
62
3
10
0.809
20
0.146
30
0.000
11
0.835
21
0.177
31
0.000
0
POINT
8
Clients
62
5
10
0.895
20
0.130
30
0.000
0
LINE
8
Facilities_lines
62
3
10
0.809
20
0.146
30
0.000
11
0.895
21
0.130
31
0.000
0
POINT
8
Clients
62
5
10
0.746
20
0.399
30
0.000
0
LINE
8
Facilities_lines
62
3
10
0.809
20
0.146
30
0.000
11
0.746
21
0.399
31
0.000
0
POINT
8
Clients
62
5
10
0.770
20
0.030
30
0.000
0
LINE
8
Facilities_lines
62
3
10
0.809
20
0.146
30
0.000
11
0.770
21
0.030
31
0.000
0
POINT
8
Clients
62
5
10
0.832
20
0.358
30
0.000
0
LINE
8
Facilities_lines
62
3
10
0.809
20
0.146
30
0.000
11
0.832
21
0.358
31
0.000
0
POINT
8
Clients
62
5
10
0.810
20
0.489
30
0.000
0
LINE
8
Facilities_lines
62
3
10
0.809
20
0.146
30
0.000
11
0.810
21
0.489
31
0.000
0
POINT
8
Clients
62
5
10
0.748
20
0.006
30
0.000
0
LINE
8
Facilities_lines
62
3
10
0.809
20
0.146
30
0.000
11
0.748
21
0.006
31
0.000
0
POINT
8
Clients
62
5
10
0.832
20
0.057
30
0.000
0
LINE
8
Facilities_lines
62
3
10
0.809
20
0.146
30
0.000
11
0.832
21
0.057
31
0.000
0
POINT
8
Clients
62
5
10
0.746
20
0.069
30
0.000
0
LINE
8
Facilities_lines
62
3
10
0.809
20
0.146
30
0.000
11
0.746
21
0.069
31
0.000
0
POINT
8
Clients
62
5
10
0.781
20
0.425
30
0.000
0
LINE
8
Facilities_lines
62
3
10
0.809
20
0.146
30
0.000
11
0.781
21
0.425
31
0.000
0
LINE
8
Min_max_boxes
62
1
10
0.712
20
0.006
30
0.000
11
0.901
21
0.006
31
0.000
0
LINE
8
Min_max_boxes
62
1
10
0.901
20
0.006
30
0.000
11
0.901
21
0.489
31
0.000
0
LINE
8
Min_max_boxes
62
1
10
0.901
20
0.489
30
0.000
11
0.712
21
0.489
31
0.000
0
LINE
8
Min_max_boxes
62
1
10
0.712
20
0.489
30
0.000
11
0.712
21
0.006
31
0.000
0
LINE
8
Min_max_boxes
62
1
10
0.712
20
0.006
30
0.000
11
0.901
21
0.006
31
0.000
0
LINE
8
Min_max_boxes
62
1
10
0.901
20
0.006
30
0.000
11
0.901
21
0.489
31
0.000
0
LINE
8
Min_max_boxes
62
1
10
0.901
20
0.489
30
0.000
11
0.712
21
0.489
31
0.000
0
LINE
8
Min_max_boxes
62
1
10
0.712
20
0.489
30
0.000
11
0.712
21
0.006
31
0.000
0
LINE
8
Min_max_boxes
62
1
10
0.712
20
0.006
30
0.000
11
0.712
21
0.006
31
0.000
0
LINE
8
Min_max_boxes
62
1
10
0.901
20
0.006
30
0.000
11
0.901
21
0.006
31
0.000
0
LINE
8
Min_max_boxes
62
1
10
0.901
20
0.489
30
0.000
11
0.901
21
0.489
31
0.000
0
LINE
8
Min_max_boxes
62
1
10
0.712
20
0.489
30
0.000
11
0.712
21
0.489
31
0.000
0
POINT
8
Facilities
62
3
10
0.130
20
0.299
30
0.000
0
POINT
8
Clients
62
5
10
0.142
20
0.398
30
0.000
0
LINE
8
Facilities_lines
62
3
10
0.130
20
0.299
30
0.000
11
0.142
21
0.398
31
0.000
0
POINT
8
Clients
62
5
10
0.175
20
0.230
30
0.000
0
LINE
8
Facilities_lines
62
3
10
0.130
20
0.299
30
0.000
11
0.175
21
0.230
31
0.000
0
POINT
8
Clients
62
5
10
0.179
20
0.389
30
0.000
0
LINE
8
Facilities_lines
62
3
10
0.130
20
0.299
30
0.000
11
0.179
21
0.389
31
0.000
0
POINT
8
Clients
62
5
10
0.148
20
0.402
30
0.000
0
LINE
8
Facilities_lines
62
3
10
0.130
20
0.299
30
0.000
11
0.148
21
0.402
31
0.000
0
POINT
8
Clients
62
5
10
0.116
20
0.260
30
0.000
0
LINE
8
Facilities_lines
62
3
10
0.130
20
0.299
30
0.000
11
0.116
21
0.260
31
0.000
0
POINT
8
Clients
62
5
10
0.152
20
0.228
30
0.000
0
LINE
8
Facilities_lines
62
3
10
0.130
20
0.299
30
0.000
11
0.152
21
0.228
31
0.000
0
POINT
8
Clients
62
5
10
0.173
20
0.451
30
0.000
0
LINE
8
Facilities_lines
62
3
10
0.130
20
0.299
30
0.000
11
0.173
21
0.451
31
0.000
0
POINT
8
Clients
62
5
10
0.134
20
0.345
30
0.000
0
LINE
8
Facilities_lines
62
3
10
0.130
20
0.299
30
0.000
11
0.134
21
0.345
31
0.000
0
POINT
8
Clients
62
5
10
0.148
20
0.074
30
0.000
0
LINE
8
Facilities_lines
62
3
10
0.130
20
0.299
30
0.000
11
0.148
21
0.074
31
0.000
0
POINT
8
Clients
62
5
10
0.143
20
0.070
30
0.000
0
LINE
8
Facilities_lines
62
3
10
0.130
20
0.299
30
0.000
11
0.143
21
0.070
31
0.000
0
POINT
8
Clients
62
5
10
0.170
20
0.238
30
0.000
0
LINE
8
Facilities_lines
62
3
10
0.130
20
0.299
30
0.000
11
0.170
21
0.238
31
0.000
0
POINT
8
Clients
62
5
10
0.198
20
0.105
30
0.000
0
LINE
8
Facilities_lines
62
3
10
0.130
20
0.299
30
0.000
11
0.198
21
0.105
31
0.000
0
POINT
8
Clients
62
5
10
0.179
20
0.326
30
0.000
0
LINE
8
Facilities_lines
62
3
10
0.130
20
0.299
30
0.000
11
0.179
21
0.326
31
0.000
0
POINT
8
Clients
62
5
10
0.182
20
0.268
30
0.000
0
LINE
8
Facilities_lines
62
3
10
0.130
20
0.299
30
0.000
11
0.182
21
0.268
31
0.000
0
POINT
8
Clients
62
5
10
0.093
20
0.250
30
0.000
0
LINE
8
Facilities_lines
62
3
10
0.130
20
0.299
30
0.000
11
0.093
21
0.250
31
0.000
0
POINT
8
Clients
62
5
10
0.091
20
0.278
30
0.000
0
LINE
8
Facilities_lines
62
3
10
0.130
20
0.299
30
0.000
11
0.091
21
0.278
31
0.000
0
POINT
8
Clients
62
5
10
0.162
20
0.306
30
0.000
0
LINE
8
Facilities_lines
62
3
10
0.130
20
0.299
30
0.000
11
0.162
21
0.306
31
0.000
0
POINT
8
Clients
62
5
10
0.179
20
0.284
30
0.000
0
LINE
8
Facilities_lines
62
3
10
0.130
20
0.299
30
0.000
11
0.179
21
0.284
31
0.000
0
POINT
8
Clients
62
5
10
0.111
20
0.405
30
0.000
0
LINE
8
Facilities_lines
62
3
10
0.130
20
0.299
30
0.000
11
0.111
21
0.405
31
0.000
0
POINT
8
Clients
62
5
10
0.134
20
0.511
30
0.000
0
LINE
8
Facilities_lines
62
3
10
0.130
20
0.299
30
0.000
11
0.134
21
0.511
31
0.000
0
POINT
8
Clients
62
5
10
0.157
20
0.332
30
0.000
0
LINE
8
Facilities_lines
62
3
10
0.130
20
0.299
30
0.000
11
0.157
21
0.332
31
0.000
0
POINT
8
Clients
62
5
10
0.155
20
0.440
30
0.000
0
LINE
8
Facilities_lines
62
3
10
0.130
20
0.299
30
0.000
11
0.155
21
0.440
31
0.000
0
POINT
8
Clients
62
5
10
0.144
20
0.157
30
0.000
0
LINE
8
Facilities_lines
62
3
10
0.130
20
0.299
30
0.000
11
0.144
21
0.157
31
0.000
0
POINT
8
Clients
62
5
10
0.167
20
0.144
30
0.000
0
LINE
8
Facilities_lines
62
3
10
0.130
20
0.299
30
0.000
11
0.167
21
0.144
31
0.000
0
POINT
8
Clients
62
5
10
0.126
20
0.184
30
0.000
0
LINE
8
Facilities_lines
62
3
10
0.130
20
0.299
30
0.000
11
0.126
21
0.184
31
0.000
0
POINT
8
Clients
62
5
10
0.131
20
0.275
30
0.000
0
LINE
8
Facilities_lines
62
3
10
0.130
20
0.299
30
0.000
11
0.131
21
0.275
31
0.000
0
POINT
8
Clients
62
5
10
0.189
20
0.214
30
0.000
0
LINE
8
Facilities_lines
62
3
10
0.130
20
0.299
30
0.000
11
0.189
21
0.214
31
0.000
0
POINT
8
Clients
62
5
10
0.186
20
0.059
30
0.000
0
LINE
8
Facilities_lines
62
3
10
0.130
20
0.299
30
0.000
11
0.186
21
0.059
31
0.000
0
POINT
8
Clients
62
5
10
0.184
20
0.036
30
0.000
0
LINE
8
Facilities_lines
62
3
10
0.130
20
0.299
30
0.000
11
0.184
21
0.036
31
0.000
0
LINE
8
Min_max_boxes
62
1
10
0.091
20
0.036
30
0.000
11
0.198
21
0.036
31
0.000
0
LINE
8
Min_max_boxes
62
1
10
0.198
20
0.036
30
0.000
11
0.198
21
0.511
31
0.000
0
LINE
8
Min_max_boxes
62
1
10
0.198
20
0.511
30
0.000
11
0.091
21
0.511
31
0.000
0
LINE
8
Min_max_boxes
62
1
10
0.091
20
0.511
30
0.000
11
0.091
21
0.036
31
0.000
0
LINE
8
Min_max_boxes
62
1
10
0.091
20
0.036
30
0.000
11
0.198
21
0.036
31
0.000
0
LINE
8
Min_max_boxes
62
1
10
0.198
20
0.036
30
0.000
11
0.198
21
0.511
31
0.000
0
LINE
8
Min_max_boxes
62
1
10
0.198
20
0.511
30
0.000
11
0.091
21
0.511
31
0.000
0
LINE
8
Min_max_boxes
62
1
10
0.091
20
0.511
30
0.000
11
0.091
21
0.036
31
0.000
0
LINE
8
Min_max_boxes
62
1
10
0.091
20
0.036
30
0.000
11
0.091
21
0.036
31
0.000
0
LINE
8
Min_max_boxes
62
1
10
0.198
20
0.036
30
0.000
11
0.198
21
0.036
31
0.000
0
LINE
8
Min_max_boxes
62
1
10
0.198
20
0.511
30
0.000
11
0.198
21
0.511
31
0.000
0
LINE
8
Min_max_boxes
62
1
10
0.091
20
0.511
30
0.000
11
0.091
21
0.511
31
0.000
0
POINT
8
Facilities
62
3
10
0.254
20
0.314
30
0.000
0
POINT
8
Clients
62
5
10
0.244
20
0.163
30
0.000
0
LINE
8
Facilities_lines
62
3
10
0.254
20
0.314
30
0.000
11
0.244
21
0.163
31
0.000
0
POINT
8
Clients
62
5
10
0.221
20
0.355
30
0.000
0
LINE
8
Facilities_lines
62
3
10
0.254
20
0.314
30
0.000
11
0.221
21
0.355
31
0.000
0
POINT
8
Clients
62
5
10
0.268
20
0.334
30
0.000
0
LINE
8
Facilities_lines
62
3
10
0.254
20
0.314
30
0.000
11
0.268
21
0.334
31
0.000
0
POINT
8
Clients
62
5
10
0.265
20
0.233
30
0.000
0
LINE
8
Facilities_lines
62
3
10
0.254
20
0.314
30
0.000
11
0.265
21
0.233
31
0.000
0
POINT
8
Clients
62
5
10
0.242
20
0.086
30
0.000
0
LINE
8
Facilities_lines
62
3
10
0.254
20
0.314
30
0.000
11
0.242
21
0.086
31
0.000
0
POINT
8
Clients
62
5
10
0.243
20
0.500
30
0.000
0
LINE
8
Facilities_lines
62
3
10
0.254
20
0.314
30
0.000
11
0.243
21
0.500
31
0.000
0
POINT
8
Clients
62
5
10
0.287
20
0.338
30
0.000
0
LINE
8
Facilities_lines
62
3
10
0.254
20
0.314
30
0.000
11
0.287
21
0.338
31
0.000
0
POINT
8
Clients
62
5
10
0.285
20
0.030
30
0.000
0
LINE
8
Facilities_lines
62
3
10
0.254
20
0.314
30
0.000
11
0.285
21
0.030
31
0.000
0
POINT
8
Clients
62
5
10
0.273
20
0.311
30
0.000
0
LINE
8
Facilities_lines
62
3
10
0.254
20
0.314
30
0.000
11
0.273
21
0.311
31
0.000
0
POINT
8
Clients
62
5
10
0.235
20
0.114
30
0.000
0
LINE
8
Facilities_lines
62
3
10
0.254
20
0.314
30
0.000
11
0.235
21
0.114
31
0.000
0
POINT
8
Clients
62
5
10
0.279
20
0.448
30
0.000
0
LINE
8
Facilities_lines
62
3
10
0.254
20
0.314
30
0.000
11
0.279
21
0.448
31
0.000
0
POINT
8
Clients
62
5
10
0.230
20
0.460
30
0.000
0
LINE
8
Facilities_lines
62
3
10
0.254
20
0.314
30
0.000
11
0.230
21
0.460
31
0.000
0
POINT
8
Clients
62
5
10
0.270
20
0.094
30
0.000
0
LINE
8
Facilities_lines
62
3
10
0.254
20
0.314
30
0.000
11
0.270
21
0.094
31
0.000
0
POINT
8
Clients
62
5
10
0.312
20
0.180
30
0.000
0
LINE
8
Facilities_lines
62
3
10
0.254
20
0.314
30
0.000
11
0.312
21
0.180
31
0.000
0
POINT
8
Clients
62
5
10
0.264
20
0.466
30
0.000
0
LINE
8
Facilities_lines
62
3
10
0.254
20
0.314
30
0.000
11
0.264
21
0.466
31
0.000
0
POINT
8
Clients
62
5
10
0.232
20
0.500
30
0.000
0
LINE
8
Facilities_lines
62
3
10
0.254
20
0.314
30
0.000
11
0.232
21
0.500
31
0.000
0
POINT
8
Clients
62
5
10
0.257
20
0.136
30
0.000
0
LINE
8
Facilities_lines
62
3
10
0.254
20
0.314
30
0.000
11
0.257
21
0.136
31
0.000
0
POINT
8
Clients
62
5
10
0.228
20
0.204
30
0.000
0
LINE
8
Facilities_lines
62
3
10
0.254
20
0.314
30
0.000
11
0.228
21
0.204
31
0.000
0
POINT
8
Clients
62
5
10
0.220
20
0.297
30
0.000
0
LINE
8
Facilities_lines
62
3
10
0.254
20
0.314
30
0.000
11
0.220
21
0.297
31
0.000
0
POINT
8
Clients
62
5
10
0.226
20
0.396
30
0.000
0
LINE
8
Facilities_lines
62
3
10
0.254
20
0.314
30
0.000
11
0.226
21
0.396
31
0.000
0
POINT
8
Clients
62
5
10
0.328
20
0.042
30
0.000
0
LINE
8
Facilities_lines
62
3
10
0.254
20
0.314
30
0.000
11
0.328
21
0.042
31
0.000
0
POINT
8
Clients
62
5
10
0.283
20
0.083
30
0.000
0
LINE
8
Facilities_lines
62
3
10
0.254
20
0.314
30
0.000
11
0.283
21
0.083
31
0.000
0
POINT
8
Clients
62
5
10
0.279
20
0.244
30
0.000
0
LINE
8
Facilities_lines
62
3
10
0.254
20
0.314
30
0.000
11
0.279
21
0.244
31
0.000
0
POINT
8
Clients
62
5
10
0.318
20
0.399
30
0.000
0
LINE
8
Facilities_lines
62
3
10
0.254
20
0.314
30
0.000
11
0.318
21
0.399
31
0.000
0
POINT
8
Clients
62
5
10
0.316
20
0.446
30
0.000
0
LINE
8
Facilities_lines
62
3
10
0.254
20
0.314
30
0.000
11
0.316
21
0.446
31
0.000
0
POINT
8
Clients
62
5
10
0.285
20
0.543
30
0.000
0
LINE
8
Facilities_lines
62
3
10
0.254
20
0.314
30
0.000
11
0.285
21
0.543
31
0.000
0
POINT
8
Clients
62
5
10
0.309
20
0.446
30
0.000
0
LINE
8
Facilities_lines
62
3
10
0.254
20
0.314
30
0.000
11
0.309
21
0.446
31
0.000
0
POINT
8
Clients
62
5
10
0.323
20
0.462
30
0.000
0
LINE
8
Facilities_lines
62
3
10
0.254
20
0.314
30
0.000
11
0.323
21
0.462
31
0.000
0
POINT
8
Clients
62
5
10
0.325
20
0.420
30
0.000
0
LINE
8
Facilities_lines
62
3
10
0.254
20
0.314
30
0.000
11
0.325
21
0.420
31
0.000
0
POINT
8
Clients
62
5
10
0.234
20
0.254
30
0.000
0
LINE
8
Facilities_lines
62
3
10
0.254
20
0.314
30
0.000
11
0.234
21
0.254
31
0.000
0
POINT
8
Clients
62
5
10
0.235
20
0.374
30
0.000
0
LINE
8
Facilities_lines
62
3
10
0.254
20
0.314
30
0.000
11
0.235
21
0.374
31
0.000
0
POINT
8
Clients
62
5
10
0.208
20
0.200
30
0.000
0
LINE
8
Facilities_lines
62
3
10
0.254
20
0.314
30
0.000
11
0.208
21
0.200
31
0.000
0
POINT
8
Clients
62
5
10
0.243
20
0.524
30
0.000
0
LINE
8
Facilities_lines
62
3
10
0.254
20
0.314
30
0.000
11
0.243
21
0.524
31
0.000
0
POINT
8
Clients
62
5
10
0.287
20
0.568
30
0.000
0
LINE
8
Facilities_lines
62
3
10
0.254
20
0.314
30
0.000
11
0.287
21
0.568
31
0.000
0
LINE
8
Min_max_boxes
62
1
10
0.208
20
0.030
30
0.000
11
0.328
21
0.030
31
0.000
0
LINE
8
Min_max_boxes
62
1
10
0.328
20
0.030
30
0.000
11
0.328
21
0.568
31
0.000
0
LINE
8
Min_max_boxes
62
1
10
0.328
20
0.568
30
0.000
11
0.208
21
0.568
31
0.000
0
LINE
8
Min_max_boxes
62
1
10
0.208
20
0.568
30
0.000
11
0.208
21
0.030
31
0.000
0
LINE
8
Min_max_boxes
62
1
10
0.208
20
0.030
30
0.000
11
0.328
21
0.030
31
0.000
0
LINE
8
Min_max_boxes
62
1
10
0.328
20
0.030
30
0.000
11
0.328
21
0.568
31
0.000
0
LINE
8
Min_max_boxes
62
1
10
0.328
20
0.568
30
0.000
11
0.208
21
0.568
31
0.000
0
LINE
8
Min_max_boxes
62
1
10
0.208
20
0.568
30
0.000
11
0.208
21
0.030
31
0.000
0
LINE
8
Min_max_boxes
62
1
10
0.208
20
0.030
30
0.000
11
0.208
21
0.030
31
0.000
0
LINE
8
Min_max_boxes
62
1
10
0.328
20
0.030
30
0.000
11
0.328
21
0.030
31
0.000
0
LINE
8
Min_max_boxes
62
1
10
0.328
20
0.568
30
0.000
11
0.328
21
0.568
31
0.000
0
LINE
8
Min_max_boxes
62
1
10
0.208
20
0.568
30
0.000
11
0.208
21
0.568
31
0.000
0
POINT
8
Facilities
62
3
10
0.406
20
0.311
30
0.000
0
POINT
8
Clients
62
5
10
0.391
20
0.114
30
0.000
0
LINE
8
Facilities_lines
62
3
10
0.406
20
0.311
30
0.000
11
0.391
21
0.114
31
0.000
0
POINT
8
Clients
62
5
10
0.375
20
0.066
30
0.000
0
LINE
8
Facilities_lines
62
3
10
0.406
20
0.311
30
0.000
11
0.375
21
0.066
31
0.000
0
POINT
8
Clients
62
5
10
0.435
20
0.282
30
0.000
0
LINE
8
Facilities_lines
62
3
10
0.406
20
0.311
30
0.000
11
0.435
21
0.282
31
0.000
0
POINT
8
Clients
62
5
10
0.393
20
0.085
30
0.000
0
LINE
8
Facilities_lines
62
3
10
0.406
20
0.311
30
0.000
11
0.393
21
0.085
31
0.000
0
POINT
8
Clients
62
5
10
0.424
20
0.132
30
0.000
0
LINE
8
Facilities_lines
62
3
10
0.406
20
0.311
30
0.000
11
0.424
21
0.132
31
0.000
0
POINT
8
Clients
62
5
10
0.404
20
0.135
30
0.000
0
LINE
8
Facilities_lines
62
3
10
0.406
20
0.311
30
0.000
11
0.404
21
0.135
31
0.000
0
POINT
8
Clients
62
5
10
0.407
20
0.118
30
0.000
0
LINE
8
Facilities_lines
62
3
10
0.406
20
0.311
30
0.000
11
0.407
21
0.118
31
0.000
0
POINT
8
Clients
62
5
10
0.433
20
0.283
30
0.000
0
LINE
8
Facilities_lines
62
3
10
0.406
20
0.311
30
0.000
11
0.433
21
0.283
31
0.000
0
POINT
8
Clients
62
5
10
0.407
20
0.174
30
0.000
0
LINE
8
Facilities_lines
62
3
10
0.406
20
0.311
30
0.000
11
0.407
21
0.174
31
0.000
0
POINT
8
Clients
62
5
10
0.402
20
0.247
30
0.000
0
LINE
8
Facilities_lines
62
3
10
0.406
20
0.311
30
0.000
11
0.402
21
0.247
31
0.000
0
POINT
8
Clients
62
5
10
0.360
20
0.148
30
0.000
0
LINE
8
Facilities_lines
62
3
10
0.406
20
0.311
30
0.000
11
0.360
21
0.148
31
0.000
0
POINT
8
Clients
62
5
10
0.364
20
0.228
30
0.000
0
LINE
8
Facilities_lines
62
3
10
0.406
20
0.311
30
0.000
11
0.364
21
0.228
31
0.000
0
POINT
8
Clients
62
5
10
0.369
20
0.214
30
0.000
0
LINE
8
Facilities_lines
62
3
10
0.406
20
0.311
30
0.000
11
0.369
21
0.214
31
0.000
0
POINT
8
Clients
62
5
10
0.346
20
0.124
30
0.000
0
LINE
8
Facilities_lines
62
3
10
0.406
20
0.311
30
0.000
11
0.346
21
0.124
31
0.000
0
POINT
8
Clients
62
5
10
0.342
20
0.330
30
0.000
0
LINE
8
Facilities_lines
62
3
10
0.406
20
0.311
30
0.000
11
0.342
21
0.330
31
0.000
0
POINT
8
Clients
62
5
10
0.431
20
0.329
30
0.000
0
LINE
8
Facilities_lines
62
3
10
0.406
20
0.311
30
0.000
11
0.431
21
0.329
31
0.000
0
POINT
8
Clients
62
5
10
0.442
20
0.430
30
0.000
0
LINE
8
Facilities_lines
62
3
10
0.406
20
0.311
30
0.000
11
0.442
21
0.430
31
0.000
0
POINT
8
Clients
62
5
10
0.443
20
0.445
30
0.000
0
LINE
8
Facilities_lines
62
3
10
0.406
20
0.311
30
0.000
11
0.443
21
0.445
31
0.000
0
POINT
8
Clients
62
5
10
0.414
20
0.442
30
0.000
0
LINE
8
Facilities_lines
62
3
10
0.406
20
0.311
30
0.000
11
0.414
21
0.442
31
0.000
0
POINT
8
Clients
62
5
10
0.404
20
0.452
30
0.000
0
LINE
8
Facilities_lines
62
3
10
0.406
20
0.311
30
0.000
11
0.404
21
0.452
31
0.000
0
POINT
8
Clients
62
5
10
0.337
20
0.429
30
0.000
0
LINE
8
Facilities_lines
62
3
10
0.406
20
0.311
30
0.000
11
0.337
21
0.429
31
0.000
0
POINT
8
Clients
62
5
10
0.465
20
0.467
30
0.000
0
LINE
8
Facilities_lines
62
3
10
0.406
20
0.311
30
0.000
11
0.465
21
0.467
31
0.000
0
POINT
8
Clients
62
5
10
0.471
20
0.411
30
0.000
0
LINE
8
Facilities_lines
62
3
10
0.406
20
0.311
30
0.000
11
0.471
21
0.411
31
0.000
0
POINT
8
Clients
62
5
10
0.408
20
0.380
30
0.000
0
LINE
8
Facilities_lines
62
3
10
0.406
20
0.311
30
0.000
11
0.408
21
0.380
31
0.000
0
POINT
8
Clients
62
5
10
0.386
20
0.409
30
0.000
0
LINE
8
Facilities_lines
62
3
10
0.406
20
0.311
30
0.000
11
0.386
21
0.409
31
0.000
0
POINT
8
Clients
62
5
10
0.456
20
0.431
30
0.000
0
LINE
8
Facilities_lines
62
3
10
0.406
20
0.311
30
0.000
11
0.456
21
0.431
31
0.000
0
POINT
8
Clients
62
5
10
0.338
20
0.421
30
0.000
0
LINE
8
Facilities_lines
62
3
10
0.406
20
0.311
30
0.000
11
0.338
21
0.421
31
0.000
0
POINT
8
Clients
62
5
10
0.350
20
0.382
30
0.000
0
LINE
8
Facilities_lines
62
3
10
0.406
20
0.311
30
0.000
11
0.350
21
0.382
31
0.000
0
LINE
8
Min_max_boxes
62
1
10
0.337
20
0.066
30
0.000
11
0.471
21
0.066
31
0.000
0
LINE
8
Min_max_boxes
62
1
10
0.471
20
0.066
30
0.000
11
0.471
21
0.467
31
0.000
0
LINE
8
Min_max_boxes
62
1
10
0.471
20
0.467
30
0.000
11
0.337
21
0.467
31
0.000
0
LINE
8
Min_max_boxes
62
1
10
0.337
20
0.467
30
0.000
11
0.337
21
0.066
31
0.000
0
LINE
8
Min_max_boxes
62
1
10
0.337
20
0.066
30
0.000
11
0.471
21
0.066
31
0.000
0
LINE
8
Min_max_boxes
62
1
10
0.471
20
0.066
30
0.000
11
0.471
21
0.467
31
0.000
0
LINE
8
Min_max_boxes
62
1
10
0.471
20
0.467
30
0.000
11
0.337
21
0.467
31
0.000
0
LINE
8
Min_max_boxes
62
1
10
0.337
20
0.467
30
0.000
11
0.337
21
0.066
31
0.000
0
LINE
8
Min_max_boxes
62
1
10
0.337
20
0.066
30
0.000
11
0.337
21
0.066
31
0.000
0
LINE
8
Min_max_boxes
62
1
10
0.471
20
0.066
30
0.000
11
0.471
21
0.066
31
0.000
0
LINE
8
Min_max_boxes
62
1
10
0.471
20
0.467
30
0.000
11
0.471
21
0.467
31
0.000
0
LINE
8
Min_max_boxes
62
1
10
0.337
20
0.467
30
0.000
11
0.337
21
0.467
31
0.000
0
POINT
8
Facilities
62
3
10
0.639
20
0.402
30
0.000
0
POINT
8
Clients
62
5
10
0.706
20
0.290
30
0.000
0
LINE
8
Facilities_lines
62
3
10
0.639
20
0.402
30
0.000
11
0.706
21
0.290
31
0.000
0
POINT
8
Clients
62
5
10
0.645
20
0.403
30
0.000
0
LINE
8
Facilities_lines
62
3
10
0.639
20
0.402
30
0.000
11
0.645
21
0.403
31
0.000
0
POINT
8
Clients
62
5
10
0.646
20
0.375
30
0.000
0
LINE
8
Facilities_lines
62
3
10
0.639
20
0.402
30
0.000
11
0.646
21
0.375
31
0.000
0
POINT
8
Clients
62
5
10
0.625
20
0.196
30
0.000
0
LINE
8
Facilities_lines
62
3
10
0.639
20
0.402
30
0.000
11
0.625
21
0.196
31
0.000
0
POINT
8
Clients
62
5
10
0.615
20
0.444
30
0.000
0
LINE
8
Facilities_lines
62
3
10
0.639
20
0.402
30
0.000
11
0.615
21
0.444
31
0.000
0
POINT
8
Clients
62
5
10
0.700
20
0.052
30
0.000
0
LINE
8
Facilities_lines
62
3
10
0.639
20
0.402
30
0.000
11
0.700
21
0.052
31
0.000
0
POINT
8
Clients
62
5
10
0.710
20
0.294
30
0.000
0
LINE
8
Facilities_lines
62
3
10
0.639
20
0.402
30
0.000
11
0.710
21
0.294
31
0.000
0
POINT
8
Clients
62
5
10
0.650
20
0.572
30
0.000
0
LINE
8
Facilities_lines
62
3
10
0.639
20
0.402
30
0.000
11
0.650
21
0.572
31
0.000
0
POINT
8
Clients
62
5
10
0.662
20
0.092
30
0.000
0
LINE
8
Facilities_lines
62
3
10
0.639
20
0.402
30
0.000
11
0.662
21
0.092
31
0.000
0
POINT
8
Clients
62
5
10
0.597
20
0.428
30
0.000
0
LINE
8
Facilities_lines
62
3
10
0.639
20
0.402
30
0.000
11
0.597
21
0.428
31
0.000
0
POINT
8
Clients
62
5
10
0.643
20
0.592
30
0.000
0
LINE
8
Facilities_lines
62
3
10
0.639
20
0.402
30
0.000
11
0.643
21
0.592
31
0.000
0
POINT
8
Clients
62
5
10
0.642
20
0.326
30
0.000
0
LINE
8
Facilities_lines
62
3
10
0.639
20
0.402
30
0.000
11
0.642
21
0.326
31
0.000
0
POINT
8
Clients
62
5
10
0.639
20
0.637
30
0.000
0
LINE
8
Facilities_lines
62
3
10
0.639
20
0.402
30
0.000
11
0.639
21
0.637
31
0.000
0
POINT
8
Clients
62
5
10
0.600
20
0.460
30
0.000
0
LINE
8
Facilities_lines
62
3
10
0.639
20
0.402
30
0.000
11
0.600
21
0.460
31
0.000
0
POINT
8
Clients
62
5
10
0.728
20
0.439
30
0.000
0
LINE
8
Facilities_lines
62
3
10
0.639
20
0.402
30
0.000
11
0.728
21
0.439
31
0.000
0
POINT
8
Clients
62
5
10
0.726
20
0.427
30
0.000
0
LINE
8
Facilities_lines
62
3
10
0.639
20
0.402
30
0.000
11
0.726
21
0.427
31
0.000
0
POINT
8
Clients
62
5
10
0.633
20
0.551
30
0.000
0
LINE
8
Facilities_lines
62
3
10
0.639
20
0.402
30
0.000
11
0.633
21
0.551
31
0.000
0
POINT
8
Clients
62
5
10
0.607
20
0.505
30
0.000
0
LINE
8
Facilities_lines
62
3
10
0.639
20
0.402
30
0.000
11
0.607
21
0.505
31
0.000
0
POINT
8
Clients
62
5
10
0.685
20
0.367
30
0.000
0
LINE
8
Facilities_lines
62
3
10
0.639
20
0.402
30
0.000
11
0.685
21
0.367
31
0.000
0
POINT
8
Clients
62
5
10
0.611
20
0.525
30
0.000
0
LINE
8
Facilities_lines
62
3
10
0.639
20
0.402
30
0.000
11
0.611
21
0.525
31
0.000
0
POINT
8
Clients
62
5
10
0.618
20
0.372
30
0.000
0
LINE
8
Facilities_lines
62
3
10
0.639
20
0.402
30
0.000
11
0.618
21
0.372
31
0.000
0
POINT
8
Clients
62
5
10
0.606
20
0.326
30
0.000
0
LINE
8
Facilities_lines
62
3
10
0.639
20
0.402
30
0.000
11
0.606
21
0.326
31
0.000
0
POINT
8
Clients
62
5
10
0.693
20
0.215
30
0.000
0
LINE
8
Facilities_lines
62
3
10
0.639
20
0.402
30
0.000
11
0.693
21
0.215
31
0.000
0
POINT
8
Clients
62
5
10
0.681
20
0.467
30
0.000
0
LINE
8
Facilities_lines
62
3
10
0.639
20
0.402
30
0.000
11
0.681
21
0.467
31
0.000
0
POINT
8
Clients
62
5
10
0.602
20
0.433
30
0.000
0
LINE
8
Facilities_lines
62
3
10
0.639
20
0.402
30
0.000
11
0.602
21
0.433
31
0.000
0
LINE
8
Min_max_boxes
62
1
10
0.597
20
0.052
30
0.000
11
0.728
21
0.052
31
0.000
0
LINE
8
Min_max_boxes
62
1
10
0.728
20
0.052
30
0.000
11
0.728
21
0.637
31
0.000
0
LINE
8
Min_max_boxes
62
1
10
0.728
20
0.637
30
0.000
11
0.597
21
0.637
31
0.000
0
LINE
8
Min_max_boxes
62
1
10
0.597
20
0.637
30
0.000
11
0.597
21
0.052
31
0.000
0
LINE
8
Min_max_boxes
62
1
10
0.597
20
0.052
30
0.000
11
0.728
21
0.052
31
0.000
0
LINE
8
Min_max_boxes
62
1
10
0.728
20
0.052
30
0.000
11
0.728
21
0.637
31
0.000
0
LINE
8
Min_max_boxes
62
1
10
0.728
20
0.637
30
0.000
11
0.597
21
0.637
31
0.000
0
LINE
8
Min_max_boxes
62
1
10
0.597
20
0.637
30
0.000
11
0.597
21
0.052
31
0.000
0
LINE
8
Min_max_boxes
62
1
10
0.597
20
0.052
30
0.000
11
0.597
21
0.052
31
0.000
0
LINE
8
Min_max_boxes
62
1
10
0.728
20
0.052
30
0.000
11
0.728
21
0.052
31
0.000
0
LINE
8
Min_max_boxes
62
1
10
0.728
20
0.637
30
0.000
11
0.728
21
0.637
31
0.000
0
LINE
8
Min_max_boxes
62
1
10
0.597
20
0.637
30
0.000
11
0.597
21
0.637
31
0.000
0
POINT
8
Facilities
62
3
10
0.964
20
0.340
30
0.000
0
POINT
8
Clients
62
5
10
0.909
20
0.105
30
0.000
0
LINE
8
Facilities_lines
62
3
10
0.964
20
0.340
30
0.000
11
0.909
21
0.105
31
0.000
0
POINT
8
Clients
62
5
10
0.933
20
0.230
30
0.000
0
LINE
8
Facilities_lines
62
3
10
0.964
20
0.340
30
0.000
11
0.933
21
0.230
31
0.000
0
POINT
8
Clients
62
5
10
0.956
20
0.090
30
0.000
0
LINE
8
Facilities_lines
62
3
10
0.964
20
0.340
30
0.000
11
0.956
21
0.090
31
0.000
0
POINT
8
Clients
62
5
10
0.946
20
0.199
30
0.000
0
LINE
8
Facilities_lines
62
3
10
0.964
20
0.340
30
0.000
11
0.946
21
0.199
31
0.000
0
POINT
8
Clients
62
5
10
0.962
20
0.223
30
0.000
0
LINE
8
Facilities_lines
62
3
10
0.964
20
0.340
30
0.000
11
0.962
21
0.223
31
0.000
0
POINT
8
Clients
62
5
10
0.939
20
0.438
30
0.000
0
LINE
8
Facilities_lines
62
3
10
0.964
20
0.340
30
0.000
11
0.939
21
0.438
31
0.000
0
POINT
8
Clients
62
5
10
0.980
20
0.540
30
0.000
0
LINE
8
Facilities_lines
62
3
10
0.964
20
0.340
30
0.000
11
0.980
21
0.540
31
0.000
0
POINT
8
Clients
62
5
10
0.906
20
0.395
30
0.000
0
LINE
8
Facilities_lines
62
3
10
0.964
20
0.340
30
0.000
11
0.906
21
0.395
31
0.000
0
POINT
8
Clients
62
5
10
0.962
20
0.520
30
0.000
0
LINE
8
Facilities_lines
62
3
10
0.964
20
0.340
30
0.000
11
0.962
21
0.520
31
0.000
0
POINT
8
Clients
62
5
10
0.988
20
0.333
30
0.000
0
LINE
8
Facilities_lines
62
3
10
0.964
20
0.340
30
0.000
11
0.988
21
0.333
31
0.000
0
POINT
8
Clients
62
5
10
0.973
20
0.014
30
0.000
0
LINE
8
Facilities_lines
62
3
10
0.964
20
0.340
30
0.000
11
0.973
21
0.014
31
0.000
0
POINT
8
Clients
62
5
10
0.957
20
0.408
30
0.000
0
LINE
8
Facilities_lines
62
3
10
0.964
20
0.340
30
0.000
11
0.957
21
0.408
31
0.000
0
POINT
8
Clients
62
5
10
0.992
20
0.261
30
0.000
0
LINE
8
Facilities_lines
62
3
10
0.964
20
0.340
30
0.000
11
0.992
21
0.261
31
0.000
0
POINT
8
Clients
62
5
10
0.994
20
0.365
30
0.000
0
LINE
8
Facilities_lines
62
3
10
0.964
20
0.340
30
0.000
11
0.994
21
0.365
31
0.000
0
POINT
8
Clients
62
5
10
0.962
20
0.121
30
0.000
0
LINE
8
Facilities_lines
62
3
10
0.964
20
0.340
30
0.000
11
0.962
21
0.121
31
0.000
0
POINT
8
Clients
62
5
10
0.935
20
0.332
30
0.000
0
LINE
8
Facilities_lines
62
3
10
0.964
20
0.340
30
0.000
11
0.935
21
0.332
31
0.000
0
POINT
8
Clients
62
5
10
0.995
20
0.528
30
0.000
0
LINE
8
Facilities_lines
62
3
10
0.964
20
0.340
30
0.000
11
0.995
21
0.528
31
0.000
0
POINT
8
Clients
62
5
10
0.962
20
0.032
30
0.000
0
LINE
8
Facilities_lines
62
3
10
0.964
20
0.340
30
0.000
11
0.962
21
0.032
31
0.000
0
POINT
8
Clients
62
5
10
0.975
20
0.286
30
0.000
0
LINE
8
Facilities_lines
62
3
10
0.964
20
0.340
30
0.000
11
0.975
21
0.286
31
0.000
0
POINT
8
Clients
62
5
10
0.948
20
0.529
30
0.000
0
LINE
8
Facilities_lines
62
3
10
0.964
20
0.340
30
0.000
11
0.948
21
0.529
31
0.000
0
POINT
8
Clients
62
5
10
0.946
20
0.539
30
0.000
0
LINE
8
Facilities_lines
62
3
10
0.964
20
0.340
30
0.000
11
0.946
21
0.539
31
0.000
0
POINT
8
Clients
62
5
10
0.898
20
0.290
30
0.000
0
LINE
8
Facilities_lines
62
3
10
0.964
20
0.340
30
0.000
11
0.898
21
0.290
31
0.000
0
POINT
8
Clients
62
5
10
0.902
20
0.267
30
0.000
0
LINE
8
Facilities_lines
62
3
10
0.964
20
0.340
30
0.000
11
0.902
21
0.267
31
0.000
0
POINT
8
Clients
62
5
10
0.954
20
0.407
30
0.000
0
LINE
8
Facilities_lines
62
3
10
0.964
20
0.340
30
0.000
11
0.954
21
0.407
31
0.000
0
POINT
8
Clients
62
5
10
0.915
20
0.299
30
0.000
0
LINE
8
Facilities_lines
62
3
10
0.964
20
0.340
30
0.000
11
0.915
21
0.299
31
0.000
0
POINT
8
Clients
62
5
10
0.964
20
0.197
30
0.000
0
LINE
8
Facilities_lines
62
3
10
0.964
20
0.340
30
0.000
11
0.964
21
0.197
31
0.000
0
POINT
8
Clients
62
5
10
0.917
20
0.295
30
0.000
0
LINE
8
Facilities_lines
62
3
10
0.964
20
0.340
30
0.000
11
0.917
21
0.295
31
0.000
0
POINT
8
Clients
62
5
10
0.999
20
0.131
30
0.000
0
LINE
8
Facilities_lines
62
3
10
0.964
20
0.340
30
0.000
11
0.999
21
0.131
31
0.000
0
POINT
8
Clients
62
5
10
0.956
20
0.490
30
0.000
0
LINE
8
Facilities_lines
62
3
10
0.964
20
0.340
30
0.000
11
0.956
21
0.490
31
0.000
0
POINT
8
Clients
62
5
10
0.979
20
0.347
30
0.000
0
LINE
8
Facilities_lines
62
3
10
0.964
20
0.340
30
0.000
11
0.979
21
0.347
31
0.000
0
POINT
8
Clients
62
5
10
0.885
20
0.437
30
0.000
0
LINE
8
Facilities_lines
62
3
10
0.964
20
0.340
30
0.000
11
0.885
21
0.437
31
0.000
0
POINT
8
Clients
62
5
10
0.992
20
0.182
30
0.000
0
LINE
8
Facilities_lines
62
3
10
0.964
20
0.340
30
0.000
11
0.992
21
0.182
31
0.000
0
POINT
8
Clients
62
5
10
0.980
20
0.584
30
0.000
0
LINE
8
Facilities_lines
62
3
10
0.964
20
0.340
30
0.000
11
0.980
21
0.584
31
0.000
0
POINT
8
Clients
62
5
10
0.988
20
0.070
30
0.000
0
LINE
8
Facilities_lines
62
3
10
0.964
20
0.340
30
0.000
11
0.988
21
0.070
31
0.000
0
POINT
8
Clients
62
5
10
0.958
20
0.174
30
0.000
0
LINE
8
Facilities_lines
62
3
10
0.964
20
0.340
30
0.000
11
0.958
21
0.174
31
0.000
0
LINE
8
Min_max_boxes
62
1
10
0.885
20
0.014
30
0.000
11
0.999
21
0.014
31
0.000
0
LINE
8
Min_max_boxes
62
1
10
0.999
20
0.014
30
0.000
11
0.999
21
0.584
31
0.000
0
LINE
8
Min_max_boxes
62
1
10
0.999
20
0.584
30
0.000
11
0.885
21
0.584
31
0.000
0
LINE
8
Min_max_boxes
62
1
10
0.885
20
0.584
30
0.000
11
0.885
21
0.014
31
0.000
0
LINE
8
Min_max_boxes
62
1
10
0.885
20
0.014
30
0.000
11
0.999
21
0.014
31
0.000
0
LINE
8
Min_max_boxes
62
1
10
0.999
20
0.014
30
0.000
11
0.999
21
0.584
31
0.000
0
LINE
8
Min_max_boxes
62
1
10
0.999
20
0.584
30
0.000
11
0.885
21
0.584
31
0.000
0
LINE
8
Min_max_boxes
62
1
10
0.885
20
0.584
30
0.000
11
0.885
21
0.014
31
0.000
0
LINE
8
Min_max_boxes
62
1
10
0.885
20
0.014
30
0.000
11
0.885
21
0.014
31
0.000
0
LINE
8
Min_max_boxes
62
1
10
0.999
20
0.014
30
0.000
11
0.999
21
0.014
31
0.000
0
LINE
8
Min_max_boxes
62
1
10
0.999
20
0.584
30
0.000
11
0.999
21
0.584
31
0.000
0
LINE
8
Min_max_boxes
62
1
10
0.885
20
0.584
30
0.000
11
0.885
21
0.584
31
0.000
0
POINT
8
Facilities
62
3
10
0.061
20
0.694
30
0.000
0
POINT
8
Clients
62
5
10
0.025
20
0.402
30
0.000
0
LINE
8
Facilities_lines
62
3
10
0.061
20
0.694
30
0.000
11
0.025
21
0.402
31
0.000
0
POINT
8
Clients
62
5
10
0.090
20
0.551
30
0.000
0
LINE
8
Facilities_lines
62
3
10
0.061
20
0.694
30
0.000
11
0.090
21
0.551
31
0.000
0
POINT
8
Clients
62
5
10
0.010
20
0.484
30
0.000
0
LINE
8
Facilities_lines
62
3
10
0.061
20
0.694
30
0.000
11
0.010
21
0.484
31
0.000
0
POINT
8
Clients
62
5
10
0.003
20
0.999
30
0.000
0
LINE
8
Facilities_lines
62
3
10
0.061
20
0.694
30
0.000
11
0.003
21
0.999
31
0.000
0
POINT
8
Clients
62
5
10
0.068
20
0.932
30
0.000
0
LINE
8
Facilities_lines
62
3
10
0.061
20
0.694
30
0.000
11
0.068
21
0.932
31
0.000
0
POINT
8
Clients
62
5
10
0.026
20
0.573
30
0.000
0
LINE
8
Facilities_lines
62
3
10
0.061
20
0.694
30
0.000
11
0.026
21
0.573
31
0.000
0
POINT
8
Clients
62
5
10
0.007
20
0.585
30
0.000
0
LINE
8
Facilities_lines
62
3
10
0.061
20
0.694
30
0.000
11
0.007
21
0.585
31
0.000
0
POINT
8
Clients
62
5
10
0.033
20
0.701
30
0.000
0
LINE
8
Facilities_lines
62
3
10
0.061
20
0.694
30
0.000
11
0.033
21
0.701
31
0.000
0
POINT
8
Clients
62
5
10
0.049
20
0.622
30
0.000
0
LINE
8
Facilities_lines
62
3
10
0.061
20
0.694
30
0.000
11
0.049
21
0.622
31
0.000
0
POINT
8
Clients
62
5
10
0.057
20
0.653
30
0.000
0
LINE
8
Facilities_lines
62
3
10
0.061
20
0.694
30
0.000
11
0.057
21
0.653
31
0.000
0
POINT
8
Clients
62
5
10
0.058
20
0.962
30
0.000
0
LINE
8
Facilities_lines
62
3
10
0.061
20
0.694
30
0.000
11
0.058
21
0.962
31
0.000
0
POINT
8
Clients
62
5
10
0.011
20
0.756
30
0.000
0
LINE
8
Facilities_lines
62
3
10
0.061
20
0.694
30
0.000
11
0.011
21
0.756
31
0.000
0
POINT
8
Clients
62
5
10
0.092
20
0.860
30
0.000
0
LINE
8
Facilities_lines
62
3
10
0.061
20
0.694
30
0.000
11
0.092
21
0.860
31
0.000
0
POINT
8
Clients
62
5
10
0.092
20
0.880
30
0.000
0
LINE
8
Facilities_lines
62
3
10
0.061
20
0.694
30
0.000
11
0.092
21
0.880
31
0.000
0
POINT
8
Clients
62
5
10
0.110
20
0.651
30
0.000
0
LINE
8
Facilities_lines
62
3
10
0.061
20
0.694
30
0.000
11
0.110
21
0.651
31
0.000
0
POINT
8
Clients
62
5
10
0.110
20
0.727
30
0.000
0
LINE
8
Facilities_lines
62
3
10
0.061
20
0.694
30
0.000
11
0.110
21
0.727
31
0.000
0
POINT
8
Clients
62
5
10
0.089
20
0.865
30
0.000
0
LINE
8
Facilities_lines
62
3
10
0.061
20
0.694
30
0.000
11
0.089
21
0.865
31
0.000
0
POINT
8
Clients
62
5
10
0.033
20
0.783
30
0.000
0
LINE
8
Facilities_lines
62
3
10
0.061
20
0.694
30
0.000
11
0.033
21
0.783
31
0.000
0
POINT
8
Clients
62
5
10
0.076
20
0.699
30
0.000
0
LINE
8
Facilities_lines
62
3
10
0.061
20
0.694
30
0.000
11
0.076
21
0.699
31
0.000
0
POINT
8
Clients
62
5
10
0.039
20
0.890
30
0.000
0
LINE
8
Facilities_lines
62
3
10
0.061
20
0.694
30
0.000
11
0.039
21
0.890
31
0.000
0
POINT
8
Clients
62
5
10
0.116
20
0.847
30
0.000
0
LINE
8
Facilities_lines
62
3
10
0.061
20
0.694
30
0.000
11
0.116
21
0.847
31
0.000
0
POINT
8
Clients
62
5
10
0.017
20
0.796
30
0.000
0
LINE
8
Facilities_lines
62
3
10
0.061
20
0.694
30
0.000
11
0.017
21
0.796
31
0.000
0
POINT
8
Clients
62
5
10
0.071
20
0.955
30
0.000
0
LINE
8
Facilities_lines
62
3
10
0.061
20
0.694
30
0.000
11
0.071
21
0.955
31
0.000
0
POINT
8
Clients
62
5
10
0.030
20
0.636
30
0.000
0
LINE
8
Facilities_lines
62
3
10
0.061
20
0.694
30
0.000
11
0.030
21
0.636
31
0.000
0
POINT
8
Clients
62
5
10
0.127
20
0.651
30
0.000
0
LINE
8
Facilities_lines
62
3
10
0.061
20
0.694
30
0.000
11
0.127
21
0.651
31
0.000
0
POINT
8
Clients
62
5
10
0.009
20
0.796
30
0.000
0
LINE
8
Facilities_lines
62
3
10
0.061
20
0.694
30
0.000
11
0.009
21
0.796
31
0.000
0
POINT
8
Clients
62
5
10
0.049
20
0.921
30
0.000
0
LINE
8
Facilities_lines
62
3
10
0.061
20
0.694
30
0.000
11
0.049
21
0.921
31
0.000
0
POINT
8
Clients
62
5
10
0.050
20
0.498
30
0.000
0
LINE
8
Facilities_lines
62
3
10
0.061
20
0.694
30
0.000
11
0.050
21
0.498
31
0.000
0
POINT
8
Clients
62
5
10
0.127
20
0.800
30
0.000
0
LINE
8
Facilities_lines
62
3
10
0.061
20
0.694
30
0.000
11
0.127
21
0.800
31
0.000
0
POINT
8
Clients
62
5
10
0.124
20
0.695
30
0.000
0
LINE
8
Facilities_lines
62
3
10
0.061
20
0.694
30
0.000
11
0.124
21
0.695
31
0.000
0
POINT
8
Clients
62
5
10
0.067
20
0.606
30
0.000
0
LINE
8
Facilities_lines
62
3
10
0.061
20
0.694
30
0.000
11
0.067
21
0.606
31
0.000
0
POINT
8
Clients
62
5
10
0.035
20
0.734
30
0.000
0
LINE
8
Facilities_lines
62
3
10
0.061
20
0.694
30
0.000
11
0.035
21
0.734
31
0.000
0
POINT
8
Clients
62
5
10
0.036
20
0.980
30
0.000
0
LINE
8
Facilities_lines
62
3
10
0.061
20
0.694
30
0.000
11
0.036
21
0.980
31
0.000
0
POINT
8
Clients
62
5
10
0.025
20
0.697
30
0.000
0
LINE
8
Facilities_lines
62
3
10
0.061
20
0.694
30
0.000
11
0.025
21
0.697
31
0.000
0
LINE
8
Min_max_boxes
62
1
10
0.003
20
0.402
30
0.000
11
0.127
21
0.402
31
0.000
0
LINE
8
Min_max_boxes
62
1
10
0.127
20
0.402
30
0.000
11
0.127
21
0.999
31
0.000
0
LINE
8
Min_max_boxes
62
1
10
0.127
20
0.999
30
0.000
11
0.003
21
0.999
31
0.000
0
LINE
8
Min_max_boxes
62
1
10
0.003
20
0.999
30
0.000
11
0.003
21
0.402
31
0.000
0
LINE
8
Min_max_boxes
62
1
10
0.003
20
0.402
30
0.000
11
0.127
21
0.402
31
0.000
0
LINE
8
Min_max_boxes
62
1
10
0.127
20
0.402
30
0.000
11
0.127
21
0.999
31
0.000
0
LINE
8
Min_max_boxes
62
1
10
0.127
20
0.999
30
0.000
11
0.003
21
0.999
31
0.000
0
LINE
8
Min_max_boxes
62
1
10
0.003
20
0.999
30
0.000
11
0.003
21
0.402
31
0.000
0
LINE
8
Min_max_boxes
62
1
10
0.003
20
0.402
30
0.000
11
0.003
21
0.402
31
0.000
0
LINE
8
Min_max_boxes
62
1
10
0.127
20
0.402
30
0.000
11
0.127
21
0.402
31
0.000
0
LINE
8
Min_max_boxes
62
1
10
0.127
20
0.999
30
0.000
11
0.127
21
0.999
31
0.000
0
LINE
8
Min_max_boxes
62
1
10
0.003
20
0.999
30
0.000
11
0.003
21
0.999
31
0.000
0
POINT
8
Facilities
62
3
10
0.385
20
0.703
30
0.000
0
POINT
8
Clients
62
5
10
0.439
20
0.483
30
0.000
0
LINE
8
Facilities_lines
62
3
10
0.385
20
0.703
30
0.000
11
0.439
21
0.483
31
0.000
0
POINT
8
Clients
62
5
10
0.394
20
0.502
30
0.000
0
LINE
8
Facilities_lines
62
3
10
0.385
20
0.703
30
0.000
11
0.394
21
0.502
31
0.000
0
POINT
8
Clients
62
5
10
0.402
20
0.476
30
0.000
0
LINE
8
Facilities_lines
62
3
10
0.385
20
0.703
30
0.000
11
0.402
21
0.476
31
0.000
0
POINT
8
Clients
62
5
10
0.432
20
0.559
30
0.000
0
LINE
8
Facilities_lines
62
3
10
0.385
20
0.703
30
0.000
11
0.432
21
0.559
31
0.000
0
POINT
8
Clients
62
5
10
0.452
20
0.627
30
0.000
0
LINE
8
Facilities_lines
62
3
10
0.385
20
0.703
30
0.000
11
0.452
21
0.627
31
0.000
0
POINT
8
Clients
62
5
10
0.432
20
0.493
30
0.000
0
LINE
8
Facilities_lines
62
3
10
0.385
20
0.703
30
0.000
11
0.432
21
0.493
31
0.000
0
POINT
8
Clients
62
5
10
0.318
20
0.691
30
0.000
0
LINE
8
Facilities_lines
62
3
10
0.385
20
0.703
30
0.000
11
0.318
21
0.691
31
0.000
0
POINT
8
Clients
62
5
10
0.376
20
0.610
30
0.000
0
LINE
8
Facilities_lines
62
3
10
0.385
20
0.703
30
0.000
11
0.376
21
0.610
31
0.000
0
POINT
8
Clients
62
5
10
0.322
20
0.573
30
0.000
0
LINE
8
Facilities_lines
62
3
10
0.385
20
0.703
30
0.000
11
0.322
21
0.573
31
0.000
0
POINT
8
Clients
62
5
10
0.347
20
0.644
30
0.000
0
LINE
8
Facilities_lines
62
3
10
0.385
20
0.703
30
0.000
11
0.347
21
0.644
31
0.000
0
POINT
8
Clients
62
5
10
0.374
20
0.663
30
0.000
0
LINE
8
Facilities_lines
62
3
10
0.385
20
0.703
30
0.000
11
0.374
21
0.663
31
0.000
0
POINT
8
Clients
62
5
10
0.397
20
0.652
30
0.000
0
LINE
8
Facilities_lines
62
3
10
0.385
20
0.703
30
0.000
11
0.397
21
0.652
31
0.000
0
POINT
8
Clients
62
5
10
0.321
20
0.741
30
0.000
0
LINE
8
Facilities_lines
62
3
10
0.385
20
0.703
30
0.000
11
0.321
21
0.741
31
0.000
0
POINT
8
Clients
62
5
10
0.329
20
0.571
30
0.000
0
LINE
8
Facilities_lines
62
3
10
0.385
20
0.703
30
0.000
11
0.329
21
0.571
31
0.000
0
POINT
8
Clients
62
5
10
0.357
20
0.585
30
0.000
0
LINE
8
Facilities_lines
62
3
10
0.385
20
0.703
30
0.000
11
0.357
21
0.585
31
0.000
0
POINT
8
Clients
62
5
10
0.304
20
0.581
30
0.000
0
LINE
8
Facilities_lines
62
3
10
0.385
20
0.703
30
0.000
11
0.304
21
0.581
31
0.000
0
POINT
8
Clients
62
5
10
0.432
20
0.681
30
0.000
0
LINE
8
Facilities_lines
62
3
10
0.385
20
0.703
30
0.000
11
0.432
21
0.681
31
0.000
0
POINT
8
Clients
62
5
10
0.327
20
0.698
30
0.000
0
LINE
8
Facilities_lines
62
3
10
0.385
20
0.703
30
0.000
11
0.327
21
0.698
31
0.000
0
POINT
8
Clients
62
5
10
0.404
20
0.516
30
0.000
0
LINE
8
Facilities_lines
62
3
10
0.385
20
0.703
30
0.000
11
0.404
21
0.516
31
0.000
0
POINT
8
Clients
62
5
10
0.334
20
0.558
30
0.000
0
LINE
8
Facilities_lines
62
3
10
0.385
20
0.703
30
0.000
11
0.334
21
0.558
31
0.000
0
POINT
8
Clients
62
5
10
0.311
20
0.533
30
0.000
0
LINE
8
Facilities_lines
62
3
10
0.385
20
0.703
30
0.000
11
0.311
21
0.533
31
0.000
0
POINT
8
Clients
62
5
10
0.455
20
0.502
30
0.000
0
LINE
8
Facilities_lines
62
3
10
0.385
20
0.703
30
0.000
11
0.455
21
0.502
31
0.000
0
POINT
8
Clients
62
5
10
0.354
20
0.601
30
0.000
0
LINE
8
Facilities_lines
62
3
10
0.385
20
0.703
30
0.000
11
0.354
21
0.601
31
0.000
0
POINT
8
Clients
62
5
10
0.437
20
0.516
30
0.000
0
LINE
8
Facilities_lines
62
3
10
0.385
20
0.703
30
0.000
11
0.437
21
0.516
31
0.000
0
POINT
8
Clients
62
5
10
0.348
20
0.694
30
0.000
0
LINE
8
Facilities_lines
62
3
10
0.385
20
0.703
30
0.000
11
0.348
21
0.694
31
0.000
0
POINT
8
Clients
62
5
10
0.309
20
0.559
30
0.000
0
LINE
8
Facilities_lines
62
3
10
0.385
20
0.703
30
0.000
11
0.309
21
0.559
31
0.000
0
POINT
8
Clients
62
5
10
0.396
20
0.615
30
0.000
0
LINE
8
Facilities_lines
62
3
10
0.385
20
0.703
30
0.000
11
0.396
21
0.615
31
0.000
0
POINT
8
Clients
62
5
10
0.318
20
0.829
30
0.000
0
LINE
8
Facilities_lines
62
3
10
0.385
20
0.703
30
0.000
11
0.318
21
0.829
31
0.000
0
POINT
8
Clients
62
5
10
0.371
20
0.827
30
0.000
0
LINE
8
Facilities_lines
62
3
10
0.385
20
0.703
30
0.000
11
0.371
21
0.827
31
0.000
0
POINT
8
Clients
62
5
10
0.333
20
0.841
30
0.000
0
LINE
8
Facilities_lines
62
3
10
0.385
20
0.703
30
0.000
11
0.333
21
0.841
31
0.000
0
POINT
8
Clients
62
5
10
0.404
20
0.850
30
0.000
0
LINE
8
Facilities_lines
62
3
10
0.385
20
0.703
30
0.000
11
0.404
21
0.850
31
0.000
0
POINT
8
Clients
62
5
10
0.393
20
0.992
30
0.000
0
LINE
8
Facilities_lines
62
3
10
0.385
20
0.703
30
0.000
11
0.393
21
0.992
31
0.000
0
POINT
8
Clients
62
5
10
0.383
20
0.785
30
0.000
0
LINE
8
Facilities_lines
62
3
10
0.385
20
0.703
30
0.000
11
0.383
21
0.785
31
0.000
0
POINT
8
Clients
62
5
10
0.436
20
0.763
30
0.000
0
LINE
8
Facilities_lines
62
3
10
0.385
20
0.703
30
0.000
11
0.436
21
0.763
31
0.000
0
POINT
8
Clients
62
5
10
0.369
20
0.789
30
0.000
0
LINE
8
Facilities_lines
62
3
10
0.385
20
0.703
30
0.000
11
0.369
21
0.789
31
0.000
0
POINT
8
Clients
62
5
10
0.377
20
0.964
30
0.000
0
LINE
8
Facilities_lines
62
3
10
0.385
20
0.703
30
0.000
11
0.377
21
0.964
31
0.000
0
POINT
8
Clients
62
5
10
0.429
20
0.755
30
0.000
0
LINE
8
Facilities_lines
62
3
10
0.385
20
0.703
30
0.000
11
0.429
21
0.755
31
0.000
0
POINT
8
Clients
62
5
10
0.377
20
0.898
30
0.000
0
LINE
8
Facilities_lines
62
3
10
0.385
20
0.703
30
0.000
11
0.377
21
0.898
31
0.000
0
POINT
8
Clients
62
5
10
0.437
20
0.838
30
0.000
0
LINE
8
Facilities_lines
62
3
10
0.385
20
0.703
30
0.000
11
0.437
21
0.838
31
0.000
0
POINT
8
Clients
62
5
10
0.451
20
0.848
30
0.000
0
LINE
8
Facilities_lines
62
3
10
0.385
20
0.703
30
0.000
11
0.451
21
0.848
31
0.000
0
POINT
8
Clients
62
5
10
0.324
20
0.895
30
0.000
0
LINE
8
Facilities_lines
62
3
10
0.385
20
0.703
30
0.000
11
0.324
21
0.895
31
0.000
0
POINT
8
Clients
62
5
10
0.419
20
0.821
30
0.000
0
LINE
8
Facilities_lines
62
3
10
0.385
20
0.703
30
0.000
11
0.419
21
0.821
31
0.000
0
POINT
8
Clients
62
5
10
0.410
20
0.680
30
0.000
0
LINE
8
Facilities_lines
62
3
10
0.385
20
0.703
30
0.000
11
0.410
21
0.680
31
0.000
0
POINT
8
Clients
62
5
10
0.326
20
0.543
30
0.000
0
LINE
8
Facilities_lines
62
3
10
0.385
20
0.703
30
0.000
11
0.326
21
0.543
31
0.000
0
POINT
8
Clients
62
5
10
0.357
20
0.534
30
0.000
0
LINE
8
Facilities_lines
62
3
10
0.385
20
0.703
30
0.000
11
0.357
21
0.534
31
0.000
0
POINT
8
Clients
62
5
10
0.347
20
0.917
30
0.000
0
LINE
8
Facilities_lines
62
3
10
0.385
20
0.703
30
0.000
11
0.347
21
0.917
31
0.000
0
POINT
8
Clients
62
5
10
0.414
20
0.777
30
0.000
0
LINE
8
Facilities_lines
62
3
10
0.385
20
0.703
30
0.000
11
0.414
21
0.777
31
0.000
0
POINT
8
Clients
62
5
10
0.367
20
0.611
30
0.000
0
LINE
8
Facilities_lines
62
3
10
0.385
20
0.703
30
0.000
11
0.367
21
0.611
31
0.000
0
LINE
8
Min_max_boxes
62
1
10
0.304
20
0.476
30
0.000
11
0.455
21
0.476
31
0.000
0
LINE
8
Min_max_boxes
62
1
10
0.455
20
0.476
30
0.000
11
0.455
21
0.992
31
0.000
0
LINE
8
Min_max_boxes
62
1
10
0.455
20
0.992
30
0.000
11
0.304
21
0.992
31
0.000
0
LINE
8
Min_max_boxes
62
1
10
0.304
20
0.992
30
0.000
11
0.304
21
0.476
31
0.000
0
LINE
8
Min_max_boxes
62
1
10
0.304
20
0.476
30
0.000
11
0.455
21
0.476
31
0.000
0
LINE
8
Min_max_boxes
62
1
10
0.455
20
0.476
30
0.000
11
0.455
21
0.992
31
0.000
0
LINE
8
Min_max_boxes
62
1
10
0.455
20
0.992
30
0.000
11
0.304
21
0.992
31
0.000
0
LINE
8
Min_max_boxes
62
1
10
0.304
20
0.992
30
0.000
11
0.304
21
0.476
31
0.000
0
LINE
8
Min_max_boxes
62
1
10
0.304
20
0.476
30
0.000
11
0.304
21
0.476
31
0.000
0
LINE
8
Min_max_boxes
62
1
10
0.455
20
0.476
30
0.000
11
0.455
21
0.476
31
0.000
0
LINE
8
Min_max_boxes
62
1
10
0.455
20
0.992
30
0.000
11
0.455
21
0.992
31
0.000
0
LINE
8
Min_max_boxes
62
1
10
0.304
20
0.992
30
0.000
11
0.304
21
0.992
31
0.000
0
POINT
8
Facilities
62
3
10
0.727
20
0.746
30
0.000
0
POINT
8
Clients
62
5
10
0.706
20
0.593
30
0.000
0
LINE
8
Facilities_lines
62
3
10
0.727
20
0.746
30
0.000
11
0.706
21
0.593
31
0.000
0
POINT
8
Clients
62
5
10
0.716
20
0.758
30
0.000
0
LINE
8
Facilities_lines
62
3
10
0.727
20
0.746
30
0.000
11
0.716
21
0.758
31
0.000
0
POINT
8
Clients
62
5
10
0.785
20
0.838
30
0.000
0
LINE
8
Facilities_lines
62
3
10
0.727
20
0.746
30
0.000
11
0.785
21
0.838
31
0.000
0
POINT
8
Clients
62
5
10
0.772
20
0.991
30
0.000
0
LINE
8
Facilities_lines
62
3
10
0.727
20
0.746
30
0.000
11
0.772
21
0.991
31
0.000
0
POINT
8
Clients
62
5
10
0.680
20
0.830
30
0.000
0
LINE
8
Facilities_lines
62
3
10
0.727
20
0.746
30
0.000
11
0.680
21
0.830
31
0.000
0
POINT
8
Clients
62
5
10
0.700
20
0.844
30
0.000
0
LINE
8
Facilities_lines
62
3
10
0.727
20
0.746
30
0.000
11
0.700
21
0.844
31
0.000
0
POINT
8
Clients
62
5
10
0.762
20
0.987
30
0.000
0
LINE
8
Facilities_lines
62
3
10
0.727
20
0.746
30
0.000
11
0.762
21
0.987
31
0.000
0
POINT
8
Clients
62
5
10
0.672
20
0.985
30
0.000
0
LINE
8
Facilities_lines
62
3
10
0.727
20
0.746
30
0.000
11
0.672
21
0.985
31
0.000
0
POINT
8
Clients
62
5
10
0.694
20
0.934
30
0.000
0
LINE
8
Facilities_lines
62
3
10
0.727
20
0.746
30
0.000
11
0.694
21
0.934
31
0.000
0
POINT
8
Clients
62
5
10
0.671
20
0.659
30
0.000
0
LINE
8
Facilities_lines
62
3
10
0.727
20
0.746
30
0.000
11
0.671
21
0.659
31
0.000
0
POINT
8
Clients
62
5
10
0.748
20
0.702
30
0.000
0
LINE
8
Facilities_lines
62
3
10
0.727
20
0.746
30
0.000
11
0.748
21
0.702
31
0.000
0
POINT
8
Clients
62
5
10
0.687
20
0.618
30
0.000
0
LINE
8
Facilities_lines
62
3
10
0.727
20
0.746
30
0.000
11
0.687
21
0.618
31
0.000
0
POINT
8
Clients
62
5
10
0.650
20
0.962
30
0.000
0
LINE
8
Facilities_lines
62
3
10
0.727
20
0.746
30
0.000
11
0.650
21
0.962
31
0.000
0
POINT
8
Clients
62
5
10
0.719
20
0.567
30
0.000
0
LINE
8
Facilities_lines
62
3
10
0.727
20
0.746
30
0.000
11
0.719
21
0.567
31
0.000
0
POINT
8
Clients
62
5
10
0.790
20
0.783
30
0.000
0
LINE
8
Facilities_lines
62
3
10
0.727
20
0.746
30
0.000
11
0.790
21
0.783
31
0.000
0
POINT
8
Clients
62
5
10
0.752
20
0.539
30
0.000
0
LINE
8
Facilities_lines
62
3
10
0.727
20
0.746
30
0.000
11
0.752
21
0.539
31
0.000
0
POINT
8
Clients
62
5
10
0.677
20
0.629
30
0.000
0
LINE
8
Facilities_lines
62
3
10
0.727
20
0.746
30
0.000
11
0.677
21
0.629
31
0.000
0
POINT
8
Clients
62
5
10
0.671
20
0.947
30
0.000
0
LINE
8
Facilities_lines
62
3
10
0.727
20
0.746
30
0.000
11
0.671
21
0.947
31
0.000
0
POINT
8
Clients
62
5
10
0.712
20
0.830
30
0.000
0
LINE
8
Facilities_lines
62
3
10
0.727
20
0.746
30
0.000
11
0.712
21
0.830
31
0.000
0
POINT
8
Clients
62
5
10
0.781
20
0.909
30
0.000
0
LINE
8
Facilities_lines
62
3
10
0.727
20
0.746
30
0.000
11
0.781
21
0.909
31
0.000
0
POINT
8
Clients
62
5
10
0.802
20
0.690
30
0.000
0
LINE
8
Facilities_lines
62
3
10
0.727
20
0.746
30
0.000
11
0.802
21
0.690
31
0.000
0
POINT
8
Clients
62
5
10
0.749
20
0.655
30
0.000
0
LINE
8
Facilities_lines
62
3
10
0.727
20
0.746
30
0.000
11
0.749
21
0.655
31
0.000
0
POINT
8
Clients
62
5
10
0.679
20
0.916
30
0.000
0
LINE
8
Facilities_lines
62
3
10
0.727
20
0.746
30
0.000
11
0.679
21
0.916
31
0.000
0
POINT
8
Clients
62
5
10
0.705
20
0.583
30
0.000
0
LINE
8
Facilities_lines
62
3
10
0.727
20
0.746
30
0.000
11
0.705
21
0.583
31
0.000
0
POINT
8
Clients
62
5
10
0.801
20
0.618
30
0.000
0
LINE
8
Facilities_lines
62
3
10
0.727
20
0.746
30
0.000
11
0.801
21
0.618
31
0.000
0
POINT
8
Clients
62
5
10
0.702
20
0.754
30
0.000
0
LINE
8
Facilities_lines
62
3
10
0.727
20
0.746
30
0.000
11
0.702
21
0.754
31
0.000
0
POINT
8
Clients
62
5
10
0.735
20
0.728
30
0.000
0
LINE
8
Facilities_lines
62
3
10
0.727
20
0.746
30
0.000
11
0.735
21
0.728
31
0.000
0
POINT
8
Clients
62
5
10
0.803
20
0.905
30
0.000
0
LINE
8
Facilities_lines
62
3
10
0.727
20
0.746
30
0.000
11
0.803
21
0.905
31
0.000
0
POINT
8
Clients
62
5
10
0.692
20
0.801
30
0.000
0
LINE
8
Facilities_lines
62
3
10
0.727
20
0.746
30
0.000
11
0.692
21
0.801
31
0.000
0
POINT
8
Clients
62
5
10
0.739
20
0.515
30
0.000
0
LINE
8
Facilities_lines
62
3
10
0.727
20
0.746
30
0.000
11
0.739
21
0.515
31
0.000
0
POINT
8
Clients
62
5
10
0.805
20
0.545
30
0.000
0
LINE
8
Facilities_lines
62
3
10
0.727
20
0.746
30
0.000
11
0.805
21
0.545
31
0.000
0
POINT
8
Clients
62
5
10
0.740
20
0.700
30
0.000
0
LINE
8
Facilities_lines
62
3
10
0.727
20
0.746
30
0.000
11
0.740
21
0.700
31
0.000
0
POINT
8
Clients
62
5
10
0.755
20
0.856
30
0.000
0
LINE
8
Facilities_lines
62
3
10
0.727
20
0.746
30
0.000
11
0.755
21
0.856
31
0.000
0
POINT
8
Clients
62
5
10
0.757
20
0.522
30
0.000
0
LINE
8
Facilities_lines
62
3
10
0.727
20
0.746
30
0.000
11
0.757
21
0.522
31
0.000
0
POINT
8
Clients
62
5
10
0.749
20
0.771
30
0.000
0
LINE
8
Facilities_lines
62
3
10
0.727
20
0.746
30
0.000
11
0.749
21
0.771
31
0.000
0
POINT
8
Clients
62
5
10
0.797
20
0.887
30
0.000
0
LINE
8
Facilities_lines
62
3
10
0.727
20
0.746
30
0.000
11
0.797
21
0.887
31
0.000
0
POINT
8
Clients
62
5
10
0.731
20
0.502
30
0.000
0
LINE
8
Facilities_lines
62
3
10
0.727
20
0.746
30
0.000
11
0.731
21
0.502
31
0.000
0
POINT
8
Clients
62
5
10
0.745
20
0.856
30
0.000
0
LINE
8
Facilities_lines
62
3
10
0.727
20
0.746
30
0.000
11
0.745
21
0.856
31
0.000
0
LINE
8
Min_max_boxes
62
1
10
0.650
20
0.502
30
0.000
11
0.805
21
0.502
31
0.000
0
LINE
8
Min_max_boxes
62
1
10
0.805
20
0.502
30
0.000
11
0.805
21
0.991
31
0.000
0
LINE
8
Min_max_boxes
62
1
10
0.805
20
0.991
30
0.000
11
0.650
21
0.991
31
0.000
0
LINE
8
Min_max_boxes
62
1
10
0.650
20
0.991
30
0.000
11
0.650
21
0.502
31
0.000
0
LINE
8
Min_max_boxes
62
1
10
0.650
20
0.502
30
0.000
11
0.805
21
0.502
31
0.000
0
LINE
8
Min_max_boxes
62
1
10
0.805
20
0.502
30
0.000
11
0.805
21
0.991
31
0.000
0
LINE
8
Min_max_boxes
62
1
10
0.805
20
0.991
30
0.000
11
0.650
21
0.991
31
0.000
0
LINE
8
Min_max_boxes
62
1
10
0.650
20
0.991
30
0.000
11
0.650
21
0.502
31
0.000
0
LINE
8
Min_max_boxes
62
1
10
0.650
20
0.502
30
0.000
11
0.650
21
0.502
31
0.000
0
LINE
8
Min_max_boxes
62
1
10
0.805
20
0.502
30
0.000
11
0.805
21
0.502
31
0.000
0
LINE
8
Min_max_boxes
62
1
10
0.805
20
0.991
30
0.000
11
0.805
21
0.991
31
0.000
0
LINE
8
Min_max_boxes
62
1
10
0.650
20
0.991
30
0.000
11
0.650
21
0.991
31
0.000
0
POINT
8
Facilities
62
3
10
0.893
20
0.729
30
0.000
0
POINT
8
Clients
62
5
10
0.904
20
0.572
30
0.000
0
LINE
8
Facilities_lines
62
3
10
0.893
20
0.729
30
0.000
11
0.904
21
0.572
31
0.000
0
POINT
8
Clients
62
5
10
0.971
20
0.580
30
0.000
0
LINE
8
Facilities_lines
62
3
10
0.893
20
0.729
30
0.000
11
0.971
21
0.580
31
0.000
0
POINT
8
Clients
62
5
10
0.912
20
0.581
30
0.000
0
LINE
8
Facilities_lines
62
3
10
0.893
20
0.729
30
0.000
11
0.912
21
0.581
31
0.000
0
POINT
8
Clients
62
5
10
0.995
20
0.675
30
0.000
0
LINE
8
Facilities_lines
62
3
10
0.893
20
0.729
30
0.000
11
0.995
21
0.675
31
0.000
0
POINT
8
Clients
62
5
10
0.819
20
0.884
30
0.000
0
LINE
8
Facilities_lines
62
3
10
0.893
20
0.729
30
0.000
11
0.819
21
0.884
31
0.000
0
POINT
8
Clients
62
5
10
0.837
20
0.901
30
0.000
0
LINE
8
Facilities_lines
62
3
10
0.893
20
0.729
30
0.000
11
0.837
21
0.901
31
0.000
0
POINT
8
Clients
62
5
10
0.811
20
0.790
30
0.000
0
LINE
8
Facilities_lines
62
3
10
0.893
20
0.729
30
0.000
11
0.811
21
0.790
31
0.000
0
POINT
8
Clients
62
5
10
0.828
20
0.703
30
0.000
0
LINE
8
Facilities_lines
62
3
10
0.893
20
0.729
30
0.000
11
0.828
21
0.703
31
0.000
0
POINT
8
Clients
62
5
10
0.859
20
0.701
30
0.000
0
LINE
8
Facilities_lines
62
3
10
0.893
20
0.729
30
0.000
11
0.859
21
0.701
31
0.000
0
POINT
8
Clients
62
5
10
0.911
20
0.872
30
0.000
0
LINE
8
Facilities_lines
62
3
10
0.893
20
0.729
30
0.000
11
0.911
21
0.872
31
0.000
0
POINT
8
Clients
62
5
10
0.859
20
0.942
30
0.000
0
LINE
8
Facilities_lines
62
3
10
0.893
20
0.729
30
0.000
11
0.859
21
0.942
31
0.000
0
POINT
8
Clients
62
5
10
0.971
20
0.995
30
0.000
0
LINE
8
Facilities_lines
62
3
10
0.893
20
0.729
30
0.000
11
0.971
21
0.995
31
0.000
0
POINT
8
Clients
62
5
10
0.901
20
0.962
30
0.000
0
LINE
8
Facilities_lines
62
3
10
0.893
20
0.729
30
0.000
11
0.901
21
0.962
31
0.000
0
POINT
8
Clients
62
5
10
0.955
20
0.793
30
0.000
0
LINE
8
Facilities_lines
62
3
10
0.893
20
0.729
30
0.000
11
0.955
21
0.793
31
0.000
0
POINT
8
Clients
62
5
10
0.910
20
0.801
30
0.000
0
LINE
8
Facilities_lines
62
3
10
0.893
20
0.729
30
0.000
11
0.910
21
0.801
31
0.000
0
POINT
8
Clients
62
5
10
0.891
20
0.676
30
0.000
0
LINE
8
Facilities_lines
62
3
10
0.893
20
0.729
30
0.000
11
0.891
21
0.676
31
0.000
0
POINT
8
Clients
62
5
10
0.936
20
0.905
30
0.000
0
LINE
8
Facilities_lines
62
3
10
0.893
20
0.729
30
0.000
11
0.936
21
0.905
31
0.000
0
POINT
8
Clients
62
5
10
0.846
20
0.603
30
0.000
0
LINE
8
Facilities_lines
62
3
10
0.893
20
0.729
30
0.000
11
0.846
21
0.603
31
0.000
0
POINT
8
Clients
62
5
10
0.908
20
0.775
30
0.000
0
LINE
8
Facilities_lines
62
3
10
0.893
20
0.729
30
0.000
11
0.908
21
0.775
31
0.000
0
POINT
8
Clients
62
5
10
0.871
20
0.822
30
0.000
0
LINE
8
Facilities_lines
62
3
10
0.893
20
0.729
30
0.000
11
0.871
21
0.822
31
0.000
0
POINT
8
Clients
62
5
10
0.910
20
0.723
30
0.000
0
LINE
8
Facilities_lines
62
3
10
0.893
20
0.729
30
0.000
11
0.910
21
0.723
31
0.000
0
POINT
8
Clients
62
5
10
0.969
20
0.662
30
0.000
0
LINE
8
Facilities_lines
62
3
10
0.893
20
0.729
30
0.000
11
0.969
21
0.662
31
0.000
0
POINT
8
Clients
62
5
10
0.877
20
0.970
30
0.000
0
LINE
8
Facilities_lines
62
3
10
0.893
20
0.729
30
0.000
11
0.877
21
0.970
31
0.000
0
POINT
8
Clients
62
5
10
0.814
20
0.657
30
0.000
0
LINE
8
Facilities_lines
62
3
10
0.893
20
0.729
30
0.000
11
0.814
21
0.657
31
0.000
0
POINT
8
Clients
62
5
10
0.841
20
0.510
30
0.000
0
LINE
8
Facilities_lines
62
3
10
0.893
20
0.729
30
0.000
11
0.841
21
0.510
31
0.000
0
POINT
8
Clients
62
5
10
0.857
20
0.974
30
0.000
0
LINE
8
Facilities_lines
62
3
10
0.893
20
0.729
30
0.000
11
0.857
21
0.974
31
0.000
0
POINT
8
Clients
62
5
10
0.981
20
0.834
30
0.000
0
LINE
8
Facilities_lines
62
3
10
0.893
20
0.729
30
0.000
11
0.981
21
0.834
31
0.000
0
POINT
8
Clients
62
5
10
0.884
20
0.575
30
0.000
0
LINE
8
Facilities_lines
62
3
10
0.893
20
0.729
30
0.000
11
0.884
21
0.575
31
0.000
0
POINT
8
Clients
62
5
10
0.880
20
0.734
30
0.000
0
LINE
8
Facilities_lines
62
3
10
0.893
20
0.729
30
0.000
11
0.880
21
0.734
31
0.000
0
POINT
8
Clients
62
5
10
0.909
20
0.739
30
0.000
0
LINE
8
Facilities_lines
62
3
10
0.893
20
0.729
30
0.000
11
0.909
21
0.739
31
0.000
0
POINT
8
Clients
62
5
10
0.951
20
0.760
30
0.000
0
LINE
8
Facilities_lines
62
3
10
0.893
20
0.729
30
0.000
11
0.951
21
0.760
31
0.000
0
POINT
8
Clients
62
5
10
0.831
20
0.734
30
0.000
0
LINE
8
Facilities_lines
62
3
10
0.893
20
0.729
30
0.000
11
0.831
21
0.734
31
0.000
0
POINT
8
Clients
62
5
10
0.932
20
0.828
30
0.000
0
LINE
8
Facilities_lines
62
3
10
0.893
20
0.729
30
0.000
11
0.932
21
0.828
31
0.000
0
POINT
8
Clients
62
5
10
0.855
20
0.687
30
0.000
0
LINE
8
Facilities_lines
62
3
10
0.893
20
0.729
30
0.000
11
0.855
21
0.687
31
0.000
0
POINT
8
Clients
62
5
10
0.824
20
0.680
30
0.000
0
LINE
8
Facilities_lines
62
3
10
0.893
20
0.729
30
0.000
11
0.824
21
0.680
31
0.000
0
POINT
8
Clients
62
5
10
0.828
20
0.557
30
0.000
0
LINE
8
Facilities_lines
62
3
10
0.893
20
0.729
30
0.000
11
0.828
21
0.557
31
0.000
0
POINT
8
Clients
62
5
10
0.857
20
0.741
30
0.000
0
LINE
8
Facilities_lines
62
3
10
0.893
20
0.729
30
0.000
11
0.857
21
0.741
31
0.000
0
POINT
8
Clients
62
5
10
0.929
20
0.847
30
0.000
0
LINE
8
Facilities_lines
62
3
10
0.893
20
0.729
30
0.000
11
0.929
21
0.847
31
0.000
0
POINT
8
Clients
62
5
10
0.900
20
0.805
30
0.000
0
LINE
8
Facilities_lines
62
3
10
0.893
20
0.729
30
0.000
11
0.900
21
0.805
31
0.000
0
POINT
8
Clients
62
5
10
0.822
20
0.737
30
0.000
0
LINE
8
Facilities_lines
62
3
10
0.893
20
0.729
30
0.000
11
0.822
21
0.737
31
0.000
0
POINT
8
Clients
62
5
10
0.892
20
0.671
30
0.000
0
LINE
8
Facilities_lines
62
3
10
0.893
20
0.729
30
0.000
11
0.892
21
0.671
31
0.000
0
POINT
8
Clients
62
5
10
0.927
20
0.888
30
0.000
0
LINE
8
Facilities_lines
62
3
10
0.893
20
0.729
30
0.000
11
0.927
21
0.888
31
0.000
0
LINE
8
Min_max_boxes
62
1
10
0.811
20
0.510
30
0.000
11
0.995
21
0.510
31
0.000
0
LINE
8
Min_max_boxes
62
1
10
0.995
20
0.510
30
0.000
11
0.995
21
0.995
31
0.000
0
LINE
8
Min_max_boxes
62
1
10
0.995
20
0.995
30
0.000
11
0.811
21
0.995
31
0.000
0
LINE
8
Min_max_boxes
62
1
10
0.811
20
0.995
30
0.000
11
0.811
21
0.510
31
0.000
0
LINE
8
Min_max_boxes
62
1
10
0.811
20
0.510
30
0.000
11
0.995
21
0.510
31
0.000
0
LINE
8
Min_max_boxes
62
1
10
0.995
20
0.510
30
0.000
11
0.995
21
0.995
31
0.000
0
LINE
8
Min_max_boxes
62
1
10
0.995
20
0.995
30
0.000
11
0.811
21
0.995
31
0.000
0
LINE
8
Min_max_boxes
62
1
10
0.811
20
0.995
30
0.000
11
0.811
21
0.510
31
0.000
0
LINE
8
Min_max_boxes
62
1
10
0.811
20
0.510
30
0.000
11
0.811
21
0.510
31
0.000
0
LINE
8
Min_max_boxes
62
1
10
0.995
20
0.510
30
0.000
11
0.995
21
0.510
31
0.000
0
LINE
8
Min_max_boxes
62
1
10
0.995
20
0.995
30
0.000
11
0.995
21
0.995
31
0.000
0
LINE
8
Min_max_boxes
62
1
10
0.811
20
0.995
30
0.000
11
0.811
21
0.995
31
0.000
0
POINT
8
Facilities
62
3
10
0.208
20
0.796
30
0.000
0
POINT
8
Clients
62
5
10
0.123
20
0.974
30
0.000
0
LINE
8
Facilities_lines
62
3
10
0.208
20
0.796
30
0.000
11
0.123
21
0.974
31
0.000
0
POINT
8
Clients
62
5
10
0.139
20
0.936
30
0.000
0
LINE
8
Facilities_lines
62
3
10
0.208
20
0.796
30
0.000
11
0.139
21
0.936
31
0.000
0
POINT
8
Clients
62
5
10
0.221
20
0.940
30
0.000
0
LINE
8
Facilities_lines
62
3
10
0.208
20
0.796
30
0.000
11
0.221
21
0.940
31
0.000
0
POINT
8
Clients
62
5
10
0.218
20
0.615
30
0.000
0
LINE
8
Facilities_lines
62
3
10
0.208
20
0.796
30
0.000
11
0.218
21
0.615
31
0.000
0
POINT
8
Clients
62
5
10
0.188
20
0.956
30
0.000
0
LINE
8
Facilities_lines
62
3
10
0.208
20
0.796
30
0.000
11
0.188
21
0.956
31
0.000
0
POINT
8
Clients
62
5
10
0.275
20
0.963
30
0.000
0
LINE
8
Facilities_lines
62
3
10
0.208
20
0.796
30
0.000
11
0.275
21
0.963
31
0.000
0
POINT
8
Clients
62
5
10
0.154
20
0.522
30
0.000
0
LINE
8
Facilities_lines
62
3
10
0.208
20
0.796
30
0.000
11
0.154
21
0.522
31
0.000
0
POINT
8
Clients
62
5
10
0.176
20
0.782
30
0.000
0
LINE
8
Facilities_lines
62
3
10
0.208
20
0.796
30
0.000
11
0.176
21
0.782
31
0.000
0
POINT
8
Clients
62
5
10
0.189
20
0.620
30
0.000
0
LINE
8
Facilities_lines
62
3
10
0.208
20
0.796
30
0.000
11
0.189
21
0.620
31
0.000
0
POINT
8
Clients
62
5
10
0.198
20
0.632
30
0.000
0
LINE
8
Facilities_lines
62
3
10
0.208
20
0.796
30
0.000
11
0.198
21
0.632
31
0.000
0
POINT
8
Clients
62
5
10
0.257
20
0.720
30
0.000
0
LINE
8
Facilities_lines
62
3
10
0.208
20
0.796
30
0.000
11
0.257
21
0.720
31
0.000
0
POINT
8
Clients
62
5
10
0.279
20
0.888
30
0.000
0
LINE
8
Facilities_lines
62
3
10
0.208
20
0.796
30
0.000
11
0.279
21
0.888
31
0.000
0
POINT
8
Clients
62
5
10
0.193
20
0.890
30
0.000
0
LINE
8
Facilities_lines
62
3
10
0.208
20
0.796
30
0.000
11
0.193
21
0.890
31
0.000
0
POINT
8
Clients
62
5
10
0.221
20
0.630
30
0.000
0
LINE
8
Facilities_lines
62
3
10
0.208
20
0.796
30
0.000
11
0.221
21
0.630
31
0.000
0
POINT
8
Clients
62
5
10
0.237
20
0.514
30
0.000
0
LINE
8
Facilities_lines
62
3
10
0.208
20
0.796
30
0.000
11
0.237
21
0.514
31
0.000
0
POINT
8
Clients
62
5
10
0.255
20
0.805
30
0.000
0
LINE
8
Facilities_lines
62
3
10
0.208
20
0.796
30
0.000
11
0.255
21
0.805
31
0.000
0
POINT
8
Clients
62
5
10
0.291
20
0.926
30
0.000
0
LINE
8
Facilities_lines
62
3
10
0.208
20
0.796
30
0.000
11
0.291
21
0.926
31
0.000
0
POINT
8
Clients
62
5
10
0.255
20
0.651
30
0.000
0
LINE
8
Facilities_lines
62
3
10
0.208
20
0.796
30
0.000
11
0.255
21
0.651
31
0.000
0
POINT
8
Clients
62
5
10
0.191
20
0.956
30
0.000
0
LINE
8
Facilities_lines
62
3
10
0.208
20
0.796
30
0.000
11
0.191
21
0.956
31
0.000
0
POINT
8
Clients
62
5
10
0.174
20
0.826
30
0.000
0
LINE
8
Facilities_lines
62
3
10
0.208
20
0.796
30
0.000
11
0.174
21
0.826
31
0.000
0
POINT
8
Clients
62
5
10
0.170
20
0.954
30
0.000
0
LINE
8
Facilities_lines
62
3
10
0.208
20
0.796
30
0.000
11
0.170
21
0.954
31
0.000
0
POINT
8
Clients
62
5
10
0.187
20
0.904
30
0.000
0
LINE
8
Facilities_lines
62
3
10
0.208
20
0.796
30
0.000
11
0.187
21
0.904
31
0.000
0
POINT
8
Clients
62
5
10
0.196
20
0.747
30
0.000
0
LINE
8
Facilities_lines
62
3
10
0.208
20
0.796
30
0.000
11
0.196
21
0.747
31
0.000
0
POINT
8
Clients
62
5
10
0.194
20
0.926
30
0.000
0
LINE
8
Facilities_lines
62
3
10
0.208
20
0.796
30
0.000
11
0.194
21
0.926
31
0.000
0
POINT
8
Clients
62
5
10
0.195
20
0.858
30
0.000
0
LINE
8
Facilities_lines
62
3
10
0.208
20
0.796
30
0.000
11
0.195
21
0.858
31
0.000
0
POINT
8
Clients
62
5
10
0.208
20
0.798
30
0.000
0
LINE
8
Facilities_lines
62
3
10
0.208
20
0.796
30
0.000
11
0.208
21
0.798
31
0.000
0
POINT
8
Clients
62
5
10
0.241
20
0.917
30
0.000
0
LINE
8
Facilities_lines
62
3
10
0.208
20
0.796
30
0.000
11
0.241
21
0.917
31
0.000
0
POINT
8
Clients
62
5
10
0.232
20
0.918
30
0.000
0
LINE
8
Facilities_lines
62
3
10
0.208
20
0.796
30
0.000
11
0.232
21
0.918
31
0.000
0
POINT
8
Clients
62
5
10
0.208
20
0.520
30
0.000
0
LINE
8
Facilities_lines
62
3
10
0.208
20
0.796
30
0.000
11
0.208
21
0.520
31
0.000
0
POINT
8
Clients
62
5
10
0.193
20
0.817
30
0.000
0
LINE
8
Facilities_lines
62
3
10
0.208
20
0.796
30
0.000
11
0.193
21
0.817
31
0.000
0
POINT
8
Clients
62
5
10
0.156
20
0.638
30
0.000
0
LINE
8
Facilities_lines
62
3
10
0.208
20
0.796
30
0.000
11
0.156
21
0.638
31
0.000
0
POINT
8
Clients
62
5
10
0.188
20
0.871
30
0.000
0
LINE
8
Facilities_lines
62
3
10
0.208
20
0.796
30
0.000
11
0.188
21
0.871
31
0.000
0
POINT
8
Clients
62
5
10
0.234
20
0.753
30
0.000
0
LINE
8
Facilities_lines
62
3
10
0.208
20
0.796
30
0.000
11
0.234
21
0.753
31
0.000
0
POINT
8
Clients
62
5
10
0.293
20
0.851
30
0.000
0
LINE
8
Facilities_lines
62
3
10
0.208
20
0.796
30
0.000
11
0.293
21
0.851
31
0.000
0
POINT
8
Clients
62
5
10
0.263
20
0.929
30
0.000
0
LINE
8
Facilities_lines
62
3
10
0.208
20
0.796
30
0.000
11
0.263
21
0.929
31
0.000
0
POINT
8
Clients
62
5
10
0.219
20
0.607
30
0.000
0
LINE
8
Facilities_lines
62
3
10
0.208
20
0.796
30
0.000
11
0.219
21
0.607
31
0.000
0
POINT
8
Clients
62
5
10
0.225
20
0.704
30
0.000
0
LINE
8
Facilities_lines
62
3
10
0.208
20
0.796
30
0.000
11
0.225
21
0.704
31
0.000
0
LINE
8
Min_max_boxes
62
1
10
0.123
20
0.514
30
0.000
11
0.293
21
0.514
31
0.000
0
LINE
8
Min_max_boxes
62
1
10
0.293
20
0.514
30
0.000
11
0.293
21
0.974
31
0.000
0
LINE
8
Min_max_boxes
62
1
10
0.293
20
0.974
30
0.000
11
0.123
21
0.974
31
0.000
0
LINE
8
Min_max_boxes
62
1
10
0.123
20
0.974
30
0.000
11
0.123
21
0.514
31
0.000
0
LINE
8
Min_max_boxes
62
1
10
0.123
20
0.514
30
0.000
11
0.293
21
0.514
31
0.000
0
LINE
8
Min_max_boxes
62
1
10
0.293
20
0.514
30
0.000
11
0.293
21
0.974
31
0.000
0
LINE
8
Min_max_boxes
62
1
10
0.293
20
0.974
30
0.000
11
0.123
21
0.974
31
0.000
0
LINE
8
Min_max_boxes
62
1
10
0.123
20
0.974
30
0.000
11
0.123
21
0.514
31
0.000
0
LINE
8
Min_max_boxes
62
1
10
0.123
20
0.514
30
0.000
11
0.123
21
0.514
31
0.000
0
LINE
8
Min_max_boxes
62
1
10
0.293
20
0.514
30
0.000
11
0.293
21
0.514
31
0.000
0
LINE
8
Min_max_boxes
62
1
10
0.293
20
0.974
30
0.000
11
0.293
21
0.974
31
0.000
0
LINE
8
Min_max_boxes
62
1
10
0.123
20
0.974
30
0.000
11
0.123
21
0.974
31
0.000
0
POINT
8
Facilities
62
3
10
0.543
20
0.765
30
0.000
0
POINT
8
Clients
62
5
10
0.471
20
0.651
30
0.000
0
LINE
8
Facilities_lines
62
3
10
0.543
20
0.765
30
0.000
11
0.471
21
0.651
31
0.000
0
POINT
8
Clients
62
5
10
0.496
20
0.466
30
0.000
0
LINE
8
Facilities_lines
62
3
10
0.543
20
0.765
30
0.000
11
0.496
21
0.466
31
0.000
0
POINT
8
Clients
62
5
10
0.599
20
0.683
30
0.000
0
LINE
8
Facilities_lines
62
3
10
0.543
20
0.765
30
0.000
11
0.599
21
0.683
31
0.000
0
POINT
8
Clients
62
5
10
0.532
20
0.742
30
0.000
0
LINE
8
Facilities_lines
62
3
10
0.543
20
0.765
30
0.000
11
0.532
21
0.742
31
0.000
0
POINT
8
Clients
62
5
10
0.553
20
0.588
30
0.000
0
LINE
8
Facilities_lines
62
3
10
0.543
20
0.765
30
0.000
11
0.553
21
0.588
31
0.000
0
POINT
8
Clients
62
5
10
0.609
20
0.599
30
0.000
0
LINE
8
Facilities_lines
62
3
10
0.543
20
0.765
30
0.000
11
0.609
21
0.599
31
0.000
0
POINT
8
Clients
62
5
10
0.532
20
0.639
30
0.000
0
LINE
8
Facilities_lines
62
3
10
0.543
20
0.765
30
0.000
11
0.532
21
0.639
31
0.000
0
POINT
8
Clients
62
5
10
0.595
20
0.696
30
0.000
0
LINE
8
Facilities_lines
62
3
10
0.543
20
0.765
30
0.000
11
0.595
21
0.696
31
0.000
0
POINT
8
Clients
62
5
10
0.582
20
0.523
30
0.000
0
LINE
8
Facilities_lines
62
3
10
0.543
20
0.765
30
0.000
11
0.582
21
0.523
31
0.000
0
POINT
8
Clients
62
5
10
0.506
20
0.600
30
0.000
0
LINE
8
Facilities_lines
62
3
10
0.543
20
0.765
30
0.000
11
0.506
21
0.600
31
0.000
0
POINT
8
Clients
62
5
10
0.511
20
0.507
30
0.000
0
LINE
8
Facilities_lines
62
3
10
0.543
20
0.765
30
0.000
11
0.511
21
0.507
31
0.000
0
POINT
8
Clients
62
5
10
0.573
20
0.603
30
0.000
0
LINE
8
Facilities_lines
62
3
10
0.543
20
0.765
30
0.000
11
0.573
21
0.603
31
0.000
0
POINT
8
Clients
62
5
10
0.571
20
0.520
30
0.000
0
LINE
8
Facilities_lines
62
3
10
0.543
20
0.765
30
0.000
11
0.571
21
0.520
31
0.000
0
POINT
8
Clients
62
5
10
0.587
20
0.796
30
0.000
0
LINE
8
Facilities_lines
62
3
10
0.543
20
0.765
30
0.000
11
0.587
21
0.796
31
0.000
0
POINT
8
Clients
62
5
10
0.529
20
0.752
30
0.000
0
LINE
8
Facilities_lines
62
3
10
0.543
20
0.765
30
0.000
11
0.529
21
0.752
31
0.000
0
POINT
8
Clients
62
5
10
0.543
20
0.599
30
0.000
0
LINE
8
Facilities_lines
62
3
10
0.543
20
0.765
30
0.000
11
0.543
21
0.599
31
0.000
0
POINT
8
Clients
62
5
10
0.594
20
0.653
30
0.000
0
LINE
8
Facilities_lines
62
3
10
0.543
20
0.765
30
0.000
11
0.594
21
0.653
31
0.000
0
POINT
8
Clients
62
5
10
0.537
20
0.421
30
0.000
0
LINE
8
Facilities_lines
62
3
10
0.543
20
0.765
30
0.000
11
0.537
21
0.421
31
0.000
0
POINT
8
Clients
62
5
10
0.578
20
0.594
30
0.000
0
LINE
8
Facilities_lines
62
3
10
0.543
20
0.765
30
0.000
11
0.578
21
0.594
31
0.000
0
POINT
8
Clients
62
5
10
0.548
20
0.606
30
0.000
0
LINE
8
Facilities_lines
62
3
10
0.543
20
0.765
30
0.000
11
0.548
21
0.606
31
0.000
0
POINT
8
Clients
62
5
10
0.610
20
0.708
30
0.000
0
LINE
8
Facilities_lines
62
3
10
0.543
20
0.765
30
0.000
11
0.610
21
0.708
31
0.000
0
POINT
8
Clients
62
5
10
0.539
20
0.402
30
0.000
0
LINE
8
Facilities_lines
62
3
10
0.543
20
0.765
30
0.000
11
0.539
21
0.402
31
0.000
0
POINT
8
Clients
62
5
10
0.559
20
0.698
30
0.000
0
LINE
8
Facilities_lines
62
3
10
0.543
20
0.765
30
0.000
11
0.559
21
0.698
31
0.000
0
POINT
8
Clients
62
5
10
0.441
20
0.989
30
0.000
0
LINE
8
Facilities_lines
62
3
10
0.543
20
0.765
30
0.000
11
0.441
21
0.989
31
0.000
0
POINT
8
Clients
62
5
10
0.448
20
0.979
30
0.000
0
LINE
8
Facilities_lines
62
3
10
0.543
20
0.765
30
0.000
11
0.448
21
0.979
31
0.000
0
POINT
8
Clients
62
5
10
0.504
20
0.972
30
0.000
0
LINE
8
Facilities_lines
62
3
10
0.543
20
0.765
30
0.000
11
0.504
21
0.972
31
0.000
0
POINT
8
Clients
62
5
10
0.479
20
0.897
30
0.000
0
LINE
8
Facilities_lines
62
3
10
0.543
20
0.765
30
0.000
11
0.479
21
0.897
31
0.000
0
POINT
8
Clients
62
5
10
0.463
20
0.928
30
0.000
0
LINE
8
Facilities_lines
62
3
10
0.543
20
0.765
30
0.000
11
0.463
21
0.928
31
0.000
0
POINT
8
Clients
62
5
10
0.498
20
0.855
30
0.000
0
LINE
8
Facilities_lines
62
3
10
0.543
20
0.765
30
0.000
11
0.498
21
0.855
31
0.000
0
POINT
8
Clients
62
5
10
0.457
20
0.840
30
0.000
0
LINE
8
Facilities_lines
62
3
10
0.543
20
0.765
30
0.000
11
0.457
21
0.840
31
0.000
0
POINT
8
Clients
62
5
10
0.502
20
0.798
30
0.000
0
LINE
8
Facilities_lines
62
3
10
0.543
20
0.765
30
0.000
11
0.502
21
0.798
31
0.000
0
POINT
8
Clients
62
5
10
0.524
20
0.801
30
0.000
0
LINE
8
Facilities_lines
62
3
10
0.543
20
0.765
30
0.000
11
0.524
21
0.801
31
0.000
0
POINT
8
Clients
62
5
10
0.552
20
0.862
30
0.000
0
LINE
8
Facilities_lines
62
3
10
0.543
20
0.765
30
0.000
11
0.552
21
0.862
31
0.000
0
POINT
8
Clients
62
5
10
0.592
20
0.821
30
0.000
0
LINE
8
Facilities_lines
62
3
10
0.543
20
0.765
30
0.000
11
0.592
21
0.821
31
0.000
0
POINT
8
Clients
62
5
10
0.569
20
0.849
30
0.000
0
LINE
8
Facilities_lines
62
3
10
0.543
20
0.765
30
0.000
11
0.569
21
0.849
31
0.000
0
POINT
8
Clients
62
5
10
0.576
20
0.959
30
0.000
0
LINE
8
Facilities_lines
62
3
10
0.543
20
0.765
30
0.000
11
0.576
21
0.959
31
0.000
0
POINT
8
Clients
62
5
10
0.525
20
0.878
30
0.000
0
LINE
8
Facilities_lines
62
3
10
0.543
20
0.765
30
0.000
11
0.525
21
0.878
31
0.000
0
POINT
8
Clients
62
5
10
0.585
20
0.817
30
0.000
0
LINE
8
Facilities_lines
62
3
10
0.543
20
0.765
30
0.000
11
0.585
21
0.817
31
0.000
0
POINT
8
Clients
62
5
10
0.552
20
0.914
30
0.000
0
LINE
8
Facilities_lines
62
3
10
0.543
20
0.765
30
0.000
11
0.552
21
0.914
31
0.000
0
POINT
8
Clients
62
5
10
0.591
20
0.822
30
0.000
0
LINE
8
Facilities_lines
62
3
10
0.543
20
0.765
30
0.000
11
0.591
21
0.822
31
0.000
0
POINT
8
Clients
62
5
10
0.559
20
0.976
30
0.000
0
LINE
8
Facilities_lines
62
3
10
0.543
20
0.765
30
0.000
11
0.559
21
0.976
31
0.000
0
POINT
8
Clients
62
5
10
0.518
20
0.973
30
0.000
0
LINE
8
Facilities_lines
62
3
10
0.543
20
0.765
30
0.000
11
0.518
21
0.973
31
0.000
0
POINT
8
Clients
62
5
10
0.535
20
0.827
30
0.000
0
LINE
8
Facilities_lines
62
3
10
0.543
20
0.765
30
0.000
11
0.535
21
0.827
31
0.000
0
POINT
8
Clients
62
5
10
0.580
20
0.938
30
0.000
0
LINE
8
Facilities_lines
62
3
10
0.543
20
0.765
30
0.000
11
0.580
21
0.938
31
0.000
0
POINT
8
Clients
62
5
10
0.543
20
0.938
30
0.000
0
LINE
8
Facilities_lines
62
3
10
0.543
20
0.765
30
0.000
11
0.543
21
0.938
31
0.000
0
POINT
8
Clients
62
5
10
0.624
20
0.871
30
0.000
0
LINE
8
Facilities_lines
62
3
10
0.543
20
0.765
30
0.000
11
0.624
21
0.871
31
0.000
0
POINT
8
Clients
62
5
10
0.625
20
0.896
30
0.000
0
LINE
8
Facilities_lines
62
3
10
0.543
20
0.765
30
0.000
11
0.625
21
0.896
31
0.000
0
POINT
8
Clients
62
5
10
0.583
20
0.880
30
0.000
0
LINE
8
Facilities_lines
62
3
10
0.543
20
0.765
30
0.000
11
0.583
21
0.880
31
0.000
0
POINT
8
Clients
62
5
10
0.523
20
0.902
30
0.000
0
LINE
8
Facilities_lines
62
3
10
0.543
20
0.765
30
0.000
11
0.523
21
0.902
31
0.000
0
POINT
8
Clients
62
5
10
0.541
20
0.858
30
0.000
0
LINE
8
Facilities_lines
62
3
10
0.543
20
0.765
30
0.000
11
0.541
21
0.858
31
0.000
0
POINT
8
Clients
62
5
10
0.553
20
0.586
30
0.000
0
LINE
8
Facilities_lines
62
3
10
0.543
20
0.765
30
0.000
11
0.553
21
0.586
31
0.000
0
POINT
8
Clients
62
5
10
0.623
20
0.758
30
0.000
0
LINE
8
Facilities_lines
62
3
10
0.543
20
0.765
30
0.000
11
0.623
21
0.758
31
0.000
0
LINE
8
Min_max_boxes
62
1
10
0.441
20
0.402
30
0.000
11
0.625
21
0.402
31
0.000
0
LINE
8
Min_max_boxes
62
1
10
0.625
20
0.402
30
0.000
11
0.625
21
0.989
31
0.000
0
LINE
8
Min_max_boxes
62
1
10
0.625
20
0.989
30
0.000
11
0.441
21
0.989
31
0.000
0
LINE
8
Min_max_boxes
62
1
10
0.441
20
0.989
30
0.000
11
0.441
21
0.402
31
0.000
0
LINE
8
Min_max_boxes
62
1
10
0.441
20
0.402
30
0.000
11
0.625
21
0.402
31
0.000
0
LINE
8
Min_max_boxes
62
1
10
0.625
20
0.402
30
0.000
11
0.625
21
0.989
31
0.000
0
LINE
8
Min_max_boxes
62
1
10
0.625
20
0.989
30
0.000
11
0.441
21
0.989
31
0.000
0
LINE
8
Min_max_boxes
62
1
10
0.441
20
0.989
30
0.000
11
0.441
21
0.402
31
0.000
0
LINE
8
Min_max_boxes
62
1
10
0.441
20
0.402
30
0.000
11
0.441
21
0.402
31
0.000
0
LINE
8
Min_max_boxes
62
1
10
0.625
20
0.402
30
0.000
11
0.625
21
0.402
31
0.000
0
LINE
8
Min_max_boxes
62
1
10
0.625
20
0.989
30
0.000
11
0.625
21
0.989
31
0.000
0
LINE
8
Min_max_boxes
62
1
10
0.441
20
0.989
30
0.000
11
0.441
21
0.989
31
0.000
0
ENDSEC
0
EOF
