0
SECTION
2
HEADER
9
$ACADVER
1
AC1006
0
ENDSEC
0
SECTION
2
TABLES
0
TABLE
2
LAYER
70
0
0
LAYER
2
Source_points
70
0
62
5
6
CONTINUOUS
0
LAYER
2
Facilities
70
0
62
3
6
CONTINUOUS
0
LAYER
2
Facilities_lines
70
0
62
3
6
CONTINUOUS
0
LAYER
2
Clients
70
0
62
3
6
CONTINUOUS
0
LAYER
2
Normals
70
0
62
1
6
CONTINUOUS
0
LAYER
2
Text
70
0
62
3
6
CONTINUOUS
0
LAYER
2
Min_max_boxes
70
0
62
1
6
CONTINUOUS
0
ENDTAB
0
ENDSEC
0
SECTION
2
ENTITIES
0
POINT
8
Source_points
62
5
10
0.898
20
0.749
30
0.000
0
TEXT
7
PNTNUM
50
0.000
8
Text
62
3
10
0.899
20
0.749
30
0.000
40
0.001
1
0
0
LINE
8
Normals
62
1
10
0.898
20
0.749
30
0.000
11
0.898
21
0.749
31
0.100
0
POINT
8
Source_points
62
5
10
0.118
20
0.583
30
0.000
0
TEXT
7
PNTNUM
50
0.000
8
Text
62
3
10
0.119
20
0.583
30
0.000
40
0.001
1
1
0
LINE
8
Normals
62
1
10
0.118
20
0.583
30
0.000
11
0.118
21
0.583
31
0.100
0
POINT
8
Source_points
62
5
10
0.988
20
0.740
30
0.000
0
TEXT
7
PNTNUM
50
0.000
8
Text
62
3
10
0.989
20
0.740
30
0.000
40
0.001
1
2
0
LINE
8
Normals
62
1
10
0.988
20
0.740
30
0.000
11
0.988
21
0.740
31
0.100
0
POINT
8
Source_points
62
5
10
0.540
20
0.235
30
0.000
0
TEXT
7
PNTNUM
50
0.000
8
Text
62
3
10
0.540
20
0.234
30
0.000
40
0.001
1
3
0
LINE
8
Normals
62
1
10
0.540
20
0.235
30
0.000
11
0.540
21
0.235
31
0.100
0
POINT
8
Source_points
62
5
10
0.707
20
0.735
30
0.000
0
TEXT
7
PNTNUM
50
0.000
8
Text
62
3
10
0.707
20
0.734
30
0.000
40
0.001
1
4
0
LINE
8
Normals
62
1
10
0.707
20
0.735
30
0.000
11
0.707
21
0.735
31
0.100
0
POINT
8
Source_points
62
5
10
0.999
20
0.971
30
0.000
0
TEXT
7
PNTNUM
50
0.000
8
Text
62
3
10
1.000
20
0.970
30
0.000
40
0.001
1
5
0
LINE
8
Normals
62
1
10
0.999
20
0.971
30
0.000
11
0.999
21
0.971
31
0.100
0
POINT
8
Source_points
62
5
10
0.288
20
0.867
30
0.000
0
TEXT
7
PNTNUM
50
0.000
8
Text
62
3
10
0.288
20
0.866
30
0.000
40
0.001
1
6
0
LINE
8
Normals
62
1
10
0.288
20
0.867
30
0.000
11
0.288
21
0.867
31
0.100
0
POINT
8
Source_points
62
5
10
0.415
20
0.086
30
0.000
0
TEXT
7
PNTNUM
50
0.000
8
Text
62
3
10
0.415
20
0.086
30
0.000
40
0.001
1
7
0
LINE
8
Normals
62
1
10
0.415
20
0.086
30
0.000
11
0.415
21
0.086
31
0.100
0
POINT
8
Source_points
62
5
10
0.465
20
0.366
30
0.000
0
TEXT
7
PNTNUM
50
0.000
8
Text
62
3
10
0.465
20
0.366
30
0.000
40
0.001
1
8
0
LINE
8
Normals
62
1
10
0.465
20
0.366
30
0.000
11
0.465
21
0.366
31
0.100
0
POINT
8
Source_points
62
5
10
0.764
20
0.369
30
0.000
0
TEXT
7
PNTNUM
50
0.000
8
Text
62
3
10
0.764
20
0.369
30
0.000
40
0.001
1
9
0
LINE
8
Normals
62
1
10
0.764
20
0.369
30
0.000
11
0.764
21
0.369
31
0.100
0
POINT
8
Source_points
62
5
10
0.818
20
0.685
30
0.000
0
TEXT
7
PNTNUM
50
0.000
8
Text
62
3
10
0.819
20
0.685
30
0.000
40
0.001
1
10
0
LINE
8
Normals
62
1
10
0.818
20
0.685
30
0.000
11
0.818
21
0.685
31
0.100
0
POINT
8
Source_points
62
5
10
0.100
20
0.598
30
0.000
0
TEXT
7
PNTNUM
50
0.000
8
Text
62
3
10
0.101
20
0.597
30
0.000
40
0.001
1
11
0
LINE
8
Normals
62
1
10
0.100
20
0.598
30
0.000
11
0.100
21
0.598
31
0.100
0
POINT
8
Source_points
62
5
10
0.178
20
0.789
30
0.000
0
TEXT
7
PNTNUM
50
0.000
8
Text
62
3
10
0.179
20
0.789
30
0.000
40
0.001
1
12
0
LINE
8
Normals
62
1
10
0.178
20
0.789
30
0.000
11
0.178
21
0.789
31
0.100
0
POINT
8
Source_points
62
5
10
0.360
20
0.368
30
0.000
0
TEXT
7
PNTNUM
50
0.000
8
Text
62
3
10
0.360
20
0.367
30
0.000
40
0.001
1
13
0
LINE
8
Normals
62
1
10
0.360
20
0.368
30
0.000
11
0.360
21
0.368
31
0.100
0
POINT
8
Source_points
62
5
10
0.057
20
0.206
30
0.000
0
TEXT
7
PNTNUM
50
0.000
8
Text
62
3
10
0.057
20
0.206
30
0.000
40
0.001
1
14
0
LINE
8
Normals
62
1
10
0.057
20
0.206
30
0.000
11
0.057
21
0.206
31
0.100
0
POINT
8
Source_points
62
5
10
0.522
20
0.087
30
0.000
0
TEXT
7
PNTNUM
50
0.000
8
Text
62
3
10
0.522
20
0.086
30
0.000
40
0.001
1
15
0
LINE
8
Normals
62
1
10
0.522
20
0.087
30
0.000
11
0.522
21
0.087
31
0.100
0
POINT
8
Source_points
62
5
10
0.336
20
0.772
30
0.000
0
TEXT
7
PNTNUM
50
0.000
8
Text
62
3
10
0.336
20
0.771
30
0.000
40
0.001
1
16
0
LINE
8
Normals
62
1
10
0.336
20
0.772
30
0.000
11
0.336
21
0.772
31
0.100
0
POINT
8
Source_points
62
5
10
0.176
20
0.206
30
0.000
0
TEXT
7
PNTNUM
50
0.000
8
Text
62
3
10
0.176
20
0.205
30
0.000
40
0.001
1
17
0
LINE
8
Normals
62
1
10
0.176
20
0.206
30
0.000
11
0.176
21
0.206
31
0.100
0
POINT
8
Source_points
62
5
10
0.209
20
0.388
30
0.000
0
TEXT
7
PNTNUM
50
0.000
8
Text
62
3
10
0.209
20
0.388
30
0.000
40
0.001
1
18
0
LINE
8
Normals
62
1
10
0.209
20
0.388
30
0.000
11
0.209
21
0.388
31
0.100
0
POINT
8
Source_points
62
5
10
0.905
20
0.552
30
0.000
0
TEXT
7
PNTNUM
50
0.000
8
Text
62
3
10
0.906
20
0.551
30
0.000
40
0.001
1
19
0
LINE
8
Normals
62
1
10
0.905
20
0.552
30
0.000
11
0.905
21
0.552
31
0.100
0
POINT
8
Source_points
62
5
10
0.675
20
0.229
30
0.000
0
TEXT
7
PNTNUM
50
0.000
8
Text
62
3
10
0.676
20
0.228
30
0.000
40
0.001
1
20
0
LINE
8
Normals
62
1
10
0.675
20
0.229
30
0.000
11
0.675
21
0.229
31
0.100
0
POINT
8
Source_points
62
5
10
0.468
20
0.642
30
0.000
0
TEXT
7
PNTNUM
50
0.000
8
Text
62
3
10
0.469
20
0.641
30
0.000
40
0.001
1
21
0
LINE
8
Normals
62
1
10
0.468
20
0.642
30
0.000
11
0.468
21
0.642
31
0.100
0
POINT
8
Source_points
62
5
10
0.912
20
0.484
30
0.000
0
TEXT
7
PNTNUM
50
0.000
8
Text
62
3
10
0.913
20
0.484
30
0.000
40
0.001
1
22
0
LINE
8
Normals
62
1
10
0.912
20
0.484
30
0.000
11
0.912
21
0.484
31
0.100
0
POINT
8
Source_points
62
5
10
0.104
20
0.152
30
0.000
0
TEXT
7
PNTNUM
50
0.000
8
Text
62
3
10
0.105
20
0.151
30
0.000
40
0.001
1
23
0
LINE
8
Normals
62
1
10
0.104
20
0.152
30
0.000
11
0.104
21
0.152
31
0.100
0
POINT
8
Source_points
62
5
10
0.746
20
0.782
30
0.000
0
TEXT
7
PNTNUM
50
0.000
8
Text
62
3
10
0.746
20
0.781
30
0.000
40
0.001
1
24
0
LINE
8
Normals
62
1
10
0.746
20
0.782
30
0.000
11
0.746
21
0.782
31
0.100
0
POINT
8
Source_points
62
5
10
0.736
20
0.101
30
0.000
0
TEXT
7
PNTNUM
50
0.000
8
Text
62
3
10
0.737
20
0.100
30
0.000
40
0.001
1
25
0
LINE
8
Normals
62
1
10
0.736
20
0.101
30
0.000
11
0.736
21
0.101
31
0.100
0
POINT
8
Source_points
62
5
10
0.562
20
0.294
30
0.000
0
TEXT
7
PNTNUM
50
0.000
8
Text
62
3
10
0.562
20
0.294
30
0.000
40
0.001
1
26
0
LINE
8
Normals
62
1
10
0.562
20
0.294
30
0.000
11
0.562
21
0.294
31
0.100
0
POINT
8
Source_points
62
5
10
0.184
20
0.237
30
0.000
0
TEXT
7
PNTNUM
50
0.000
8
Text
62
3
10
0.185
20
0.237
30
0.000
40
0.001
1
27
0
LINE
8
Normals
62
1
10
0.184
20
0.237
30
0.000
11
0.184
21
0.237
31
0.100
0
POINT
8
Source_points
62
5
10
0.597
20
0.531
30
0.000
0
TEXT
7
PNTNUM
50
0.000
8
Text
62
3
10
0.598
20
0.530
30
0.000
40
0.001
1
28
0
LINE
8
Normals
62
1
10
0.597
20
0.531
30
0.000
11
0.597
21
0.531
31
0.100
0
POINT
8
Source_points
62
5
10
0.300
20
0.091
30
0.000
0
TEXT
7
PNTNUM
50
0.000
8
Text
62
3
10
0.300
20
0.091
30
0.000
40
0.001
1
29
0
LINE
8
Normals
62
1
10
0.300
20
0.091
30
0.000
11
0.300
21
0.091
31
0.100
0
POINT
8
Source_points
62
5
10
0.134
20
0.405
30
0.000
0
TEXT
7
PNTNUM
50
0.000
8
Text
62
3
10
0.135
20
0.405
30
0.000
40
0.001
1
30
0
LINE
8
Normals
62
1
10
0.134
20
0.405
30
0.000
11
0.134
21
0.405
31
0.100
0
POINT
8
Source_points
62
5
10
0.213
20
0.105
30
0.000
0
TEXT
7
PNTNUM
50
0.000
8
Text
62
3
10
0.213
20
0.104
30
0.000
40
0.001
1
31
0
LINE
8
Normals
62
1
10
0.213
20
0.105
30
0.000
11
0.213
21
0.105
31
0.100
0
POINT
8
Source_points
62
5
10
0.895
20
0.112
30
0.000
0
TEXT
7
PNTNUM
50
0.000
8
Text
62
3
10
0.895
20
0.112
30
0.000
40
0.001
1
32
0
LINE
8
Normals
62
1
10
0.895
20
0.112
30
0.000
11
0.895
21
0.112
31
0.100
0
POINT
8
Source_points
62
5
10
0.071
20
0.784
30
0.000
0
TEXT
7
PNTNUM
50
0.000
8
Text
62
3
10
0.072
20
0.784
30
0.000
40
0.001
1
33
0
LINE
8
Normals
62
1
10
0.071
20
0.784
30
0.000
11
0.071
21
0.784
31
0.100
0
POINT
8
Source_points
62
5
10
0.242
20
0.292
30
0.000
0
TEXT
7
PNTNUM
50
0.000
8
Text
62
3
10
0.243
20
0.291
30
0.000
40
0.001
1
34
0
LINE
8
Normals
62
1
10
0.242
20
0.292
30
0.000
11
0.242
21
0.292
31
0.100
0
POINT
8
Source_points
62
5
10
0.054
20
0.604
30
0.000
0
TEXT
7
PNTNUM
50
0.000
8
Text
62
3
10
0.054
20
0.603
30
0.000
40
0.001
1
35
0
LINE
8
Normals
62
1
10
0.054
20
0.604
30
0.000
11
0.054
21
0.604
31
0.100
0
POINT
8
Source_points
62
5
10
0.442
20
0.964
30
0.000
0
TEXT
7
PNTNUM
50
0.000
8
Text
62
3
10
0.442
20
0.964
30
0.000
40
0.001
1
36
0
LINE
8
Normals
62
1
10
0.442
20
0.964
30
0.000
11
0.442
21
0.964
31
0.100
0
POINT
8
Source_points
62
5
10
0.013
20
0.432
30
0.000
0
TEXT
7
PNTNUM
50
0.000
8
Text
62
3
10
0.014
20
0.432
30
0.000
40
0.001
1
37
0
LINE
8
Normals
62
1
10
0.013
20
0.432
30
0.000
11
0.013
21
0.432
31
0.100
0
POINT
8
Source_points
62
5
10
0.897
20
0.695
30
0.000
0
TEXT
7
PNTNUM
50
0.000
8
Text
62
3
10
0.898
20
0.694
30
0.000
40
0.001
1
38
0
LINE
8
Normals
62
1
10
0.897
20
0.695
30
0.000
11
0.897
21
0.695
31
0.100
0
POINT
8
Source_points
62
5
10
0.197
20
0.758
30
0.000
0
TEXT
7
PNTNUM
50
0.000
8
Text
62
3
10
0.197
20
0.758
30
0.000
40
0.001
1
39
0
LINE
8
Normals
62
1
10
0.197
20
0.758
30
0.000
11
0.197
21
0.758
31
0.100
0
POINT
8
Source_points
62
5
10
0.093
20
0.433
30
0.000
0
TEXT
7
PNTNUM
50
0.000
8
Text
62
3
10
0.094
20
0.432
30
0.000
40
0.001
1
40
0
LINE
8
Normals
62
1
10
0.093
20
0.433
30
0.000
11
0.093
21
0.433
31
0.100
0
POINT
8
Source_points
62
5
10
0.307
20
0.655
30
0.000
0
TEXT
7
PNTNUM
50
0.000
8
Text
62
3
10
0.308
20
0.655
30
0.000
40
0.001
1
41
0
LINE
8
Normals
62
1
10
0.307
20
0.655
30
0.000
11
0.307
21
0.655
31
0.100
0
POINT
8
Source_points
62
5
10
0.456
20
0.110
30
0.000
0
TEXT
7
PNTNUM
50
0.000
8
Text
62
3
10
0.457
20
0.109
30
0.000
40
0.001
1
42
0
LINE
8
Normals
62
1
10
0.456
20
0.110
30
0.000
11
0.456
21
0.110
31
0.100
0
POINT
8
Source_points
62
5
10
0.102
20
0.934
30
0.000
0
TEXT
7
PNTNUM
50
0.000
8
Text
62
3
10
0.102
20
0.933
30
0.000
40
0.001
1
43
0
LINE
8
Normals
62
1
10
0.102
20
0.934
30
0.000
11
0.102
21
0.934
31
0.100
0
POINT
8
Source_points
62
5
10
0.995
20
0.187
30
0.000
0
TEXT
7
PNTNUM
50
0.000
8
Text
62
3
10
0.996
20
0.187
30
0.000
40
0.001
1
44
0
LINE
8
Normals
62
1
10
0.995
20
0.187
30
0.000
11
0.995
21
0.187
31
0.100
0
POINT
8
Source_points
62
5
10
0.332
20
0.266
30
0.000
0
TEXT
7
PNTNUM
50
0.000
8
Text
62
3
10
0.333
20
0.266
30
0.000
40
0.001
1
45
0
LINE
8
Normals
62
1
10
0.332
20
0.266
30
0.000
11
0.332
21
0.266
31
0.100
0
POINT
8
Source_points
62
5
10
0.297
20
0.798
30
0.000
0
TEXT
7
PNTNUM
50
0.000
8
Text
62
3
10
0.298
20
0.797
30
0.000
40
0.001
1
46
0
LINE
8
Normals
62
1
10
0.297
20
0.798
30
0.000
11
0.297
21
0.798
31
0.100
0
POINT
8
Source_points
62
5
10
0.062
20
0.488
30
0.000
0
TEXT
7
PNTNUM
50
0.000
8
Text
62
3
10
0.063
20
0.487
30
0.000
40
0.001
1
47
0
LINE
8
Normals
62
1
10
0.062
20
0.488
30
0.000
11
0.062
21
0.488
31
0.100
0
POINT
8
Source_points
62
5
10
0.298
20
0.769
30
0.000
0
TEXT
7
PNTNUM
50
0.000
8
Text
62
3
10
0.299
20
0.768
30
0.000
40
0.001
1
48
0
LINE
8
Normals
62
1
10
0.298
20
0.769
30
0.000
11
0.298
21
0.769
31
0.100
0
POINT
8
Source_points
62
5
10
0.046
20
0.396
30
0.000
0
TEXT
7
PNTNUM
50
0.000
8
Text
62
3
10
0.047
20
0.396
30
0.000
40
0.001
1
49
0
LINE
8
Normals
62
1
10
0.046
20
0.396
30
0.000
11
0.046
21
0.396
31
0.100
0
POINT
8
Source_points
62
5
10
0.505
20
0.273
30
0.000
0
TEXT
7
PNTNUM
50
0.000
8
Text
62
3
10
0.506
20
0.272
30
0.000
40
0.001
1
50
0
LINE
8
Normals
62
1
10
0.505
20
0.273
30
0.000
11
0.505
21
0.273
31
0.100
0
POINT
8
Source_points
62
5
10
0.761
20
0.037
30
0.000
0
TEXT
7
PNTNUM
50
0.000
8
Text
62
3
10
0.762
20
0.037
30
0.000
40
0.001
1
51
0
LINE
8
Normals
62
1
10
0.761
20
0.037
30
0.000
11
0.761
21
0.037
31
0.100
0
POINT
8
Source_points
62
5
10
0.631
20
0.673
30
0.000
0
TEXT
7
PNTNUM
50
0.000
8
Text
62
3
10
0.632
20
0.673
30
0.000
40
0.001
1
52
0
LINE
8
Normals
62
1
10
0.631
20
0.673
30
0.000
11
0.631
21
0.673
31
0.100
0
POINT
8
Source_points
62
5
10
0.090
20
0.430
30
0.000
0
TEXT
7
PNTNUM
50
0.000
8
Text
62
3
10
0.090
20
0.429
30
0.000
40
0.001
1
53
0
LINE
8
Normals
62
1
10
0.090
20
0.430
30
0.000
11
0.090
21
0.430
31
0.100
0
POINT
8
Source_points
62
5
10
0.081
20
0.452
30
0.000
0
TEXT
7
PNTNUM
50
0.000
8
Text
62
3
10
0.081
20
0.451
30
0.000
40
0.001
1
54
0
LINE
8
Normals
62
1
10
0.081
20
0.452
30
0.000
11
0.081
21
0.452
31
0.100
0
POINT
8
Source_points
62
5
10
0.777
20
0.610
30
0.000
0
TEXT
7
PNTNUM
50
0.000
8
Text
62
3
10
0.778
20
0.609
30
0.000
40
0.001
1
55
0
LINE
8
Normals
62
1
10
0.777
20
0.610
30
0.000
11
0.777
21
0.610
31
0.100
0
POINT
8
Source_points
62
5
10
0.905
20
0.059
30
0.000
0
TEXT
7
PNTNUM
50
0.000
8
Text
62
3
10
0.906
20
0.059
30
0.000
40
0.001
1
56
0
LINE
8
Normals
62
1
10
0.905
20
0.059
30
0.000
11
0.905
21
0.059
31
0.100
0
POINT
8
Source_points
62
5
10
0.534
20
0.316
30
0.000
0
TEXT
7
PNTNUM
50
0.000
8
Text
62
3
10
0.534
20
0.315
30
0.000
40
0.001
1
57
0
LINE
8
Normals
62
1
10
0.534
20
0.316
30
0.000
11
0.534
21
0.316
31
0.100
0
POINT
8
Source_points
62
5
10
0.109
20
0.773
30
0.000
0
TEXT
7
PNTNUM
50
0.000
8
Text
62
3
10
0.110
20
0.772
30
0.000
40
0.001
1
58
0
LINE
8
Normals
62
1
10
0.109
20
0.773
30
0.000
11
0.109
21
0.773
31
0.100
0
POINT
8
Source_points
62
5
10
0.826
20
0.696
30
0.000
0
TEXT
7
PNTNUM
50
0.000
8
Text
62
3
10
0.826
20
0.696
30
0.000
40
0.001
1
59
0
LINE
8
Normals
62
1
10
0.826
20
0.696
30
0.000
11
0.826
21
0.696
31
0.100
0
POINT
8
Source_points
62
5
10
0.338
20
0.125
30
0.000
0
TEXT
7
PNTNUM
50
0.000
8
Text
62
3
10
0.339
20
0.125
30
0.000
40
0.001
1
60
0
LINE
8
Normals
62
1
10
0.338
20
0.125
30
0.000
11
0.338
21
0.125
31
0.100
0
POINT
8
Source_points
62
5
10
0.294
20
0.130
30
0.000
0
TEXT
7
PNTNUM
50
0.000
8
Text
62
3
10
0.294
20
0.130
30
0.000
40
0.001
1
61
0
LINE
8
Normals
62
1
10
0.294
20
0.130
30
0.000
11
0.294
21
0.130
31
0.100
0
POINT
8
Source_points
62
5
10
0.746
20
0.092
30
0.000
0
TEXT
7
PNTNUM
50
0.000
8
Text
62
3
10
0.747
20
0.092
30
0.000
40
0.001
1
62
0
LINE
8
Normals
62
1
10
0.746
20
0.092
30
0.000
11
0.746
21
0.092
31
0.100
0
POINT
8
Source_points
62
5
10
0.010
20
0.008
30
0.000
0
TEXT
7
PNTNUM
50
0.000
8
Text
62
3
10
0.011
20
0.007
30
0.000
40
0.001
1
63
0
LINE
8
Normals
62
1
10
0.010
20
0.008
30
0.000
11
0.010
21
0.008
31
0.100
0
POINT
8
Source_points
62
5
10
0.048
20
0.423
30
0.000
0
TEXT
7
PNTNUM
50
0.000
8
Text
62
3
10
0.049
20
0.423
30
0.000
40
0.001
1
64
0
LINE
8
Normals
62
1
10
0.048
20
0.423
30
0.000
11
0.048
21
0.423
31
0.100
0
POINT
8
Source_points
62
5
10
0.668
20
0.656
30
0.000
0
TEXT
7
PNTNUM
50
0.000
8
Text
62
3
10
0.668
20
0.655
30
0.000
40
0.001
1
65
0
LINE
8
Normals
62
1
10
0.668
20
0.656
30
0.000
11
0.668
21
0.656
31
0.100
0
POINT
8
Source_points
62
5
10
0.603
20
0.723
30
0.000
0
TEXT
7
PNTNUM
50
0.000
8
Text
62
3
10
0.604
20
0.722
30
0.000
40
0.001
1
66
0
LINE
8
Normals
62
1
10
0.603
20
0.723
30
0.000
11
0.603
21
0.723
31
0.100
0
POINT
8
Source_points
62
5
10
0.526
20
0.531
30
0.000
0
TEXT
7
PNTNUM
50
0.000
8
Text
62
3
10
0.527
20
0.531
30
0.000
40
0.001
1
67
0
LINE
8
Normals
62
1
10
0.526
20
0.531
30
0.000
11
0.526
21
0.531
31
0.100
0
POINT
8
Source_points
62
5
10
0.730
20
0.109
30
0.000
0
TEXT
7
PNTNUM
50
0.000
8
Text
62
3
10
0.730
20
0.108
30
0.000
40
0.001
1
68
0
LINE
8
Normals
62
1
10
0.730
20
0.109
30
0.000
11
0.730
21
0.109
31
0.100
0
POINT
8
Source_points
62
5
10
0.707
20
0.632
30
0.000
0
TEXT
7
PNTNUM
50
0.000
8
Text
62
3
10
0.708
20
0.631
30
0.000
40
0.001
1
69
0
LINE
8
Normals
62
1
10
0.707
20
0.632
30
0.000
11
0.707
21
0.632
31
0.100
0
POINT
8
Source_points
62
5
10
0.781
20
0.126
30
0.000
0
TEXT
7
PNTNUM
50
0.000
8
Text
62
3
10
0.782
20
0.126
30
0.000
40
0.001
1
70
0
LINE
8
Normals
62
1
10
0.781
20
0.126
30
0.000
11
0.781
21
0.126
31
0.100
0
POINT
8
Source_points
62
5
10
0.288
20
0.134
30
0.000
0
TEXT
7
PNTNUM
50
0.000
8
Text
62
3
10
0.288
20
0.134
30
0.000
40
0.001
1
71
0
LINE
8
Normals
62
1
10
0.288
20
0.134
30
0.000
11
0.288
21
0.134
31
0.100
0
POINT
8
Source_points
62
5
10
0.693
20
0.099
30
0.000
0
TEXT
7
PNTNUM
50
0.000
8
Text
62
3
10
0.693
20
0.098
30
0.000
40
0.001
1
72
0
LINE
8
Normals
62
1
10
0.693
20
0.099
30
0.000
11
0.693
21
0.099
31
0.100
0
POINT
8
Source_points
62
5
10
0.557
20
0.142
30
0.000
0
TEXT
7
PNTNUM
50
0.000
8
Text
62
3
10
0.557
20
0.142
30
0.000
40
0.001
1
73
0
LINE
8
Normals
62
1
10
0.557
20
0.142
30
0.000
11
0.557
21
0.142
31
0.100
0
POINT
8
Source_points
62
5
10
0.397
20
0.168
30
0.000
0
TEXT
7
PNTNUM
50
0.000
8
Text
62
3
10
0.397
20
0.168
30
0.000
40
0.001
1
74
0
LINE
8
Normals
62
1
10
0.397
20
0.168
30
0.000
11
0.397
21
0.168
31
0.100
0
POINT
8
Source_points
62
5
10
0.062
20
0.196
30
0.000
0
TEXT
7
PNTNUM
50
0.000
8
Text
62
3
10
0.062
20
0.196
30
0.000
40
0.001
1
75
0
LINE
8
Normals
62
1
10
0.062
20
0.196
30
0.000
11
0.062
21
0.196
31
0.100
0
POINT
8
Source_points
62
5
10
0.780
20
0.317
30
0.000
0
TEXT
7
PNTNUM
50
0.000
8
Text
62
3
10
0.781
20
0.317
30
0.000
40
0.001
1
76
0
LINE
8
Normals
62
1
10
0.780
20
0.317
30
0.000
11
0.780
21
0.317
31
0.100
0
POINT
8
Source_points
62
5
10
0.338
20
0.316
30
0.000
0
TEXT
7
PNTNUM
50
0.000
8
Text
62
3
10
0.338
20
0.316
30
0.000
40
0.001
1
77
0
LINE
8
Normals
62
1
10
0.338
20
0.316
30
0.000
11
0.338
21
0.316
31
0.100
0
POINT
8
Source_points
62
5
10
0.608
20
0.218
30
0.000
0
TEXT
7
PNTNUM
50
0.000
8
Text
62
3
10
0.608
20
0.217
30
0.000
40
0.001
1
78
0
LINE
8
Normals
62
1
10
0.608
20
0.218
30
0.000
11
0.608
21
0.218
31
0.100
0
POINT
8
Source_points
62
5
10
0.741
20
0.251
30
0.000
0
TEXT
7
PNTNUM
50
0.000
8
Text
62
3
10
0.742
20
0.251
30
0.000
40
0.001
1
79
0
LINE
8
Normals
62
1
10
0.741
20
0.251
30
0.000
11
0.741
21
0.251
31
0.100
0
POINT
8
Source_points
62
5
10
0.105
20
0.893
30
0.000
0
TEXT
7
PNTNUM
50
0.000
8
Text
62
3
10
0.105
20
0.892
30
0.000
40
0.001
1
80
0
LINE
8
Normals
62
1
10
0.105
20
0.893
30
0.000
11
0.105
21
0.893
31
0.100
0
POINT
8
Source_points
62
5
10
0.128
20
0.703
30
0.000
0
TEXT
7
PNTNUM
50
0.000
8
Text
62
3
10
0.128
20
0.703
30
0.000
40
0.001
1
81
0
LINE
8
Normals
62
1
10
0.128
20
0.703
30
0.000
11
0.128
21
0.703
31
0.100
0
POINT
8
Source_points
62
5
10
0.550
20
0.556
30
0.000
0
TEXT
7
PNTNUM
50
0.000
8
Text
62
3
10
0.550
20
0.555
30
0.000
40
0.001
1
82
0
LINE
8
Normals
62
1
10
0.550
20
0.556
30
0.000
11
0.550
21
0.556
31
0.100
0
POINT
8
Source_points
62
5
10
0.485
20
0.184
30
0.000
0
TEXT
7
PNTNUM
50
0.000
8
Text
62
3
10
0.486
20
0.184
30
0.000
40
0.001
1
83
0
LINE
8
Normals
62
1
10
0.485
20
0.184
30
0.000
11
0.485
21
0.184
31
0.100
0
POINT
8
Source_points
62
5
10
0.890
20
0.212
30
0.000
0
TEXT
7
PNTNUM
50
0.000
8
Text
62
3
10
0.891
20
0.212
30
0.000
40
0.001
1
84
0
LINE
8
Normals
62
1
10
0.890
20
0.212
30
0.000
11
0.890
21
0.212
31
0.100
0
POINT
8
Source_points
62
5
10
0.799
20
0.077
30
0.000
0
TEXT
7
PNTNUM
50
0.000
8
Text
62
3
10
0.799
20
0.077
30
0.000
40
0.001
1
85
0
LINE
8
Normals
62
1
10
0.799
20
0.077
30
0.000
11
0.799
21
0.077
31
0.100
0
POINT
8
Source_points
62
5
10
0.734
20
0.914
30
0.000
0
TEXT
7
PNTNUM
50
0.000
8
Text
62
3
10
0.735
20
0.913
30
0.000
40
0.001
1
86
0
LINE
8
Normals
62
1
10
0.734
20
0.914
30
0.000
11
0.734
21
0.914
31
0.100
0
POINT
8
Source_points
62
5
10
0.051
20
0.707
30
0.000
0
TEXT
7
PNTNUM
50
0.000
8
Text
62
3
10
0.052
20
0.706
30
0.000
40
0.001
1
87
0
LINE
8
Normals
62
1
10
0.051
20
0.707
30
0.000
11
0.051
21
0.707
31
0.100
0
POINT
8
Source_points
62
5
10
0.073
20
0.558
30
0.000
0
TEXT
7
PNTNUM
50
0.000
8
Text
62
3
10
0.073
20
0.557
30
0.000
40
0.001
1
88
0
LINE
8
Normals
62
1
10
0.073
20
0.558
30
0.000
11
0.073
21
0.558
31
0.100
0
POINT
8
Source_points
62
5
10
0.089
20
0.313
30
0.000
0
TEXT
7
PNTNUM
50
0.000
8
Text
62
3
10
0.089
20
0.313
30
0.000
40
0.001
1
89
0
LINE
8
Normals
62
1
10
0.089
20
0.313
30
0.000
11
0.089
21
0.313
31
0.100
0
POINT
8
Source_points
62
5
10
0.798
20
0.166
30
0.000
0
TEXT
7
PNTNUM
50
0.000
8
Text
62
3
10
0.799
20
0.166
30
0.000
40
0.001
1
90
0
LINE
8
Normals
62
1
10
0.798
20
0.166
30
0.000
11
0.798
21
0.166
31
0.100
0
POINT
8
Source_points
62
5
10
0.943
20
0.622
30
0.000
0
TEXT
7
PNTNUM
50
0.000
8
Text
62
3
10
0.944
20
0.622
30
0.000
40
0.001
1
91
0
LINE
8
Normals
62
1
10
0.943
20
0.622
30
0.000
11
0.943
21
0.622
31
0.100
0
POINT
8
Source_points
62
5
10
0.684
20
0.988
30
0.000
0
TEXT
7
PNTNUM
50
0.000
8
Text
62
3
10
0.684
20
0.987
30
0.000
40
0.001
1
92
0
LINE
8
Normals
62
1
10
0.684
20
0.988
30
0.000
11
0.684
21
0.988
31
0.100
0
POINT
8
Source_points
62
5
10
0.132
20
0.170
30
0.000
0
TEXT
7
PNTNUM
50
0.000
8
Text
62
3
10
0.133
20
0.170
30
0.000
40
0.001
1
93
0
LINE
8
Normals
62
1
10
0.132
20
0.170
30
0.000
11
0.132
21
0.170
31
0.100
0
POINT
8
Source_points
62
5
10
0.723
20
0.258
30
0.000
0
TEXT
7
PNTNUM
50
0.000
8
Text
62
3
10
0.723
20
0.257
30
0.000
40
0.001
1
94
0
LINE
8
Normals
62
1
10
0.723
20
0.258
30
0.000
11
0.723
21
0.258
31
0.100
0
POINT
8
Source_points
62
5
10
0.110
20
0.397
30
0.000
0
TEXT
7
PNTNUM
50
0.000
8
Text
62
3
10
0.111
20
0.396
30
0.000
40
0.001
1
95
0
LINE
8
Normals
62
1
10
0.110
20
0.397
30
0.000
11
0.110
21
0.397
31
0.100
0
POINT
8
Source_points
62
5
10
0.117
20
0.074
30
0.000
0
TEXT
7
PNTNUM
50
0.000
8
Text
62
3
10
0.118
20
0.073
30
0.000
40
0.001
1
96
0
LINE
8
Normals
62
1
10
0.117
20
0.074
30
0.000
11
0.117
21
0.074
31
0.100
0
POINT
8
Source_points
62
5
10
0.641
20
0.684
30
0.000
0
TEXT
7
PNTNUM
50
0.000
8
Text
62
3
10
0.641
20
0.684
30
0.000
40
0.001
1
97
0
LINE
8
Normals
62
1
10
0.641
20
0.684
30
0.000
11
0.641
21
0.684
31
0.100
0
POINT
8
Source_points
62
5
10
0.329
20
0.402
30
0.000
0
TEXT
7
PNTNUM
50
0.000
8
Text
62
3
10
0.329
20
0.402
30
0.000
40
0.001
1
98
0
LINE
8
Normals
62
1
10
0.329
20
0.402
30
0.000
11
0.329
21
0.402
31
0.100
0
POINT
8
Source_points
62
5
10
0.654
20
0.983
30
0.000
0
TEXT
7
PNTNUM
50
0.000
8
Text
62
3
10
0.654
20
0.982
30
0.000
40
0.001
1
99
0
LINE
8
Normals
62
1
10
0.654
20
0.983
30
0.000
11
0.654
21
0.983
31
0.100
0
POINT
8
Facilities
62
3
10
0.132
20
0.170
30
0.000
0
POINT
8
Clients
62
5
10
0.062
20
0.196
30
0.000
0
LINE
8
Facilities_lines
62
3
10
0.132
20
0.170
30
0.000
11
0.062
21
0.196
31
0.000
0
POINT
8
Clients
62
5
10
0.176
20
0.206
30
0.000
0
LINE
8
Facilities_lines
62
3
10
0.132
20
0.170
30
0.000
11
0.176
21
0.206
31
0.000
0
POINT
8
Clients
62
5
10
0.300
20
0.091
30
0.000
0
LINE
8
Facilities_lines
62
3
10
0.132
20
0.170
30
0.000
11
0.300
21
0.091
31
0.000
0
POINT
8
Clients
62
5
10
0.184
20
0.237
30
0.000
0
LINE
8
Facilities_lines
62
3
10
0.132
20
0.170
30
0.000
11
0.184
21
0.237
31
0.000
0
POINT
8
Clients
62
5
10
0.242
20
0.292
30
0.000
0
LINE
8
Facilities_lines
62
3
10
0.132
20
0.170
30
0.000
11
0.242
21
0.292
31
0.000
0
POINT
8
Clients
62
5
10
0.010
20
0.008
30
0.000
0
LINE
8
Facilities_lines
62
3
10
0.132
20
0.170
30
0.000
11
0.010
21
0.008
31
0.000
0
POINT
8
Clients
62
5
10
0.213
20
0.105
30
0.000
0
LINE
8
Facilities_lines
62
3
10
0.132
20
0.170
30
0.000
11
0.213
21
0.105
31
0.000
0
POINT
8
Clients
62
5
10
0.332
20
0.266
30
0.000
0
LINE
8
Facilities_lines
62
3
10
0.132
20
0.170
30
0.000
11
0.332
21
0.266
31
0.000
0
POINT
8
Clients
62
5
10
0.338
20
0.125
30
0.000
0
LINE
8
Facilities_lines
62
3
10
0.132
20
0.170
30
0.000
11
0.338
21
0.125
31
0.000
0
POINT
8
Clients
62
5
10
0.294
20
0.130
30
0.000
0
LINE
8
Facilities_lines
62
3
10
0.132
20
0.170
30
0.000
11
0.294
21
0.130
31
0.000
0
POINT
8
Clients
62
5
10
0.288
20
0.134
30
0.000
0
LINE
8
Facilities_lines
62
3
10
0.132
20
0.170
30
0.000
11
0.288
21
0.134
31
0.000
0
POINT
8
Clients
62
5
10
0.117
20
0.074
30
0.000
0
LINE
8
Facilities_lines
62
3
10
0.132
20
0.170
30
0.000
11
0.117
21
0.074
31
0.000
0
LINE
8
Min_max_boxes
62
1
10
0.010
20
0.008
30
0.000
11
0.338
21
0.008
31
0.000
0
LINE
8
Min_max_boxes
62
1
10
0.338
20
0.008
30
0.000
11
0.338
21
0.292
31
0.000
0
LINE
8
Min_max_boxes
62
1
10
0.338
20
0.292
30
0.000
11
0.010
21
0.292
31
0.000
0
LINE
8
Min_max_boxes
62
1
10
0.010
20
0.292
30
0.000
11
0.010
21
0.008
31
0.000
0
LINE
8
Min_max_boxes
62
1
10
0.010
20
0.008
30
0.000
11
0.338
21
0.008
31
0.000
0
LINE
8
Min_max_boxes
62
1
10
0.338
20
0.008
30
0.000
11
0.338
21
0.292
31
0.000
0
LINE
8
Min_max_boxes
62
1
10
0.338
20
0.292
30
0.000
11
0.010
21
0.292
31
0.000
0
LINE
8
Min_max_boxes
62
1
10
0.010
20
0.292
30
0.000
11
0.010
21
0.008
31
0.000
0
LINE
8
Min_max_boxes
62
1
10
0.010
20
0.008
30
0.000
11
0.010
21
0.008
31
0.000
0
LINE
8
Min_max_boxes
62
1
10
0.338
20
0.008
30
0.000
11
0.338
21
0.008
31
0.000
0
LINE
8
Min_max_boxes
62
1
10
0.338
20
0.292
30
0.000
11
0.338
21
0.292
31
0.000
0
LINE
8
Min_max_boxes
62
1
10
0.010
20
0.292
30
0.000
11
0.010
21
0.292
31
0.000
0
POINT
8
Facilities
62
3
10
0.798
20
0.166
30
0.000
0
POINT
8
Clients
62
5
10
0.764
20
0.369
30
0.000
0
LINE
8
Facilities_lines
62
3
10
0.798
20
0.166
30
0.000
11
0.764
21
0.369
31
0.000
0
POINT
8
Clients
62
5
10
0.741
20
0.251
30
0.000
0
LINE
8
Facilities_lines
62
3
10
0.798
20
0.166
30
0.000
11
0.741
21
0.251
31
0.000
0
POINT
8
Clients
62
5
10
0.736
20
0.101
30
0.000
0
LINE
8
Facilities_lines
62
3
10
0.798
20
0.166
30
0.000
11
0.736
21
0.101
31
0.000
0
POINT
8
Clients
62
5
10
0.995
20
0.187
30
0.000
0
LINE
8
Facilities_lines
62
3
10
0.798
20
0.166
30
0.000
11
0.995
21
0.187
31
0.000
0
POINT
8
Clients
62
5
10
0.895
20
0.112
30
0.000
0
LINE
8
Facilities_lines
62
3
10
0.798
20
0.166
30
0.000
11
0.895
21
0.112
31
0.000
0
POINT
8
Clients
62
5
10
0.761
20
0.037
30
0.000
0
LINE
8
Facilities_lines
62
3
10
0.798
20
0.166
30
0.000
11
0.761
21
0.037
31
0.000
0
POINT
8
Clients
62
5
10
0.905
20
0.059
30
0.000
0
LINE
8
Facilities_lines
62
3
10
0.798
20
0.166
30
0.000
11
0.905
21
0.059
31
0.000
0
POINT
8
Clients
62
5
10
0.730
20
0.109
30
0.000
0
LINE
8
Facilities_lines
62
3
10
0.798
20
0.166
30
0.000
11
0.730
21
0.109
31
0.000
0
POINT
8
Clients
62
5
10
0.746
20
0.092
30
0.000
0
LINE
8
Facilities_lines
62
3
10
0.798
20
0.166
30
0.000
11
0.746
21
0.092
31
0.000
0
POINT
8
Clients
62
5
10
0.693
20
0.099
30
0.000
0
LINE
8
Facilities_lines
62
3
10
0.798
20
0.166
30
0.000
11
0.693
21
0.099
31
0.000
0
POINT
8
Clients
62
5
10
0.781
20
0.126
30
0.000
0
LINE
8
Facilities_lines
62
3
10
0.798
20
0.166
30
0.000
11
0.781
21
0.126
31
0.000
0
POINT
8
Clients
62
5
10
0.780
20
0.317
30
0.000
0
LINE
8
Facilities_lines
62
3
10
0.798
20
0.166
30
0.000
11
0.780
21
0.317
31
0.000
0
POINT
8
Clients
62
5
10
0.890
20
0.212
30
0.000
0
LINE
8
Facilities_lines
62
3
10
0.798
20
0.166
30
0.000
11
0.890
21
0.212
31
0.000
0
POINT
8
Clients
62
5
10
0.799
20
0.077
30
0.000
0
LINE
8
Facilities_lines
62
3
10
0.798
20
0.166
30
0.000
11
0.799
21
0.077
31
0.000
0
LINE
8
Min_max_boxes
62
1
10
0.693
20
0.037
30
0.000
11
0.995
21
0.037
31
0.000
0
LINE
8
Min_max_boxes
62
1
10
0.995
20
0.037
30
0.000
11
0.995
21
0.369
31
0.000
0
LINE
8
Min_max_boxes
62
1
10
0.995
20
0.369
30
0.000
11
0.693
21
0.369
31
0.000
0
LINE
8
Min_max_boxes
62
1
10
0.693
20
0.369
30
0.000
11
0.693
21
0.037
31
0.000
0
LINE
8
Min_max_boxes
62
1
10
0.693
20
0.037
30
0.000
11
0.995
21
0.037
31
0.000
0
LINE
8
Min_max_boxes
62
1
10
0.995
20
0.037
30
0.000
11
0.995
21
0.369
31
0.000
0
LINE
8
Min_max_boxes
62
1
10
0.995
20
0.369
30
0.000
11
0.693
21
0.369
31
0.000
0
LINE
8
Min_max_boxes
62
1
10
0.693
20
0.369
30
0.000
11
0.693
21
0.037
31
0.000
0
LINE
8
Min_max_boxes
62
1
10
0.693
20
0.037
30
0.000
11
0.693
21
0.037
31
0.000
0
LINE
8
Min_max_boxes
62
1
10
0.995
20
0.037
30
0.000
11
0.995
21
0.037
31
0.000
0
LINE
8
Min_max_boxes
62
1
10
0.995
20
0.369
30
0.000
11
0.995
21
0.369
31
0.000
0
LINE
8
Min_max_boxes
62
1
10
0.693
20
0.369
30
0.000
11
0.693
21
0.369
31
0.000
0
POINT
8
Facilities
62
3
10
0.110
20
0.397
30
0.000
0
POINT
8
Clients
62
5
10
0.465
20
0.366
30
0.000
0
LINE
8
Facilities_lines
62
3
10
0.110
20
0.397
30
0.000
11
0.465
21
0.366
31
0.000
0
POINT
8
Clients
62
5
10
0.360
20
0.368
30
0.000
0
LINE
8
Facilities_lines
62
3
10
0.110
20
0.397
30
0.000
11
0.360
21
0.368
31
0.000
0
POINT
8
Clients
62
5
10
0.338
20
0.316
30
0.000
0
LINE
8
Facilities_lines
62
3
10
0.110
20
0.397
30
0.000
11
0.338
21
0.316
31
0.000
0
POINT
8
Clients
62
5
10
0.209
20
0.388
30
0.000
0
LINE
8
Facilities_lines
62
3
10
0.110
20
0.397
30
0.000
11
0.209
21
0.388
31
0.000
0
POINT
8
Clients
62
5
10
0.104
20
0.152
30
0.000
0
LINE
8
Facilities_lines
62
3
10
0.110
20
0.397
30
0.000
11
0.104
21
0.152
31
0.000
0
POINT
8
Clients
62
5
10
0.057
20
0.206
30
0.000
0
LINE
8
Facilities_lines
62
3
10
0.110
20
0.397
30
0.000
11
0.057
21
0.206
31
0.000
0
POINT
8
Clients
62
5
10
0.100
20
0.598
30
0.000
0
LINE
8
Facilities_lines
62
3
10
0.110
20
0.397
30
0.000
11
0.100
21
0.598
31
0.000
0
POINT
8
Clients
62
5
10
0.118
20
0.583
30
0.000
0
LINE
8
Facilities_lines
62
3
10
0.110
20
0.397
30
0.000
11
0.118
21
0.583
31
0.000
0
POINT
8
Clients
62
5
10
0.054
20
0.604
30
0.000
0
LINE
8
Facilities_lines
62
3
10
0.110
20
0.397
30
0.000
11
0.054
21
0.604
31
0.000
0
POINT
8
Clients
62
5
10
0.013
20
0.432
30
0.000
0
LINE
8
Facilities_lines
62
3
10
0.110
20
0.397
30
0.000
11
0.013
21
0.432
31
0.000
0
POINT
8
Clients
62
5
10
0.093
20
0.433
30
0.000
0
LINE
8
Facilities_lines
62
3
10
0.110
20
0.397
30
0.000
11
0.093
21
0.433
31
0.000
0
POINT
8
Clients
62
5
10
0.062
20
0.488
30
0.000
0
LINE
8
Facilities_lines
62
3
10
0.110
20
0.397
30
0.000
11
0.062
21
0.488
31
0.000
0
POINT
8
Clients
62
5
10
0.046
20
0.396
30
0.000
0
LINE
8
Facilities_lines
62
3
10
0.110
20
0.397
30
0.000
11
0.046
21
0.396
31
0.000
0
POINT
8
Clients
62
5
10
0.134
20
0.405
30
0.000
0
LINE
8
Facilities_lines
62
3
10
0.110
20
0.397
30
0.000
11
0.134
21
0.405
31
0.000
0
POINT
8
Clients
62
5
10
0.081
20
0.452
30
0.000
0
LINE
8
Facilities_lines
62
3
10
0.110
20
0.397
30
0.000
11
0.081
21
0.452
31
0.000
0
POINT
8
Clients
62
5
10
0.048
20
0.423
30
0.000
0
LINE
8
Facilities_lines
62
3
10
0.110
20
0.397
30
0.000
11
0.048
21
0.423
31
0.000
0
POINT
8
Clients
62
5
10
0.073
20
0.558
30
0.000
0
LINE
8
Facilities_lines
62
3
10
0.110
20
0.397
30
0.000
11
0.073
21
0.558
31
0.000
0
POINT
8
Clients
62
5
10
0.089
20
0.313
30
0.000
0
LINE
8
Facilities_lines
62
3
10
0.110
20
0.397
30
0.000
11
0.089
21
0.313
31
0.000
0
POINT
8
Clients
62
5
10
0.090
20
0.430
30
0.000
0
LINE
8
Facilities_lines
62
3
10
0.110
20
0.397
30
0.000
11
0.090
21
0.430
31
0.000
0
POINT
8
Clients
62
5
10
0.329
20
0.402
30
0.000
0
LINE
8
Facilities_lines
62
3
10
0.110
20
0.397
30
0.000
11
0.329
21
0.402
31
0.000
0
LINE
8
Min_max_boxes
62
1
10
0.013
20
0.152
30
0.000
11
0.465
21
0.152
31
0.000
0
LINE
8
Min_max_boxes
62
1
10
0.465
20
0.152
30
0.000
11
0.465
21
0.604
31
0.000
0
LINE
8
Min_max_boxes
62
1
10
0.465
20
0.604
30
0.000
11
0.013
21
0.604
31
0.000
0
LINE
8
Min_max_boxes
62
1
10
0.013
20
0.604
30
0.000
11
0.013
21
0.152
31
0.000
0
LINE
8
Min_max_boxes
62
1
10
0.013
20
0.152
30
0.000
11
0.465
21
0.152
31
0.000
0
LINE
8
Min_max_boxes
62
1
10
0.465
20
0.152
30
0.000
11
0.465
21
0.604
31
0.000
0
LINE
8
Min_max_boxes
62
1
10
0.465
20
0.604
30
0.000
11
0.013
21
0.604
31
0.000
0
LINE
8
Min_max_boxes
62
1
10
0.013
20
0.604
30
0.000
11
0.013
21
0.152
31
0.000
0
LINE
8
Min_max_boxes
62
1
10
0.013
20
0.152
30
0.000
11
0.013
21
0.152
31
0.000
0
LINE
8
Min_max_boxes
62
1
10
0.465
20
0.152
30
0.000
11
0.465
21
0.152
31
0.000
0
LINE
8
Min_max_boxes
62
1
10
0.465
20
0.604
30
0.000
11
0.465
21
0.604
31
0.000
0
LINE
8
Min_max_boxes
62
1
10
0.013
20
0.604
30
0.000
11
0.013
21
0.604
31
0.000
0
POINT
8
Facilities
62
3
10
0.608
20
0.218
30
0.000
0
POINT
8
Clients
62
5
10
0.526
20
0.531
30
0.000
0
LINE
8
Facilities_lines
62
3
10
0.608
20
0.218
30
0.000
11
0.526
21
0.531
31
0.000
0
POINT
8
Clients
62
5
10
0.415
20
0.086
30
0.000
0
LINE
8
Facilities_lines
62
3
10
0.608
20
0.218
30
0.000
11
0.415
21
0.086
31
0.000
0
POINT
8
Clients
62
5
10
0.456
20
0.110
30
0.000
0
LINE
8
Facilities_lines
62
3
10
0.608
20
0.218
30
0.000
11
0.456
21
0.110
31
0.000
0
POINT
8
Clients
62
5
10
0.522
20
0.087
30
0.000
0
LINE
8
Facilities_lines
62
3
10
0.608
20
0.218
30
0.000
11
0.522
21
0.087
31
0.000
0
POINT
8
Clients
62
5
10
0.562
20
0.294
30
0.000
0
LINE
8
Facilities_lines
62
3
10
0.608
20
0.218
30
0.000
11
0.562
21
0.294
31
0.000
0
POINT
8
Clients
62
5
10
0.597
20
0.531
30
0.000
0
LINE
8
Facilities_lines
62
3
10
0.608
20
0.218
30
0.000
11
0.597
21
0.531
31
0.000
0
POINT
8
Clients
62
5
10
0.540
20
0.235
30
0.000
0
LINE
8
Facilities_lines
62
3
10
0.608
20
0.218
30
0.000
11
0.540
21
0.235
31
0.000
0
POINT
8
Clients
62
5
10
0.534
20
0.316
30
0.000
0
LINE
8
Facilities_lines
62
3
10
0.608
20
0.218
30
0.000
11
0.534
21
0.316
31
0.000
0
POINT
8
Clients
62
5
10
0.505
20
0.273
30
0.000
0
LINE
8
Facilities_lines
62
3
10
0.608
20
0.218
30
0.000
11
0.505
21
0.273
31
0.000
0
POINT
8
Clients
62
5
10
0.675
20
0.229
30
0.000
0
LINE
8
Facilities_lines
62
3
10
0.608
20
0.218
30
0.000
11
0.675
21
0.229
31
0.000
0
POINT
8
Clients
62
5
10
0.397
20
0.168
30
0.000
0
LINE
8
Facilities_lines
62
3
10
0.608
20
0.218
30
0.000
11
0.397
21
0.168
31
0.000
0
POINT
8
Clients
62
5
10
0.557
20
0.142
30
0.000
0
LINE
8
Facilities_lines
62
3
10
0.608
20
0.218
30
0.000
11
0.557
21
0.142
31
0.000
0
POINT
8
Clients
62
5
10
0.550
20
0.556
30
0.000
0
LINE
8
Facilities_lines
62
3
10
0.608
20
0.218
30
0.000
11
0.550
21
0.556
31
0.000
0
POINT
8
Clients
62
5
10
0.485
20
0.184
30
0.000
0
LINE
8
Facilities_lines
62
3
10
0.608
20
0.218
30
0.000
11
0.485
21
0.184
31
0.000
0
POINT
8
Clients
62
5
10
0.723
20
0.258
30
0.000
0
LINE
8
Facilities_lines
62
3
10
0.608
20
0.218
30
0.000
11
0.723
21
0.258
31
0.000
0
LINE
8
Min_max_boxes
62
1
10
0.397
20
0.086
30
0.000
11
0.723
21
0.086
31
0.000
0
LINE
8
Min_max_boxes
62
1
10
0.723
20
0.086
30
0.000
11
0.723
21
0.556
31
0.000
0
LINE
8
Min_max_boxes
62
1
10
0.723
20
0.556
30
0.000
11
0.397
21
0.556
31
0.000
0
LINE
8
Min_max_boxes
62
1
10
0.397
20
0.556
30
0.000
11
0.397
21
0.086
31
0.000
0
LINE
8
Min_max_boxes
62
1
10
0.397
20
0.086
30
0.000
11
0.723
21
0.086
31
0.000
0
LINE
8
Min_max_boxes
62
1
10
0.723
20
0.086
30
0.000
11
0.723
21
0.556
31
0.000
0
LINE
8
Min_max_boxes
62
1
10
0.723
20
0.556
30
0.000
11
0.397
21
0.556
31
0.000
0
LINE
8
Min_max_boxes
62
1
10
0.397
20
0.556
30
0.000
11
0.397
21
0.086
31
0.000
0
LINE
8
Min_max_boxes
62
1
10
0.397
20
0.086
30
0.000
11
0.397
21
0.086
31
0.000
0
LINE
8
Min_max_boxes
62
1
10
0.723
20
0.086
30
0.000
11
0.723
21
0.086
31
0.000
0
LINE
8
Min_max_boxes
62
1
10
0.723
20
0.556
30
0.000
11
0.723
21
0.556
31
0.000
0
LINE
8
Min_max_boxes
62
1
10
0.397
20
0.556
30
0.000
11
0.397
21
0.556
31
0.000
0
POINT
8
Facilities
62
3
10
0.298
20
0.769
30
0.000
0
POINT
8
Clients
62
5
10
0.288
20
0.867
30
0.000
0
LINE
8
Facilities_lines
62
3
10
0.298
20
0.769
30
0.000
11
0.288
21
0.867
31
0.000
0
POINT
8
Clients
62
5
10
0.336
20
0.772
30
0.000
0
LINE
8
Facilities_lines
62
3
10
0.298
20
0.769
30
0.000
11
0.336
21
0.772
31
0.000
0
POINT
8
Clients
62
5
10
0.178
20
0.789
30
0.000
0
LINE
8
Facilities_lines
62
3
10
0.298
20
0.769
30
0.000
11
0.178
21
0.789
31
0.000
0
POINT
8
Clients
62
5
10
0.071
20
0.784
30
0.000
0
LINE
8
Facilities_lines
62
3
10
0.298
20
0.769
30
0.000
11
0.071
21
0.784
31
0.000
0
POINT
8
Clients
62
5
10
0.197
20
0.758
30
0.000
0
LINE
8
Facilities_lines
62
3
10
0.298
20
0.769
30
0.000
11
0.197
21
0.758
31
0.000
0
POINT
8
Clients
62
5
10
0.307
20
0.655
30
0.000
0
LINE
8
Facilities_lines
62
3
10
0.298
20
0.769
30
0.000
11
0.307
21
0.655
31
0.000
0
POINT
8
Clients
62
5
10
0.102
20
0.934
30
0.000
0
LINE
8
Facilities_lines
62
3
10
0.298
20
0.769
30
0.000
11
0.102
21
0.934
31
0.000
0
POINT
8
Clients
62
5
10
0.297
20
0.798
30
0.000
0
LINE
8
Facilities_lines
62
3
10
0.298
20
0.769
30
0.000
11
0.297
21
0.798
31
0.000
0
POINT
8
Clients
62
5
10
0.109
20
0.773
30
0.000
0
LINE
8
Facilities_lines
62
3
10
0.298
20
0.769
30
0.000
11
0.109
21
0.773
31
0.000
0
POINT
8
Clients
62
5
10
0.603
20
0.723
30
0.000
0
LINE
8
Facilities_lines
62
3
10
0.298
20
0.769
30
0.000
11
0.603
21
0.723
31
0.000
0
POINT
8
Clients
62
5
10
0.105
20
0.893
30
0.000
0
LINE
8
Facilities_lines
62
3
10
0.298
20
0.769
30
0.000
11
0.105
21
0.893
31
0.000
0
POINT
8
Clients
62
5
10
0.128
20
0.703
30
0.000
0
LINE
8
Facilities_lines
62
3
10
0.298
20
0.769
30
0.000
11
0.128
21
0.703
31
0.000
0
POINT
8
Clients
62
5
10
0.051
20
0.707
30
0.000
0
LINE
8
Facilities_lines
62
3
10
0.298
20
0.769
30
0.000
11
0.051
21
0.707
31
0.000
0
LINE
8
Min_max_boxes
62
1
10
0.051
20
0.655
30
0.000
11
0.603
21
0.655
31
0.000
0
LINE
8
Min_max_boxes
62
1
10
0.603
20
0.655
30
0.000
11
0.603
21
0.934
31
0.000
0
LINE
8
Min_max_boxes
62
1
10
0.603
20
0.934
30
0.000
11
0.051
21
0.934
31
0.000
0
LINE
8
Min_max_boxes
62
1
10
0.051
20
0.934
30
0.000
11
0.051
21
0.655
31
0.000
0
LINE
8
Min_max_boxes
62
1
10
0.051
20
0.655
30
0.000
11
0.603
21
0.655
31
0.000
0
LINE
8
Min_max_boxes
62
1
10
0.603
20
0.655
30
0.000
11
0.603
21
0.934
31
0.000
0
LINE
8
Min_max_boxes
62
1
10
0.603
20
0.934
30
0.000
11
0.051
21
0.934
31
0.000
0
LINE
8
Min_max_boxes
62
1
10
0.051
20
0.934
30
0.000
11
0.051
21
0.655
31
0.000
0
LINE
8
Min_max_boxes
62
1
10
0.051
20
0.655
30
0.000
11
0.051
21
0.655
31
0.000
0
LINE
8
Min_max_boxes
62
1
10
0.603
20
0.655
30
0.000
11
0.603
21
0.655
31
0.000
0
LINE
8
Min_max_boxes
62
1
10
0.603
20
0.934
30
0.000
11
0.603
21
0.934
31
0.000
0
LINE
8
Min_max_boxes
62
1
10
0.051
20
0.934
30
0.000
11
0.051
21
0.934
31
0.000
0
POINT
8
Facilities
62
3
10
0.826
20
0.696
30
0.000
0
POINT
8
Clients
62
5
10
0.468
20
0.642
30
0.000
0
LINE
8
Facilities_lines
62
3
10
0.826
20
0.696
30
0.000
11
0.468
21
0.642
31
0.000
0
POINT
8
Clients
62
5
10
0.988
20
0.740
30
0.000
0
LINE
8
Facilities_lines
62
3
10
0.826
20
0.696
30
0.000
11
0.988
21
0.740
31
0.000
0
POINT
8
Clients
62
5
10
0.707
20
0.735
30
0.000
0
LINE
8
Facilities_lines
62
3
10
0.826
20
0.696
30
0.000
11
0.707
21
0.735
31
0.000
0
POINT
8
Clients
62
5
10
0.999
20
0.971
30
0.000
0
LINE
8
Facilities_lines
62
3
10
0.826
20
0.696
30
0.000
11
0.999
21
0.971
31
0.000
0
POINT
8
Clients
62
5
10
0.818
20
0.685
30
0.000
0
LINE
8
Facilities_lines
62
3
10
0.826
20
0.696
30
0.000
11
0.818
21
0.685
31
0.000
0
POINT
8
Clients
62
5
10
0.905
20
0.552
30
0.000
0
LINE
8
Facilities_lines
62
3
10
0.826
20
0.696
30
0.000
11
0.905
21
0.552
31
0.000
0
POINT
8
Clients
62
5
10
0.912
20
0.484
30
0.000
0
LINE
8
Facilities_lines
62
3
10
0.826
20
0.696
30
0.000
11
0.912
21
0.484
31
0.000
0
POINT
8
Clients
62
5
10
0.898
20
0.749
30
0.000
0
LINE
8
Facilities_lines
62
3
10
0.826
20
0.696
30
0.000
11
0.898
21
0.749
31
0.000
0
POINT
8
Clients
62
5
10
0.442
20
0.964
30
0.000
0
LINE
8
Facilities_lines
62
3
10
0.826
20
0.696
30
0.000
11
0.442
21
0.964
31
0.000
0
POINT
8
Clients
62
5
10
0.746
20
0.782
30
0.000
0
LINE
8
Facilities_lines
62
3
10
0.826
20
0.696
30
0.000
11
0.746
21
0.782
31
0.000
0
POINT
8
Clients
62
5
10
0.631
20
0.673
30
0.000
0
LINE
8
Facilities_lines
62
3
10
0.826
20
0.696
30
0.000
11
0.631
21
0.673
31
0.000
0
POINT
8
Clients
62
5
10
0.777
20
0.610
30
0.000
0
LINE
8
Facilities_lines
62
3
10
0.826
20
0.696
30
0.000
11
0.777
21
0.610
31
0.000
0
POINT
8
Clients
62
5
10
0.897
20
0.695
30
0.000
0
LINE
8
Facilities_lines
62
3
10
0.826
20
0.696
30
0.000
11
0.897
21
0.695
31
0.000
0
POINT
8
Clients
62
5
10
0.668
20
0.656
30
0.000
0
LINE
8
Facilities_lines
62
3
10
0.826
20
0.696
30
0.000
11
0.668
21
0.656
31
0.000
0
POINT
8
Clients
62
5
10
0.707
20
0.632
30
0.000
0
LINE
8
Facilities_lines
62
3
10
0.826
20
0.696
30
0.000
11
0.707
21
0.632
31
0.000
0
POINT
8
Clients
62
5
10
0.734
20
0.914
30
0.000
0
LINE
8
Facilities_lines
62
3
10
0.826
20
0.696
30
0.000
11
0.734
21
0.914
31
0.000
0
POINT
8
Clients
62
5
10
0.943
20
0.622
30
0.000
0
LINE
8
Facilities_lines
62
3
10
0.826
20
0.696
30
0.000
11
0.943
21
0.622
31
0.000
0
POINT
8
Clients
62
5
10
0.684
20
0.988
30
0.000
0
LINE
8
Facilities_lines
62
3
10
0.826
20
0.696
30
0.000
11
0.684
21
0.988
31
0.000
0
POINT
8
Clients
62
5
10
0.641
20
0.684
30
0.000
0
LINE
8
Facilities_lines
62
3
10
0.826
20
0.696
30
0.000
11
0.641
21
0.684
31
0.000
0
POINT
8
Clients
62
5
10
0.654
20
0.983
30
0.000
0
LINE
8
Facilities_lines
62
3
10
0.826
20
0.696
30
0.000
11
0.654
21
0.983
31
0.000
0
LINE
8
Min_max_boxes
62
1
10
0.442
20
0.484
30
0.000
11
0.999
21
0.484
31
0.000
0
LINE
8
Min_max_boxes
62
1
10
0.999
20
0.484
30
0.000
11
0.999
21
0.988
31
0.000
0
LINE
8
Min_max_boxes
62
1
10
0.999
20
0.988
30
0.000
11
0.442
21
0.988
31
0.000
0
LINE
8
Min_max_boxes
62
1
10
0.442
20
0.988
30
0.000
11
0.442
21
0.484
31
0.000
0
LINE
8
Min_max_boxes
62
1
10
0.442
20
0.484
30
0.000
11
0.999
21
0.484
31
0.000
0
LINE
8
Min_max_boxes
62
1
10
0.999
20
0.484
30
0.000
11
0.999
21
0.988
31
0.000
0
LINE
8
Min_max_boxes
62
1
10
0.999
20
0.988
30
0.000
11
0.442
21
0.988
31
0.000
0
LINE
8
Min_max_boxes
62
1
10
0.442
20
0.988
30
0.000
11
0.442
21
0.484
31
0.000
0
LINE
8
Min_max_boxes
62
1
10
0.442
20
0.484
30
0.000
11
0.442
21
0.484
31
0.000
0
LINE
8
Min_max_boxes
62
1
10
0.999
20
0.484
30
0.000
11
0.999
21
0.484
31
0.000
0
LINE
8
Min_max_boxes
62
1
10
0.999
20
0.988
30
0.000
11
0.999
21
0.988
31
0.000
0
LINE
8
Min_max_boxes
62
1
10
0.442
20
0.988
30
0.000
11
0.442
21
0.988
31
0.000
0
ENDSEC
0
EOF
