0
SECTION
2
HEADER
9
$ACADVER
1
AC1006
0
ENDSEC
0
SECTION
2
TABLES
0
TABLE
2
LAYER
70
0
0
LAYER
2
Source_points
70
0
62
5
6
CONTINUOUS
0
LAYER
2
Facilities
70
0
62
3
6
CONTINUOUS
0
LAYER
2
Facilities_lines
70
0
62
3
6
CONTINUOUS
0
LAYER
2
Clients
70
0
62
3
6
CONTINUOUS
0
LAYER
2
Normals
70
0
62
1
6
CONTINUOUS
0
LAYER
2
Text
70
0
62
3
6
CONTINUOUS
0
LAYER
2
Min_max_boxes
70
0
62
1
6
CONTINUOUS
0
ENDTAB
0
ENDSEC
0
SECTION
2
ENTITIES
0
POINT
8
Source_points
62
5
10
0.069
20
0.479
30
0.001
0
TEXT
7
PNTNUM
50
0.000
8
Text
62
3
10
0.069
20
0.479
30
0.001
40
0.001
1
0
0
LINE
8
Normals
62
1
10
0.069
20
0.479
30
0.001
11
0.149
21
0.481
31
0.060
0
POINT
8
Source_points
62
5
10
0.461
20
0.442
30
0.282
0
TEXT
7
PNTNUM
50
0.000
8
Text
62
3
10
0.461
20
0.442
30
0.282
40
0.001
1
1
0
LINE
8
Normals
62
1
10
0.461
20
0.442
30
0.282
11
0.399
21
0.456
31
0.359
0
POINT
8
Source_points
62
5
10
0.344
20
0.044
30
0.362
0
TEXT
7
PNTNUM
50
0.000
8
Text
62
3
10
0.345
20
0.044
30
0.362
40
0.001
1
2
0
LINE
8
Normals
62
1
10
0.344
20
0.044
30
0.362
11
0.367
21
0.139
31
0.387
0
POINT
8
Source_points
62
5
10
0.007
20
0.442
30
0.193
0
TEXT
7
PNTNUM
50
0.000
8
Text
62
3
10
0.007
20
0.442
30
0.193
40
0.001
1
3
0
LINE
8
Normals
62
1
10
0.007
20
0.442
30
0.193
11
0.105
21
0.437
31
0.208
0
POINT
8
Source_points
62
5
10
0.036
20
0.197
30
0.445
0
TEXT
7
PNTNUM
50
0.000
8
Text
62
3
10
0.036
20
0.197
30
0.445
40
0.001
1
4
0
LINE
8
Normals
62
1
10
0.036
20
0.197
30
0.445
11
0.130
21
0.227
31
0.432
0
POINT
8
Source_points
62
5
10
0.416
20
0.495
30
0.333
0
TEXT
7
PNTNUM
50
0.000
8
Text
62
3
10
0.417
20
0.495
30
0.333
40
0.001
1
5
0
LINE
8
Normals
62
1
10
0.416
20
0.495
30
0.333
11
0.352
21
0.464
31
0.403
0
POINT
8
Source_points
62
5
10
0.350
20
0.136
30
0.301
0
TEXT
7
PNTNUM
50
0.000
8
Text
62
3
10
0.351
20
0.136
30
0.301
40
0.001
1
6
0
LINE
8
Normals
62
1
10
0.350
20
0.136
30
0.301
11
0.355
21
0.225
31
0.348
0
POINT
8
Source_points
62
5
10
0.387
20
0.359
30
0.205
0
TEXT
7
PNTNUM
50
0.000
8
Text
62
3
10
0.387
20
0.359
30
0.205
40
0.001
1
7
0
LINE
8
Normals
62
1
10
0.387
20
0.359
30
0.205
11
0.373
21
0.416
31
0.287
0
POINT
8
Source_points
62
5
10
0.001
20
0.395
30
0.189
0
TEXT
7
PNTNUM
50
0.000
8
Text
62
3
10
0.002
20
0.394
30
0.189
40
0.001
1
8
0
LINE
8
Normals
62
1
10
0.001
20
0.395
30
0.189
11
0.100
21
0.389
31
0.204
0
POINT
8
Source_points
62
5
10
0.091
20
0.439
30
0.166
0
TEXT
7
PNTNUM
50
0.000
8
Text
62
3
10
0.092
20
0.438
30
0.166
40
0.001
1
9
0
LINE
8
Normals
62
1
10
0.091
20
0.439
30
0.166
11
0.188
21
0.454
31
0.186
0
POINT
8
Source_points
62
5
10
0.256
20
0.148
30
0.025
0
TEXT
7
PNTNUM
50
0.000
8
Text
62
3
10
0.257
20
0.147
30
0.025
40
0.001
1
10
0
LINE
8
Normals
62
1
10
0.256
20
0.148
30
0.025
11
0.254
21
0.208
31
0.105
0
POINT
8
Source_points
62
5
10
0.450
20
0.319
30
0.399
0
TEXT
7
PNTNUM
50
0.000
8
Text
62
3
10
0.451
20
0.318
30
0.399
40
0.001
1
11
0
LINE
8
Normals
62
1
10
0.450
20
0.319
30
0.399
11
0.422
21
0.404
31
0.442
0
POINT
8
Source_points
62
5
10
0.189
20
0.328
30
0.106
0
TEXT
7
PNTNUM
50
0.000
8
Text
62
3
10
0.189
20
0.327
30
0.106
40
0.001
1
12
0
LINE
8
Normals
62
1
10
0.189
20
0.328
30
0.106
11
0.160
21
0.367
31
0.193
0
POINT
8
Source_points
62
5
10
0.243
20
0.377
30
0.417
0
TEXT
7
PNTNUM
50
0.000
8
Text
62
3
10
0.243
20
0.377
30
0.417
40
0.001
1
13
0
LINE
8
Normals
62
1
10
0.243
20
0.377
30
0.417
11
0.337
21
0.404
31
0.394
0
POINT
8
Source_points
62
5
10
0.091
20
0.366
30
0.247
0
TEXT
7
PNTNUM
50
0.000
8
Text
62
3
10
0.091
20
0.365
30
0.247
40
0.001
1
14
0
LINE
8
Normals
62
1
10
0.091
20
0.366
30
0.247
11
0.183
21
0.397
31
0.268
0
POINT
8
Source_points
62
5
10
0.607
20
0.397
30
0.208
0
TEXT
7
PNTNUM
50
0.000
8
Text
62
3
10
0.608
20
0.396
30
0.208
40
0.001
1
15
0
LINE
8
Normals
62
1
10
0.607
20
0.397
30
0.208
11
0.558
21
0.435
31
0.286
0
POINT
8
Source_points
62
5
10
0.842
20
0.190
30
0.467
0
TEXT
7
PNTNUM
50
0.000
8
Text
62
3
10
0.842
20
0.189
30
0.467
40
0.001
1
16
0
LINE
8
Normals
62
1
10
0.842
20
0.190
30
0.467
11
0.925
21
0.141
31
0.438
0
POINT
8
Source_points
62
5
10
0.785
20
0.424
30
0.499
0
TEXT
7
PNTNUM
50
0.000
8
Text
62
3
10
0.785
20
0.424
30
0.499
40
0.001
1
17
0
LINE
8
Normals
62
1
10
0.785
20
0.424
30
0.499
11
0.884
21
0.418
31
0.486
0
POINT
8
Source_points
62
5
10
0.531
20
0.219
30
0.498
0
TEXT
7
PNTNUM
50
0.000
8
Text
62
3
10
0.532
20
0.218
30
0.498
40
0.001
1
18
0
LINE
8
Normals
62
1
10
0.531
20
0.219
30
0.498
11
0.509
21
0.316
31
0.502
0
POINT
8
Source_points
62
5
10
0.662
20
0.090
30
0.031
0
TEXT
7
PNTNUM
50
0.000
8
Text
62
3
10
0.662
20
0.089
30
0.031
40
0.001
1
19
0
LINE
8
Normals
62
1
10
0.662
20
0.090
30
0.031
11
0.638
21
0.156
31
0.102
0
POINT
8
Source_points
62
5
10
0.547
20
0.167
30
0.052
0
TEXT
7
PNTNUM
50
0.000
8
Text
62
3
10
0.547
20
0.167
30
0.052
40
0.001
1
20
0
LINE
8
Normals
62
1
10
0.547
20
0.167
30
0.052
11
0.532
21
0.233
31
0.125
0
POINT
8
Source_points
62
5
10
0.722
20
0.430
30
0.490
0
TEXT
7
PNTNUM
50
0.000
8
Text
62
3
10
0.722
20
0.429
30
0.490
40
0.001
1
21
0
LINE
8
Normals
62
1
10
0.722
20
0.430
30
0.490
11
0.819
21
0.411
31
0.474
0
POINT
8
Source_points
62
5
10
0.675
20
0.243
30
0.490
0
TEXT
7
PNTNUM
50
0.000
8
Text
62
3
10
0.676
20
0.242
30
0.490
40
0.001
1
22
0
LINE
8
Normals
62
1
10
0.675
20
0.243
30
0.490
11
0.768
21
0.250
31
0.454
0
POINT
8
Source_points
62
5
10
0.676
20
0.485
30
0.121
0
TEXT
7
PNTNUM
50
0.000
8
Text
62
3
10
0.677
20
0.484
30
0.121
40
0.001
1
23
0
LINE
8
Normals
62
1
10
0.676
20
0.485
30
0.121
11
0.617
21
0.516
31
0.195
0
POINT
8
Source_points
62
5
10
0.917
20
0.216
30
0.206
0
TEXT
7
PNTNUM
50
0.000
8
Text
62
3
10
0.918
20
0.216
30
0.206
40
0.001
1
24
0
LINE
8
Normals
62
1
10
0.917
20
0.216
30
0.206
11
0.997
21
0.177
31
0.159
0
POINT
8
Source_points
62
5
10
0.662
20
0.679
30
0.296
0
TEXT
7
PNTNUM
50
0.000
8
Text
62
3
10
0.663
20
0.678
30
0.296
40
0.001
1
25
0
LINE
8
Normals
62
1
10
0.662
20
0.679
30
0.296
11
0.736
21
0.619
31
0.265
0
POINT
8
Source_points
62
5
10
0.820
20
0.721
30
0.480
0
TEXT
7
PNTNUM
50
0.000
8
Text
62
3
10
0.820
20
0.721
30
0.480
40
0.001
1
26
0
LINE
8
Normals
62
1
10
0.820
20
0.721
30
0.480
11
0.920
21
0.719
31
0.486
0
POINT
8
Source_points
62
5
10
0.969
20
0.994
30
0.228
0
TEXT
7
PNTNUM
50
0.000
8
Text
62
3
10
0.969
20
0.993
30
0.228
40
0.001
1
27
0
LINE
8
Normals
62
1
10
0.969
20
0.994
30
0.228
11
1.033
21
1.069
31
0.216
0
POINT
8
Source_points
62
5
10
0.646
20
0.989
30
0.331
0
TEXT
7
PNTNUM
50
0.000
8
Text
62
3
10
0.646
20
0.988
30
0.331
40
0.001
1
28
0
LINE
8
Normals
62
1
10
0.646
20
0.989
30
0.331
11
0.650
21
1.088
31
0.322
0
POINT
8
Source_points
62
5
10
0.607
20
0.790
30
0.178
0
TEXT
7
PNTNUM
50
0.000
8
Text
62
3
10
0.608
20
0.789
30
0.178
40
0.001
1
29
0
LINE
8
Normals
62
1
10
0.607
20
0.790
30
0.178
11
0.592
21
0.888
31
0.162
0
POINT
8
Source_points
62
5
10
0.679
20
0.884
30
0.063
0
TEXT
7
PNTNUM
50
0.000
8
Text
62
3
10
0.680
20
0.884
30
0.063
40
0.001
1
30
0
LINE
8
Normals
62
1
10
0.679
20
0.884
30
0.063
11
0.687
21
0.977
31
0.026
0
POINT
8
Source_points
62
5
10
0.668
20
0.586
30
0.032
0
TEXT
7
PNTNUM
50
0.000
8
Text
62
3
10
0.668
20
0.586
30
0.032
40
0.001
1
31
0
LINE
8
Normals
62
1
10
0.668
20
0.586
30
0.032
11
0.624
21
0.611
31
0.118
0
POINT
8
Source_points
62
5
10
0.781
20
0.755
30
0.050
0
TEXT
7
PNTNUM
50
0.000
8
Text
62
3
10
0.781
20
0.754
30
0.050
40
0.001
1
32
0
LINE
8
Normals
62
1
10
0.781
20
0.755
30
0.050
11
0.716
21
0.735
31
0.123
0
POINT
8
Source_points
62
5
10
0.602
20
0.688
30
0.123
0
TEXT
7
PNTNUM
50
0.000
8
Text
62
3
10
0.603
20
0.687
30
0.123
40
0.001
1
33
0
LINE
8
Normals
62
1
10
0.602
20
0.688
30
0.123
11
0.555
21
0.737
31
0.196
0
POINT
8
Source_points
62
5
10
0.916
20
0.736
30
0.147
0
TEXT
7
PNTNUM
50
0.000
8
Text
62
3
10
0.916
20
0.736
30
0.147
40
0.001
1
34
0
LINE
8
Normals
62
1
10
0.916
20
0.736
30
0.147
11
1.009
21
0.740
31
0.109
0
POINT
8
Source_points
62
5
10
0.672
20
0.671
30
0.484
0
TEXT
7
PNTNUM
50
0.000
8
Text
62
3
10
0.672
20
0.671
30
0.484
40
0.001
1
35
0
LINE
8
Normals
62
1
10
0.672
20
0.671
30
0.484
11
0.771
21
0.687
31
0.490
0
POINT
8
Source_points
62
5
10
0.766
20
0.949
30
0.082
0
TEXT
7
PNTNUM
50
0.000
8
Text
62
3
10
0.766
20
0.949
30
0.082
40
0.001
1
36
0
LINE
8
Normals
62
1
10
0.766
20
0.949
30
0.082
11
0.778
21
1.044
31
0.052
0
POINT
8
Source_points
62
5
10
0.870
20
0.930
30
0.348
0
TEXT
7
PNTNUM
50
0.000
8
Text
62
3
10
0.870
20
0.929
30
0.348
40
0.001
1
37
0
LINE
8
Normals
62
1
10
0.870
20
0.930
30
0.348
11
0.846
21
1.026
31
0.354
0
POINT
8
Source_points
62
5
10
0.287
20
0.671
30
0.142
0
TEXT
7
PNTNUM
50
0.000
8
Text
62
3
10
0.288
20
0.671
30
0.142
40
0.001
1
38
0
LINE
8
Normals
62
1
10
0.287
20
0.671
30
0.142
11
0.350
21
0.601
31
0.176
0
POINT
8
Source_points
62
5
10
0.068
20
0.520
30
0.209
0
TEXT
7
PNTNUM
50
0.000
8
Text
62
3
10
0.068
20
0.520
30
0.209
40
0.001
1
39
0
LINE
8
Normals
62
1
10
0.068
20
0.520
30
0.209
11
0.166
21
0.503
31
0.222
0
POINT
8
Source_points
62
5
10
0.462
20
0.683
30
0.043
0
TEXT
7
PNTNUM
50
0.000
8
Text
62
3
10
0.463
20
0.683
30
0.043
40
0.001
1
40
0
LINE
8
Normals
62
1
10
0.462
20
0.683
30
0.043
11
0.461
21
0.639
31
0.132
0
POINT
8
Source_points
62
5
10
0.341
20
0.769
30
0.270
0
TEXT
7
PNTNUM
50
0.000
8
Text
62
3
10
0.342
20
0.769
30
0.270
40
0.001
1
41
0
LINE
8
Normals
62
1
10
0.341
20
0.769
30
0.270
11
0.294
21
0.855
31
0.248
0
POINT
8
Source_points
62
5
10
0.459
20
0.534
30
0.134
0
TEXT
7
PNTNUM
50
0.000
8
Text
62
3
10
0.459
20
0.534
30
0.134
40
0.001
1
42
0
LINE
8
Normals
62
1
10
0.459
20
0.534
30
0.134
11
0.418
21
0.575
31
0.215
0
POINT
8
Source_points
62
5
10
0.154
20
0.628
30
0.083
0
TEXT
7
PNTNUM
50
0.000
8
Text
62
3
10
0.154
20
0.627
30
0.083
40
0.001
1
43
0
LINE
8
Normals
62
1
10
0.154
20
0.628
30
0.083
11
0.233
21
0.574
31
0.112
0
POINT
8
Source_points
62
5
10
0.241
20
0.861
30
0.017
0
TEXT
7
PNTNUM
50
0.000
8
Text
62
3
10
0.241
20
0.861
30
0.017
40
0.001
1
44
0
LINE
8
Normals
62
1
10
0.241
20
0.861
30
0.017
11
0.194
21
0.945
31
-0.012
0
POINT
8
Source_points
62
5
10
0.176
20
0.822
30
0.124
0
TEXT
7
PNTNUM
50
0.000
8
Text
62
3
10
0.176
20
0.821
30
0.124
40
0.001
1
45
0
LINE
8
Normals
62
1
10
0.176
20
0.822
30
0.124
11
0.117
21
0.898
31
0.096
0
POINT
8
Source_points
62
5
10
0.265
20
0.697
30
0.446
0
TEXT
7
PNTNUM
50
0.000
8
Text
62
3
10
0.265
20
0.696
30
0.446
40
0.001
1
46
0
LINE
8
Normals
62
1
10
0.265
20
0.697
30
0.446
11
0.348
21
0.643
31
0.433
0
POINT
8
Source_points
62
5
10
0.318
20
0.583
30
0.054
0
TEXT
7
PNTNUM
50
0.000
8
Text
62
3
10
0.319
20
0.582
30
0.054
40
0.001
1
47
0
LINE
8
Normals
62
1
10
0.318
20
0.583
30
0.054
11
0.329
21
0.591
31
0.153
0
POINT
8
Source_points
62
5
10
0.119
20
0.815
30
0.177
0
TEXT
7
PNTNUM
50
0.000
8
Text
62
3
10
0.120
20
0.815
30
0.177
40
0.001
1
48
0
LINE
8
Normals
62
1
10
0.119
20
0.815
30
0.177
11
0.060
21
0.891
31
0.149
0
POINT
8
Source_points
62
5
10
0.424
20
0.704
30
0.635
0
TEXT
7
PNTNUM
50
0.000
8
Text
62
3
10
0.425
20
0.704
30
0.635
40
0.001
1
49
0
LINE
8
Normals
62
1
10
0.424
20
0.704
30
0.635
11
0.519
21
0.723
31
0.610
0
POINT
8
Source_points
62
5
10
0.269
20
0.790
30
0.948
0
TEXT
7
PNTNUM
50
0.000
8
Text
62
3
10
0.270
20
0.790
30
0.948
40
0.001
1
50
0
LINE
8
Normals
62
1
10
0.269
20
0.790
30
0.948
11
0.231
21
0.828
31
1.032
0
POINT
8
Source_points
62
5
10
0.473
20
0.888
30
0.853
0
TEXT
7
PNTNUM
50
0.000
8
Text
62
3
10
0.474
20
0.887
30
0.853
40
0.001
1
51
0
LINE
8
Normals
62
1
10
0.473
20
0.888
30
0.853
11
0.495
21
0.946
31
0.932
0
POINT
8
Source_points
62
5
10
0.192
20
0.809
30
0.565
0
TEXT
7
PNTNUM
50
0.000
8
Text
62
3
10
0.192
20
0.808
30
0.565
40
0.001
1
52
0
LINE
8
Normals
62
1
10
0.192
20
0.809
30
0.565
11
0.267
21
0.746
31
0.545
0
POINT
8
Source_points
62
5
10
0.426
20
0.862
30
0.931
0
TEXT
7
PNTNUM
50
0.000
8
Text
62
3
10
0.426
20
0.861
30
0.931
40
0.001
1
53
0
LINE
8
Normals
62
1
10
0.426
20
0.862
30
0.931
11
0.432
21
0.903
31
1.022
0
POINT
8
Source_points
62
5
10
0.236
20
0.749
30
0.786
0
TEXT
7
PNTNUM
50
0.000
8
Text
62
3
10
0.237
20
0.748
30
0.786
40
0.001
1
54
0
LINE
8
Normals
62
1
10
0.236
20
0.749
30
0.786
11
0.320
21
0.723
31
0.736
0
POINT
8
Source_points
62
5
10
0.119
20
0.826
30
0.513
0
TEXT
7
PNTNUM
50
0.000
8
Text
62
3
10
0.120
20
0.825
30
0.513
40
0.001
1
55
0
LINE
8
Normals
62
1
10
0.119
20
0.826
30
0.513
11
0.198
21
0.764
31
0.504
0
POINT
8
Source_points
62
5
10
0.320
20
0.639
30
0.865
0
TEXT
7
PNTNUM
50
0.000
8
Text
62
3
10
0.320
20
0.639
30
0.865
40
0.001
1
56
0
LINE
8
Normals
62
1
10
0.320
20
0.639
30
0.865
11
0.255
21
0.649
31
0.941
0
POINT
8
Source_points
62
5
10
0.408
20
0.544
30
0.528
0
TEXT
7
PNTNUM
50
0.000
8
Text
62
3
10
0.408
20
0.543
30
0.528
40
0.001
1
57
0
LINE
8
Normals
62
1
10
0.408
20
0.544
30
0.528
11
0.462
21
0.599
31
0.464
0
POINT
8
Source_points
62
5
10
0.266
20
0.764
30
0.666
0
TEXT
7
PNTNUM
50
0.000
8
Text
62
3
10
0.267
20
0.763
30
0.666
40
0.001
1
58
0
LINE
8
Normals
62
1
10
0.266
20
0.764
30
0.666
11
0.345
21
0.714
31
0.628
0
POINT
8
Source_points
62
5
10
0.281
20
0.772
30
0.626
0
TEXT
7
PNTNUM
50
0.000
8
Text
62
3
10
0.282
20
0.771
30
0.626
40
0.001
1
59
0
LINE
8
Normals
62
1
10
0.281
20
0.772
30
0.626
11
0.358
21
0.713
31
0.601
0
POINT
8
Source_points
62
5
10
0.440
20
0.933
30
0.661
0
TEXT
7
PNTNUM
50
0.000
8
Text
62
3
10
0.441
20
0.932
30
0.661
40
0.001
1
60
0
LINE
8
Normals
62
1
10
0.440
20
0.933
30
0.661
11
0.433
21
1.029
31
0.686
0
POINT
8
Source_points
62
5
10
0.527
20
0.973
30
0.730
0
TEXT
7
PNTNUM
50
0.000
8
Text
62
3
10
0.528
20
0.972
30
0.730
40
0.001
1
61
0
LINE
8
Normals
62
1
10
0.527
20
0.973
30
0.730
11
0.553
21
1.058
31
0.776
0
POINT
8
Source_points
62
5
10
0.958
20
0.530
30
0.580
0
TEXT
7
PNTNUM
50
0.000
8
Text
62
3
10
0.958
20
0.530
30
0.580
40
0.001
1
62
0
LINE
8
Normals
62
1
10
0.958
20
0.530
30
0.580
11
1.057
21
0.540
31
0.582
0
POINT
8
Source_points
62
5
10
0.518
20
0.696
30
0.769
0
TEXT
7
PNTNUM
50
0.000
8
Text
62
3
10
0.519
20
0.696
30
0.769
40
0.001
1
63
0
LINE
8
Normals
62
1
10
0.518
20
0.696
30
0.769
11
0.518
21
0.708
31
0.868
0
POINT
8
Source_points
62
5
10
0.576
20
0.834
30
0.621
0
TEXT
7
PNTNUM
50
0.000
8
Text
62
3
10
0.577
20
0.833
30
0.621
40
0.001
1
64
0
LINE
8
Normals
62
1
10
0.576
20
0.834
30
0.621
11
0.602
21
0.925
31
0.653
0
POINT
8
Source_points
62
5
10
0.683
20
0.769
30
0.574
0
TEXT
7
PNTNUM
50
0.000
8
Text
62
3
10
0.684
20
0.768
30
0.574
40
0.001
1
65
0
LINE
8
Normals
62
1
10
0.683
20
0.769
30
0.574
11
0.746
21
0.838
31
0.609
0
POINT
8
Source_points
62
5
10
0.644
20
0.990
30
0.729
0
TEXT
7
PNTNUM
50
0.000
8
Text
62
3
10
0.645
20
0.989
30
0.729
40
0.001
1
66
0
LINE
8
Normals
62
1
10
0.644
20
0.990
30
0.729
11
0.675
21
1.076
31
0.770
0
POINT
8
Source_points
62
5
10
0.648
20
0.514
30
0.738
0
TEXT
7
PNTNUM
50
0.000
8
Text
62
3
10
0.648
20
0.514
30
0.738
40
0.001
1
67
0
LINE
8
Normals
62
1
10
0.648
20
0.514
30
0.738
11
0.696
21
0.515
31
0.825
0
POINT
8
Source_points
62
5
10
0.636
20
0.588
30
0.860
0
TEXT
7
PNTNUM
50
0.000
8
Text
62
3
10
0.636
20
0.588
30
0.860
40
0.001
1
68
0
LINE
8
Normals
62
1
10
0.636
20
0.588
30
0.860
11
0.653
21
0.599
31
0.958
0
POINT
8
Source_points
62
5
10
0.718
20
0.522
30
0.801
0
TEXT
7
PNTNUM
50
0.000
8
Text
62
3
10
0.719
20
0.522
30
0.801
40
0.001
1
69
0
LINE
8
Normals
62
1
10
0.718
20
0.522
30
0.801
11
0.768
21
0.545
31
0.885
0
POINT
8
Source_points
62
5
10
0.654
20
0.647
30
0.990
0
TEXT
7
PNTNUM
50
0.000
8
Text
62
3
10
0.655
20
0.647
30
0.990
40
0.001
1
70
0
LINE
8
Normals
62
1
10
0.654
20
0.647
30
0.990
11
0.682
21
0.673
31
1.083
0
POINT
8
Source_points
62
5
10
0.638
20
0.525
30
0.928
0
TEXT
7
PNTNUM
50
0.000
8
Text
62
3
10
0.638
20
0.525
30
0.928
40
0.001
1
71
0
LINE
8
Normals
62
1
10
0.638
20
0.525
30
0.928
11
0.671
21
0.546
31
1.021
0
POINT
8
Source_points
62
5
10
0.531
20
0.545
30
0.613
0
TEXT
7
PNTNUM
50
0.000
8
Text
62
3
10
0.531
20
0.544
30
0.613
40
0.001
1
72
0
LINE
8
Normals
62
1
10
0.531
20
0.545
30
0.613
11
0.472
21
0.488
31
0.670
0
POINT
8
Source_points
62
5
10
0.582
20
0.851
30
0.559
0
TEXT
7
PNTNUM
50
0.000
8
Text
62
3
10
0.583
20
0.850
30
0.559
40
0.001
1
73
0
LINE
8
Normals
62
1
10
0.582
20
0.851
30
0.559
11
0.600
21
0.947
31
0.581
0
POINT
8
Source_points
62
5
10
0.541
20
0.561
30
0.854
0
TEXT
7
PNTNUM
50
0.000
8
Text
62
3
10
0.541
20
0.560
30
0.854
40
0.001
1
74
0
LINE
8
Normals
62
1
10
0.541
20
0.561
30
0.854
11
0.574
21
0.577
31
0.947
0
POINT
8
Source_points
62
5
10
0.738
20
0.755
30
0.640
0
TEXT
7
PNTNUM
50
0.000
8
Text
62
3
10
0.739
20
0.755
30
0.640
40
0.001
1
75
0
LINE
8
Normals
62
1
10
0.738
20
0.755
30
0.640
11
0.807
21
0.814
31
0.683
0
POINT
8
Source_points
62
5
10
0.695
20
0.741
30
0.845
0
TEXT
7
PNTNUM
50
0.000
8
Text
62
3
10
0.696
20
0.741
30
0.845
40
0.001
1
76
0
LINE
8
Normals
62
1
10
0.695
20
0.741
30
0.845
11
0.739
21
0.786
31
0.923
0
POINT
8
Source_points
62
5
10
0.940
20
0.879
30
0.663
0
TEXT
7
PNTNUM
50
0.000
8
Text
62
3
10
0.940
20
0.879
30
0.663
40
0.001
1
77
0
LINE
8
Normals
62
1
10
0.940
20
0.879
30
0.663
11
1.022
21
0.923
31
0.700
0
POINT
8
Source_points
62
5
10
0.945
20
0.155
30
0.934
0
TEXT
7
PNTNUM
50
0.000
8
Text
62
3
10
0.946
20
0.154
30
0.934
40
0.001
1
78
0
LINE
8
Normals
62
1
10
0.945
20
0.155
30
0.934
11
1.001
21
0.143
31
1.017
0
POINT
8
Source_points
62
5
10
0.779
20
0.405
30
0.739
0
TEXT
7
PNTNUM
50
0.000
8
Text
62
3
10
0.779
20
0.404
30
0.739
40
0.001
1
79
0
LINE
8
Normals
62
1
10
0.779
20
0.405
30
0.739
11
0.874
21
0.425
31
0.763
0
POINT
8
Source_points
62
5
10
0.944
20
0.094
30
0.581
0
TEXT
7
PNTNUM
50
0.000
8
Text
62
3
10
0.944
20
0.093
30
0.581
40
0.001
1
80
0
LINE
8
Normals
62
1
10
0.944
20
0.094
30
0.581
11
1.040
21
0.075
31
0.562
0
POINT
8
Source_points
62
5
10
0.875
20
0.139
30
0.982
0
TEXT
7
PNTNUM
50
0.000
8
Text
62
3
10
0.876
20
0.138
30
0.982
40
0.001
1
81
0
LINE
8
Normals
62
1
10
0.875
20
0.139
30
0.982
11
0.928
21
0.125
31
1.066
0
POINT
8
Source_points
62
5
10
0.844
20
0.262
30
0.615
0
TEXT
7
PNTNUM
50
0.000
8
Text
62
3
10
0.845
20
0.262
30
0.615
40
0.001
1
82
0
LINE
8
Normals
62
1
10
0.844
20
0.262
30
0.615
11
0.938
21
0.241
31
0.586
0
POINT
8
Source_points
62
5
10
0.709
20
0.407
30
0.859
0
TEXT
7
PNTNUM
50
0.000
8
Text
62
3
10
0.710
20
0.406
30
0.859
40
0.001
1
83
0
LINE
8
Normals
62
1
10
0.709
20
0.407
30
0.859
11
0.752
21
0.416
31
0.949
0
POINT
8
Source_points
62
5
10
0.611
20
0.064
30
0.845
0
TEXT
7
PNTNUM
50
0.000
8
Text
62
3
10
0.611
20
0.063
30
0.845
40
0.001
1
84
0
LINE
8
Normals
62
1
10
0.611
20
0.064
30
0.845
11
0.610
21
0.155
31
0.804
0
POINT
8
Source_points
62
5
10
0.770
20
0.112
30
0.939
0
TEXT
7
PNTNUM
50
0.000
8
Text
62
3
10
0.771
20
0.111
30
0.939
40
0.001
1
85
0
LINE
8
Normals
62
1
10
0.770
20
0.112
30
0.939
11
0.789
21
0.071
31
1.029
0
POINT
8
Source_points
62
5
10
0.833
20
0.495
30
0.648
0
TEXT
7
PNTNUM
50
0.000
8
Text
62
3
10
0.833
20
0.495
30
0.648
40
0.001
1
86
0
LINE
8
Normals
62
1
10
0.833
20
0.495
30
0.648
11
0.932
21
0.506
31
0.657
0
POINT
8
Source_points
62
5
10
0.613
20
0.055
30
0.842
0
TEXT
7
PNTNUM
50
0.000
8
Text
62
3
10
0.614
20
0.054
30
0.842
40
0.001
1
87
0
LINE
8
Normals
62
1
10
0.613
20
0.055
30
0.842
11
0.612
21
0.146
31
0.801
0
POINT
8
Source_points
62
5
10
0.770
20
0.020
30
0.539
0
TEXT
7
PNTNUM
50
0.000
8
Text
62
3
10
0.771
20
0.019
30
0.539
40
0.001
1
88
0
LINE
8
Normals
62
1
10
0.770
20
0.020
30
0.539
11
0.728
21
0.109
31
0.555
0
POINT
8
Source_points
62
5
10
0.471
20
0.270
30
0.536
0
TEXT
7
PNTNUM
50
0.000
8
Text
62
3
10
0.472
20
0.270
30
0.536
40
0.001
1
89
0
LINE
8
Normals
62
1
10
0.471
20
0.270
30
0.536
11
0.452
21
0.368
31
0.533
0
POINT
8
Source_points
62
5
10
0.224
20
0.150
30
0.630
0
TEXT
7
PNTNUM
50
0.000
8
Text
62
3
10
0.225
20
0.149
30
0.630
40
0.001
1
90
0
LINE
8
Normals
62
1
10
0.224
20
0.150
30
0.630
11
0.292
21
0.205
31
0.582
0
POINT
8
Source_points
62
5
10
0.106
20
0.110
30
0.575
0
TEXT
7
PNTNUM
50
0.000
8
Text
62
3
10
0.106
20
0.109
30
0.575
40
0.001
1
91
0
LINE
8
Normals
62
1
10
0.106
20
0.110
30
0.575
11
0.188
21
0.158
31
0.546
0
POINT
8
Source_points
62
5
10
0.325
20
0.106
30
0.901
0
TEXT
7
PNTNUM
50
0.000
8
Text
62
3
10
0.326
20
0.105
30
0.901
40
0.001
1
92
0
LINE
8
Normals
62
1
10
0.325
20
0.106
30
0.901
11
0.285
21
0.057
31
0.978
0
POINT
8
Source_points
62
5
10
0.457
20
0.192
30
0.891
0
TEXT
7
PNTNUM
50
0.000
8
Text
62
3
10
0.458
20
0.192
30
0.891
40
0.001
1
93
0
LINE
8
Normals
62
1
10
0.457
20
0.192
30
0.891
11
0.417
21
0.143
31
0.968
0
POINT
8
Source_points
62
5
10
0.255
20
0.348
30
0.552
0
TEXT
7
PNTNUM
50
0.000
8
Text
62
3
10
0.255
20
0.347
30
0.552
40
0.001
1
94
0
LINE
8
Normals
62
1
10
0.255
20
0.348
30
0.552
11
0.346
21
0.349
31
0.510
0
POINT
8
Source_points
62
5
10
0.209
20
0.200
30
0.984
0
TEXT
7
PNTNUM
50
0.000
8
Text
62
3
10
0.209
20
0.199
30
0.984
40
0.001
1
95
0
LINE
8
Normals
62
1
10
0.209
20
0.200
30
0.984
11
0.149
21
0.168
31
1.058
0
POINT
8
Source_points
62
5
10
0.322
20
0.331
30
0.695
0
TEXT
7
PNTNUM
50
0.000
8
Text
62
3
10
0.323
20
0.330
30
0.695
40
0.001
1
96
0
LINE
8
Normals
62
1
10
0.322
20
0.331
30
0.695
11
0.258
21
0.300
31
0.766
0
POINT
8
Source_points
62
5
10
0.153
20
0.391
30
0.874
0
TEXT
7
PNTNUM
50
0.000
8
Text
62
3
10
0.153
20
0.391
30
0.874
40
0.001
1
97
0
LINE
8
Normals
62
1
10
0.153
20
0.391
30
0.874
11
0.228
21
0.404
31
0.810
0
POINT
8
Source_points
62
5
10
0.289
20
0.393
30
0.863
0
TEXT
7
PNTNUM
50
0.000
8
Text
62
3
10
0.290
20
0.393
30
0.863
40
0.001
1
98
0
LINE
8
Normals
62
1
10
0.289
20
0.393
30
0.863
11
0.227
21
0.383
31
0.941
0
POINT
8
Source_points
62
5
10
0.423
20
0.448
30
0.586
0
TEXT
7
PNTNUM
50
0.000
8
Text
62
3
10
0.424
20
0.448
30
0.586
40
0.001
1
99
0
LINE
8
Normals
62
1
10
0.423
20
0.448
30
0.586
11
0.514
21
0.407
31
0.575
0
POINT
8
Facilities
62
3
10
0.256
20
0.148
30
0.025
0
POINT
8
Facilities
62
3
10
0.662
20
0.090
30
0.031
0
POINT
8
Facilities
62
3
10
0.547
20
0.167
30
0.052
0
POINT
8
Facilities
62
3
10
0.917
20
0.216
30
0.206
0
POINT
8
Facilities
62
3
10
0.069
20
0.479
30
0.001
0
POINT
8
Facilities
62
3
10
0.001
20
0.395
30
0.189
0
POINT
8
Clients
62
5
10
0.007
20
0.442
30
0.193
0
LINE
8
Facilities_lines
62
3
10
0.001
20
0.395
30
0.189
11
0.007
21
0.442
31
0.193
0
LINE
8
Min_max_boxes
62
1
10
0.001
20
0.395
30
0.189
11
0.007
21
0.395
31
0.189
0
LINE
8
Min_max_boxes
62
1
10
0.007
20
0.395
30
0.189
11
0.007
21
0.442
31
0.189
0
LINE
8
Min_max_boxes
62
1
10
0.007
20
0.442
30
0.189
11
0.001
21
0.442
31
0.189
0
LINE
8
Min_max_boxes
62
1
10
0.001
20
0.442
30
0.189
11
0.001
21
0.395
31
0.189
0
LINE
8
Min_max_boxes
62
1
10
0.001
20
0.395
30
0.193
11
0.007
21
0.395
31
0.193
0
LINE
8
Min_max_boxes
62
1
10
0.007
20
0.395
30
0.193
11
0.007
21
0.442
31
0.193
0
LINE
8
Min_max_boxes
62
1
10
0.007
20
0.442
30
0.193
11
0.001
21
0.442
31
0.193
0
LINE
8
Min_max_boxes
62
1
10
0.001
20
0.442
30
0.193
11
0.001
21
0.395
31
0.193
0
LINE
8
Min_max_boxes
62
1
10
0.001
20
0.395
30
0.189
11
0.001
21
0.395
31
0.193
0
LINE
8
Min_max_boxes
62
1
10
0.007
20
0.395
30
0.189
11
0.007
21
0.395
31
0.193
0
LINE
8
Min_max_boxes
62
1
10
0.007
20
0.442
30
0.189
11
0.007
21
0.442
31
0.193
0
LINE
8
Min_max_boxes
62
1
10
0.001
20
0.442
30
0.189
11
0.001
21
0.442
31
0.193
0
POINT
8
Facilities
62
3
10
0.091
20
0.439
30
0.166
0
POINT
8
Facilities
62
3
10
0.189
20
0.328
30
0.106
0
POINT
8
Facilities
62
3
10
0.091
20
0.366
30
0.247
0
POINT
8
Facilities
62
3
10
0.387
20
0.359
30
0.205
0
POINT
8
Facilities
62
3
10
0.607
20
0.397
30
0.208
0
POINT
8
Facilities
62
3
10
0.676
20
0.485
30
0.121
0
POINT
8
Facilities
62
3
10
0.068
20
0.520
30
0.209
0
POINT
8
Facilities
62
3
10
0.154
20
0.628
30
0.083
0
POINT
8
Facilities
62
3
10
0.287
20
0.671
30
0.142
0
POINT
8
Facilities
62
3
10
0.462
20
0.683
30
0.043
0
POINT
8
Facilities
62
3
10
0.459
20
0.534
30
0.134
0
POINT
8
Facilities
62
3
10
0.318
20
0.583
30
0.054
0
POINT
8
Facilities
62
3
10
0.668
20
0.586
30
0.032
0
POINT
8
Facilities
62
3
10
0.602
20
0.688
30
0.123
0
POINT
8
Facilities
62
3
10
0.781
20
0.755
30
0.050
0
POINT
8
Facilities
62
3
10
0.916
20
0.736
30
0.147
0
POINT
8
Facilities
62
3
10
0.241
20
0.861
30
0.017
0
POINT
8
Facilities
62
3
10
0.176
20
0.822
30
0.124
0
POINT
8
Facilities
62
3
10
0.119
20
0.815
30
0.177
0
POINT
8
Facilities
62
3
10
0.607
20
0.790
30
0.178
0
POINT
8
Facilities
62
3
10
0.679
20
0.884
30
0.063
0
POINT
8
Facilities
62
3
10
0.969
20
0.994
30
0.228
0
POINT
8
Facilities
62
3
10
0.766
20
0.949
30
0.082
0
POINT
8
Facilities
62
3
10
0.036
20
0.197
30
0.445
0
POINT
8
Facilities
62
3
10
0.344
20
0.044
30
0.362
0
POINT
8
Facilities
62
3
10
0.350
20
0.136
30
0.301
0
POINT
8
Facilities
62
3
10
0.531
20
0.219
30
0.498
0
POINT
8
Facilities
62
3
10
0.675
20
0.243
30
0.490
0
POINT
8
Facilities
62
3
10
0.842
20
0.190
30
0.467
0
POINT
8
Facilities
62
3
10
0.243
20
0.377
30
0.417
0
POINT
8
Facilities
62
3
10
0.461
20
0.442
30
0.282
0
POINT
8
Facilities
62
3
10
0.416
20
0.495
30
0.333
0
POINT
8
Facilities
62
3
10
0.450
20
0.319
30
0.399
0
POINT
8
Facilities
62
3
10
0.722
20
0.430
30
0.490
0
POINT
8
Clients
62
5
10
0.785
20
0.424
30
0.499
0
LINE
8
Facilities_lines
62
3
10
0.722
20
0.430
30
0.490
11
0.785
21
0.424
31
0.499
0
LINE
8
Min_max_boxes
62
1
10
0.722
20
0.424
30
0.490
11
0.785
21
0.424
31
0.490
0
LINE
8
Min_max_boxes
62
1
10
0.785
20
0.424
30
0.490
11
0.785
21
0.430
31
0.490
0
LINE
8
Min_max_boxes
62
1
10
0.785
20
0.430
30
0.490
11
0.722
21
0.430
31
0.490
0
LINE
8
Min_max_boxes
62
1
10
0.722
20
0.430
30
0.490
11
0.722
21
0.424
31
0.490
0
LINE
8
Min_max_boxes
62
1
10
0.722
20
0.424
30
0.499
11
0.785
21
0.424
31
0.499
0
LINE
8
Min_max_boxes
62
1
10
0.785
20
0.424
30
0.499
11
0.785
21
0.430
31
0.499
0
LINE
8
Min_max_boxes
62
1
10
0.785
20
0.430
30
0.499
11
0.722
21
0.430
31
0.499
0
LINE
8
Min_max_boxes
62
1
10
0.722
20
0.430
30
0.499
11
0.722
21
0.424
31
0.499
0
LINE
8
Min_max_boxes
62
1
10
0.722
20
0.424
30
0.490
11
0.722
21
0.424
31
0.499
0
LINE
8
Min_max_boxes
62
1
10
0.785
20
0.424
30
0.490
11
0.785
21
0.424
31
0.499
0
LINE
8
Min_max_boxes
62
1
10
0.785
20
0.430
30
0.490
11
0.785
21
0.430
31
0.499
0
LINE
8
Min_max_boxes
62
1
10
0.722
20
0.430
30
0.490
11
0.722
21
0.430
31
0.499
0
POINT
8
Facilities
62
3
10
0.265
20
0.697
30
0.446
0
POINT
8
Facilities
62
3
10
0.662
20
0.679
30
0.296
0
POINT
8
Facilities
62
3
10
0.672
20
0.671
30
0.484
0
POINT
8
Facilities
62
3
10
0.820
20
0.721
30
0.480
0
POINT
8
Facilities
62
3
10
0.341
20
0.769
30
0.270
0
POINT
8
Facilities
62
3
10
0.646
20
0.989
30
0.331
0
POINT
8
Facilities
62
3
10
0.870
20
0.930
30
0.348
0
POINT
8
Facilities
62
3
10
0.224
20
0.150
30
0.630
0
POINT
8
Facilities
62
3
10
0.106
20
0.110
30
0.575
0
POINT
8
Facilities
62
3
10
0.944
20
0.094
30
0.581
0
POINT
8
Facilities
62
3
10
0.844
20
0.262
30
0.615
0
POINT
8
Facilities
62
3
10
0.770
20
0.020
30
0.539
0
POINT
8
Facilities
62
3
10
0.471
20
0.270
30
0.536
0
POINT
8
Facilities
62
3
10
0.255
20
0.348
30
0.552
0
POINT
8
Facilities
62
3
10
0.322
20
0.331
30
0.695
0
POINT
8
Facilities
62
3
10
0.423
20
0.448
30
0.586
0
POINT
8
Facilities
62
3
10
0.779
20
0.405
30
0.739
0
POINT
8
Facilities
62
3
10
0.833
20
0.495
30
0.648
0
POINT
8
Facilities
62
3
10
0.424
20
0.704
30
0.635
0
POINT
8
Facilities
62
3
10
0.408
20
0.544
30
0.528
0
POINT
8
Facilities
62
3
10
0.648
20
0.514
30
0.738
0
POINT
8
Facilities
62
3
10
0.531
20
0.545
30
0.613
0
POINT
8
Facilities
62
3
10
0.958
20
0.530
30
0.580
0
POINT
8
Facilities
62
3
10
0.738
20
0.755
30
0.640
0
POINT
8
Facilities
62
3
10
0.192
20
0.809
30
0.565
0
POINT
8
Facilities
62
3
10
0.119
20
0.826
30
0.513
0
POINT
8
Facilities
62
3
10
0.281
20
0.772
30
0.626
0
POINT
8
Clients
62
5
10
0.266
20
0.764
30
0.666
0
LINE
8
Facilities_lines
62
3
10
0.281
20
0.772
30
0.626
11
0.266
21
0.764
31
0.666
0
LINE
8
Min_max_boxes
62
1
10
0.266
20
0.764
30
0.626
11
0.281
21
0.764
31
0.626
0
LINE
8
Min_max_boxes
62
1
10
0.281
20
0.764
30
0.626
11
0.281
21
0.772
31
0.626
0
LINE
8
Min_max_boxes
62
1
10
0.281
20
0.772
30
0.626
11
0.266
21
0.772
31
0.626
0
LINE
8
Min_max_boxes
62
1
10
0.266
20
0.772
30
0.626
11
0.266
21
0.764
31
0.626
0
LINE
8
Min_max_boxes
62
1
10
0.266
20
0.764
30
0.666
11
0.281
21
0.764
31
0.666
0
LINE
8
Min_max_boxes
62
1
10
0.281
20
0.764
30
0.666
11
0.281
21
0.772
31
0.666
0
LINE
8
Min_max_boxes
62
1
10
0.281
20
0.772
30
0.666
11
0.266
21
0.772
31
0.666
0
LINE
8
Min_max_boxes
62
1
10
0.266
20
0.772
30
0.666
11
0.266
21
0.764
31
0.666
0
LINE
8
Min_max_boxes
62
1
10
0.266
20
0.764
30
0.626
11
0.266
21
0.764
31
0.666
0
LINE
8
Min_max_boxes
62
1
10
0.281
20
0.764
30
0.626
11
0.281
21
0.764
31
0.666
0
LINE
8
Min_max_boxes
62
1
10
0.281
20
0.772
30
0.626
11
0.281
21
0.772
31
0.666
0
LINE
8
Min_max_boxes
62
1
10
0.266
20
0.772
30
0.626
11
0.266
21
0.772
31
0.666
0
POINT
8
Facilities
62
3
10
0.440
20
0.933
30
0.661
0
POINT
8
Facilities
62
3
10
0.527
20
0.973
30
0.730
0
POINT
8
Facilities
62
3
10
0.576
20
0.834
30
0.621
0
POINT
8
Clients
62
5
10
0.582
20
0.851
30
0.559
0
LINE
8
Facilities_lines
62
3
10
0.576
20
0.834
30
0.621
11
0.582
21
0.851
31
0.559
0
LINE
8
Min_max_boxes
62
1
10
0.576
20
0.834
30
0.559
11
0.582
21
0.834
31
0.559
0
LINE
8
Min_max_boxes
62
1
10
0.582
20
0.834
30
0.559
11
0.582
21
0.851
31
0.559
0
LINE
8
Min_max_boxes
62
1
10
0.582
20
0.851
30
0.559
11
0.576
21
0.851
31
0.559
0
LINE
8
Min_max_boxes
62
1
10
0.576
20
0.851
30
0.559
11
0.576
21
0.834
31
0.559
0
LINE
8
Min_max_boxes
62
1
10
0.576
20
0.834
30
0.621
11
0.582
21
0.834
31
0.621
0
LINE
8
Min_max_boxes
62
1
10
0.582
20
0.834
30
0.621
11
0.582
21
0.851
31
0.621
0
LINE
8
Min_max_boxes
62
1
10
0.582
20
0.851
30
0.621
11
0.576
21
0.851
31
0.621
0
LINE
8
Min_max_boxes
62
1
10
0.576
20
0.851
30
0.621
11
0.576
21
0.834
31
0.621
0
LINE
8
Min_max_boxes
62
1
10
0.576
20
0.834
30
0.559
11
0.576
21
0.834
31
0.621
0
LINE
8
Min_max_boxes
62
1
10
0.582
20
0.834
30
0.559
11
0.582
21
0.834
31
0.621
0
LINE
8
Min_max_boxes
62
1
10
0.582
20
0.851
30
0.559
11
0.582
21
0.851
31
0.621
0
LINE
8
Min_max_boxes
62
1
10
0.576
20
0.851
30
0.559
11
0.576
21
0.851
31
0.621
0
POINT
8
Facilities
62
3
10
0.683
20
0.769
30
0.574
0
POINT
8
Facilities
62
3
10
0.644
20
0.990
30
0.729
0
POINT
8
Facilities
62
3
10
0.940
20
0.879
30
0.663
0
POINT
8
Facilities
62
3
10
0.209
20
0.200
30
0.984
0
POINT
8
Facilities
62
3
10
0.325
20
0.106
30
0.901
0
POINT
8
Facilities
62
3
10
0.457
20
0.192
30
0.891
0
POINT
8
Facilities
62
3
10
0.613
20
0.055
30
0.842
0
POINT
8
Clients
62
5
10
0.611
20
0.064
30
0.845
0
LINE
8
Facilities_lines
62
3
10
0.613
20
0.055
30
0.842
11
0.611
21
0.064
31
0.845
0
LINE
8
Min_max_boxes
62
1
10
0.611
20
0.055
30
0.842
11
0.613
21
0.055
31
0.842
0
LINE
8
Min_max_boxes
62
1
10
0.613
20
0.055
30
0.842
11
0.613
21
0.064
31
0.842
0
LINE
8
Min_max_boxes
62
1
10
0.613
20
0.064
30
0.842
11
0.611
21
0.064
31
0.842
0
LINE
8
Min_max_boxes
62
1
10
0.611
20
0.064
30
0.842
11
0.611
21
0.055
31
0.842
0
LINE
8
Min_max_boxes
62
1
10
0.611
20
0.055
30
0.845
11
0.613
21
0.055
31
0.845
0
LINE
8
Min_max_boxes
62
1
10
0.613
20
0.055
30
0.845
11
0.613
21
0.064
31
0.845
0
LINE
8
Min_max_boxes
62
1
10
0.613
20
0.064
30
0.845
11
0.611
21
0.064
31
0.845
0
LINE
8
Min_max_boxes
62
1
10
0.611
20
0.064
30
0.845
11
0.611
21
0.055
31
0.845
0
LINE
8
Min_max_boxes
62
1
10
0.611
20
0.055
30
0.842
11
0.611
21
0.055
31
0.845
0
LINE
8
Min_max_boxes
62
1
10
0.613
20
0.055
30
0.842
11
0.613
21
0.055
31
0.845
0
LINE
8
Min_max_boxes
62
1
10
0.613
20
0.064
30
0.842
11
0.613
21
0.064
31
0.845
0
LINE
8
Min_max_boxes
62
1
10
0.611
20
0.064
30
0.842
11
0.611
21
0.064
31
0.845
0
POINT
8
Facilities
62
3
10
0.945
20
0.155
30
0.934
0
POINT
8
Facilities
62
3
10
0.875
20
0.139
30
0.982
0
POINT
8
Facilities
62
3
10
0.770
20
0.112
30
0.939
0
POINT
8
Facilities
62
3
10
0.153
20
0.391
30
0.874
0
POINT
8
Facilities
62
3
10
0.289
20
0.393
30
0.863
0
POINT
8
Facilities
62
3
10
0.709
20
0.407
30
0.859
0
POINT
8
Facilities
62
3
10
0.236
20
0.749
30
0.786
0
POINT
8
Facilities
62
3
10
0.320
20
0.639
30
0.865
0
POINT
8
Facilities
62
3
10
0.518
20
0.696
30
0.769
0
POINT
8
Facilities
62
3
10
0.636
20
0.588
30
0.860
0
POINT
8
Facilities
62
3
10
0.718
20
0.522
30
0.801
0
POINT
8
Facilities
62
3
10
0.654
20
0.647
30
0.990
0
POINT
8
Facilities
62
3
10
0.638
20
0.525
30
0.928
0
POINT
8
Facilities
62
3
10
0.541
20
0.561
30
0.854
0
POINT
8
Facilities
62
3
10
0.695
20
0.741
30
0.845
0
POINT
8
Facilities
62
3
10
0.269
20
0.790
30
0.948
0
POINT
8
Facilities
62
3
10
0.473
20
0.888
30
0.853
0
POINT
8
Facilities
62
3
10
0.426
20
0.862
30
0.931
0
ENDSEC
0
EOF
