0
SECTION
2
HEADER
9
$ACADVER
1
AC1006
0
ENDSEC
0
SECTION
2
TABLES
0
TABLE
2
LAYER
70
0
0
LAYER
2
Source_points
70
0
62
5
6
CONTINUOUS
0
LAYER
2
Facilities
70
0
62
3
6
CONTINUOUS
0
LAYER
2
Facilities_lines
70
0
62
3
6
CONTINUOUS
0
LAYER
2
Clients
70
0
62
3
6
CONTINUOUS
0
LAYER
2
Normals
70
0
62
1
6
CONTINUOUS
0
LAYER
2
Text
70
0
62
3
6
CONTINUOUS
0
LAYER
2
Min_max_boxes
70
0
62
1
6
CONTINUOUS
0
ENDTAB
0
ENDSEC
0
SECTION
2
ENTITIES
0
POINT
8
Source_points
62
5
10
0.402
20
0.189
30
0.000
0
TEXT
7
PNTNUM
50
0.000
8
Text
62
3
10
0.403
20
0.189
30
0.000
40
0.001
1
0
0
LINE
8
Normals
62
1
10
0.402
20
0.189
30
0.000
11
0.402
21
0.189
31
0.100
0
POINT
8
Source_points
62
5
10
0.621
20
0.667
30
0.000
0
TEXT
7
PNTNUM
50
0.000
8
Text
62
3
10
0.621
20
0.667
30
0.000
40
0.001
1
1
0
LINE
8
Normals
62
1
10
0.621
20
0.667
30
0.000
11
0.621
21
0.667
31
0.100
0
POINT
8
Source_points
62
5
10
0.154
20
0.586
30
0.000
0
TEXT
7
PNTNUM
50
0.000
8
Text
62
3
10
0.155
20
0.586
30
0.000
40
0.001
1
2
0
LINE
8
Normals
62
1
10
0.154
20
0.586
30
0.000
11
0.154
21
0.586
31
0.100
0
POINT
8
Source_points
62
5
10
0.381
20
0.675
30
0.000
0
TEXT
7
PNTNUM
50
0.000
8
Text
62
3
10
0.382
20
0.675
30
0.000
40
0.001
1
3
0
LINE
8
Normals
62
1
10
0.381
20
0.675
30
0.000
11
0.381
21
0.675
31
0.100
0
POINT
8
Source_points
62
5
10
0.161
20
0.361
30
0.000
0
TEXT
7
PNTNUM
50
0.000
8
Text
62
3
10
0.162
20
0.361
30
0.000
40
0.001
1
4
0
LINE
8
Normals
62
1
10
0.161
20
0.361
30
0.000
11
0.161
21
0.361
31
0.100
0
POINT
8
Source_points
62
5
10
0.758
20
0.620
30
0.000
0
TEXT
7
PNTNUM
50
0.000
8
Text
62
3
10
0.759
20
0.620
30
0.000
40
0.001
1
5
0
LINE
8
Normals
62
1
10
0.758
20
0.620
30
0.000
11
0.758
21
0.620
31
0.100
0
POINT
8
Source_points
62
5
10
0.871
20
0.811
30
0.000
0
TEXT
7
PNTNUM
50
0.000
8
Text
62
3
10
0.872
20
0.811
30
0.000
40
0.001
1
6
0
LINE
8
Normals
62
1
10
0.871
20
0.811
30
0.000
11
0.871
21
0.811
31
0.100
0
POINT
8
Source_points
62
5
10
0.351
20
0.019
30
0.000
0
TEXT
7
PNTNUM
50
0.000
8
Text
62
3
10
0.351
20
0.019
30
0.000
40
0.001
1
7
0
LINE
8
Normals
62
1
10
0.351
20
0.019
30
0.000
11
0.351
21
0.019
31
0.100
0
POINT
8
Source_points
62
5
10
0.686
20
0.084
30
0.000
0
TEXT
7
PNTNUM
50
0.000
8
Text
62
3
10
0.686
20
0.083
30
0.000
40
0.001
1
8
0
LINE
8
Normals
62
1
10
0.686
20
0.084
30
0.000
11
0.686
21
0.084
31
0.100
0
POINT
8
Source_points
62
5
10
0.294
20
0.975
30
0.000
0
TEXT
7
PNTNUM
50
0.000
8
Text
62
3
10
0.295
20
0.974
30
0.000
40
0.001
1
9
0
LINE
8
Normals
62
1
10
0.294
20
0.975
30
0.000
11
0.294
21
0.975
31
0.100
0
POINT
8
Source_points
62
5
10
0.531
20
0.651
30
0.000
0
TEXT
7
PNTNUM
50
0.000
8
Text
62
3
10
0.531
20
0.651
30
0.000
40
0.001
1
10
0
LINE
8
Normals
62
1
10
0.531
20
0.651
30
0.000
11
0.531
21
0.651
31
0.100
0
POINT
8
Source_points
62
5
10
0.832
20
0.231
30
0.000
0
TEXT
7
PNTNUM
50
0.000
8
Text
62
3
10
0.833
20
0.231
30
0.000
40
0.001
1
11
0
LINE
8
Normals
62
1
10
0.832
20
0.231
30
0.000
11
0.832
21
0.231
31
0.100
0
POINT
8
Source_points
62
5
10
0.597
20
0.403
30
0.000
0
TEXT
7
PNTNUM
50
0.000
8
Text
62
3
10
0.598
20
0.403
30
0.000
40
0.001
1
12
0
LINE
8
Normals
62
1
10
0.597
20
0.403
30
0.000
11
0.597
21
0.403
31
0.100
0
POINT
8
Source_points
62
5
10
0.335
20
0.122
30
0.000
0
TEXT
7
PNTNUM
50
0.000
8
Text
62
3
10
0.336
20
0.122
30
0.000
40
0.001
1
13
0
LINE
8
Normals
62
1
10
0.335
20
0.122
30
0.000
11
0.335
21
0.122
31
0.100
0
POINT
8
Source_points
62
5
10
0.299
20
0.268
30
0.000
0
TEXT
7
PNTNUM
50
0.000
8
Text
62
3
10
0.300
20
0.268
30
0.000
40
0.001
1
14
0
LINE
8
Normals
62
1
10
0.299
20
0.268
30
0.000
11
0.299
21
0.268
31
0.100
0
POINT
8
Source_points
62
5
10
0.453
20
0.258
30
0.000
0
TEXT
7
PNTNUM
50
0.000
8
Text
62
3
10
0.453
20
0.257
30
0.000
40
0.001
1
15
0
LINE
8
Normals
62
1
10
0.453
20
0.258
30
0.000
11
0.453
21
0.258
31
0.100
0
POINT
8
Source_points
62
5
10
0.423
20
0.332
30
0.000
0
TEXT
7
PNTNUM
50
0.000
8
Text
62
3
10
0.423
20
0.331
30
0.000
40
0.001
1
16
0
LINE
8
Normals
62
1
10
0.423
20
0.332
30
0.000
11
0.423
21
0.332
31
0.100
0
POINT
8
Source_points
62
5
10
0.360
20
0.152
30
0.000
0
TEXT
7
PNTNUM
50
0.000
8
Text
62
3
10
0.360
20
0.152
30
0.000
40
0.001
1
17
0
LINE
8
Normals
62
1
10
0.360
20
0.152
30
0.000
11
0.360
21
0.152
31
0.100
0
POINT
8
Source_points
62
5
10
0.558
20
0.348
30
0.000
0
TEXT
7
PNTNUM
50
0.000
8
Text
62
3
10
0.559
20
0.348
30
0.000
40
0.001
1
18
0
LINE
8
Normals
62
1
10
0.558
20
0.348
30
0.000
11
0.558
21
0.348
31
0.100
0
POINT
8
Source_points
62
5
10
0.743
20
0.122
30
0.000
0
TEXT
7
PNTNUM
50
0.000
8
Text
62
3
10
0.743
20
0.121
30
0.000
40
0.001
1
19
0
LINE
8
Normals
62
1
10
0.743
20
0.122
30
0.000
11
0.743
21
0.122
31
0.100
0
POINT
8
Source_points
62
5
10
0.424
20
0.884
30
0.000
0
TEXT
7
PNTNUM
50
0.000
8
Text
62
3
10
0.425
20
0.884
30
0.000
40
0.001
1
20
0
LINE
8
Normals
62
1
10
0.424
20
0.884
30
0.000
11
0.424
21
0.884
31
0.100
0
POINT
8
Source_points
62
5
10
0.429
20
0.094
30
0.000
0
TEXT
7
PNTNUM
50
0.000
8
Text
62
3
10
0.430
20
0.094
30
0.000
40
0.001
1
21
0
LINE
8
Normals
62
1
10
0.429
20
0.094
30
0.000
11
0.429
21
0.094
31
0.100
0
POINT
8
Source_points
62
5
10
0.125
20
0.930
30
0.000
0
TEXT
7
PNTNUM
50
0.000
8
Text
62
3
10
0.125
20
0.930
30
0.000
40
0.001
1
22
0
LINE
8
Normals
62
1
10
0.125
20
0.930
30
0.000
11
0.125
21
0.930
31
0.100
0
POINT
8
Source_points
62
5
10
0.024
20
0.399
30
0.000
0
TEXT
7
PNTNUM
50
0.000
8
Text
62
3
10
0.025
20
0.399
30
0.000
40
0.001
1
23
0
LINE
8
Normals
62
1
10
0.024
20
0.399
30
0.000
11
0.024
21
0.399
31
0.100
0
POINT
8
Source_points
62
5
10
0.290
20
0.047
30
0.000
0
TEXT
7
PNTNUM
50
0.000
8
Text
62
3
10
0.291
20
0.047
30
0.000
40
0.001
1
24
0
LINE
8
Normals
62
1
10
0.290
20
0.047
30
0.000
11
0.290
21
0.047
31
0.100
0
POINT
8
Source_points
62
5
10
0.318
20
0.342
30
0.000
0
TEXT
7
PNTNUM
50
0.000
8
Text
62
3
10
0.318
20
0.342
30
0.000
40
0.001
1
25
0
LINE
8
Normals
62
1
10
0.318
20
0.342
30
0.000
11
0.318
21
0.342
31
0.100
0
POINT
8
Source_points
62
5
10
0.654
20
0.736
30
0.000
0
TEXT
7
PNTNUM
50
0.000
8
Text
62
3
10
0.654
20
0.735
30
0.000
40
0.001
1
26
0
LINE
8
Normals
62
1
10
0.654
20
0.736
30
0.000
11
0.654
21
0.736
31
0.100
0
POINT
8
Source_points
62
5
10
0.957
20
0.795
30
0.000
0
TEXT
7
PNTNUM
50
0.000
8
Text
62
3
10
0.957
20
0.794
30
0.000
40
0.001
1
27
0
LINE
8
Normals
62
1
10
0.957
20
0.795
30
0.000
11
0.957
21
0.795
31
0.100
0
POINT
8
Source_points
62
5
10
0.936
20
0.545
30
0.000
0
TEXT
7
PNTNUM
50
0.000
8
Text
62
3
10
0.936
20
0.544
30
0.000
40
0.001
1
28
0
LINE
8
Normals
62
1
10
0.936
20
0.545
30
0.000
11
0.936
21
0.545
31
0.100
0
POINT
8
Source_points
62
5
10
0.458
20
0.686
30
0.000
0
TEXT
7
PNTNUM
50
0.000
8
Text
62
3
10
0.458
20
0.686
30
0.000
40
0.001
1
29
0
LINE
8
Normals
62
1
10
0.458
20
0.686
30
0.000
11
0.458
21
0.686
31
0.100
0
POINT
8
Source_points
62
5
10
0.240
20
0.894
30
0.000
0
TEXT
7
PNTNUM
50
0.000
8
Text
62
3
10
0.241
20
0.893
30
0.000
40
0.001
1
30
0
LINE
8
Normals
62
1
10
0.240
20
0.894
30
0.000
11
0.240
21
0.894
31
0.100
0
POINT
8
Source_points
62
5
10
0.764
20
0.055
30
0.000
0
TEXT
7
PNTNUM
50
0.000
8
Text
62
3
10
0.764
20
0.054
30
0.000
40
0.001
1
31
0
LINE
8
Normals
62
1
10
0.764
20
0.055
30
0.000
11
0.764
21
0.055
31
0.100
0
POINT
8
Source_points
62
5
10
0.759
20
0.304
30
0.000
0
TEXT
7
PNTNUM
50
0.000
8
Text
62
3
10
0.760
20
0.303
30
0.000
40
0.001
1
32
0
LINE
8
Normals
62
1
10
0.759
20
0.304
30
0.000
11
0.759
21
0.304
31
0.100
0
POINT
8
Source_points
62
5
10
0.741
20
0.046
30
0.000
0
TEXT
7
PNTNUM
50
0.000
8
Text
62
3
10
0.741
20
0.046
30
0.000
40
0.001
1
33
0
LINE
8
Normals
62
1
10
0.741
20
0.046
30
0.000
11
0.741
21
0.046
31
0.100
0
POINT
8
Source_points
62
5
10
0.744
20
0.195
30
0.000
0
TEXT
7
PNTNUM
50
0.000
8
Text
62
3
10
0.744
20
0.195
30
0.000
40
0.001
1
34
0
LINE
8
Normals
62
1
10
0.744
20
0.195
30
0.000
11
0.744
21
0.195
31
0.100
0
POINT
8
Source_points
62
5
10
0.106
20
0.720
30
0.000
0
TEXT
7
PNTNUM
50
0.000
8
Text
62
3
10
0.106
20
0.720
30
0.000
40
0.001
1
35
0
LINE
8
Normals
62
1
10
0.106
20
0.720
30
0.000
11
0.106
21
0.720
31
0.100
0
POINT
8
Source_points
62
5
10
0.682
20
0.722
30
0.000
0
TEXT
7
PNTNUM
50
0.000
8
Text
62
3
10
0.682
20
0.721
30
0.000
40
0.001
1
36
0
LINE
8
Normals
62
1
10
0.682
20
0.722
30
0.000
11
0.682
21
0.722
31
0.100
0
POINT
8
Source_points
62
5
10
0.463
20
0.878
30
0.000
0
TEXT
7
PNTNUM
50
0.000
8
Text
62
3
10
0.464
20
0.877
30
0.000
40
0.001
1
37
0
LINE
8
Normals
62
1
10
0.463
20
0.878
30
0.000
11
0.463
21
0.878
31
0.100
0
POINT
8
Source_points
62
5
10
0.212
20
0.582
30
0.000
0
TEXT
7
PNTNUM
50
0.000
8
Text
62
3
10
0.213
20
0.582
30
0.000
40
0.001
1
38
0
LINE
8
Normals
62
1
10
0.212
20
0.582
30
0.000
11
0.212
21
0.582
31
0.100
0
POINT
8
Source_points
62
5
10
0.099
20
0.071
30
0.000
0
TEXT
7
PNTNUM
50
0.000
8
Text
62
3
10
0.099
20
0.070
30
0.000
40
0.001
1
39
0
LINE
8
Normals
62
1
10
0.099
20
0.071
30
0.000
11
0.099
21
0.071
31
0.100
0
POINT
8
Source_points
62
5
10
0.824
20
0.923
30
0.000
0
TEXT
7
PNTNUM
50
0.000
8
Text
62
3
10
0.824
20
0.922
30
0.000
40
0.001
1
40
0
LINE
8
Normals
62
1
10
0.824
20
0.923
30
0.000
11
0.824
21
0.923
31
0.100
0
POINT
8
Source_points
62
5
10
0.175
20
0.800
30
0.000
0
TEXT
7
PNTNUM
50
0.000
8
Text
62
3
10
0.176
20
0.800
30
0.000
40
0.001
1
41
0
LINE
8
Normals
62
1
10
0.175
20
0.800
30
0.000
11
0.175
21
0.800
31
0.100
0
POINT
8
Source_points
62
5
10
0.164
20
0.286
30
0.000
0
TEXT
7
PNTNUM
50
0.000
8
Text
62
3
10
0.164
20
0.285
30
0.000
40
0.001
1
42
0
LINE
8
Normals
62
1
10
0.164
20
0.286
30
0.000
11
0.164
21
0.286
31
0.100
0
POINT
8
Source_points
62
5
10
0.666
20
0.544
30
0.000
0
TEXT
7
PNTNUM
50
0.000
8
Text
62
3
10
0.666
20
0.543
30
0.000
40
0.001
1
43
0
LINE
8
Normals
62
1
10
0.666
20
0.544
30
0.000
11
0.666
21
0.544
31
0.100
0
POINT
8
Source_points
62
5
10
0.894
20
0.985
30
0.000
0
TEXT
7
PNTNUM
50
0.000
8
Text
62
3
10
0.895
20
0.984
30
0.000
40
0.001
1
44
0
LINE
8
Normals
62
1
10
0.894
20
0.985
30
0.000
11
0.894
21
0.985
31
0.100
0
POINT
8
Source_points
62
5
10
0.517
20
0.716
30
0.000
0
TEXT
7
PNTNUM
50
0.000
8
Text
62
3
10
0.517
20
0.715
30
0.000
40
0.001
1
45
0
LINE
8
Normals
62
1
10
0.517
20
0.716
30
0.000
11
0.517
21
0.716
31
0.100
0
POINT
8
Source_points
62
5
10
0.703
20
0.839
30
0.000
0
TEXT
7
PNTNUM
50
0.000
8
Text
62
3
10
0.703
20
0.838
30
0.000
40
0.001
1
46
0
LINE
8
Normals
62
1
10
0.703
20
0.839
30
0.000
11
0.703
21
0.839
31
0.100
0
POINT
8
Source_points
62
5
10
0.154
20
0.433
30
0.000
0
TEXT
7
PNTNUM
50
0.000
8
Text
62
3
10
0.154
20
0.433
30
0.000
40
0.001
1
47
0
LINE
8
Normals
62
1
10
0.154
20
0.433
30
0.000
11
0.154
21
0.433
31
0.100
0
POINT
8
Source_points
62
5
10
0.953
20
0.471
30
0.000
0
TEXT
7
PNTNUM
50
0.000
8
Text
62
3
10
0.954
20
0.470
30
0.000
40
0.001
1
48
0
LINE
8
Normals
62
1
10
0.953
20
0.471
30
0.000
11
0.953
21
0.471
31
0.100
0
POINT
8
Source_points
62
5
10
0.541
20
0.561
30
0.000
0
TEXT
7
PNTNUM
50
0.000
8
Text
62
3
10
0.541
20
0.560
30
0.000
40
0.001
1
49
0
LINE
8
Normals
62
1
10
0.541
20
0.561
30
0.000
11
0.541
21
0.561
31
0.100
0
POINT
8
Source_points
62
5
10
0.680
20
0.269
30
0.000
0
TEXT
7
PNTNUM
50
0.000
8
Text
62
3
10
0.680
20
0.269
30
0.000
40
0.001
1
50
0
LINE
8
Normals
62
1
10
0.680
20
0.269
30
0.000
11
0.680
21
0.269
31
0.100
0
POINT
8
Source_points
62
5
10
0.037
20
0.749
30
0.000
0
TEXT
7
PNTNUM
50
0.000
8
Text
62
3
10
0.037
20
0.749
30
0.000
40
0.001
1
51
0
LINE
8
Normals
62
1
10
0.037
20
0.749
30
0.000
11
0.037
21
0.749
31
0.100
0
POINT
8
Source_points
62
5
10
0.809
20
0.504
30
0.000
0
TEXT
7
PNTNUM
50
0.000
8
Text
62
3
10
0.810
20
0.503
30
0.000
40
0.001
1
52
0
LINE
8
Normals
62
1
10
0.809
20
0.504
30
0.000
11
0.809
21
0.504
31
0.100
0
POINT
8
Source_points
62
5
10
0.749
20
0.647
30
0.000
0
TEXT
7
PNTNUM
50
0.000
8
Text
62
3
10
0.749
20
0.646
30
0.000
40
0.001
1
53
0
LINE
8
Normals
62
1
10
0.749
20
0.647
30
0.000
11
0.749
21
0.647
31
0.100
0
POINT
8
Source_points
62
5
10
0.120
20
0.308
30
0.000
0
TEXT
7
PNTNUM
50
0.000
8
Text
62
3
10
0.121
20
0.307
30
0.000
40
0.001
1
54
0
LINE
8
Normals
62
1
10
0.120
20
0.308
30
0.000
11
0.120
21
0.308
31
0.100
0
POINT
8
Source_points
62
5
10
0.525
20
0.139
30
0.000
0
TEXT
7
PNTNUM
50
0.000
8
Text
62
3
10
0.526
20
0.138
30
0.000
40
0.001
1
55
0
LINE
8
Normals
62
1
10
0.525
20
0.139
30
0.000
11
0.525
21
0.139
31
0.100
0
POINT
8
Source_points
62
5
10
0.326
20
0.476
30
0.000
0
TEXT
7
PNTNUM
50
0.000
8
Text
62
3
10
0.326
20
0.475
30
0.000
40
0.001
1
56
0
LINE
8
Normals
62
1
10
0.326
20
0.476
30
0.000
11
0.326
21
0.476
31
0.100
0
POINT
8
Source_points
62
5
10
0.546
20
0.362
30
0.000
0
TEXT
7
PNTNUM
50
0.000
8
Text
62
3
10
0.547
20
0.362
30
0.000
40
0.001
1
57
0
LINE
8
Normals
62
1
10
0.546
20
0.362
30
0.000
11
0.546
21
0.362
31
0.100
0
POINT
8
Source_points
62
5
10
0.399
20
0.788
30
0.000
0
TEXT
7
PNTNUM
50
0.000
8
Text
62
3
10
0.399
20
0.788
30
0.000
40
0.001
1
58
0
LINE
8
Normals
62
1
10
0.399
20
0.788
30
0.000
11
0.399
21
0.788
31
0.100
0
POINT
8
Source_points
62
5
10
0.415
20
0.780
30
0.000
0
TEXT
7
PNTNUM
50
0.000
8
Text
62
3
10
0.416
20
0.780
30
0.000
40
0.001
1
59
0
LINE
8
Normals
62
1
10
0.415
20
0.780
30
0.000
11
0.415
21
0.780
31
0.100
0
POINT
8
Source_points
62
5
10
0.181
20
0.669
30
0.000
0
TEXT
7
PNTNUM
50
0.000
8
Text
62
3
10
0.181
20
0.668
30
0.000
40
0.001
1
60
0
LINE
8
Normals
62
1
10
0.181
20
0.669
30
0.000
11
0.181
21
0.669
31
0.100
0
POINT
8
Source_points
62
5
10
0.255
20
0.134
30
0.000
0
TEXT
7
PNTNUM
50
0.000
8
Text
62
3
10
0.256
20
0.133
30
0.000
40
0.001
1
61
0
LINE
8
Normals
62
1
10
0.255
20
0.134
30
0.000
11
0.255
21
0.134
31
0.100
0
POINT
8
Source_points
62
5
10
0.021
20
0.022
30
0.000
0
TEXT
7
PNTNUM
50
0.000
8
Text
62
3
10
0.021
20
0.021
30
0.000
40
0.001
1
62
0
LINE
8
Normals
62
1
10
0.021
20
0.022
30
0.000
11
0.021
21
0.022
31
0.100
0
POINT
8
Source_points
62
5
10
0.924
20
0.560
30
0.000
0
TEXT
7
PNTNUM
50
0.000
8
Text
62
3
10
0.924
20
0.559
30
0.000
40
0.001
1
63
0
LINE
8
Normals
62
1
10
0.924
20
0.560
30
0.000
11
0.924
21
0.560
31
0.100
0
POINT
8
Source_points
62
5
10
0.654
20
0.301
30
0.000
0
TEXT
7
PNTNUM
50
0.000
8
Text
62
3
10
0.654
20
0.300
30
0.000
40
0.001
1
64
0
LINE
8
Normals
62
1
10
0.654
20
0.301
30
0.000
11
0.654
21
0.301
31
0.100
0
POINT
8
Source_points
62
5
10
0.933
20
0.939
30
0.000
0
TEXT
7
PNTNUM
50
0.000
8
Text
62
3
10
0.933
20
0.939
30
0.000
40
0.001
1
65
0
LINE
8
Normals
62
1
10
0.933
20
0.939
30
0.000
11
0.933
21
0.939
31
0.100
0
POINT
8
Source_points
62
5
10
0.164
20
0.981
30
0.000
0
TEXT
7
PNTNUM
50
0.000
8
Text
62
3
10
0.164
20
0.980
30
0.000
40
0.001
1
66
0
LINE
8
Normals
62
1
10
0.164
20
0.981
30
0.000
11
0.164
21
0.981
31
0.100
0
POINT
8
Source_points
62
5
10
0.921
20
0.287
30
0.000
0
TEXT
7
PNTNUM
50
0.000
8
Text
62
3
10
0.922
20
0.286
30
0.000
40
0.001
1
67
0
LINE
8
Normals
62
1
10
0.921
20
0.287
30
0.000
11
0.921
21
0.287
31
0.100
0
POINT
8
Source_points
62
5
10
0.795
20
0.801
30
0.000
0
TEXT
7
PNTNUM
50
0.000
8
Text
62
3
10
0.795
20
0.800
30
0.000
40
0.001
1
68
0
LINE
8
Normals
62
1
10
0.795
20
0.801
30
0.000
11
0.795
21
0.801
31
0.100
0
POINT
8
Source_points
62
5
10
0.577
20
0.896
30
0.000
0
TEXT
7
PNTNUM
50
0.000
8
Text
62
3
10
0.578
20
0.896
30
0.000
40
0.001
1
69
0
LINE
8
Normals
62
1
10
0.577
20
0.896
30
0.000
11
0.577
21
0.896
31
0.100
0
POINT
8
Source_points
62
5
10
0.440
20
0.598
30
0.000
0
TEXT
7
PNTNUM
50
0.000
8
Text
62
3
10
0.441
20
0.597
30
0.000
40
0.001
1
70
0
LINE
8
Normals
62
1
10
0.440
20
0.598
30
0.000
11
0.440
21
0.598
31
0.100
0
POINT
8
Source_points
62
5
10
0.258
20
0.884
30
0.000
0
TEXT
7
PNTNUM
50
0.000
8
Text
62
3
10
0.258
20
0.884
30
0.000
40
0.001
1
71
0
LINE
8
Normals
62
1
10
0.258
20
0.884
30
0.000
11
0.258
21
0.884
31
0.100
0
POINT
8
Source_points
62
5
10
0.752
20
0.944
30
0.000
0
TEXT
7
PNTNUM
50
0.000
8
Text
62
3
10
0.752
20
0.943
30
0.000
40
0.001
1
72
0
LINE
8
Normals
62
1
10
0.752
20
0.944
30
0.000
11
0.752
21
0.944
31
0.100
0
POINT
8
Source_points
62
5
10
0.229
20
0.549
30
0.000
0
TEXT
7
PNTNUM
50
0.000
8
Text
62
3
10
0.229
20
0.549
30
0.000
40
0.001
1
73
0
LINE
8
Normals
62
1
10
0.229
20
0.549
30
0.000
11
0.229
21
0.549
31
0.100
0
POINT
8
Source_points
62
5
10
0.064
20
0.728
30
0.000
0
TEXT
7
PNTNUM
50
0.000
8
Text
62
3
10
0.065
20
0.728
30
0.000
40
0.001
1
74
0
LINE
8
Normals
62
1
10
0.064
20
0.728
30
0.000
11
0.064
21
0.728
31
0.100
0
POINT
8
Source_points
62
5
10
0.767
20
0.577
30
0.000
0
TEXT
7
PNTNUM
50
0.000
8
Text
62
3
10
0.768
20
0.576
30
0.000
40
0.001
1
75
0
LINE
8
Normals
62
1
10
0.767
20
0.577
30
0.000
11
0.767
21
0.577
31
0.100
0
POINT
8
Source_points
62
5
10
0.671
20
0.026
30
0.000
0
TEXT
7
PNTNUM
50
0.000
8
Text
62
3
10
0.672
20
0.025
30
0.000
40
0.001
1
76
0
LINE
8
Normals
62
1
10
0.671
20
0.026
30
0.000
11
0.671
21
0.026
31
0.100
0
POINT
8
Source_points
62
5
10
0.715
20
0.447
30
0.000
0
TEXT
7
PNTNUM
50
0.000
8
Text
62
3
10
0.716
20
0.446
30
0.000
40
0.001
1
77
0
LINE
8
Normals
62
1
10
0.715
20
0.447
30
0.000
11
0.715
21
0.447
31
0.100
0
POINT
8
Source_points
62
5
10
0.642
20
0.646
30
0.000
0
TEXT
7
PNTNUM
50
0.000
8
Text
62
3
10
0.643
20
0.646
30
0.000
40
0.001
1
78
0
LINE
8
Normals
62
1
10
0.642
20
0.646
30
0.000
11
0.642
21
0.646
31
0.100
0
POINT
8
Source_points
62
5
10
0.419
20
0.521
30
0.000
0
TEXT
7
PNTNUM
50
0.000
8
Text
62
3
10
0.420
20
0.521
30
0.000
40
0.001
1
79
0
LINE
8
Normals
62
1
10
0.419
20
0.521
30
0.000
11
0.419
21
0.521
31
0.100
0
POINT
8
Source_points
62
5
10
0.391
20
0.372
30
0.000
0
TEXT
7
PNTNUM
50
0.000
8
Text
62
3
10
0.391
20
0.372
30
0.000
40
0.001
1
80
0
LINE
8
Normals
62
1
10
0.391
20
0.372
30
0.000
11
0.391
21
0.372
31
0.100
0
POINT
8
Source_points
62
5
10
0.816
20
0.937
30
0.000
0
TEXT
7
PNTNUM
50
0.000
8
Text
62
3
10
0.817
20
0.937
30
0.000
40
0.001
1
81
0
LINE
8
Normals
62
1
10
0.816
20
0.937
30
0.000
11
0.816
21
0.937
31
0.100
0
POINT
8
Source_points
62
5
10
0.317
20
0.830
30
0.000
0
TEXT
7
PNTNUM
50
0.000
8
Text
62
3
10
0.318
20
0.829
30
0.000
40
0.001
1
82
0
LINE
8
Normals
62
1
10
0.317
20
0.830
30
0.000
11
0.317
21
0.830
31
0.100
0
POINT
8
Source_points
62
5
10
0.815
20
0.849
30
0.000
0
TEXT
7
PNTNUM
50
0.000
8
Text
62
3
10
0.815
20
0.849
30
0.000
40
0.001
1
83
0
LINE
8
Normals
62
1
10
0.815
20
0.849
30
0.000
11
0.815
21
0.849
31
0.100
0
POINT
8
Source_points
62
5
10
0.789
20
0.373
30
0.000
0
TEXT
7
PNTNUM
50
0.000
8
Text
62
3
10
0.790
20
0.372
30
0.000
40
0.001
1
84
0
LINE
8
Normals
62
1
10
0.789
20
0.373
30
0.000
11
0.789
21
0.373
31
0.100
0
POINT
8
Source_points
62
5
10
0.852
20
0.593
30
0.000
0
TEXT
7
PNTNUM
50
0.000
8
Text
62
3
10
0.853
20
0.593
30
0.000
40
0.001
1
85
0
LINE
8
Normals
62
1
10
0.852
20
0.593
30
0.000
11
0.852
21
0.593
31
0.100
0
POINT
8
Source_points
62
5
10
0.506
20
0.873
30
0.000
0
TEXT
7
PNTNUM
50
0.000
8
Text
62
3
10
0.506
20
0.872
30
0.000
40
0.001
1
86
0
LINE
8
Normals
62
1
10
0.506
20
0.873
30
0.000
11
0.506
21
0.873
31
0.100
0
POINT
8
Source_points
62
5
10
0.636
20
0.934
30
0.000
0
TEXT
7
PNTNUM
50
0.000
8
Text
62
3
10
0.636
20
0.933
30
0.000
40
0.001
1
87
0
LINE
8
Normals
62
1
10
0.636
20
0.934
30
0.000
11
0.636
21
0.934
31
0.100
0
POINT
8
Source_points
62
5
10
0.951
20
0.668
30
0.000
0
TEXT
7
PNTNUM
50
0.000
8
Text
62
3
10
0.951
20
0.668
30
0.000
40
0.001
1
88
0
LINE
8
Normals
62
1
10
0.951
20
0.668
30
0.000
11
0.951
21
0.668
31
0.100
0
POINT
8
Source_points
62
5
10
0.444
20
0.207
30
0.000
0
TEXT
7
PNTNUM
50
0.000
8
Text
62
3
10
0.444
20
0.206
30
0.000
40
0.001
1
89
0
LINE
8
Normals
62
1
10
0.444
20
0.207
30
0.000
11
0.444
21
0.207
31
0.100
0
POINT
8
Source_points
62
5
10
0.060
20
0.654
30
0.000
0
TEXT
7
PNTNUM
50
0.000
8
Text
62
3
10
0.061
20
0.653
30
0.000
40
0.001
1
90
0
LINE
8
Normals
62
1
10
0.060
20
0.654
30
0.000
11
0.060
21
0.654
31
0.100
0
POINT
8
Source_points
62
5
10
0.867
20
0.072
30
0.000
0
TEXT
7
PNTNUM
50
0.000
8
Text
62
3
10
0.867
20
0.072
30
0.000
40
0.001
1
91
0
LINE
8
Normals
62
1
10
0.867
20
0.072
30
0.000
11
0.867
21
0.072
31
0.100
0
POINT
8
Source_points
62
5
10
0.631
20
0.407
30
0.000
0
TEXT
7
PNTNUM
50
0.000
8
Text
62
3
10
0.632
20
0.406
30
0.000
40
0.001
1
92
0
LINE
8
Normals
62
1
10
0.631
20
0.407
30
0.000
11
0.631
21
0.407
31
0.100
0
POINT
8
Source_points
62
5
10
0.355
20
0.667
30
0.000
0
TEXT
7
PNTNUM
50
0.000
8
Text
62
3
10
0.356
20
0.666
30
0.000
40
0.001
1
93
0
LINE
8
Normals
62
1
10
0.355
20
0.667
30
0.000
11
0.355
21
0.667
31
0.100
0
POINT
8
Source_points
62
5
10
0.997
20
0.934
30
0.000
0
TEXT
7
PNTNUM
50
0.000
8
Text
62
3
10
0.998
20
0.933
30
0.000
40
0.001
1
94
0
LINE
8
Normals
62
1
10
0.997
20
0.934
30
0.000
11
0.997
21
0.934
31
0.100
0
POINT
8
Source_points
62
5
10
0.224
20
0.811
30
0.000
0
TEXT
7
PNTNUM
50
0.000
8
Text
62
3
10
0.225
20
0.810
30
0.000
40
0.001
1
95
0
LINE
8
Normals
62
1
10
0.224
20
0.811
30
0.000
11
0.224
21
0.811
31
0.100
0
POINT
8
Source_points
62
5
10
0.652
20
0.485
30
0.000
0
TEXT
7
PNTNUM
50
0.000
8
Text
62
3
10
0.653
20
0.484
30
0.000
40
0.001
1
96
0
LINE
8
Normals
62
1
10
0.652
20
0.485
30
0.000
11
0.652
21
0.485
31
0.100
0
POINT
8
Source_points
62
5
10
0.605
20
0.757
30
0.000
0
TEXT
7
PNTNUM
50
0.000
8
Text
62
3
10
0.605
20
0.756
30
0.000
40
0.001
1
97
0
LINE
8
Normals
62
1
10
0.605
20
0.757
30
0.000
11
0.605
21
0.757
31
0.100
0
POINT
8
Source_points
62
5
10
0.387
20
0.417
30
0.000
0
TEXT
7
PNTNUM
50
0.000
8
Text
62
3
10
0.388
20
0.417
30
0.000
40
0.001
1
98
0
LINE
8
Normals
62
1
10
0.387
20
0.417
30
0.000
11
0.387
21
0.417
31
0.100
0
POINT
8
Source_points
62
5
10
0.142
20
0.972
30
0.000
0
TEXT
7
PNTNUM
50
0.000
8
Text
62
3
10
0.143
20
0.971
30
0.000
40
0.001
1
99
0
LINE
8
Normals
62
1
10
0.142
20
0.972
30
0.000
11
0.142
21
0.972
31
0.100
0
POINT
8
Source_points
62
5
10
0.025
20
0.988
30
0.000
0
TEXT
7
PNTNUM
50
0.000
8
Text
62
3
10
0.026
20
0.987
30
0.000
40
0.001
1
100
0
LINE
8
Normals
62
1
10
0.025
20
0.988
30
0.000
11
0.025
21
0.988
31
0.100
0
POINT
8
Source_points
62
5
10
0.421
20
0.864
30
0.000
0
TEXT
7
PNTNUM
50
0.000
8
Text
62
3
10
0.422
20
0.864
30
0.000
40
0.001
1
101
0
LINE
8
Normals
62
1
10
0.421
20
0.864
30
0.000
11
0.421
21
0.864
31
0.100
0
POINT
8
Source_points
62
5
10
0.184
20
0.389
30
0.000
0
TEXT
7
PNTNUM
50
0.000
8
Text
62
3
10
0.185
20
0.388
30
0.000
40
0.001
1
102
0
LINE
8
Normals
62
1
10
0.184
20
0.389
30
0.000
11
0.184
21
0.389
31
0.100
0
POINT
8
Source_points
62
5
10
0.726
20
0.455
30
0.000
0
TEXT
7
PNTNUM
50
0.000
8
Text
62
3
10
0.726
20
0.454
30
0.000
40
0.001
1
103
0
LINE
8
Normals
62
1
10
0.726
20
0.455
30
0.000
11
0.726
21
0.455
31
0.100
0
POINT
8
Source_points
62
5
10
0.370
20
0.247
30
0.000
0
TEXT
7
PNTNUM
50
0.000
8
Text
62
3
10
0.371
20
0.246
30
0.000
40
0.001
1
104
0
LINE
8
Normals
62
1
10
0.370
20
0.247
30
0.000
11
0.370
21
0.247
31
0.100
0
POINT
8
Source_points
62
5
10
0.842
20
0.784
30
0.000
0
TEXT
7
PNTNUM
50
0.000
8
Text
62
3
10
0.842
20
0.784
30
0.000
40
0.001
1
105
0
LINE
8
Normals
62
1
10
0.842
20
0.784
30
0.000
11
0.842
21
0.784
31
0.100
0
POINT
8
Source_points
62
5
10
0.734
20
0.883
30
0.000
0
TEXT
7
PNTNUM
50
0.000
8
Text
62
3
10
0.735
20
0.882
30
0.000
40
0.001
1
106
0
LINE
8
Normals
62
1
10
0.734
20
0.883
30
0.000
11
0.734
21
0.883
31
0.100
0
POINT
8
Source_points
62
5
10
0.571
20
0.914
30
0.000
0
TEXT
7
PNTNUM
50
0.000
8
Text
62
3
10
0.572
20
0.913
30
0.000
40
0.001
1
107
0
LINE
8
Normals
62
1
10
0.571
20
0.914
30
0.000
11
0.571
21
0.914
31
0.100
0
POINT
8
Source_points
62
5
10
0.177
20
0.558
30
0.000
0
TEXT
7
PNTNUM
50
0.000
8
Text
62
3
10
0.177
20
0.558
30
0.000
40
0.001
1
108
0
LINE
8
Normals
62
1
10
0.177
20
0.558
30
0.000
11
0.177
21
0.558
31
0.100
0
POINT
8
Source_points
62
5
10
0.957
20
0.599
30
0.000
0
TEXT
7
PNTNUM
50
0.000
8
Text
62
3
10
0.958
20
0.598
30
0.000
40
0.001
1
109
0
LINE
8
Normals
62
1
10
0.957
20
0.599
30
0.000
11
0.957
21
0.599
31
0.100
0
POINT
8
Source_points
62
5
10
0.265
20
0.149
30
0.000
0
TEXT
7
PNTNUM
50
0.000
8
Text
62
3
10
0.266
20
0.148
30
0.000
40
0.001
1
110
0
LINE
8
Normals
62
1
10
0.265
20
0.149
30
0.000
11
0.265
21
0.149
31
0.100
0
POINT
8
Source_points
62
5
10
0.925
20
0.900
30
0.000
0
TEXT
7
PNTNUM
50
0.000
8
Text
62
3
10
0.925
20
0.899
30
0.000
40
0.001
1
111
0
LINE
8
Normals
62
1
10
0.925
20
0.900
30
0.000
11
0.925
21
0.900
31
0.100
0
POINT
8
Source_points
62
5
10
0.224
20
0.450
30
0.000
0
TEXT
7
PNTNUM
50
0.000
8
Text
62
3
10
0.224
20
0.450
30
0.000
40
0.001
1
112
0
LINE
8
Normals
62
1
10
0.224
20
0.450
30
0.000
11
0.224
21
0.450
31
0.100
0
POINT
8
Source_points
62
5
10
0.374
20
0.206
30
0.000
0
TEXT
7
PNTNUM
50
0.000
8
Text
62
3
10
0.374
20
0.205
30
0.000
40
0.001
1
113
0
LINE
8
Normals
62
1
10
0.374
20
0.206
30
0.000
11
0.374
21
0.206
31
0.100
0
POINT
8
Source_points
62
5
10
0.088
20
0.900
30
0.000
0
TEXT
7
PNTNUM
50
0.000
8
Text
62
3
10
0.088
20
0.899
30
0.000
40
0.001
1
114
0
LINE
8
Normals
62
1
10
0.088
20
0.900
30
0.000
11
0.088
21
0.900
31
0.100
0
POINT
8
Source_points
62
5
10
0.640
20
0.763
30
0.000
0
TEXT
7
PNTNUM
50
0.000
8
Text
62
3
10
0.641
20
0.762
30
0.000
40
0.001
1
115
0
LINE
8
Normals
62
1
10
0.640
20
0.763
30
0.000
11
0.640
21
0.763
31
0.100
0
POINT
8
Source_points
62
5
10
0.181
20
0.882
30
0.000
0
TEXT
7
PNTNUM
50
0.000
8
Text
62
3
10
0.181
20
0.882
30
0.000
40
0.001
1
116
0
LINE
8
Normals
62
1
10
0.181
20
0.882
30
0.000
11
0.181
21
0.882
31
0.100
0
POINT
8
Source_points
62
5
10
0.045
20
0.285
30
0.000
0
TEXT
7
PNTNUM
50
0.000
8
Text
62
3
10
0.046
20
0.284
30
0.000
40
0.001
1
117
0
LINE
8
Normals
62
1
10
0.045
20
0.285
30
0.000
11
0.045
21
0.285
31
0.100
0
POINT
8
Source_points
62
5
10
0.723
20
0.673
30
0.000
0
TEXT
7
PNTNUM
50
0.000
8
Text
62
3
10
0.724
20
0.673
30
0.000
40
0.001
1
118
0
LINE
8
Normals
62
1
10
0.723
20
0.673
30
0.000
11
0.723
21
0.673
31
0.100
0
POINT
8
Source_points
62
5
10
0.347
20
0.664
30
0.000
0
TEXT
7
PNTNUM
50
0.000
8
Text
62
3
10
0.348
20
0.664
30
0.000
40
0.001
1
119
0
LINE
8
Normals
62
1
10
0.347
20
0.664
30
0.000
11
0.347
21
0.664
31
0.100
0
POINT
8
Source_points
62
5
10
0.661
20
0.123
30
0.000
0
TEXT
7
PNTNUM
50
0.000
8
Text
62
3
10
0.661
20
0.122
30
0.000
40
0.001
1
120
0
LINE
8
Normals
62
1
10
0.661
20
0.123
30
0.000
11
0.661
21
0.123
31
0.100
0
POINT
8
Source_points
62
5
10
0.384
20
0.407
30
0.000
0
TEXT
7
PNTNUM
50
0.000
8
Text
62
3
10
0.384
20
0.407
30
0.000
40
0.001
1
121
0
LINE
8
Normals
62
1
10
0.384
20
0.407
30
0.000
11
0.384
21
0.407
31
0.100
0
POINT
8
Source_points
62
5
10
0.627
20
0.275
30
0.000
0
TEXT
7
PNTNUM
50
0.000
8
Text
62
3
10
0.628
20
0.275
30
0.000
40
0.001
1
122
0
LINE
8
Normals
62
1
10
0.627
20
0.275
30
0.000
11
0.627
21
0.275
31
0.100
0
POINT
8
Source_points
62
5
10
0.022
20
0.717
30
0.000
0
TEXT
7
PNTNUM
50
0.000
8
Text
62
3
10
0.022
20
0.716
30
0.000
40
0.001
1
123
0
LINE
8
Normals
62
1
10
0.022
20
0.717
30
0.000
11
0.022
21
0.717
31
0.100
0
POINT
8
Source_points
62
5
10
0.911
20
0.283
30
0.000
0
TEXT
7
PNTNUM
50
0.000
8
Text
62
3
10
0.911
20
0.283
30
0.000
40
0.001
1
124
0
LINE
8
Normals
62
1
10
0.911
20
0.283
30
0.000
11
0.911
21
0.283
31
0.100
0
POINT
8
Source_points
62
5
10
0.801
20
0.896
30
0.000
0
TEXT
7
PNTNUM
50
0.000
8
Text
62
3
10
0.801
20
0.896
30
0.000
40
0.001
1
125
0
LINE
8
Normals
62
1
10
0.801
20
0.896
30
0.000
11
0.801
21
0.896
31
0.100
0
POINT
8
Source_points
62
5
10
0.746
20
0.827
30
0.000
0
TEXT
7
PNTNUM
50
0.000
8
Text
62
3
10
0.746
20
0.826
30
0.000
40
0.001
1
126
0
LINE
8
Normals
62
1
10
0.746
20
0.827
30
0.000
11
0.746
21
0.827
31
0.100
0
POINT
8
Source_points
62
5
10
0.813
20
0.390
30
0.000
0
TEXT
7
PNTNUM
50
0.000
8
Text
62
3
10
0.814
20
0.390
30
0.000
40
0.001
1
127
0
LINE
8
Normals
62
1
10
0.813
20
0.390
30
0.000
11
0.813
21
0.390
31
0.100
0
POINT
8
Source_points
62
5
10
0.383
20
0.498
30
0.000
0
TEXT
7
PNTNUM
50
0.000
8
Text
62
3
10
0.384
20
0.497
30
0.000
40
0.001
1
128
0
LINE
8
Normals
62
1
10
0.383
20
0.498
30
0.000
11
0.383
21
0.498
31
0.100
0
POINT
8
Source_points
62
5
10
0.617
20
0.695
30
0.000
0
TEXT
7
PNTNUM
50
0.000
8
Text
62
3
10
0.618
20
0.694
30
0.000
40
0.001
1
129
0
LINE
8
Normals
62
1
10
0.617
20
0.695
30
0.000
11
0.617
21
0.695
31
0.100
0
POINT
8
Source_points
62
5
10
0.575
20
0.834
30
0.000
0
TEXT
7
PNTNUM
50
0.000
8
Text
62
3
10
0.576
20
0.834
30
0.000
40
0.001
1
130
0
LINE
8
Normals
62
1
10
0.575
20
0.834
30
0.000
11
0.575
21
0.834
31
0.100
0
POINT
8
Source_points
62
5
10
0.530
20
0.610
30
0.000
0
TEXT
7
PNTNUM
50
0.000
8
Text
62
3
10
0.531
20
0.609
30
0.000
40
0.001
1
131
0
LINE
8
Normals
62
1
10
0.530
20
0.610
30
0.000
11
0.530
21
0.610
31
0.100
0
POINT
8
Source_points
62
5
10
0.275
20
0.575
30
0.000
0
TEXT
7
PNTNUM
50
0.000
8
Text
62
3
10
0.276
20
0.574
30
0.000
40
0.001
1
132
0
LINE
8
Normals
62
1
10
0.275
20
0.575
30
0.000
11
0.275
21
0.575
31
0.100
0
POINT
8
Source_points
62
5
10
0.249
20
0.326
30
0.000
0
TEXT
7
PNTNUM
50
0.000
8
Text
62
3
10
0.249
20
0.326
30
0.000
40
0.001
1
133
0
LINE
8
Normals
62
1
10
0.249
20
0.326
30
0.000
11
0.249
21
0.326
31
0.100
0
POINT
8
Source_points
62
5
10
0.452
20
0.456
30
0.000
0
TEXT
7
PNTNUM
50
0.000
8
Text
62
3
10
0.452
20
0.456
30
0.000
40
0.001
1
134
0
LINE
8
Normals
62
1
10
0.452
20
0.456
30
0.000
11
0.452
21
0.456
31
0.100
0
POINT
8
Source_points
62
5
10
0.228
20
0.714
30
0.000
0
TEXT
7
PNTNUM
50
0.000
8
Text
62
3
10
0.228
20
0.713
30
0.000
40
0.001
1
135
0
LINE
8
Normals
62
1
10
0.228
20
0.714
30
0.000
11
0.228
21
0.714
31
0.100
0
POINT
8
Source_points
62
5
10
0.804
20
0.884
30
0.000
0
TEXT
7
PNTNUM
50
0.000
8
Text
62
3
10
0.805
20
0.884
30
0.000
40
0.001
1
136
0
LINE
8
Normals
62
1
10
0.804
20
0.884
30
0.000
11
0.804
21
0.884
31
0.100
0
POINT
8
Source_points
62
5
10
0.986
20
0.721
30
0.000
0
TEXT
7
PNTNUM
50
0.000
8
Text
62
3
10
0.987
20
0.720
30
0.000
40
0.001
1
137
0
LINE
8
Normals
62
1
10
0.986
20
0.721
30
0.000
11
0.986
21
0.721
31
0.100
0
POINT
8
Source_points
62
5
10
0.030
20
0.019
30
0.000
0
TEXT
7
PNTNUM
50
0.000
8
Text
62
3
10
0.030
20
0.018
30
0.000
40
0.001
1
138
0
LINE
8
Normals
62
1
10
0.030
20
0.019
30
0.000
11
0.030
21
0.019
31
0.100
0
POINT
8
Source_points
62
5
10
0.536
20
0.675
30
0.000
0
TEXT
7
PNTNUM
50
0.000
8
Text
62
3
10
0.536
20
0.674
30
0.000
40
0.001
1
139
0
LINE
8
Normals
62
1
10
0.536
20
0.675
30
0.000
11
0.536
21
0.675
31
0.100
0
POINT
8
Source_points
62
5
10
0.087
20
0.439
30
0.000
0
TEXT
7
PNTNUM
50
0.000
8
Text
62
3
10
0.088
20
0.438
30
0.000
40
0.001
1
140
0
LINE
8
Normals
62
1
10
0.087
20
0.439
30
0.000
11
0.087
21
0.439
31
0.100
0
POINT
8
Source_points
62
5
10
0.802
20
0.438
30
0.000
0
TEXT
7
PNTNUM
50
0.000
8
Text
62
3
10
0.803
20
0.437
30
0.000
40
0.001
1
141
0
LINE
8
Normals
62
1
10
0.802
20
0.438
30
0.000
11
0.802
21
0.438
31
0.100
0
POINT
8
Source_points
62
5
10
0.989
20
0.117
30
0.000
0
TEXT
7
PNTNUM
50
0.000
8
Text
62
3
10
0.990
20
0.117
30
0.000
40
0.001
1
142
0
LINE
8
Normals
62
1
10
0.989
20
0.117
30
0.000
11
0.989
21
0.117
31
0.100
0
POINT
8
Source_points
62
5
10
0.067
20
0.815
30
0.000
0
TEXT
7
PNTNUM
50
0.000
8
Text
62
3
10
0.067
20
0.814
30
0.000
40
0.001
1
143
0
LINE
8
Normals
62
1
10
0.067
20
0.815
30
0.000
11
0.067
21
0.815
31
0.100
0
POINT
8
Source_points
62
5
10
0.939
20
0.325
30
0.000
0
TEXT
7
PNTNUM
50
0.000
8
Text
62
3
10
0.940
20
0.324
30
0.000
40
0.001
1
144
0
LINE
8
Normals
62
1
10
0.939
20
0.325
30
0.000
11
0.939
21
0.325
31
0.100
0
POINT
8
Source_points
62
5
10
0.018
20
0.246
30
0.000
0
TEXT
7
PNTNUM
50
0.000
8
Text
62
3
10
0.019
20
0.246
30
0.000
40
0.001
1
145
0
LINE
8
Normals
62
1
10
0.018
20
0.246
30
0.000
11
0.018
21
0.246
31
0.100
0
POINT
8
Source_points
62
5
10
0.684
20
0.343
30
0.000
0
TEXT
7
PNTNUM
50
0.000
8
Text
62
3
10
0.684
20
0.342
30
0.000
40
0.001
1
146
0
LINE
8
Normals
62
1
10
0.684
20
0.343
30
0.000
11
0.684
21
0.343
31
0.100
0
POINT
8
Source_points
62
5
10
0.784
20
0.376
30
0.000
0
TEXT
7
PNTNUM
50
0.000
8
Text
62
3
10
0.784
20
0.375
30
0.000
40
0.001
1
147
0
LINE
8
Normals
62
1
10
0.784
20
0.376
30
0.000
11
0.784
21
0.376
31
0.100
0
POINT
8
Source_points
62
5
10
0.534
20
0.547
30
0.000
0
TEXT
7
PNTNUM
50
0.000
8
Text
62
3
10
0.535
20
0.546
30
0.000
40
0.001
1
148
0
LINE
8
Normals
62
1
10
0.534
20
0.547
30
0.000
11
0.534
21
0.547
31
0.100
0
POINT
8
Source_points
62
5
10
0.885
20
0.562
30
0.000
0
TEXT
7
PNTNUM
50
0.000
8
Text
62
3
10
0.886
20
0.561
30
0.000
40
0.001
1
149
0
LINE
8
Normals
62
1
10
0.885
20
0.562
30
0.000
11
0.885
21
0.562
31
0.100
0
POINT
8
Source_points
62
5
10
0.899
20
0.396
30
0.000
0
TEXT
7
PNTNUM
50
0.000
8
Text
62
3
10
0.900
20
0.395
30
0.000
40
0.001
1
150
0
LINE
8
Normals
62
1
10
0.899
20
0.396
30
0.000
11
0.899
21
0.396
31
0.100
0
POINT
8
Source_points
62
5
10
0.626
20
0.398
30
0.000
0
TEXT
7
PNTNUM
50
0.000
8
Text
62
3
10
0.626
20
0.398
30
0.000
40
0.001
1
151
0
LINE
8
Normals
62
1
10
0.626
20
0.398
30
0.000
11
0.626
21
0.398
31
0.100
0
POINT
8
Source_points
62
5
10
0.138
20
0.515
30
0.000
0
TEXT
7
PNTNUM
50
0.000
8
Text
62
3
10
0.138
20
0.515
30
0.000
40
0.001
1
152
0
LINE
8
Normals
62
1
10
0.138
20
0.515
30
0.000
11
0.138
21
0.515
31
0.100
0
POINT
8
Source_points
62
5
10
0.218
20
0.658
30
0.000
0
TEXT
7
PNTNUM
50
0.000
8
Text
62
3
10
0.218
20
0.657
30
0.000
40
0.001
1
153
0
LINE
8
Normals
62
1
10
0.218
20
0.658
30
0.000
11
0.218
21
0.658
31
0.100
0
POINT
8
Source_points
62
5
10
0.182
20
0.951
30
0.000
0
TEXT
7
PNTNUM
50
0.000
8
Text
62
3
10
0.183
20
0.950
30
0.000
40
0.001
1
154
0
LINE
8
Normals
62
1
10
0.182
20
0.951
30
0.000
11
0.182
21
0.951
31
0.100
0
POINT
8
Source_points
62
5
10
0.042
20
0.722
30
0.000
0
TEXT
7
PNTNUM
50
0.000
8
Text
62
3
10
0.042
20
0.722
30
0.000
40
0.001
1
155
0
LINE
8
Normals
62
1
10
0.042
20
0.722
30
0.000
11
0.042
21
0.722
31
0.100
0
POINT
8
Source_points
62
5
10
0.107
20
0.400
30
0.000
0
TEXT
7
PNTNUM
50
0.000
8
Text
62
3
10
0.107
20
0.400
30
0.000
40
0.001
1
156
0
LINE
8
Normals
62
1
10
0.107
20
0.400
30
0.000
11
0.107
21
0.400
31
0.100
0
POINT
8
Source_points
62
5
10
0.616
20
0.832
30
0.000
0
TEXT
7
PNTNUM
50
0.000
8
Text
62
3
10
0.617
20
0.831
30
0.000
40
0.001
1
157
0
LINE
8
Normals
62
1
10
0.616
20
0.832
30
0.000
11
0.616
21
0.832
31
0.100
0
POINT
8
Source_points
62
5
10
0.940
20
0.134
30
0.000
0
TEXT
7
PNTNUM
50
0.000
8
Text
62
3
10
0.940
20
0.134
30
0.000
40
0.001
1
158
0
LINE
8
Normals
62
1
10
0.940
20
0.134
30
0.000
11
0.940
21
0.134
31
0.100
0
POINT
8
Source_points
62
5
10
0.354
20
0.060
30
0.000
0
TEXT
7
PNTNUM
50
0.000
8
Text
62
3
10
0.355
20
0.060
30
0.000
40
0.001
1
159
0
LINE
8
Normals
62
1
10
0.354
20
0.060
30
0.000
11
0.354
21
0.060
31
0.100
0
POINT
8
Source_points
62
5
10
0.411
20
0.084
30
0.000
0
TEXT
7
PNTNUM
50
0.000
8
Text
62
3
10
0.411
20
0.084
30
0.000
40
0.001
1
160
0
LINE
8
Normals
62
1
10
0.411
20
0.084
30
0.000
11
0.411
21
0.084
31
0.100
0
POINT
8
Source_points
62
5
10
0.984
20
0.164
30
0.000
0
TEXT
7
PNTNUM
50
0.000
8
Text
62
3
10
0.985
20
0.163
30
0.000
40
0.001
1
161
0
LINE
8
Normals
62
1
10
0.984
20
0.164
30
0.000
11
0.984
21
0.164
31
0.100
0
POINT
8
Source_points
62
5
10
0.946
20
0.324
30
0.000
0
TEXT
7
PNTNUM
50
0.000
8
Text
62
3
10
0.946
20
0.324
30
0.000
40
0.001
1
162
0
LINE
8
Normals
62
1
10
0.946
20
0.324
30
0.000
11
0.946
21
0.324
31
0.100
0
POINT
8
Source_points
62
5
10
0.677
20
0.302
30
0.000
0
TEXT
7
PNTNUM
50
0.000
8
Text
62
3
10
0.677
20
0.301
30
0.000
40
0.001
1
163
0
LINE
8
Normals
62
1
10
0.677
20
0.302
30
0.000
11
0.677
21
0.302
31
0.100
0
POINT
8
Source_points
62
5
10
0.988
20
0.012
30
0.000
0
TEXT
7
PNTNUM
50
0.000
8
Text
62
3
10
0.989
20
0.011
30
0.000
40
0.001
1
164
0
LINE
8
Normals
62
1
10
0.988
20
0.012
30
0.000
11
0.988
21
0.012
31
0.100
0
POINT
8
Source_points
62
5
10
0.767
20
0.540
30
0.000
0
TEXT
7
PNTNUM
50
0.000
8
Text
62
3
10
0.767
20
0.539
30
0.000
40
0.001
1
165
0
LINE
8
Normals
62
1
10
0.767
20
0.540
30
0.000
11
0.767
21
0.540
31
0.100
0
POINT
8
Source_points
62
5
10
0.337
20
0.095
30
0.000
0
TEXT
7
PNTNUM
50
0.000
8
Text
62
3
10
0.337
20
0.095
30
0.000
40
0.001
1
166
0
LINE
8
Normals
62
1
10
0.337
20
0.095
30
0.000
11
0.337
21
0.095
31
0.100
0
POINT
8
Source_points
62
5
10
0.662
20
0.147
30
0.000
0
TEXT
7
PNTNUM
50
0.000
8
Text
62
3
10
0.663
20
0.146
30
0.000
40
0.001
1
167
0
LINE
8
Normals
62
1
10
0.662
20
0.147
30
0.000
11
0.662
21
0.147
31
0.100
0
POINT
8
Source_points
62
5
10
0.244
20
0.631
30
0.000
0
TEXT
7
PNTNUM
50
0.000
8
Text
62
3
10
0.245
20
0.631
30
0.000
40
0.001
1
168
0
LINE
8
Normals
62
1
10
0.244
20
0.631
30
0.000
11
0.244
21
0.631
31
0.100
0
POINT
8
Source_points
62
5
10
0.296
20
0.859
30
0.000
0
TEXT
7
PNTNUM
50
0.000
8
Text
62
3
10
0.296
20
0.859
30
0.000
40
0.001
1
169
0
LINE
8
Normals
62
1
10
0.296
20
0.859
30
0.000
11
0.296
21
0.859
31
0.100
0
POINT
8
Source_points
62
5
10
0.680
20
0.974
30
0.000
0
TEXT
7
PNTNUM
50
0.000
8
Text
62
3
10
0.681
20
0.974
30
0.000
40
0.001
1
170
0
LINE
8
Normals
62
1
10
0.680
20
0.974
30
0.000
11
0.680
21
0.974
31
0.100
0
POINT
8
Source_points
62
5
10
0.528
20
0.571
30
0.000
0
TEXT
7
PNTNUM
50
0.000
8
Text
62
3
10
0.528
20
0.570
30
0.000
40
0.001
1
171
0
LINE
8
Normals
62
1
10
0.528
20
0.571
30
0.000
11
0.528
21
0.571
31
0.100
0
POINT
8
Source_points
62
5
10
0.412
20
0.997
30
0.000
0
TEXT
7
PNTNUM
50
0.000
8
Text
62
3
10
0.412
20
0.996
30
0.000
40
0.001
1
172
0
LINE
8
Normals
62
1
10
0.412
20
0.997
30
0.000
11
0.412
21
0.997
31
0.100
0
POINT
8
Source_points
62
5
10
0.603
20
0.554
30
0.000
0
TEXT
7
PNTNUM
50
0.000
8
Text
62
3
10
0.603
20
0.553
30
0.000
40
0.001
1
173
0
LINE
8
Normals
62
1
10
0.603
20
0.554
30
0.000
11
0.603
21
0.554
31
0.100
0
POINT
8
Source_points
62
5
10
0.751
20
0.515
30
0.000
0
TEXT
7
PNTNUM
50
0.000
8
Text
62
3
10
0.751
20
0.515
30
0.000
40
0.001
1
174
0
LINE
8
Normals
62
1
10
0.751
20
0.515
30
0.000
11
0.751
21
0.515
31
0.100
0
POINT
8
Source_points
62
5
10
0.584
20
0.331
30
0.000
0
TEXT
7
PNTNUM
50
0.000
8
Text
62
3
10
0.584
20
0.330
30
0.000
40
0.001
1
175
0
LINE
8
Normals
62
1
10
0.584
20
0.331
30
0.000
11
0.584
21
0.331
31
0.100
0
POINT
8
Source_points
62
5
10
0.552
20
0.430
30
0.000
0
TEXT
7
PNTNUM
50
0.000
8
Text
62
3
10
0.552
20
0.430
30
0.000
40
0.001
1
176
0
LINE
8
Normals
62
1
10
0.552
20
0.430
30
0.000
11
0.552
21
0.430
31
0.100
0
POINT
8
Source_points
62
5
10
0.584
20
0.492
30
0.000
0
TEXT
7
PNTNUM
50
0.000
8
Text
62
3
10
0.584
20
0.491
30
0.000
40
0.001
1
177
0
LINE
8
Normals
62
1
10
0.584
20
0.492
30
0.000
11
0.584
21
0.492
31
0.100
0
POINT
8
Source_points
62
5
10
0.512
20
0.071
30
0.000
0
TEXT
7
PNTNUM
50
0.000
8
Text
62
3
10
0.512
20
0.071
30
0.000
40
0.001
1
178
0
LINE
8
Normals
62
1
10
0.512
20
0.071
30
0.000
11
0.512
21
0.071
31
0.100
0
POINT
8
Source_points
62
5
10
0.083
20
0.888
30
0.000
0
TEXT
7
PNTNUM
50
0.000
8
Text
62
3
10
0.083
20
0.887
30
0.000
40
0.001
1
179
0
LINE
8
Normals
62
1
10
0.083
20
0.888
30
0.000
11
0.083
21
0.888
31
0.100
0
POINT
8
Source_points
62
5
10
0.720
20
0.065
30
0.000
0
TEXT
7
PNTNUM
50
0.000
8
Text
62
3
10
0.720
20
0.064
30
0.000
40
0.001
1
180
0
LINE
8
Normals
62
1
10
0.720
20
0.065
30
0.000
11
0.720
21
0.065
31
0.100
0
POINT
8
Source_points
62
5
10
0.996
20
0.436
30
0.000
0
TEXT
7
PNTNUM
50
0.000
8
Text
62
3
10
0.997
20
0.436
30
0.000
40
0.001
1
181
0
LINE
8
Normals
62
1
10
0.996
20
0.436
30
0.000
11
0.996
21
0.436
31
0.100
0
POINT
8
Source_points
62
5
10
0.355
20
0.827
30
0.000
0
TEXT
7
PNTNUM
50
0.000
8
Text
62
3
10
0.355
20
0.826
30
0.000
40
0.001
1
182
0
LINE
8
Normals
62
1
10
0.355
20
0.827
30
0.000
11
0.355
21
0.827
31
0.100
0
POINT
8
Source_points
62
5
10
0.971
20
0.395
30
0.000
0
TEXT
7
PNTNUM
50
0.000
8
Text
62
3
10
0.972
20
0.394
30
0.000
40
0.001
1
183
0
LINE
8
Normals
62
1
10
0.971
20
0.395
30
0.000
11
0.971
21
0.395
31
0.100
0
POINT
8
Source_points
62
5
10
0.346
20
0.613
30
0.000
0
TEXT
7
PNTNUM
50
0.000
8
Text
62
3
10
0.347
20
0.613
30
0.000
40
0.001
1
184
0
LINE
8
Normals
62
1
10
0.346
20
0.613
30
0.000
11
0.346
21
0.613
31
0.100
0
POINT
8
Source_points
62
5
10
0.887
20
0.819
30
0.000
0
TEXT
7
PNTNUM
50
0.000
8
Text
62
3
10
0.887
20
0.818
30
0.000
40
0.001
1
185
0
LINE
8
Normals
62
1
10
0.887
20
0.819
30
0.000
11
0.887
21
0.819
31
0.100
0
POINT
8
Source_points
62
5
10
0.455
20
0.886
30
0.000
0
TEXT
7
PNTNUM
50
0.000
8
Text
62
3
10
0.455
20
0.886
30
0.000
40
0.001
1
186
0
LINE
8
Normals
62
1
10
0.455
20
0.886
30
0.000
11
0.455
21
0.886
31
0.100
0
POINT
8
Source_points
62
5
10
0.413
20
0.931
30
0.000
0
TEXT
7
PNTNUM
50
0.000
8
Text
62
3
10
0.414
20
0.931
30
0.000
40
0.001
1
187
0
LINE
8
Normals
62
1
10
0.413
20
0.931
30
0.000
11
0.413
21
0.931
31
0.100
0
POINT
8
Source_points
62
5
10
0.218
20
0.191
30
0.000
0
TEXT
7
PNTNUM
50
0.000
8
Text
62
3
10
0.218
20
0.190
30
0.000
40
0.001
1
188
0
LINE
8
Normals
62
1
10
0.218
20
0.191
30
0.000
11
0.218
21
0.191
31
0.100
0
POINT
8
Source_points
62
5
10
0.126
20
0.259
30
0.000
0
TEXT
7
PNTNUM
50
0.000
8
Text
62
3
10
0.126
20
0.258
30
0.000
40
0.001
1
189
0
LINE
8
Normals
62
1
10
0.126
20
0.259
30
0.000
11
0.126
21
0.259
31
0.100
0
POINT
8
Source_points
62
5
10
0.309
20
0.898
30
0.000
0
TEXT
7
PNTNUM
50
0.000
8
Text
62
3
10
0.309
20
0.897
30
0.000
40
0.001
1
190
0
LINE
8
Normals
62
1
10
0.309
20
0.898
30
0.000
11
0.309
21
0.898
31
0.100
0
POINT
8
Source_points
62
5
10
0.726
20
0.593
30
0.000
0
TEXT
7
PNTNUM
50
0.000
8
Text
62
3
10
0.727
20
0.593
30
0.000
40
0.001
1
191
0
LINE
8
Normals
62
1
10
0.726
20
0.593
30
0.000
11
0.726
21
0.593
31
0.100
0
POINT
8
Source_points
62
5
10
0.783
20
0.504
30
0.000
0
TEXT
7
PNTNUM
50
0.000
8
Text
62
3
10
0.783
20
0.503
30
0.000
40
0.001
1
192
0
LINE
8
Normals
62
1
10
0.783
20
0.504
30
0.000
11
0.783
21
0.504
31
0.100
0
POINT
8
Source_points
62
5
10
0.694
20
0.613
30
0.000
0
TEXT
7
PNTNUM
50
0.000
8
Text
62
3
10
0.694
20
0.612
30
0.000
40
0.001
1
193
0
LINE
8
Normals
62
1
10
0.694
20
0.613
30
0.000
11
0.694
21
0.613
31
0.100
0
POINT
8
Source_points
62
5
10
0.010
20
0.819
30
0.000
0
TEXT
7
PNTNUM
50
0.000
8
Text
62
3
10
0.010
20
0.819
30
0.000
40
0.001
1
194
0
LINE
8
Normals
62
1
10
0.010
20
0.819
30
0.000
11
0.010
21
0.819
31
0.100
0
POINT
8
Source_points
62
5
10
0.843
20
0.532
30
0.000
0
TEXT
7
PNTNUM
50
0.000
8
Text
62
3
10
0.844
20
0.531
30
0.000
40
0.001
1
195
0
LINE
8
Normals
62
1
10
0.843
20
0.532
30
0.000
11
0.843
21
0.532
31
0.100
0
POINT
8
Source_points
62
5
10
0.922
20
0.202
30
0.000
0
TEXT
7
PNTNUM
50
0.000
8
Text
62
3
10
0.923
20
0.202
30
0.000
40
0.001
1
196
0
LINE
8
Normals
62
1
10
0.922
20
0.202
30
0.000
11
0.922
21
0.202
31
0.100
0
POINT
8
Source_points
62
5
10
0.771
20
0.454
30
0.000
0
TEXT
7
PNTNUM
50
0.000
8
Text
62
3
10
0.771
20
0.453
30
0.000
40
0.001
1
197
0
LINE
8
Normals
62
1
10
0.771
20
0.454
30
0.000
11
0.771
21
0.454
31
0.100
0
POINT
8
Source_points
62
5
10
0.043
20
0.428
30
0.000
0
TEXT
7
PNTNUM
50
0.000
8
Text
62
3
10
0.043
20
0.427
30
0.000
40
0.001
1
198
0
LINE
8
Normals
62
1
10
0.043
20
0.428
30
0.000
11
0.043
21
0.428
31
0.100
0
POINT
8
Source_points
62
5
10
0.378
20
0.966
30
0.000
0
TEXT
7
PNTNUM
50
0.000
8
Text
62
3
10
0.379
20
0.966
30
0.000
40
0.001
1
199
0
LINE
8
Normals
62
1
10
0.378
20
0.966
30
0.000
11
0.378
21
0.966
31
0.100
0
POINT
8
Source_points
62
5
10
0.704
20
0.620
30
0.000
0
TEXT
7
PNTNUM
50
0.000
8
Text
62
3
10
0.705
20
0.620
30
0.000
40
0.001
1
200
0
LINE
8
Normals
62
1
10
0.704
20
0.620
30
0.000
11
0.704
21
0.620
31
0.100
0
POINT
8
Source_points
62
5
10
0.730
20
0.695
30
0.000
0
TEXT
7
PNTNUM
50
0.000
8
Text
62
3
10
0.730
20
0.695
30
0.000
40
0.001
1
201
0
LINE
8
Normals
62
1
10
0.730
20
0.695
30
0.000
11
0.730
21
0.695
31
0.100
0
POINT
8
Source_points
62
5
10
0.224
20
0.720
30
0.000
0
TEXT
7
PNTNUM
50
0.000
8
Text
62
3
10
0.225
20
0.720
30
0.000
40
0.001
1
202
0
LINE
8
Normals
62
1
10
0.224
20
0.720
30
0.000
11
0.224
21
0.720
31
0.100
0
POINT
8
Source_points
62
5
10
0.269
20
0.347
30
0.000
0
TEXT
7
PNTNUM
50
0.000
8
Text
62
3
10
0.270
20
0.346
30
0.000
40
0.001
1
203
0
LINE
8
Normals
62
1
10
0.269
20
0.347
30
0.000
11
0.269
21
0.347
31
0.100
0
POINT
8
Source_points
62
5
10
0.673
20
0.517
30
0.000
0
TEXT
7
PNTNUM
50
0.000
8
Text
62
3
10
0.674
20
0.516
30
0.000
40
0.001
1
204
0
LINE
8
Normals
62
1
10
0.673
20
0.517
30
0.000
11
0.673
21
0.517
31
0.100
0
POINT
8
Source_points
62
5
10
0.477
20
0.557
30
0.000
0
TEXT
7
PNTNUM
50
0.000
8
Text
62
3
10
0.478
20
0.556
30
0.000
40
0.001
1
205
0
LINE
8
Normals
62
1
10
0.477
20
0.557
30
0.000
11
0.477
21
0.557
31
0.100
0
POINT
8
Source_points
62
5
10
0.624
20
0.156
30
0.000
0
TEXT
7
PNTNUM
50
0.000
8
Text
62
3
10
0.624
20
0.156
30
0.000
40
0.001
1
206
0
LINE
8
Normals
62
1
10
0.624
20
0.156
30
0.000
11
0.624
21
0.156
31
0.100
0
POINT
8
Source_points
62
5
10
0.236
20
0.562
30
0.000
0
TEXT
7
PNTNUM
50
0.000
8
Text
62
3
10
0.237
20
0.562
30
0.000
40
0.001
1
207
0
LINE
8
Normals
62
1
10
0.236
20
0.562
30
0.000
11
0.236
21
0.562
31
0.100
0
POINT
8
Source_points
62
5
10
0.177
20
0.695
30
0.000
0
TEXT
7
PNTNUM
50
0.000
8
Text
62
3
10
0.178
20
0.694
30
0.000
40
0.001
1
208
0
LINE
8
Normals
62
1
10
0.177
20
0.695
30
0.000
11
0.177
21
0.695
31
0.100
0
POINT
8
Source_points
62
5
10
0.830
20
0.426
30
0.000
0
TEXT
7
PNTNUM
50
0.000
8
Text
62
3
10
0.830
20
0.426
30
0.000
40
0.001
1
209
0
LINE
8
Normals
62
1
10
0.830
20
0.426
30
0.000
11
0.830
21
0.426
31
0.100
0
POINT
8
Source_points
62
5
10
0.767
20
0.836
30
0.000
0
TEXT
7
PNTNUM
50
0.000
8
Text
62
3
10
0.767
20
0.836
30
0.000
40
0.001
1
210
0
LINE
8
Normals
62
1
10
0.767
20
0.836
30
0.000
11
0.767
21
0.836
31
0.100
0
POINT
8
Source_points
62
5
10
0.934
20
0.731
30
0.000
0
TEXT
7
PNTNUM
50
0.000
8
Text
62
3
10
0.935
20
0.731
30
0.000
40
0.001
1
211
0
LINE
8
Normals
62
1
10
0.934
20
0.731
30
0.000
11
0.934
21
0.731
31
0.100
0
POINT
8
Source_points
62
5
10
0.108
20
0.360
30
0.000
0
TEXT
7
PNTNUM
50
0.000
8
Text
62
3
10
0.108
20
0.360
30
0.000
40
0.001
1
212
0
LINE
8
Normals
62
1
10
0.108
20
0.360
30
0.000
11
0.108
21
0.360
31
0.100
0
POINT
8
Source_points
62
5
10
0.182
20
0.454
30
0.000
0
TEXT
7
PNTNUM
50
0.000
8
Text
62
3
10
0.183
20
0.454
30
0.000
40
0.001
1
213
0
LINE
8
Normals
62
1
10
0.182
20
0.454
30
0.000
11
0.182
21
0.454
31
0.100
0
POINT
8
Source_points
62
5
10
0.099
20
0.386
30
0.000
0
TEXT
7
PNTNUM
50
0.000
8
Text
62
3
10
0.100
20
0.386
30
0.000
40
0.001
1
214
0
LINE
8
Normals
62
1
10
0.099
20
0.386
30
0.000
11
0.099
21
0.386
31
0.100
0
POINT
8
Source_points
62
5
10
0.490
20
0.776
30
0.000
0
TEXT
7
PNTNUM
50
0.000
8
Text
62
3
10
0.490
20
0.775
30
0.000
40
0.001
1
215
0
LINE
8
Normals
62
1
10
0.490
20
0.776
30
0.000
11
0.490
21
0.776
31
0.100
0
POINT
8
Source_points
62
5
10
0.193
20
0.734
30
0.000
0
TEXT
7
PNTNUM
50
0.000
8
Text
62
3
10
0.194
20
0.734
30
0.000
40
0.001
1
216
0
LINE
8
Normals
62
1
10
0.193
20
0.734
30
0.000
11
0.193
21
0.734
31
0.100
0
POINT
8
Source_points
62
5
10
0.896
20
0.430
30
0.000
0
TEXT
7
PNTNUM
50
0.000
8
Text
62
3
10
0.896
20
0.430
30
0.000
40
0.001
1
217
0
LINE
8
Normals
62
1
10
0.896
20
0.430
30
0.000
11
0.896
21
0.430
31
0.100
0
POINT
8
Source_points
62
5
10
0.099
20
0.694
30
0.000
0
TEXT
7
PNTNUM
50
0.000
8
Text
62
3
10
0.100
20
0.693
30
0.000
40
0.001
1
218
0
LINE
8
Normals
62
1
10
0.099
20
0.694
30
0.000
11
0.099
21
0.694
31
0.100
0
POINT
8
Source_points
62
5
10
0.044
20
0.945
30
0.000
0
TEXT
7
PNTNUM
50
0.000
8
Text
62
3
10
0.045
20
0.945
30
0.000
40
0.001
1
219
0
LINE
8
Normals
62
1
10
0.044
20
0.945
30
0.000
11
0.044
21
0.945
31
0.100
0
POINT
8
Source_points
62
5
10
0.557
20
0.784
30
0.000
0
TEXT
7
PNTNUM
50
0.000
8
Text
62
3
10
0.558
20
0.784
30
0.000
40
0.001
1
220
0
LINE
8
Normals
62
1
10
0.557
20
0.784
30
0.000
11
0.557
21
0.784
31
0.100
0
POINT
8
Source_points
62
5
10
0.772
20
0.706
30
0.000
0
TEXT
7
PNTNUM
50
0.000
8
Text
62
3
10
0.773
20
0.705
30
0.000
40
0.001
1
221
0
LINE
8
Normals
62
1
10
0.772
20
0.706
30
0.000
11
0.772
21
0.706
31
0.100
0
POINT
8
Source_points
62
5
10
0.312
20
0.109
30
0.000
0
TEXT
7
PNTNUM
50
0.000
8
Text
62
3
10
0.312
20
0.109
30
0.000
40
0.001
1
222
0
LINE
8
Normals
62
1
10
0.312
20
0.109
30
0.000
11
0.312
21
0.109
31
0.100
0
POINT
8
Source_points
62
5
10
0.179
20
0.390
30
0.000
0
TEXT
7
PNTNUM
50
0.000
8
Text
62
3
10
0.179
20
0.389
30
0.000
40
0.001
1
223
0
LINE
8
Normals
62
1
10
0.179
20
0.390
30
0.000
11
0.179
21
0.390
31
0.100
0
POINT
8
Source_points
62
5
10
0.339
20
0.591
30
0.000
0
TEXT
7
PNTNUM
50
0.000
8
Text
62
3
10
0.339
20
0.590
30
0.000
40
0.001
1
224
0
LINE
8
Normals
62
1
10
0.339
20
0.591
30
0.000
11
0.339
21
0.591
31
0.100
0
POINT
8
Source_points
62
5
10
0.210
20
0.459
30
0.000
0
TEXT
7
PNTNUM
50
0.000
8
Text
62
3
10
0.211
20
0.459
30
0.000
40
0.001
1
225
0
LINE
8
Normals
62
1
10
0.210
20
0.459
30
0.000
11
0.210
21
0.459
31
0.100
0
POINT
8
Source_points
62
5
10
0.510
20
0.050
30
0.000
0
TEXT
7
PNTNUM
50
0.000
8
Text
62
3
10
0.511
20
0.050
30
0.000
40
0.001
1
226
0
LINE
8
Normals
62
1
10
0.510
20
0.050
30
0.000
11
0.510
21
0.050
31
0.100
0
POINT
8
Source_points
62
5
10
0.906
20
0.229
30
0.000
0
TEXT
7
PNTNUM
50
0.000
8
Text
62
3
10
0.907
20
0.228
30
0.000
40
0.001
1
227
0
LINE
8
Normals
62
1
10
0.906
20
0.229
30
0.000
11
0.906
21
0.229
31
0.100
0
POINT
8
Source_points
62
5
10
0.629
20
0.834
30
0.000
0
TEXT
7
PNTNUM
50
0.000
8
Text
62
3
10
0.629
20
0.834
30
0.000
40
0.001
1
228
0
LINE
8
Normals
62
1
10
0.629
20
0.834
30
0.000
11
0.629
21
0.834
31
0.100
0
POINT
8
Source_points
62
5
10
0.102
20
0.016
30
0.000
0
TEXT
7
PNTNUM
50
0.000
8
Text
62
3
10
0.102
20
0.015
30
0.000
40
0.001
1
229
0
LINE
8
Normals
62
1
10
0.102
20
0.016
30
0.000
11
0.102
21
0.016
31
0.100
0
POINT
8
Source_points
62
5
10
0.391
20
0.864
30
0.000
0
TEXT
7
PNTNUM
50
0.000
8
Text
62
3
10
0.391
20
0.863
30
0.000
40
0.001
1
230
0
LINE
8
Normals
62
1
10
0.391
20
0.864
30
0.000
11
0.391
21
0.864
31
0.100
0
POINT
8
Source_points
62
5
10
0.055
20
0.078
30
0.000
0
TEXT
7
PNTNUM
50
0.000
8
Text
62
3
10
0.055
20
0.078
30
0.000
40
0.001
1
231
0
LINE
8
Normals
62
1
10
0.055
20
0.078
30
0.000
11
0.055
21
0.078
31
0.100
0
POINT
8
Source_points
62
5
10
0.501
20
0.669
30
0.000
0
TEXT
7
PNTNUM
50
0.000
8
Text
62
3
10
0.502
20
0.669
30
0.000
40
0.001
1
232
0
LINE
8
Normals
62
1
10
0.501
20
0.669
30
0.000
11
0.501
21
0.669
31
0.100
0
POINT
8
Source_points
62
5
10
0.432
20
0.500
30
0.000
0
TEXT
7
PNTNUM
50
0.000
8
Text
62
3
10
0.432
20
0.500
30
0.000
40
0.001
1
233
0
LINE
8
Normals
62
1
10
0.432
20
0.500
30
0.000
11
0.432
21
0.500
31
0.100
0
POINT
8
Source_points
62
5
10
0.998
20
0.218
30
0.000
0
TEXT
7
PNTNUM
50
0.000
8
Text
62
3
10
0.998
20
0.217
30
0.000
40
0.001
1
234
0
LINE
8
Normals
62
1
10
0.998
20
0.218
30
0.000
11
0.998
21
0.218
31
0.100
0
POINT
8
Source_points
62
5
10
0.812
20
0.572
30
0.000
0
TEXT
7
PNTNUM
50
0.000
8
Text
62
3
10
0.812
20
0.571
30
0.000
40
0.001
1
235
0
LINE
8
Normals
62
1
10
0.812
20
0.572
30
0.000
11
0.812
21
0.572
31
0.100
0
POINT
8
Source_points
62
5
10
0.486
20
0.122
30
0.000
0
TEXT
7
PNTNUM
50
0.000
8
Text
62
3
10
0.486
20
0.122
30
0.000
40
0.001
1
236
0
LINE
8
Normals
62
1
10
0.486
20
0.122
30
0.000
11
0.486
21
0.122
31
0.100
0
POINT
8
Source_points
62
5
10
0.894
20
0.671
30
0.000
0
TEXT
7
PNTNUM
50
0.000
8
Text
62
3
10
0.895
20
0.671
30
0.000
40
0.001
1
237
0
LINE
8
Normals
62
1
10
0.894
20
0.671
30
0.000
11
0.894
21
0.671
31
0.100
0
POINT
8
Source_points
62
5
10
0.138
20
0.600
30
0.000
0
TEXT
7
PNTNUM
50
0.000
8
Text
62
3
10
0.138
20
0.599
30
0.000
40
0.001
1
238
0
LINE
8
Normals
62
1
10
0.138
20
0.600
30
0.000
11
0.138
21
0.600
31
0.100
0
POINT
8
Source_points
62
5
10
0.390
20
0.056
30
0.000
0
TEXT
7
PNTNUM
50
0.000
8
Text
62
3
10
0.391
20
0.055
30
0.000
40
0.001
1
239
0
LINE
8
Normals
62
1
10
0.390
20
0.056
30
0.000
11
0.390
21
0.056
31
0.100
0
POINT
8
Source_points
62
5
10
0.927
20
0.056
30
0.000
0
TEXT
7
PNTNUM
50
0.000
8
Text
62
3
10
0.928
20
0.056
30
0.000
40
0.001
1
240
0
LINE
8
Normals
62
1
10
0.927
20
0.056
30
0.000
11
0.927
21
0.056
31
0.100
0
POINT
8
Source_points
62
5
10
0.917
20
0.153
30
0.000
0
TEXT
7
PNTNUM
50
0.000
8
Text
62
3
10
0.918
20
0.152
30
0.000
40
0.001
1
241
0
LINE
8
Normals
62
1
10
0.917
20
0.153
30
0.000
11
0.917
21
0.153
31
0.100
0
POINT
8
Source_points
62
5
10
0.714
20
0.020
30
0.000
0
TEXT
7
PNTNUM
50
0.000
8
Text
62
3
10
0.714
20
0.019
30
0.000
40
0.001
1
242
0
LINE
8
Normals
62
1
10
0.714
20
0.020
30
0.000
11
0.714
21
0.020
31
0.100
0
POINT
8
Source_points
62
5
10
0.618
20
0.435
30
0.000
0
TEXT
7
PNTNUM
50
0.000
8
Text
62
3
10
0.619
20
0.435
30
0.000
40
0.001
1
243
0
LINE
8
Normals
62
1
10
0.618
20
0.435
30
0.000
11
0.618
21
0.435
31
0.100
0
POINT
8
Source_points
62
5
10
0.343
20
0.832
30
0.000
0
TEXT
7
PNTNUM
50
0.000
8
Text
62
3
10
0.344
20
0.832
30
0.000
40
0.001
1
244
0
LINE
8
Normals
62
1
10
0.343
20
0.832
30
0.000
11
0.343
21
0.832
31
0.100
0
POINT
8
Source_points
62
5
10
0.936
20
0.617
30
0.000
0
TEXT
7
PNTNUM
50
0.000
8
Text
62
3
10
0.937
20
0.617
30
0.000
40
0.001
1
245
0
LINE
8
Normals
62
1
10
0.936
20
0.617
30
0.000
11
0.936
21
0.617
31
0.100
0
POINT
8
Source_points
62
5
10
0.125
20
0.520
30
0.000
0
TEXT
7
PNTNUM
50
0.000
8
Text
62
3
10
0.125
20
0.520
30
0.000
40
0.001
1
246
0
LINE
8
Normals
62
1
10
0.125
20
0.520
30
0.000
11
0.125
21
0.520
31
0.100
0
POINT
8
Source_points
62
5
10
0.731
20
0.864
30
0.000
0
TEXT
7
PNTNUM
50
0.000
8
Text
62
3
10
0.731
20
0.863
30
0.000
40
0.001
1
247
0
LINE
8
Normals
62
1
10
0.731
20
0.864
30
0.000
11
0.731
21
0.864
31
0.100
0
POINT
8
Source_points
62
5
10
0.646
20
0.098
30
0.000
0
TEXT
7
PNTNUM
50
0.000
8
Text
62
3
10
0.647
20
0.097
30
0.000
40
0.001
1
248
0
LINE
8
Normals
62
1
10
0.646
20
0.098
30
0.000
11
0.646
21
0.098
31
0.100
0
POINT
8
Source_points
62
5
10
0.833
20
0.908
30
0.000
0
TEXT
7
PNTNUM
50
0.000
8
Text
62
3
10
0.834
20
0.908
30
0.000
40
0.001
1
249
0
LINE
8
Normals
62
1
10
0.833
20
0.908
30
0.000
11
0.833
21
0.908
31
0.100
0
POINT
8
Source_points
62
5
10
0.398
20
0.108
30
0.000
0
TEXT
7
PNTNUM
50
0.000
8
Text
62
3
10
0.399
20
0.108
30
0.000
40
0.001
1
250
0
LINE
8
Normals
62
1
10
0.398
20
0.108
30
0.000
11
0.398
21
0.108
31
0.100
0
POINT
8
Source_points
62
5
10
0.750
20
0.517
30
0.000
0
TEXT
7
PNTNUM
50
0.000
8
Text
62
3
10
0.750
20
0.516
30
0.000
40
0.001
1
251
0
LINE
8
Normals
62
1
10
0.750
20
0.517
30
0.000
11
0.750
21
0.517
31
0.100
0
POINT
8
Source_points
62
5
10
0.835
20
0.143
30
0.000
0
TEXT
7
PNTNUM
50
0.000
8
Text
62
3
10
0.836
20
0.143
30
0.000
40
0.001
1
252
0
LINE
8
Normals
62
1
10
0.835
20
0.143
30
0.000
11
0.835
21
0.143
31
0.100
0
POINT
8
Source_points
62
5
10
0.322
20
0.559
30
0.000
0
TEXT
7
PNTNUM
50
0.000
8
Text
62
3
10
0.323
20
0.559
30
0.000
40
0.001
1
253
0
LINE
8
Normals
62
1
10
0.322
20
0.559
30
0.000
11
0.322
21
0.559
31
0.100
0
POINT
8
Source_points
62
5
10
0.552
20
0.005
30
0.000
0
TEXT
7
PNTNUM
50
0.000
8
Text
62
3
10
0.553
20
0.004
30
0.000
40
0.001
1
254
0
LINE
8
Normals
62
1
10
0.552
20
0.005
30
0.000
11
0.552
21
0.005
31
0.100
0
POINT
8
Source_points
62
5
10
0.979
20
0.767
30
0.000
0
TEXT
7
PNTNUM
50
0.000
8
Text
62
3
10
0.980
20
0.766
30
0.000
40
0.001
1
255
0
LINE
8
Normals
62
1
10
0.979
20
0.767
30
0.000
11
0.979
21
0.767
31
0.100
0
POINT
8
Source_points
62
5
10
0.549
20
0.849
30
0.000
0
TEXT
7
PNTNUM
50
0.000
8
Text
62
3
10
0.550
20
0.848
30
0.000
40
0.001
1
256
0
LINE
8
Normals
62
1
10
0.549
20
0.849
30
0.000
11
0.549
21
0.849
31
0.100
0
POINT
8
Source_points
62
5
10
0.330
20
0.917
30
0.000
0
TEXT
7
PNTNUM
50
0.000
8
Text
62
3
10
0.331
20
0.916
30
0.000
40
0.001
1
257
0
LINE
8
Normals
62
1
10
0.330
20
0.917
30
0.000
11
0.330
21
0.917
31
0.100
0
POINT
8
Source_points
62
5
10
0.619
20
0.987
30
0.000
0
TEXT
7
PNTNUM
50
0.000
8
Text
62
3
10
0.620
20
0.986
30
0.000
40
0.001
1
258
0
LINE
8
Normals
62
1
10
0.619
20
0.987
30
0.000
11
0.619
21
0.987
31
0.100
0
POINT
8
Source_points
62
5
10
0.361
20
0.505
30
0.000
0
TEXT
7
PNTNUM
50
0.000
8
Text
62
3
10
0.361
20
0.505
30
0.000
40
0.001
1
259
0
LINE
8
Normals
62
1
10
0.361
20
0.505
30
0.000
11
0.361
21
0.505
31
0.100
0
POINT
8
Source_points
62
5
10
0.757
20
0.271
30
0.000
0
TEXT
7
PNTNUM
50
0.000
8
Text
62
3
10
0.757
20
0.271
30
0.000
40
0.001
1
260
0
LINE
8
Normals
62
1
10
0.757
20
0.271
30
0.000
11
0.757
21
0.271
31
0.100
0
POINT
8
Source_points
62
5
10
0.414
20
0.101
30
0.000
0
TEXT
7
PNTNUM
50
0.000
8
Text
62
3
10
0.414
20
0.100
30
0.000
40
0.001
1
261
0
LINE
8
Normals
62
1
10
0.414
20
0.101
30
0.000
11
0.414
21
0.101
31
0.100
0
POINT
8
Source_points
62
5
10
0.492
20
0.508
30
0.000
0
TEXT
7
PNTNUM
50
0.000
8
Text
62
3
10
0.493
20
0.507
30
0.000
40
0.001
1
262
0
LINE
8
Normals
62
1
10
0.492
20
0.508
30
0.000
11
0.492
21
0.508
31
0.100
0
POINT
8
Source_points
62
5
10
0.695
20
0.586
30
0.000
0
TEXT
7
PNTNUM
50
0.000
8
Text
62
3
10
0.695
20
0.585
30
0.000
40
0.001
1
263
0
LINE
8
Normals
62
1
10
0.695
20
0.586
30
0.000
11
0.695
21
0.586
31
0.100
0
POINT
8
Source_points
62
5
10
0.973
20
0.763
30
0.000
0
TEXT
7
PNTNUM
50
0.000
8
Text
62
3
10
0.973
20
0.762
30
0.000
40
0.001
1
264
0
LINE
8
Normals
62
1
10
0.973
20
0.763
30
0.000
11
0.973
21
0.763
31
0.100
0
POINT
8
Source_points
62
5
10
0.328
20
0.083
30
0.000
0
TEXT
7
PNTNUM
50
0.000
8
Text
62
3
10
0.328
20
0.082
30
0.000
40
0.001
1
265
0
LINE
8
Normals
62
1
10
0.328
20
0.083
30
0.000
11
0.328
21
0.083
31
0.100
0
POINT
8
Source_points
62
5
10
0.838
20
0.662
30
0.000
0
TEXT
7
PNTNUM
50
0.000
8
Text
62
3
10
0.838
20
0.661
30
0.000
40
0.001
1
266
0
LINE
8
Normals
62
1
10
0.838
20
0.662
30
0.000
11
0.838
21
0.662
31
0.100
0
POINT
8
Source_points
62
5
10
0.739
20
0.517
30
0.000
0
TEXT
7
PNTNUM
50
0.000
8
Text
62
3
10
0.740
20
0.516
30
0.000
40
0.001
1
267
0
LINE
8
Normals
62
1
10
0.739
20
0.517
30
0.000
11
0.739
21
0.517
31
0.100
0
POINT
8
Source_points
62
5
10
0.954
20
0.171
30
0.000
0
TEXT
7
PNTNUM
50
0.000
8
Text
62
3
10
0.955
20
0.171
30
0.000
40
0.001
1
268
0
LINE
8
Normals
62
1
10
0.954
20
0.171
30
0.000
11
0.954
21
0.171
31
0.100
0
POINT
8
Source_points
62
5
10
0.032
20
0.939
30
0.000
0
TEXT
7
PNTNUM
50
0.000
8
Text
62
3
10
0.032
20
0.938
30
0.000
40
0.001
1
269
0
LINE
8
Normals
62
1
10
0.032
20
0.939
30
0.000
11
0.032
21
0.939
31
0.100
0
POINT
8
Source_points
62
5
10
0.357
20
0.590
30
0.000
0
TEXT
7
PNTNUM
50
0.000
8
Text
62
3
10
0.357
20
0.590
30
0.000
40
0.001
1
270
0
LINE
8
Normals
62
1
10
0.357
20
0.590
30
0.000
11
0.357
21
0.590
31
0.100
0
POINT
8
Source_points
62
5
10
0.663
20
0.441
30
0.000
0
TEXT
7
PNTNUM
50
0.000
8
Text
62
3
10
0.663
20
0.440
30
0.000
40
0.001
1
271
0
LINE
8
Normals
62
1
10
0.663
20
0.441
30
0.000
11
0.663
21
0.441
31
0.100
0
POINT
8
Source_points
62
5
10
0.282
20
0.942
30
0.000
0
TEXT
7
PNTNUM
50
0.000
8
Text
62
3
10
0.282
20
0.941
30
0.000
40
0.001
1
272
0
LINE
8
Normals
62
1
10
0.282
20
0.942
30
0.000
11
0.282
21
0.942
31
0.100
0
POINT
8
Source_points
62
5
10
0.230
20
0.656
30
0.000
0
TEXT
7
PNTNUM
50
0.000
8
Text
62
3
10
0.231
20
0.655
30
0.000
40
0.001
1
273
0
LINE
8
Normals
62
1
10
0.230
20
0.656
30
0.000
11
0.230
21
0.656
31
0.100
0
POINT
8
Source_points
62
5
10
0.711
20
0.452
30
0.000
0
TEXT
7
PNTNUM
50
0.000
8
Text
62
3
10
0.712
20
0.451
30
0.000
40
0.001
1
274
0
LINE
8
Normals
62
1
10
0.711
20
0.452
30
0.000
11
0.711
21
0.452
31
0.100
0
POINT
8
Source_points
62
5
10
0.625
20
0.840
30
0.000
0
TEXT
7
PNTNUM
50
0.000
8
Text
62
3
10
0.625
20
0.839
30
0.000
40
0.001
1
275
0
LINE
8
Normals
62
1
10
0.625
20
0.840
30
0.000
11
0.625
21
0.840
31
0.100
0
POINT
8
Source_points
62
5
10
0.591
20
0.533
30
0.000
0
TEXT
7
PNTNUM
50
0.000
8
Text
62
3
10
0.591
20
0.532
30
0.000
40
0.001
1
276
0
LINE
8
Normals
62
1
10
0.591
20
0.533
30
0.000
11
0.591
21
0.533
31
0.100
0
POINT
8
Source_points
62
5
10
0.660
20
0.554
30
0.000
0
TEXT
7
PNTNUM
50
0.000
8
Text
62
3
10
0.661
20
0.553
30
0.000
40
0.001
1
277
0
LINE
8
Normals
62
1
10
0.660
20
0.554
30
0.000
11
0.660
21
0.554
31
0.100
0
POINT
8
Source_points
62
5
10
0.048
20
0.680
30
0.000
0
TEXT
7
PNTNUM
50
0.000
8
Text
62
3
10
0.048
20
0.680
30
0.000
40
0.001
1
278
0
LINE
8
Normals
62
1
10
0.048
20
0.680
30
0.000
11
0.048
21
0.680
31
0.100
0
POINT
8
Source_points
62
5
10
0.349
20
0.367
30
0.000
0
TEXT
7
PNTNUM
50
0.000
8
Text
62
3
10
0.349
20
0.367
30
0.000
40
0.001
1
279
0
LINE
8
Normals
62
1
10
0.349
20
0.367
30
0.000
11
0.349
21
0.367
31
0.100
0
POINT
8
Source_points
62
5
10
0.451
20
0.239
30
0.000
0
TEXT
7
PNTNUM
50
0.000
8
Text
62
3
10
0.452
20
0.239
30
0.000
40
0.001
1
280
0
LINE
8
Normals
62
1
10
0.451
20
0.239
30
0.000
11
0.451
21
0.239
31
0.100
0
POINT
8
Source_points
62
5
10
0.241
20
0.579
30
0.000
0
TEXT
7
PNTNUM
50
0.000
8
Text
62
3
10
0.241
20
0.578
30
0.000
40
0.001
1
281
0
LINE
8
Normals
62
1
10
0.241
20
0.579
30
0.000
11
0.241
21
0.579
31
0.100
0
POINT
8
Source_points
62
5
10
0.715
20
0.867
30
0.000
0
TEXT
7
PNTNUM
50
0.000
8
Text
62
3
10
0.716
20
0.866
30
0.000
40
0.001
1
282
0
LINE
8
Normals
62
1
10
0.715
20
0.867
30
0.000
11
0.715
21
0.867
31
0.100
0
POINT
8
Source_points
62
5
10
0.856
20
0.407
30
0.000
0
TEXT
7
PNTNUM
50
0.000
8
Text
62
3
10
0.857
20
0.406
30
0.000
40
0.001
1
283
0
LINE
8
Normals
62
1
10
0.856
20
0.407
30
0.000
11
0.856
21
0.407
31
0.100
0
POINT
8
Source_points
62
5
10
0.282
20
0.113
30
0.000
0
TEXT
7
PNTNUM
50
0.000
8
Text
62
3
10
0.282
20
0.112
30
0.000
40
0.001
1
284
0
LINE
8
Normals
62
1
10
0.282
20
0.113
30
0.000
11
0.282
21
0.113
31
0.100
0
POINT
8
Source_points
62
5
10
0.731
20
0.444
30
0.000
0
TEXT
7
PNTNUM
50
0.000
8
Text
62
3
10
0.732
20
0.443
30
0.000
40
0.001
1
285
0
LINE
8
Normals
62
1
10
0.731
20
0.444
30
0.000
11
0.731
21
0.444
31
0.100
0
POINT
8
Source_points
62
5
10
0.138
20
0.300
30
0.000
0
TEXT
7
PNTNUM
50
0.000
8
Text
62
3
10
0.138
20
0.300
30
0.000
40
0.001
1
286
0
LINE
8
Normals
62
1
10
0.138
20
0.300
30
0.000
11
0.138
21
0.300
31
0.100
0
POINT
8
Source_points
62
5
10
0.837
20
0.401
30
0.000
0
TEXT
7
PNTNUM
50
0.000
8
Text
62
3
10
0.837
20
0.401
30
0.000
40
0.001
1
287
0
LINE
8
Normals
62
1
10
0.837
20
0.401
30
0.000
11
0.837
21
0.401
31
0.100
0
POINT
8
Source_points
62
5
10
0.139
20
0.833
30
0.000
0
TEXT
7
PNTNUM
50
0.000
8
Text
62
3
10
0.139
20
0.833
30
0.000
40
0.001
1
288
0
LINE
8
Normals
62
1
10
0.139
20
0.833
30
0.000
11
0.139
21
0.833
31
0.100
0
POINT
8
Source_points
62
5
10
0.588
20
0.404
30
0.000
0
TEXT
7
PNTNUM
50
0.000
8
Text
62
3
10
0.589
20
0.403
30
0.000
40
0.001
1
289
0
LINE
8
Normals
62
1
10
0.588
20
0.404
30
0.000
11
0.588
21
0.404
31
0.100
0
POINT
8
Source_points
62
5
10
0.366
20
0.390
30
0.000
0
TEXT
7
PNTNUM
50
0.000
8
Text
62
3
10
0.367
20
0.390
30
0.000
40
0.001
1
290
0
LINE
8
Normals
62
1
10
0.366
20
0.390
30
0.000
11
0.366
21
0.390
31
0.100
0
POINT
8
Source_points
62
5
10
0.807
20
0.360
30
0.000
0
TEXT
7
PNTNUM
50
0.000
8
Text
62
3
10
0.807
20
0.360
30
0.000
40
0.001
1
291
0
LINE
8
Normals
62
1
10
0.807
20
0.360
30
0.000
11
0.807
21
0.360
31
0.100
0
POINT
8
Source_points
62
5
10
0.504
20
0.140
30
0.000
0
TEXT
7
PNTNUM
50
0.000
8
Text
62
3
10
0.504
20
0.140
30
0.000
40
0.001
1
292
0
LINE
8
Normals
62
1
10
0.504
20
0.140
30
0.000
11
0.504
21
0.140
31
0.100
0
POINT
8
Source_points
62
5
10
0.490
20
0.260
30
0.000
0
TEXT
7
PNTNUM
50
0.000
8
Text
62
3
10
0.490
20
0.260
30
0.000
40
0.001
1
293
0
LINE
8
Normals
62
1
10
0.490
20
0.260
30
0.000
11
0.490
21
0.260
31
0.100
0
POINT
8
Source_points
62
5
10
0.877
20
0.087
30
0.000
0
TEXT
7
PNTNUM
50
0.000
8
Text
62
3
10
0.878
20
0.086
30
0.000
40
0.001
1
294
0
LINE
8
Normals
62
1
10
0.877
20
0.087
30
0.000
11
0.877
21
0.087
31
0.100
0
POINT
8
Source_points
62
5
10
0.353
20
0.429
30
0.000
0
TEXT
7
PNTNUM
50
0.000
8
Text
62
3
10
0.354
20
0.429
30
0.000
40
0.001
1
295
0
LINE
8
Normals
62
1
10
0.353
20
0.429
30
0.000
11
0.353
21
0.429
31
0.100
0
POINT
8
Source_points
62
5
10
0.449
20
0.257
30
0.000
0
TEXT
7
PNTNUM
50
0.000
8
Text
62
3
10
0.450
20
0.257
30
0.000
40
0.001
1
296
0
LINE
8
Normals
62
1
10
0.449
20
0.257
30
0.000
11
0.449
21
0.257
31
0.100
0
POINT
8
Source_points
62
5
10
0.964
20
0.298
30
0.000
0
TEXT
7
PNTNUM
50
0.000
8
Text
62
3
10
0.964
20
0.297
30
0.000
40
0.001
1
297
0
LINE
8
Normals
62
1
10
0.964
20
0.298
30
0.000
11
0.964
21
0.298
31
0.100
0
POINT
8
Source_points
62
5
10
0.042
20
0.425
30
0.000
0
TEXT
7
PNTNUM
50
0.000
8
Text
62
3
10
0.043
20
0.424
30
0.000
40
0.001
1
298
0
LINE
8
Normals
62
1
10
0.042
20
0.425
30
0.000
11
0.042
21
0.425
31
0.100
0
POINT
8
Source_points
62
5
10
0.973
20
0.119
30
0.000
0
TEXT
7
PNTNUM
50
0.000
8
Text
62
3
10
0.973
20
0.119
30
0.000
40
0.001
1
299
0
LINE
8
Normals
62
1
10
0.973
20
0.119
30
0.000
11
0.973
21
0.119
31
0.100
0
POINT
8
Facilities
62
3
10
0.337
20
0.095
30
0.000
0
POINT
8
Clients
62
5
10
0.021
20
0.022
30
0.000
0
LINE
8
Facilities_lines
62
3
10
0.337
20
0.095
30
0.000
11
0.021
21
0.022
31
0.000
0
POINT
8
Clients
62
5
10
0.299
20
0.268
30
0.000
0
LINE
8
Facilities_lines
62
3
10
0.337
20
0.095
30
0.000
11
0.299
21
0.268
31
0.000
0
POINT
8
Clients
62
5
10
0.290
20
0.047
30
0.000
0
LINE
8
Facilities_lines
62
3
10
0.337
20
0.095
30
0.000
11
0.290
21
0.047
31
0.000
0
POINT
8
Clients
62
5
10
0.099
20
0.071
30
0.000
0
LINE
8
Facilities_lines
62
3
10
0.337
20
0.095
30
0.000
11
0.099
21
0.071
31
0.000
0
POINT
8
Clients
62
5
10
0.255
20
0.134
30
0.000
0
LINE
8
Facilities_lines
62
3
10
0.337
20
0.095
30
0.000
11
0.255
21
0.134
31
0.000
0
POINT
8
Clients
62
5
10
0.030
20
0.019
30
0.000
0
LINE
8
Facilities_lines
62
3
10
0.337
20
0.095
30
0.000
11
0.030
21
0.019
31
0.000
0
POINT
8
Clients
62
5
10
0.354
20
0.060
30
0.000
0
LINE
8
Facilities_lines
62
3
10
0.337
20
0.095
30
0.000
11
0.354
21
0.060
31
0.000
0
POINT
8
Clients
62
5
10
0.402
20
0.189
30
0.000
0
LINE
8
Facilities_lines
62
3
10
0.337
20
0.095
30
0.000
11
0.402
21
0.189
31
0.000
0
POINT
8
Clients
62
5
10
0.351
20
0.019
30
0.000
0
LINE
8
Facilities_lines
62
3
10
0.337
20
0.095
30
0.000
11
0.351
21
0.019
31
0.000
0
POINT
8
Clients
62
5
10
0.335
20
0.122
30
0.000
0
LINE
8
Facilities_lines
62
3
10
0.337
20
0.095
30
0.000
11
0.335
21
0.122
31
0.000
0
POINT
8
Clients
62
5
10
0.360
20
0.152
30
0.000
0
LINE
8
Facilities_lines
62
3
10
0.337
20
0.095
30
0.000
11
0.360
21
0.152
31
0.000
0
POINT
8
Clients
62
5
10
0.429
20
0.094
30
0.000
0
LINE
8
Facilities_lines
62
3
10
0.337
20
0.095
30
0.000
11
0.429
21
0.094
31
0.000
0
POINT
8
Clients
62
5
10
0.444
20
0.207
30
0.000
0
LINE
8
Facilities_lines
62
3
10
0.337
20
0.095
30
0.000
11
0.444
21
0.207
31
0.000
0
POINT
8
Clients
62
5
10
0.265
20
0.149
30
0.000
0
LINE
8
Facilities_lines
62
3
10
0.337
20
0.095
30
0.000
11
0.265
21
0.149
31
0.000
0
POINT
8
Clients
62
5
10
0.374
20
0.206
30
0.000
0
LINE
8
Facilities_lines
62
3
10
0.337
20
0.095
30
0.000
11
0.374
21
0.206
31
0.000
0
POINT
8
Clients
62
5
10
0.453
20
0.258
30
0.000
0
LINE
8
Facilities_lines
62
3
10
0.337
20
0.095
30
0.000
11
0.453
21
0.258
31
0.000
0
POINT
8
Clients
62
5
10
0.370
20
0.247
30
0.000
0
LINE
8
Facilities_lines
62
3
10
0.337
20
0.095
30
0.000
11
0.370
21
0.247
31
0.000
0
POINT
8
Clients
62
5
10
0.411
20
0.084
30
0.000
0
LINE
8
Facilities_lines
62
3
10
0.337
20
0.095
30
0.000
11
0.411
21
0.084
31
0.000
0
POINT
8
Clients
62
5
10
0.512
20
0.071
30
0.000
0
LINE
8
Facilities_lines
62
3
10
0.337
20
0.095
30
0.000
11
0.512
21
0.071
31
0.000
0
POINT
8
Clients
62
5
10
0.218
20
0.191
30
0.000
0
LINE
8
Facilities_lines
62
3
10
0.337
20
0.095
30
0.000
11
0.218
21
0.191
31
0.000
0
POINT
8
Clients
62
5
10
0.312
20
0.109
30
0.000
0
LINE
8
Facilities_lines
62
3
10
0.337
20
0.095
30
0.000
11
0.312
21
0.109
31
0.000
0
POINT
8
Clients
62
5
10
0.510
20
0.050
30
0.000
0
LINE
8
Facilities_lines
62
3
10
0.337
20
0.095
30
0.000
11
0.510
21
0.050
31
0.000
0
POINT
8
Clients
62
5
10
0.102
20
0.016
30
0.000
0
LINE
8
Facilities_lines
62
3
10
0.337
20
0.095
30
0.000
11
0.102
21
0.016
31
0.000
0
POINT
8
Clients
62
5
10
0.055
20
0.078
30
0.000
0
LINE
8
Facilities_lines
62
3
10
0.337
20
0.095
30
0.000
11
0.055
21
0.078
31
0.000
0
POINT
8
Clients
62
5
10
0.486
20
0.122
30
0.000
0
LINE
8
Facilities_lines
62
3
10
0.337
20
0.095
30
0.000
11
0.486
21
0.122
31
0.000
0
POINT
8
Clients
62
5
10
0.390
20
0.056
30
0.000
0
LINE
8
Facilities_lines
62
3
10
0.337
20
0.095
30
0.000
11
0.390
21
0.056
31
0.000
0
POINT
8
Clients
62
5
10
0.398
20
0.108
30
0.000
0
LINE
8
Facilities_lines
62
3
10
0.337
20
0.095
30
0.000
11
0.398
21
0.108
31
0.000
0
POINT
8
Clients
62
5
10
0.414
20
0.101
30
0.000
0
LINE
8
Facilities_lines
62
3
10
0.337
20
0.095
30
0.000
11
0.414
21
0.101
31
0.000
0
POINT
8
Clients
62
5
10
0.328
20
0.083
30
0.000
0
LINE
8
Facilities_lines
62
3
10
0.337
20
0.095
30
0.000
11
0.328
21
0.083
31
0.000
0
POINT
8
Clients
62
5
10
0.451
20
0.239
30
0.000
0
LINE
8
Facilities_lines
62
3
10
0.337
20
0.095
30
0.000
11
0.451
21
0.239
31
0.000
0
POINT
8
Clients
62
5
10
0.282
20
0.113
30
0.000
0
LINE
8
Facilities_lines
62
3
10
0.337
20
0.095
30
0.000
11
0.282
21
0.113
31
0.000
0
POINT
8
Clients
62
5
10
0.504
20
0.140
30
0.000
0
LINE
8
Facilities_lines
62
3
10
0.337
20
0.095
30
0.000
11
0.504
21
0.140
31
0.000
0
POINT
8
Clients
62
5
10
0.449
20
0.257
30
0.000
0
LINE
8
Facilities_lines
62
3
10
0.337
20
0.095
30
0.000
11
0.449
21
0.257
31
0.000
0
LINE
8
Min_max_boxes
62
1
10
0.021
20
0.016
30
0.000
11
0.512
21
0.016
31
0.000
0
LINE
8
Min_max_boxes
62
1
10
0.512
20
0.016
30
0.000
11
0.512
21
0.268
31
0.000
0
LINE
8
Min_max_boxes
62
1
10
0.512
20
0.268
30
0.000
11
0.021
21
0.268
31
0.000
0
LINE
8
Min_max_boxes
62
1
10
0.021
20
0.268
30
0.000
11
0.021
21
0.016
31
0.000
0
LINE
8
Min_max_boxes
62
1
10
0.021
20
0.016
30
0.000
11
0.512
21
0.016
31
0.000
0
LINE
8
Min_max_boxes
62
1
10
0.512
20
0.016
30
0.000
11
0.512
21
0.268
31
0.000
0
LINE
8
Min_max_boxes
62
1
10
0.512
20
0.268
30
0.000
11
0.021
21
0.268
31
0.000
0
LINE
8
Min_max_boxes
62
1
10
0.021
20
0.268
30
0.000
11
0.021
21
0.016
31
0.000
0
LINE
8
Min_max_boxes
62
1
10
0.021
20
0.016
30
0.000
11
0.021
21
0.016
31
0.000
0
LINE
8
Min_max_boxes
62
1
10
0.512
20
0.016
30
0.000
11
0.512
21
0.016
31
0.000
0
LINE
8
Min_max_boxes
62
1
10
0.512
20
0.268
30
0.000
11
0.512
21
0.268
31
0.000
0
LINE
8
Min_max_boxes
62
1
10
0.021
20
0.268
30
0.000
11
0.021
21
0.268
31
0.000
0
POINT
8
Facilities
62
3
10
0.720
20
0.065
30
0.000
0
POINT
8
Clients
62
5
10
0.686
20
0.084
30
0.000
0
LINE
8
Facilities_lines
62
3
10
0.720
20
0.065
30
0.000
11
0.686
21
0.084
31
0.000
0
POINT
8
Clients
62
5
10
0.743
20
0.122
30
0.000
0
LINE
8
Facilities_lines
62
3
10
0.720
20
0.065
30
0.000
11
0.743
21
0.122
31
0.000
0
POINT
8
Clients
62
5
10
0.741
20
0.046
30
0.000
0
LINE
8
Facilities_lines
62
3
10
0.720
20
0.065
30
0.000
11
0.741
21
0.046
31
0.000
0
POINT
8
Clients
62
5
10
0.764
20
0.055
30
0.000
0
LINE
8
Facilities_lines
62
3
10
0.720
20
0.065
30
0.000
11
0.764
21
0.055
31
0.000
0
POINT
8
Clients
62
5
10
0.744
20
0.195
30
0.000
0
LINE
8
Facilities_lines
62
3
10
0.720
20
0.065
30
0.000
11
0.744
21
0.195
31
0.000
0
POINT
8
Clients
62
5
10
0.671
20
0.026
30
0.000
0
LINE
8
Facilities_lines
62
3
10
0.720
20
0.065
30
0.000
11
0.671
21
0.026
31
0.000
0
POINT
8
Clients
62
5
10
0.525
20
0.139
30
0.000
0
LINE
8
Facilities_lines
62
3
10
0.720
20
0.065
30
0.000
11
0.525
21
0.139
31
0.000
0
POINT
8
Clients
62
5
10
0.867
20
0.072
30
0.000
0
LINE
8
Facilities_lines
62
3
10
0.720
20
0.065
30
0.000
11
0.867
21
0.072
31
0.000
0
POINT
8
Clients
62
5
10
0.661
20
0.123
30
0.000
0
LINE
8
Facilities_lines
62
3
10
0.720
20
0.065
30
0.000
11
0.661
21
0.123
31
0.000
0
POINT
8
Clients
62
5
10
0.662
20
0.147
30
0.000
0
LINE
8
Facilities_lines
62
3
10
0.720
20
0.065
30
0.000
11
0.662
21
0.147
31
0.000
0
POINT
8
Clients
62
5
10
0.624
20
0.156
30
0.000
0
LINE
8
Facilities_lines
62
3
10
0.720
20
0.065
30
0.000
11
0.624
21
0.156
31
0.000
0
POINT
8
Clients
62
5
10
0.714
20
0.020
30
0.000
0
LINE
8
Facilities_lines
62
3
10
0.720
20
0.065
30
0.000
11
0.714
21
0.020
31
0.000
0
POINT
8
Clients
62
5
10
0.646
20
0.098
30
0.000
0
LINE
8
Facilities_lines
62
3
10
0.720
20
0.065
30
0.000
11
0.646
21
0.098
31
0.000
0
POINT
8
Clients
62
5
10
0.552
20
0.005
30
0.000
0
LINE
8
Facilities_lines
62
3
10
0.720
20
0.065
30
0.000
11
0.552
21
0.005
31
0.000
0
LINE
8
Min_max_boxes
62
1
10
0.525
20
0.005
30
0.000
11
0.867
21
0.005
31
0.000
0
LINE
8
Min_max_boxes
62
1
10
0.867
20
0.005
30
0.000
11
0.867
21
0.195
31
0.000
0
LINE
8
Min_max_boxes
62
1
10
0.867
20
0.195
30
0.000
11
0.525
21
0.195
31
0.000
0
LINE
8
Min_max_boxes
62
1
10
0.525
20
0.195
30
0.000
11
0.525
21
0.005
31
0.000
0
LINE
8
Min_max_boxes
62
1
10
0.525
20
0.005
30
0.000
11
0.867
21
0.005
31
0.000
0
LINE
8
Min_max_boxes
62
1
10
0.867
20
0.005
30
0.000
11
0.867
21
0.195
31
0.000
0
LINE
8
Min_max_boxes
62
1
10
0.867
20
0.195
30
0.000
11
0.525
21
0.195
31
0.000
0
LINE
8
Min_max_boxes
62
1
10
0.525
20
0.195
30
0.000
11
0.525
21
0.005
31
0.000
0
LINE
8
Min_max_boxes
62
1
10
0.525
20
0.005
30
0.000
11
0.525
21
0.005
31
0.000
0
LINE
8
Min_max_boxes
62
1
10
0.867
20
0.005
30
0.000
11
0.867
21
0.005
31
0.000
0
LINE
8
Min_max_boxes
62
1
10
0.867
20
0.195
30
0.000
11
0.867
21
0.195
31
0.000
0
LINE
8
Min_max_boxes
62
1
10
0.525
20
0.195
30
0.000
11
0.525
21
0.195
31
0.000
0
POINT
8
Facilities
62
3
10
0.179
20
0.390
30
0.000
0
POINT
8
Clients
62
5
10
0.024
20
0.399
30
0.000
0
LINE
8
Facilities_lines
62
3
10
0.179
20
0.390
30
0.000
11
0.024
21
0.399
31
0.000
0
POINT
8
Clients
62
5
10
0.161
20
0.361
30
0.000
0
LINE
8
Facilities_lines
62
3
10
0.179
20
0.390
30
0.000
11
0.161
21
0.361
31
0.000
0
POINT
8
Clients
62
5
10
0.423
20
0.332
30
0.000
0
LINE
8
Facilities_lines
62
3
10
0.179
20
0.390
30
0.000
11
0.423
21
0.332
31
0.000
0
POINT
8
Clients
62
5
10
0.164
20
0.286
30
0.000
0
LINE
8
Facilities_lines
62
3
10
0.179
20
0.390
30
0.000
11
0.164
21
0.286
31
0.000
0
POINT
8
Clients
62
5
10
0.154
20
0.433
30
0.000
0
LINE
8
Facilities_lines
62
3
10
0.179
20
0.390
30
0.000
11
0.154
21
0.433
31
0.000
0
POINT
8
Clients
62
5
10
0.120
20
0.308
30
0.000
0
LINE
8
Facilities_lines
62
3
10
0.179
20
0.390
30
0.000
11
0.120
21
0.308
31
0.000
0
POINT
8
Clients
62
5
10
0.391
20
0.372
30
0.000
0
LINE
8
Facilities_lines
62
3
10
0.179
20
0.390
30
0.000
11
0.391
21
0.372
31
0.000
0
POINT
8
Clients
62
5
10
0.318
20
0.342
30
0.000
0
LINE
8
Facilities_lines
62
3
10
0.179
20
0.390
30
0.000
11
0.318
21
0.342
31
0.000
0
POINT
8
Clients
62
5
10
0.224
20
0.450
30
0.000
0
LINE
8
Facilities_lines
62
3
10
0.179
20
0.390
30
0.000
11
0.224
21
0.450
31
0.000
0
POINT
8
Clients
62
5
10
0.045
20
0.285
30
0.000
0
LINE
8
Facilities_lines
62
3
10
0.179
20
0.390
30
0.000
11
0.045
21
0.285
31
0.000
0
POINT
8
Clients
62
5
10
0.249
20
0.326
30
0.000
0
LINE
8
Facilities_lines
62
3
10
0.179
20
0.390
30
0.000
11
0.249
21
0.326
31
0.000
0
POINT
8
Clients
62
5
10
0.087
20
0.439
30
0.000
0
LINE
8
Facilities_lines
62
3
10
0.179
20
0.390
30
0.000
11
0.087
21
0.439
31
0.000
0
POINT
8
Clients
62
5
10
0.018
20
0.246
30
0.000
0
LINE
8
Facilities_lines
62
3
10
0.179
20
0.390
30
0.000
11
0.018
21
0.246
31
0.000
0
POINT
8
Clients
62
5
10
0.138
20
0.515
30
0.000
0
LINE
8
Facilities_lines
62
3
10
0.179
20
0.390
30
0.000
11
0.138
21
0.515
31
0.000
0
POINT
8
Clients
62
5
10
0.107
20
0.400
30
0.000
0
LINE
8
Facilities_lines
62
3
10
0.179
20
0.390
30
0.000
11
0.107
21
0.400
31
0.000
0
POINT
8
Clients
62
5
10
0.126
20
0.259
30
0.000
0
LINE
8
Facilities_lines
62
3
10
0.179
20
0.390
30
0.000
11
0.126
21
0.259
31
0.000
0
POINT
8
Clients
62
5
10
0.043
20
0.428
30
0.000
0
LINE
8
Facilities_lines
62
3
10
0.179
20
0.390
30
0.000
11
0.043
21
0.428
31
0.000
0
POINT
8
Clients
62
5
10
0.269
20
0.347
30
0.000
0
LINE
8
Facilities_lines
62
3
10
0.179
20
0.390
30
0.000
11
0.269
21
0.347
31
0.000
0
POINT
8
Clients
62
5
10
0.108
20
0.360
30
0.000
0
LINE
8
Facilities_lines
62
3
10
0.179
20
0.390
30
0.000
11
0.108
21
0.360
31
0.000
0
POINT
8
Clients
62
5
10
0.182
20
0.454
30
0.000
0
LINE
8
Facilities_lines
62
3
10
0.179
20
0.390
30
0.000
11
0.182
21
0.454
31
0.000
0
POINT
8
Clients
62
5
10
0.099
20
0.386
30
0.000
0
LINE
8
Facilities_lines
62
3
10
0.179
20
0.390
30
0.000
11
0.099
21
0.386
31
0.000
0
POINT
8
Clients
62
5
10
0.184
20
0.389
30
0.000
0
LINE
8
Facilities_lines
62
3
10
0.179
20
0.390
30
0.000
11
0.184
21
0.389
31
0.000
0
POINT
8
Clients
62
5
10
0.210
20
0.459
30
0.000
0
LINE
8
Facilities_lines
62
3
10
0.179
20
0.390
30
0.000
11
0.210
21
0.459
31
0.000
0
POINT
8
Clients
62
5
10
0.125
20
0.520
30
0.000
0
LINE
8
Facilities_lines
62
3
10
0.179
20
0.390
30
0.000
11
0.125
21
0.520
31
0.000
0
POINT
8
Clients
62
5
10
0.349
20
0.367
30
0.000
0
LINE
8
Facilities_lines
62
3
10
0.179
20
0.390
30
0.000
11
0.349
21
0.367
31
0.000
0
POINT
8
Clients
62
5
10
0.138
20
0.300
30
0.000
0
LINE
8
Facilities_lines
62
3
10
0.179
20
0.390
30
0.000
11
0.138
21
0.300
31
0.000
0
POINT
8
Clients
62
5
10
0.366
20
0.390
30
0.000
0
LINE
8
Facilities_lines
62
3
10
0.179
20
0.390
30
0.000
11
0.366
21
0.390
31
0.000
0
POINT
8
Clients
62
5
10
0.042
20
0.425
30
0.000
0
LINE
8
Facilities_lines
62
3
10
0.179
20
0.390
30
0.000
11
0.042
21
0.425
31
0.000
0
LINE
8
Min_max_boxes
62
1
10
0.018
20
0.246
30
0.000
11
0.423
21
0.246
31
0.000
0
LINE
8
Min_max_boxes
62
1
10
0.423
20
0.246
30
0.000
11
0.423
21
0.520
31
0.000
0
LINE
8
Min_max_boxes
62
1
10
0.423
20
0.520
30
0.000
11
0.018
21
0.520
31
0.000
0
LINE
8
Min_max_boxes
62
1
10
0.018
20
0.520
30
0.000
11
0.018
21
0.246
31
0.000
0
LINE
8
Min_max_boxes
62
1
10
0.018
20
0.246
30
0.000
11
0.423
21
0.246
31
0.000
0
LINE
8
Min_max_boxes
62
1
10
0.423
20
0.246
30
0.000
11
0.423
21
0.520
31
0.000
0
LINE
8
Min_max_boxes
62
1
10
0.423
20
0.520
30
0.000
11
0.018
21
0.520
31
0.000
0
LINE
8
Min_max_boxes
62
1
10
0.018
20
0.520
30
0.000
11
0.018
21
0.246
31
0.000
0
LINE
8
Min_max_boxes
62
1
10
0.018
20
0.246
30
0.000
11
0.018
21
0.246
31
0.000
0
LINE
8
Min_max_boxes
62
1
10
0.423
20
0.246
30
0.000
11
0.423
21
0.246
31
0.000
0
LINE
8
Min_max_boxes
62
1
10
0.423
20
0.520
30
0.000
11
0.423
21
0.520
31
0.000
0
LINE
8
Min_max_boxes
62
1
10
0.018
20
0.520
30
0.000
11
0.018
21
0.520
31
0.000
0
POINT
8
Facilities
62
3
10
0.906
20
0.229
30
0.000
0
POINT
8
Clients
62
5
10
0.989
20
0.117
30
0.000
0
LINE
8
Facilities_lines
62
3
10
0.906
20
0.229
30
0.000
11
0.989
21
0.117
31
0.000
0
POINT
8
Clients
62
5
10
0.940
20
0.134
30
0.000
0
LINE
8
Facilities_lines
62
3
10
0.906
20
0.229
30
0.000
11
0.940
21
0.134
31
0.000
0
POINT
8
Clients
62
5
10
0.984
20
0.164
30
0.000
0
LINE
8
Facilities_lines
62
3
10
0.906
20
0.229
30
0.000
11
0.984
21
0.164
31
0.000
0
POINT
8
Clients
62
5
10
0.988
20
0.012
30
0.000
0
LINE
8
Facilities_lines
62
3
10
0.906
20
0.229
30
0.000
11
0.988
21
0.012
31
0.000
0
POINT
8
Clients
62
5
10
0.922
20
0.202
30
0.000
0
LINE
8
Facilities_lines
62
3
10
0.906
20
0.229
30
0.000
11
0.922
21
0.202
31
0.000
0
POINT
8
Clients
62
5
10
0.832
20
0.231
30
0.000
0
LINE
8
Facilities_lines
62
3
10
0.906
20
0.229
30
0.000
11
0.832
21
0.231
31
0.000
0
POINT
8
Clients
62
5
10
0.911
20
0.283
30
0.000
0
LINE
8
Facilities_lines
62
3
10
0.906
20
0.229
30
0.000
11
0.911
21
0.283
31
0.000
0
POINT
8
Clients
62
5
10
0.921
20
0.287
30
0.000
0
LINE
8
Facilities_lines
62
3
10
0.906
20
0.229
30
0.000
11
0.921
21
0.287
31
0.000
0
POINT
8
Clients
62
5
10
0.939
20
0.325
30
0.000
0
LINE
8
Facilities_lines
62
3
10
0.906
20
0.229
30
0.000
11
0.939
21
0.325
31
0.000
0
POINT
8
Clients
62
5
10
0.946
20
0.324
30
0.000
0
LINE
8
Facilities_lines
62
3
10
0.906
20
0.229
30
0.000
11
0.946
21
0.324
31
0.000
0
POINT
8
Clients
62
5
10
0.899
20
0.396
30
0.000
0
LINE
8
Facilities_lines
62
3
10
0.906
20
0.229
30
0.000
11
0.899
21
0.396
31
0.000
0
POINT
8
Clients
62
5
10
0.971
20
0.395
30
0.000
0
LINE
8
Facilities_lines
62
3
10
0.906
20
0.229
30
0.000
11
0.971
21
0.395
31
0.000
0
POINT
8
Clients
62
5
10
0.998
20
0.218
30
0.000
0
LINE
8
Facilities_lines
62
3
10
0.906
20
0.229
30
0.000
11
0.998
21
0.218
31
0.000
0
POINT
8
Clients
62
5
10
0.927
20
0.056
30
0.000
0
LINE
8
Facilities_lines
62
3
10
0.906
20
0.229
30
0.000
11
0.927
21
0.056
31
0.000
0
POINT
8
Clients
62
5
10
0.917
20
0.153
30
0.000
0
LINE
8
Facilities_lines
62
3
10
0.906
20
0.229
30
0.000
11
0.917
21
0.153
31
0.000
0
POINT
8
Clients
62
5
10
0.835
20
0.143
30
0.000
0
LINE
8
Facilities_lines
62
3
10
0.906
20
0.229
30
0.000
11
0.835
21
0.143
31
0.000
0
POINT
8
Clients
62
5
10
0.757
20
0.271
30
0.000
0
LINE
8
Facilities_lines
62
3
10
0.906
20
0.229
30
0.000
11
0.757
21
0.271
31
0.000
0
POINT
8
Clients
62
5
10
0.954
20
0.171
30
0.000
0
LINE
8
Facilities_lines
62
3
10
0.906
20
0.229
30
0.000
11
0.954
21
0.171
31
0.000
0
POINT
8
Clients
62
5
10
0.877
20
0.087
30
0.000
0
LINE
8
Facilities_lines
62
3
10
0.906
20
0.229
30
0.000
11
0.877
21
0.087
31
0.000
0
POINT
8
Clients
62
5
10
0.964
20
0.298
30
0.000
0
LINE
8
Facilities_lines
62
3
10
0.906
20
0.229
30
0.000
11
0.964
21
0.298
31
0.000
0
POINT
8
Clients
62
5
10
0.973
20
0.119
30
0.000
0
LINE
8
Facilities_lines
62
3
10
0.906
20
0.229
30
0.000
11
0.973
21
0.119
31
0.000
0
LINE
8
Min_max_boxes
62
1
10
0.757
20
0.012
30
0.000
11
0.998
21
0.012
31
0.000
0
LINE
8
Min_max_boxes
62
1
10
0.998
20
0.012
30
0.000
11
0.998
21
0.396
31
0.000
0
LINE
8
Min_max_boxes
62
1
10
0.998
20
0.396
30
0.000
11
0.757
21
0.396
31
0.000
0
LINE
8
Min_max_boxes
62
1
10
0.757
20
0.396
30
0.000
11
0.757
21
0.012
31
0.000
0
LINE
8
Min_max_boxes
62
1
10
0.757
20
0.012
30
0.000
11
0.998
21
0.012
31
0.000
0
LINE
8
Min_max_boxes
62
1
10
0.998
20
0.012
30
0.000
11
0.998
21
0.396
31
0.000
0
LINE
8
Min_max_boxes
62
1
10
0.998
20
0.396
30
0.000
11
0.757
21
0.396
31
0.000
0
LINE
8
Min_max_boxes
62
1
10
0.757
20
0.396
30
0.000
11
0.757
21
0.012
31
0.000
0
LINE
8
Min_max_boxes
62
1
10
0.757
20
0.012
30
0.000
11
0.757
21
0.012
31
0.000
0
LINE
8
Min_max_boxes
62
1
10
0.998
20
0.012
30
0.000
11
0.998
21
0.012
31
0.000
0
LINE
8
Min_max_boxes
62
1
10
0.998
20
0.396
30
0.000
11
0.998
21
0.396
31
0.000
0
LINE
8
Min_max_boxes
62
1
10
0.757
20
0.396
30
0.000
11
0.757
21
0.396
31
0.000
0
POINT
8
Facilities
62
3
10
0.322
20
0.559
30
0.000
0
POINT
8
Clients
62
5
10
0.381
20
0.675
30
0.000
0
LINE
8
Facilities_lines
62
3
10
0.322
20
0.559
30
0.000
11
0.381
21
0.675
31
0.000
0
POINT
8
Clients
62
5
10
0.154
20
0.586
30
0.000
0
LINE
8
Facilities_lines
62
3
10
0.322
20
0.559
30
0.000
11
0.154
21
0.586
31
0.000
0
POINT
8
Clients
62
5
10
0.212
20
0.582
30
0.000
0
LINE
8
Facilities_lines
62
3
10
0.322
20
0.559
30
0.000
11
0.212
21
0.582
31
0.000
0
POINT
8
Clients
62
5
10
0.326
20
0.476
30
0.000
0
LINE
8
Facilities_lines
62
3
10
0.322
20
0.559
30
0.000
11
0.326
21
0.476
31
0.000
0
POINT
8
Clients
62
5
10
0.229
20
0.549
30
0.000
0
LINE
8
Facilities_lines
62
3
10
0.322
20
0.559
30
0.000
11
0.229
21
0.549
31
0.000
0
POINT
8
Clients
62
5
10
0.419
20
0.521
30
0.000
0
LINE
8
Facilities_lines
62
3
10
0.322
20
0.559
30
0.000
11
0.419
21
0.521
31
0.000
0
POINT
8
Clients
62
5
10
0.387
20
0.417
30
0.000
0
LINE
8
Facilities_lines
62
3
10
0.322
20
0.559
30
0.000
11
0.387
21
0.417
31
0.000
0
POINT
8
Clients
62
5
10
0.177
20
0.558
30
0.000
0
LINE
8
Facilities_lines
62
3
10
0.322
20
0.559
30
0.000
11
0.177
21
0.558
31
0.000
0
POINT
8
Clients
62
5
10
0.384
20
0.407
30
0.000
0
LINE
8
Facilities_lines
62
3
10
0.322
20
0.559
30
0.000
11
0.384
21
0.407
31
0.000
0
POINT
8
Clients
62
5
10
0.383
20
0.498
30
0.000
0
LINE
8
Facilities_lines
62
3
10
0.322
20
0.559
30
0.000
11
0.383
21
0.498
31
0.000
0
POINT
8
Clients
62
5
10
0.275
20
0.575
30
0.000
0
LINE
8
Facilities_lines
62
3
10
0.322
20
0.559
30
0.000
11
0.275
21
0.575
31
0.000
0
POINT
8
Clients
62
5
10
0.236
20
0.562
30
0.000
0
LINE
8
Facilities_lines
62
3
10
0.322
20
0.559
30
0.000
11
0.236
21
0.562
31
0.000
0
POINT
8
Clients
62
5
10
0.244
20
0.631
30
0.000
0
LINE
8
Facilities_lines
62
3
10
0.322
20
0.559
30
0.000
11
0.244
21
0.631
31
0.000
0
POINT
8
Clients
62
5
10
0.138
20
0.600
30
0.000
0
LINE
8
Facilities_lines
62
3
10
0.322
20
0.559
30
0.000
11
0.138
21
0.600
31
0.000
0
POINT
8
Clients
62
5
10
0.440
20
0.598
30
0.000
0
LINE
8
Facilities_lines
62
3
10
0.322
20
0.559
30
0.000
11
0.440
21
0.598
31
0.000
0
POINT
8
Clients
62
5
10
0.477
20
0.557
30
0.000
0
LINE
8
Facilities_lines
62
3
10
0.322
20
0.559
30
0.000
11
0.477
21
0.557
31
0.000
0
POINT
8
Clients
62
5
10
0.339
20
0.591
30
0.000
0
LINE
8
Facilities_lines
62
3
10
0.322
20
0.559
30
0.000
11
0.339
21
0.591
31
0.000
0
POINT
8
Clients
62
5
10
0.361
20
0.505
30
0.000
0
LINE
8
Facilities_lines
62
3
10
0.322
20
0.559
30
0.000
11
0.361
21
0.505
31
0.000
0
POINT
8
Clients
62
5
10
0.357
20
0.590
30
0.000
0
LINE
8
Facilities_lines
62
3
10
0.322
20
0.559
30
0.000
11
0.357
21
0.590
31
0.000
0
POINT
8
Clients
62
5
10
0.230
20
0.656
30
0.000
0
LINE
8
Facilities_lines
62
3
10
0.322
20
0.559
30
0.000
11
0.230
21
0.656
31
0.000
0
POINT
8
Clients
62
5
10
0.241
20
0.579
30
0.000
0
LINE
8
Facilities_lines
62
3
10
0.322
20
0.559
30
0.000
11
0.241
21
0.579
31
0.000
0
POINT
8
Clients
62
5
10
0.353
20
0.429
30
0.000
0
LINE
8
Facilities_lines
62
3
10
0.322
20
0.559
30
0.000
11
0.353
21
0.429
31
0.000
0
LINE
8
Min_max_boxes
62
1
10
0.138
20
0.407
30
0.000
11
0.477
21
0.407
31
0.000
0
LINE
8
Min_max_boxes
62
1
10
0.477
20
0.407
30
0.000
11
0.477
21
0.675
31
0.000
0
LINE
8
Min_max_boxes
62
1
10
0.477
20
0.675
30
0.000
11
0.138
21
0.675
31
0.000
0
LINE
8
Min_max_boxes
62
1
10
0.138
20
0.675
30
0.000
11
0.138
21
0.407
31
0.000
0
LINE
8
Min_max_boxes
62
1
10
0.138
20
0.407
30
0.000
11
0.477
21
0.407
31
0.000
0
LINE
8
Min_max_boxes
62
1
10
0.477
20
0.407
30
0.000
11
0.477
21
0.675
31
0.000
0
LINE
8
Min_max_boxes
62
1
10
0.477
20
0.675
30
0.000
11
0.138
21
0.675
31
0.000
0
LINE
8
Min_max_boxes
62
1
10
0.138
20
0.675
30
0.000
11
0.138
21
0.407
31
0.000
0
LINE
8
Min_max_boxes
62
1
10
0.138
20
0.407
30
0.000
11
0.138
21
0.407
31
0.000
0
LINE
8
Min_max_boxes
62
1
10
0.477
20
0.407
30
0.000
11
0.477
21
0.407
31
0.000
0
LINE
8
Min_max_boxes
62
1
10
0.477
20
0.675
30
0.000
11
0.477
21
0.675
31
0.000
0
LINE
8
Min_max_boxes
62
1
10
0.138
20
0.675
30
0.000
11
0.138
21
0.675
31
0.000
0
POINT
8
Facilities
62
3
10
0.783
20
0.504
30
0.000
0
POINT
8
Clients
62
5
10
0.789
20
0.373
30
0.000
0
LINE
8
Facilities_lines
62
3
10
0.783
20
0.504
30
0.000
11
0.789
21
0.373
31
0.000
0
POINT
8
Clients
62
5
10
0.784
20
0.376
30
0.000
0
LINE
8
Facilities_lines
62
3
10
0.783
20
0.504
30
0.000
11
0.784
21
0.376
31
0.000
0
POINT
8
Clients
62
5
10
0.726
20
0.455
30
0.000
0
LINE
8
Facilities_lines
62
3
10
0.783
20
0.504
30
0.000
11
0.726
21
0.455
31
0.000
0
POINT
8
Clients
62
5
10
0.813
20
0.390
30
0.000
0
LINE
8
Facilities_lines
62
3
10
0.783
20
0.504
30
0.000
11
0.813
21
0.390
31
0.000
0
POINT
8
Clients
62
5
10
0.758
20
0.620
30
0.000
0
LINE
8
Facilities_lines
62
3
10
0.783
20
0.504
30
0.000
11
0.758
21
0.620
31
0.000
0
POINT
8
Clients
62
5
10
0.936
20
0.545
30
0.000
0
LINE
8
Facilities_lines
62
3
10
0.783
20
0.504
30
0.000
11
0.936
21
0.545
31
0.000
0
POINT
8
Clients
62
5
10
0.953
20
0.471
30
0.000
0
LINE
8
Facilities_lines
62
3
10
0.783
20
0.504
30
0.000
11
0.953
21
0.471
31
0.000
0
POINT
8
Clients
62
5
10
0.809
20
0.504
30
0.000
0
LINE
8
Facilities_lines
62
3
10
0.783
20
0.504
30
0.000
11
0.809
21
0.504
31
0.000
0
POINT
8
Clients
62
5
10
0.749
20
0.647
30
0.000
0
LINE
8
Facilities_lines
62
3
10
0.783
20
0.504
30
0.000
11
0.749
21
0.647
31
0.000
0
POINT
8
Clients
62
5
10
0.924
20
0.560
30
0.000
0
LINE
8
Facilities_lines
62
3
10
0.783
20
0.504
30
0.000
11
0.924
21
0.560
31
0.000
0
POINT
8
Clients
62
5
10
0.852
20
0.593
30
0.000
0
LINE
8
Facilities_lines
62
3
10
0.783
20
0.504
30
0.000
11
0.852
21
0.593
31
0.000
0
POINT
8
Clients
62
5
10
0.951
20
0.668
30
0.000
0
LINE
8
Facilities_lines
62
3
10
0.783
20
0.504
30
0.000
11
0.951
21
0.668
31
0.000
0
POINT
8
Clients
62
5
10
0.957
20
0.599
30
0.000
0
LINE
8
Facilities_lines
62
3
10
0.783
20
0.504
30
0.000
11
0.957
21
0.599
31
0.000
0
POINT
8
Clients
62
5
10
0.723
20
0.673
30
0.000
0
LINE
8
Facilities_lines
62
3
10
0.783
20
0.504
30
0.000
11
0.723
21
0.673
31
0.000
0
POINT
8
Clients
62
5
10
0.802
20
0.438
30
0.000
0
LINE
8
Facilities_lines
62
3
10
0.783
20
0.504
30
0.000
11
0.802
21
0.438
31
0.000
0
POINT
8
Clients
62
5
10
0.767
20
0.577
30
0.000
0
LINE
8
Facilities_lines
62
3
10
0.783
20
0.504
30
0.000
11
0.767
21
0.577
31
0.000
0
POINT
8
Clients
62
5
10
0.885
20
0.562
30
0.000
0
LINE
8
Facilities_lines
62
3
10
0.783
20
0.504
30
0.000
11
0.885
21
0.562
31
0.000
0
POINT
8
Clients
62
5
10
0.751
20
0.515
30
0.000
0
LINE
8
Facilities_lines
62
3
10
0.783
20
0.504
30
0.000
11
0.751
21
0.515
31
0.000
0
POINT
8
Clients
62
5
10
0.996
20
0.436
30
0.000
0
LINE
8
Facilities_lines
62
3
10
0.783
20
0.504
30
0.000
11
0.996
21
0.436
31
0.000
0
POINT
8
Clients
62
5
10
0.726
20
0.593
30
0.000
0
LINE
8
Facilities_lines
62
3
10
0.783
20
0.504
30
0.000
11
0.726
21
0.593
31
0.000
0
POINT
8
Clients
62
5
10
0.767
20
0.540
30
0.000
0
LINE
8
Facilities_lines
62
3
10
0.783
20
0.504
30
0.000
11
0.767
21
0.540
31
0.000
0
POINT
8
Clients
62
5
10
0.694
20
0.613
30
0.000
0
LINE
8
Facilities_lines
62
3
10
0.783
20
0.504
30
0.000
11
0.694
21
0.613
31
0.000
0
POINT
8
Clients
62
5
10
0.843
20
0.532
30
0.000
0
LINE
8
Facilities_lines
62
3
10
0.783
20
0.504
30
0.000
11
0.843
21
0.532
31
0.000
0
POINT
8
Clients
62
5
10
0.771
20
0.454
30
0.000
0
LINE
8
Facilities_lines
62
3
10
0.783
20
0.504
30
0.000
11
0.771
21
0.454
31
0.000
0
POINT
8
Clients
62
5
10
0.704
20
0.620
30
0.000
0
LINE
8
Facilities_lines
62
3
10
0.783
20
0.504
30
0.000
11
0.704
21
0.620
31
0.000
0
POINT
8
Clients
62
5
10
0.673
20
0.517
30
0.000
0
LINE
8
Facilities_lines
62
3
10
0.783
20
0.504
30
0.000
11
0.673
21
0.517
31
0.000
0
POINT
8
Clients
62
5
10
0.830
20
0.426
30
0.000
0
LINE
8
Facilities_lines
62
3
10
0.783
20
0.504
30
0.000
11
0.830
21
0.426
31
0.000
0
POINT
8
Clients
62
5
10
0.896
20
0.430
30
0.000
0
LINE
8
Facilities_lines
62
3
10
0.783
20
0.504
30
0.000
11
0.896
21
0.430
31
0.000
0
POINT
8
Clients
62
5
10
0.812
20
0.572
30
0.000
0
LINE
8
Facilities_lines
62
3
10
0.783
20
0.504
30
0.000
11
0.812
21
0.572
31
0.000
0
POINT
8
Clients
62
5
10
0.894
20
0.671
30
0.000
0
LINE
8
Facilities_lines
62
3
10
0.783
20
0.504
30
0.000
11
0.894
21
0.671
31
0.000
0
POINT
8
Clients
62
5
10
0.936
20
0.617
30
0.000
0
LINE
8
Facilities_lines
62
3
10
0.783
20
0.504
30
0.000
11
0.936
21
0.617
31
0.000
0
POINT
8
Clients
62
5
10
0.750
20
0.517
30
0.000
0
LINE
8
Facilities_lines
62
3
10
0.783
20
0.504
30
0.000
11
0.750
21
0.517
31
0.000
0
POINT
8
Clients
62
5
10
0.695
20
0.586
30
0.000
0
LINE
8
Facilities_lines
62
3
10
0.783
20
0.504
30
0.000
11
0.695
21
0.586
31
0.000
0
POINT
8
Clients
62
5
10
0.838
20
0.662
30
0.000
0
LINE
8
Facilities_lines
62
3
10
0.783
20
0.504
30
0.000
11
0.838
21
0.662
31
0.000
0
POINT
8
Clients
62
5
10
0.739
20
0.517
30
0.000
0
LINE
8
Facilities_lines
62
3
10
0.783
20
0.504
30
0.000
11
0.739
21
0.517
31
0.000
0
POINT
8
Clients
62
5
10
0.856
20
0.407
30
0.000
0
LINE
8
Facilities_lines
62
3
10
0.783
20
0.504
30
0.000
11
0.856
21
0.407
31
0.000
0
POINT
8
Clients
62
5
10
0.731
20
0.444
30
0.000
0
LINE
8
Facilities_lines
62
3
10
0.783
20
0.504
30
0.000
11
0.731
21
0.444
31
0.000
0
POINT
8
Clients
62
5
10
0.837
20
0.401
30
0.000
0
LINE
8
Facilities_lines
62
3
10
0.783
20
0.504
30
0.000
11
0.837
21
0.401
31
0.000
0
POINT
8
Clients
62
5
10
0.807
20
0.360
30
0.000
0
LINE
8
Facilities_lines
62
3
10
0.783
20
0.504
30
0.000
11
0.807
21
0.360
31
0.000
0
LINE
8
Min_max_boxes
62
1
10
0.673
20
0.360
30
0.000
11
0.996
21
0.360
31
0.000
0
LINE
8
Min_max_boxes
62
1
10
0.996
20
0.360
30
0.000
11
0.996
21
0.673
31
0.000
0
LINE
8
Min_max_boxes
62
1
10
0.996
20
0.673
30
0.000
11
0.673
21
0.673
31
0.000
0
LINE
8
Min_max_boxes
62
1
10
0.673
20
0.673
30
0.000
11
0.673
21
0.360
31
0.000
0
LINE
8
Min_max_boxes
62
1
10
0.673
20
0.360
30
0.000
11
0.996
21
0.360
31
0.000
0
LINE
8
Min_max_boxes
62
1
10
0.996
20
0.360
30
0.000
11
0.996
21
0.673
31
0.000
0
LINE
8
Min_max_boxes
62
1
10
0.996
20
0.673
30
0.000
11
0.673
21
0.673
31
0.000
0
LINE
8
Min_max_boxes
62
1
10
0.673
20
0.673
30
0.000
11
0.673
21
0.360
31
0.000
0
LINE
8
Min_max_boxes
62
1
10
0.673
20
0.360
30
0.000
11
0.673
21
0.360
31
0.000
0
LINE
8
Min_max_boxes
62
1
10
0.996
20
0.360
30
0.000
11
0.996
21
0.360
31
0.000
0
LINE
8
Min_max_boxes
62
1
10
0.996
20
0.673
30
0.000
11
0.996
21
0.673
31
0.000
0
LINE
8
Min_max_boxes
62
1
10
0.673
20
0.673
30
0.000
11
0.673
21
0.673
31
0.000
0
POINT
8
Facilities
62
3
10
0.618
20
0.435
30
0.000
0
POINT
8
Clients
62
5
10
0.452
20
0.456
30
0.000
0
LINE
8
Facilities_lines
62
3
10
0.618
20
0.435
30
0.000
11
0.452
21
0.456
31
0.000
0
POINT
8
Clients
62
5
10
0.432
20
0.500
30
0.000
0
LINE
8
Facilities_lines
62
3
10
0.618
20
0.435
30
0.000
11
0.432
21
0.500
31
0.000
0
POINT
8
Clients
62
5
10
0.597
20
0.403
30
0.000
0
LINE
8
Facilities_lines
62
3
10
0.618
20
0.435
30
0.000
11
0.597
21
0.403
31
0.000
0
POINT
8
Clients
62
5
10
0.558
20
0.348
30
0.000
0
LINE
8
Facilities_lines
62
3
10
0.618
20
0.435
30
0.000
11
0.558
21
0.348
31
0.000
0
POINT
8
Clients
62
5
10
0.759
20
0.304
30
0.000
0
LINE
8
Facilities_lines
62
3
10
0.618
20
0.435
30
0.000
11
0.759
21
0.304
31
0.000
0
POINT
8
Clients
62
5
10
0.680
20
0.269
30
0.000
0
LINE
8
Facilities_lines
62
3
10
0.618
20
0.435
30
0.000
11
0.680
21
0.269
31
0.000
0
POINT
8
Clients
62
5
10
0.546
20
0.362
30
0.000
0
LINE
8
Facilities_lines
62
3
10
0.618
20
0.435
30
0.000
11
0.546
21
0.362
31
0.000
0
POINT
8
Clients
62
5
10
0.654
20
0.301
30
0.000
0
LINE
8
Facilities_lines
62
3
10
0.618
20
0.435
30
0.000
11
0.654
21
0.301
31
0.000
0
POINT
8
Clients
62
5
10
0.627
20
0.275
30
0.000
0
LINE
8
Facilities_lines
62
3
10
0.618
20
0.435
30
0.000
11
0.627
21
0.275
31
0.000
0
POINT
8
Clients
62
5
10
0.631
20
0.407
30
0.000
0
LINE
8
Facilities_lines
62
3
10
0.618
20
0.435
30
0.000
11
0.631
21
0.407
31
0.000
0
POINT
8
Clients
62
5
10
0.626
20
0.398
30
0.000
0
LINE
8
Facilities_lines
62
3
10
0.618
20
0.435
30
0.000
11
0.626
21
0.398
31
0.000
0
POINT
8
Clients
62
5
10
0.684
20
0.343
30
0.000
0
LINE
8
Facilities_lines
62
3
10
0.618
20
0.435
30
0.000
11
0.684
21
0.343
31
0.000
0
POINT
8
Clients
62
5
10
0.584
20
0.331
30
0.000
0
LINE
8
Facilities_lines
62
3
10
0.618
20
0.435
30
0.000
11
0.584
21
0.331
31
0.000
0
POINT
8
Clients
62
5
10
0.552
20
0.430
30
0.000
0
LINE
8
Facilities_lines
62
3
10
0.618
20
0.435
30
0.000
11
0.552
21
0.430
31
0.000
0
POINT
8
Clients
62
5
10
0.677
20
0.302
30
0.000
0
LINE
8
Facilities_lines
62
3
10
0.618
20
0.435
30
0.000
11
0.677
21
0.302
31
0.000
0
POINT
8
Clients
62
5
10
0.584
20
0.492
30
0.000
0
LINE
8
Facilities_lines
62
3
10
0.618
20
0.435
30
0.000
11
0.584
21
0.492
31
0.000
0
POINT
8
Clients
62
5
10
0.715
20
0.447
30
0.000
0
LINE
8
Facilities_lines
62
3
10
0.618
20
0.435
30
0.000
11
0.715
21
0.447
31
0.000
0
POINT
8
Clients
62
5
10
0.652
20
0.485
30
0.000
0
LINE
8
Facilities_lines
62
3
10
0.618
20
0.435
30
0.000
11
0.652
21
0.485
31
0.000
0
POINT
8
Clients
62
5
10
0.666
20
0.544
30
0.000
0
LINE
8
Facilities_lines
62
3
10
0.618
20
0.435
30
0.000
11
0.666
21
0.544
31
0.000
0
POINT
8
Clients
62
5
10
0.603
20
0.554
30
0.000
0
LINE
8
Facilities_lines
62
3
10
0.618
20
0.435
30
0.000
11
0.603
21
0.554
31
0.000
0
POINT
8
Clients
62
5
10
0.492
20
0.508
30
0.000
0
LINE
8
Facilities_lines
62
3
10
0.618
20
0.435
30
0.000
11
0.492
21
0.508
31
0.000
0
POINT
8
Clients
62
5
10
0.663
20
0.441
30
0.000
0
LINE
8
Facilities_lines
62
3
10
0.618
20
0.435
30
0.000
11
0.663
21
0.441
31
0.000
0
POINT
8
Clients
62
5
10
0.711
20
0.452
30
0.000
0
LINE
8
Facilities_lines
62
3
10
0.618
20
0.435
30
0.000
11
0.711
21
0.452
31
0.000
0
POINT
8
Clients
62
5
10
0.591
20
0.533
30
0.000
0
LINE
8
Facilities_lines
62
3
10
0.618
20
0.435
30
0.000
11
0.591
21
0.533
31
0.000
0
POINT
8
Clients
62
5
10
0.660
20
0.554
30
0.000
0
LINE
8
Facilities_lines
62
3
10
0.618
20
0.435
30
0.000
11
0.660
21
0.554
31
0.000
0
POINT
8
Clients
62
5
10
0.588
20
0.404
30
0.000
0
LINE
8
Facilities_lines
62
3
10
0.618
20
0.435
30
0.000
11
0.588
21
0.404
31
0.000
0
POINT
8
Clients
62
5
10
0.490
20
0.260
30
0.000
0
LINE
8
Facilities_lines
62
3
10
0.618
20
0.435
30
0.000
11
0.490
21
0.260
31
0.000
0
LINE
8
Min_max_boxes
62
1
10
0.432
20
0.260
30
0.000
11
0.759
21
0.260
31
0.000
0
LINE
8
Min_max_boxes
62
1
10
0.759
20
0.260
30
0.000
11
0.759
21
0.554
31
0.000
0
LINE
8
Min_max_boxes
62
1
10
0.759
20
0.554
30
0.000
11
0.432
21
0.554
31
0.000
0
LINE
8
Min_max_boxes
62
1
10
0.432
20
0.554
30
0.000
11
0.432
21
0.260
31
0.000
0
LINE
8
Min_max_boxes
62
1
10
0.432
20
0.260
30
0.000
11
0.759
21
0.260
31
0.000
0
LINE
8
Min_max_boxes
62
1
10
0.759
20
0.260
30
0.000
11
0.759
21
0.554
31
0.000
0
LINE
8
Min_max_boxes
62
1
10
0.759
20
0.554
30
0.000
11
0.432
21
0.554
31
0.000
0
LINE
8
Min_max_boxes
62
1
10
0.432
20
0.554
30
0.000
11
0.432
21
0.260
31
0.000
0
LINE
8
Min_max_boxes
62
1
10
0.432
20
0.260
30
0.000
11
0.432
21
0.260
31
0.000
0
LINE
8
Min_max_boxes
62
1
10
0.759
20
0.260
30
0.000
11
0.759
21
0.260
31
0.000
0
LINE
8
Min_max_boxes
62
1
10
0.759
20
0.554
30
0.000
11
0.759
21
0.554
31
0.000
0
LINE
8
Min_max_boxes
62
1
10
0.432
20
0.554
30
0.000
11
0.432
21
0.554
31
0.000
0
POINT
8
Facilities
62
3
10
0.536
20
0.675
30
0.000
0
POINT
8
Clients
62
5
10
0.621
20
0.667
30
0.000
0
LINE
8
Facilities_lines
62
3
10
0.536
20
0.675
30
0.000
11
0.621
21
0.667
31
0.000
0
POINT
8
Clients
62
5
10
0.531
20
0.651
30
0.000
0
LINE
8
Facilities_lines
62
3
10
0.536
20
0.675
30
0.000
11
0.531
21
0.651
31
0.000
0
POINT
8
Clients
62
5
10
0.458
20
0.686
30
0.000
0
LINE
8
Facilities_lines
62
3
10
0.536
20
0.675
30
0.000
11
0.458
21
0.686
31
0.000
0
POINT
8
Clients
62
5
10
0.682
20
0.722
30
0.000
0
LINE
8
Facilities_lines
62
3
10
0.536
20
0.675
30
0.000
11
0.682
21
0.722
31
0.000
0
POINT
8
Clients
62
5
10
0.517
20
0.716
30
0.000
0
LINE
8
Facilities_lines
62
3
10
0.536
20
0.675
30
0.000
11
0.517
21
0.716
31
0.000
0
POINT
8
Clients
62
5
10
0.642
20
0.646
30
0.000
0
LINE
8
Facilities_lines
62
3
10
0.536
20
0.675
30
0.000
11
0.642
21
0.646
31
0.000
0
POINT
8
Clients
62
5
10
0.654
20
0.736
30
0.000
0
LINE
8
Facilities_lines
62
3
10
0.536
20
0.675
30
0.000
11
0.654
21
0.736
31
0.000
0
POINT
8
Clients
62
5
10
0.640
20
0.763
30
0.000
0
LINE
8
Facilities_lines
62
3
10
0.536
20
0.675
30
0.000
11
0.640
21
0.763
31
0.000
0
POINT
8
Clients
62
5
10
0.617
20
0.695
30
0.000
0
LINE
8
Facilities_lines
62
3
10
0.536
20
0.675
30
0.000
11
0.617
21
0.695
31
0.000
0
POINT
8
Clients
62
5
10
0.575
20
0.834
30
0.000
0
LINE
8
Facilities_lines
62
3
10
0.536
20
0.675
30
0.000
11
0.575
21
0.834
31
0.000
0
POINT
8
Clients
62
5
10
0.530
20
0.610
30
0.000
0
LINE
8
Facilities_lines
62
3
10
0.536
20
0.675
30
0.000
11
0.530
21
0.610
31
0.000
0
POINT
8
Clients
62
5
10
0.605
20
0.757
30
0.000
0
LINE
8
Facilities_lines
62
3
10
0.536
20
0.675
30
0.000
11
0.605
21
0.757
31
0.000
0
POINT
8
Clients
62
5
10
0.541
20
0.561
30
0.000
0
LINE
8
Facilities_lines
62
3
10
0.536
20
0.675
30
0.000
11
0.541
21
0.561
31
0.000
0
POINT
8
Clients
62
5
10
0.534
20
0.547
30
0.000
0
LINE
8
Facilities_lines
62
3
10
0.536
20
0.675
30
0.000
11
0.534
21
0.547
31
0.000
0
POINT
8
Clients
62
5
10
0.616
20
0.832
30
0.000
0
LINE
8
Facilities_lines
62
3
10
0.536
20
0.675
30
0.000
11
0.616
21
0.832
31
0.000
0
POINT
8
Clients
62
5
10
0.528
20
0.571
30
0.000
0
LINE
8
Facilities_lines
62
3
10
0.536
20
0.675
30
0.000
11
0.528
21
0.571
31
0.000
0
POINT
8
Clients
62
5
10
0.730
20
0.695
30
0.000
0
LINE
8
Facilities_lines
62
3
10
0.536
20
0.675
30
0.000
11
0.730
21
0.695
31
0.000
0
POINT
8
Clients
62
5
10
0.490
20
0.776
30
0.000
0
LINE
8
Facilities_lines
62
3
10
0.536
20
0.675
30
0.000
11
0.490
21
0.776
31
0.000
0
POINT
8
Clients
62
5
10
0.557
20
0.784
30
0.000
0
LINE
8
Facilities_lines
62
3
10
0.536
20
0.675
30
0.000
11
0.557
21
0.784
31
0.000
0
POINT
8
Clients
62
5
10
0.501
20
0.669
30
0.000
0
LINE
8
Facilities_lines
62
3
10
0.536
20
0.675
30
0.000
11
0.501
21
0.669
31
0.000
0
LINE
8
Min_max_boxes
62
1
10
0.458
20
0.547
30
0.000
11
0.730
21
0.547
31
0.000
0
LINE
8
Min_max_boxes
62
1
10
0.730
20
0.547
30
0.000
11
0.730
21
0.834
31
0.000
0
LINE
8
Min_max_boxes
62
1
10
0.730
20
0.834
30
0.000
11
0.458
21
0.834
31
0.000
0
LINE
8
Min_max_boxes
62
1
10
0.458
20
0.834
30
0.000
11
0.458
21
0.547
31
0.000
0
LINE
8
Min_max_boxes
62
1
10
0.458
20
0.547
30
0.000
11
0.730
21
0.547
31
0.000
0
LINE
8
Min_max_boxes
62
1
10
0.730
20
0.547
30
0.000
11
0.730
21
0.834
31
0.000
0
LINE
8
Min_max_boxes
62
1
10
0.730
20
0.834
30
0.000
11
0.458
21
0.834
31
0.000
0
LINE
8
Min_max_boxes
62
1
10
0.458
20
0.834
30
0.000
11
0.458
21
0.547
31
0.000
0
LINE
8
Min_max_boxes
62
1
10
0.458
20
0.547
30
0.000
11
0.458
21
0.547
31
0.000
0
LINE
8
Min_max_boxes
62
1
10
0.730
20
0.547
30
0.000
11
0.730
21
0.547
31
0.000
0
LINE
8
Min_max_boxes
62
1
10
0.730
20
0.834
30
0.000
11
0.730
21
0.834
31
0.000
0
LINE
8
Min_max_boxes
62
1
10
0.458
20
0.834
30
0.000
11
0.458
21
0.834
31
0.000
0
POINT
8
Facilities
62
3
10
0.139
20
0.833
30
0.000
0
POINT
8
Clients
62
5
10
0.240
20
0.894
30
0.000
0
LINE
8
Facilities_lines
62
3
10
0.139
20
0.833
30
0.000
11
0.240
21
0.894
31
0.000
0
POINT
8
Clients
62
5
10
0.106
20
0.720
30
0.000
0
LINE
8
Facilities_lines
62
3
10
0.139
20
0.833
30
0.000
11
0.106
21
0.720
31
0.000
0
POINT
8
Clients
62
5
10
0.125
20
0.930
30
0.000
0
LINE
8
Facilities_lines
62
3
10
0.139
20
0.833
30
0.000
11
0.125
21
0.930
31
0.000
0
POINT
8
Clients
62
5
10
0.037
20
0.749
30
0.000
0
LINE
8
Facilities_lines
62
3
10
0.139
20
0.833
30
0.000
11
0.037
21
0.749
31
0.000
0
POINT
8
Clients
62
5
10
0.181
20
0.669
30
0.000
0
LINE
8
Facilities_lines
62
3
10
0.139
20
0.833
30
0.000
11
0.181
21
0.669
31
0.000
0
POINT
8
Clients
62
5
10
0.164
20
0.981
30
0.000
0
LINE
8
Facilities_lines
62
3
10
0.139
20
0.833
30
0.000
11
0.164
21
0.981
31
0.000
0
POINT
8
Clients
62
5
10
0.064
20
0.728
30
0.000
0
LINE
8
Facilities_lines
62
3
10
0.139
20
0.833
30
0.000
11
0.064
21
0.728
31
0.000
0
POINT
8
Clients
62
5
10
0.060
20
0.654
30
0.000
0
LINE
8
Facilities_lines
62
3
10
0.139
20
0.833
30
0.000
11
0.060
21
0.654
31
0.000
0
POINT
8
Clients
62
5
10
0.224
20
0.811
30
0.000
0
LINE
8
Facilities_lines
62
3
10
0.139
20
0.833
30
0.000
11
0.224
21
0.811
31
0.000
0
POINT
8
Clients
62
5
10
0.142
20
0.972
30
0.000
0
LINE
8
Facilities_lines
62
3
10
0.139
20
0.833
30
0.000
11
0.142
21
0.972
31
0.000
0
POINT
8
Clients
62
5
10
0.025
20
0.988
30
0.000
0
LINE
8
Facilities_lines
62
3
10
0.139
20
0.833
30
0.000
11
0.025
21
0.988
31
0.000
0
POINT
8
Clients
62
5
10
0.088
20
0.900
30
0.000
0
LINE
8
Facilities_lines
62
3
10
0.139
20
0.833
30
0.000
11
0.088
21
0.900
31
0.000
0
POINT
8
Clients
62
5
10
0.181
20
0.882
30
0.000
0
LINE
8
Facilities_lines
62
3
10
0.139
20
0.833
30
0.000
11
0.181
21
0.882
31
0.000
0
POINT
8
Clients
62
5
10
0.022
20
0.717
30
0.000
0
LINE
8
Facilities_lines
62
3
10
0.139
20
0.833
30
0.000
11
0.022
21
0.717
31
0.000
0
POINT
8
Clients
62
5
10
0.228
20
0.714
30
0.000
0
LINE
8
Facilities_lines
62
3
10
0.139
20
0.833
30
0.000
11
0.228
21
0.714
31
0.000
0
POINT
8
Clients
62
5
10
0.067
20
0.815
30
0.000
0
LINE
8
Facilities_lines
62
3
10
0.139
20
0.833
30
0.000
11
0.067
21
0.815
31
0.000
0
POINT
8
Clients
62
5
10
0.218
20
0.658
30
0.000
0
LINE
8
Facilities_lines
62
3
10
0.139
20
0.833
30
0.000
11
0.218
21
0.658
31
0.000
0
POINT
8
Clients
62
5
10
0.182
20
0.951
30
0.000
0
LINE
8
Facilities_lines
62
3
10
0.139
20
0.833
30
0.000
11
0.182
21
0.951
31
0.000
0
POINT
8
Clients
62
5
10
0.042
20
0.722
30
0.000
0
LINE
8
Facilities_lines
62
3
10
0.139
20
0.833
30
0.000
11
0.042
21
0.722
31
0.000
0
POINT
8
Clients
62
5
10
0.083
20
0.888
30
0.000
0
LINE
8
Facilities_lines
62
3
10
0.139
20
0.833
30
0.000
11
0.083
21
0.888
31
0.000
0
POINT
8
Clients
62
5
10
0.010
20
0.819
30
0.000
0
LINE
8
Facilities_lines
62
3
10
0.139
20
0.833
30
0.000
11
0.010
21
0.819
31
0.000
0
POINT
8
Clients
62
5
10
0.224
20
0.720
30
0.000
0
LINE
8
Facilities_lines
62
3
10
0.139
20
0.833
30
0.000
11
0.224
21
0.720
31
0.000
0
POINT
8
Clients
62
5
10
0.177
20
0.695
30
0.000
0
LINE
8
Facilities_lines
62
3
10
0.139
20
0.833
30
0.000
11
0.177
21
0.695
31
0.000
0
POINT
8
Clients
62
5
10
0.193
20
0.734
30
0.000
0
LINE
8
Facilities_lines
62
3
10
0.139
20
0.833
30
0.000
11
0.193
21
0.734
31
0.000
0
POINT
8
Clients
62
5
10
0.099
20
0.694
30
0.000
0
LINE
8
Facilities_lines
62
3
10
0.139
20
0.833
30
0.000
11
0.099
21
0.694
31
0.000
0
POINT
8
Clients
62
5
10
0.044
20
0.945
30
0.000
0
LINE
8
Facilities_lines
62
3
10
0.139
20
0.833
30
0.000
11
0.044
21
0.945
31
0.000
0
POINT
8
Clients
62
5
10
0.032
20
0.939
30
0.000
0
LINE
8
Facilities_lines
62
3
10
0.139
20
0.833
30
0.000
11
0.032
21
0.939
31
0.000
0
POINT
8
Clients
62
5
10
0.048
20
0.680
30
0.000
0
LINE
8
Facilities_lines
62
3
10
0.139
20
0.833
30
0.000
11
0.048
21
0.680
31
0.000
0
POINT
8
Clients
62
5
10
0.175
20
0.800
30
0.000
0
LINE
8
Facilities_lines
62
3
10
0.139
20
0.833
30
0.000
11
0.175
21
0.800
31
0.000
0
LINE
8
Min_max_boxes
62
1
10
0.010
20
0.654
30
0.000
11
0.240
21
0.654
31
0.000
0
LINE
8
Min_max_boxes
62
1
10
0.240
20
0.654
30
0.000
11
0.240
21
0.988
31
0.000
0
LINE
8
Min_max_boxes
62
1
10
0.240
20
0.988
30
0.000
11
0.010
21
0.988
31
0.000
0
LINE
8
Min_max_boxes
62
1
10
0.010
20
0.988
30
0.000
11
0.010
21
0.654
31
0.000
0
LINE
8
Min_max_boxes
62
1
10
0.010
20
0.654
30
0.000
11
0.240
21
0.654
31
0.000
0
LINE
8
Min_max_boxes
62
1
10
0.240
20
0.654
30
0.000
11
0.240
21
0.988
31
0.000
0
LINE
8
Min_max_boxes
62
1
10
0.240
20
0.988
30
0.000
11
0.010
21
0.988
31
0.000
0
LINE
8
Min_max_boxes
62
1
10
0.010
20
0.988
30
0.000
11
0.010
21
0.654
31
0.000
0
LINE
8
Min_max_boxes
62
1
10
0.010
20
0.654
30
0.000
11
0.010
21
0.654
31
0.000
0
LINE
8
Min_max_boxes
62
1
10
0.240
20
0.654
30
0.000
11
0.240
21
0.654
31
0.000
0
LINE
8
Min_max_boxes
62
1
10
0.240
20
0.988
30
0.000
11
0.240
21
0.988
31
0.000
0
LINE
8
Min_max_boxes
62
1
10
0.010
20
0.988
30
0.000
11
0.010
21
0.988
31
0.000
0
POINT
8
Facilities
62
3
10
0.391
20
0.864
30
0.000
0
POINT
8
Clients
62
5
10
0.399
20
0.788
30
0.000
0
LINE
8
Facilities_lines
62
3
10
0.391
20
0.864
30
0.000
11
0.399
21
0.788
31
0.000
0
POINT
8
Clients
62
5
10
0.258
20
0.884
30
0.000
0
LINE
8
Facilities_lines
62
3
10
0.391
20
0.864
30
0.000
11
0.258
21
0.884
31
0.000
0
POINT
8
Clients
62
5
10
0.317
20
0.830
30
0.000
0
LINE
8
Facilities_lines
62
3
10
0.391
20
0.864
30
0.000
11
0.317
21
0.830
31
0.000
0
POINT
8
Clients
62
5
10
0.355
20
0.667
30
0.000
0
LINE
8
Facilities_lines
62
3
10
0.391
20
0.864
30
0.000
11
0.355
21
0.667
31
0.000
0
POINT
8
Clients
62
5
10
0.347
20
0.664
30
0.000
0
LINE
8
Facilities_lines
62
3
10
0.391
20
0.864
30
0.000
11
0.347
21
0.664
31
0.000
0
POINT
8
Clients
62
5
10
0.296
20
0.859
30
0.000
0
LINE
8
Facilities_lines
62
3
10
0.391
20
0.864
30
0.000
11
0.296
21
0.859
31
0.000
0
POINT
8
Clients
62
5
10
0.294
20
0.975
30
0.000
0
LINE
8
Facilities_lines
62
3
10
0.391
20
0.864
30
0.000
11
0.294
21
0.975
31
0.000
0
POINT
8
Clients
62
5
10
0.424
20
0.884
30
0.000
0
LINE
8
Facilities_lines
62
3
10
0.391
20
0.864
30
0.000
11
0.424
21
0.884
31
0.000
0
POINT
8
Clients
62
5
10
0.463
20
0.878
30
0.000
0
LINE
8
Facilities_lines
62
3
10
0.391
20
0.864
30
0.000
11
0.463
21
0.878
31
0.000
0
POINT
8
Clients
62
5
10
0.415
20
0.780
30
0.000
0
LINE
8
Facilities_lines
62
3
10
0.391
20
0.864
30
0.000
11
0.415
21
0.780
31
0.000
0
POINT
8
Clients
62
5
10
0.506
20
0.873
30
0.000
0
LINE
8
Facilities_lines
62
3
10
0.391
20
0.864
30
0.000
11
0.506
21
0.873
31
0.000
0
POINT
8
Clients
62
5
10
0.421
20
0.864
30
0.000
0
LINE
8
Facilities_lines
62
3
10
0.391
20
0.864
30
0.000
11
0.421
21
0.864
31
0.000
0
POINT
8
Clients
62
5
10
0.412
20
0.997
30
0.000
0
LINE
8
Facilities_lines
62
3
10
0.391
20
0.864
30
0.000
11
0.412
21
0.997
31
0.000
0
POINT
8
Clients
62
5
10
0.346
20
0.613
30
0.000
0
LINE
8
Facilities_lines
62
3
10
0.391
20
0.864
30
0.000
11
0.346
21
0.613
31
0.000
0
POINT
8
Clients
62
5
10
0.455
20
0.886
30
0.000
0
LINE
8
Facilities_lines
62
3
10
0.391
20
0.864
30
0.000
11
0.455
21
0.886
31
0.000
0
POINT
8
Clients
62
5
10
0.413
20
0.931
30
0.000
0
LINE
8
Facilities_lines
62
3
10
0.391
20
0.864
30
0.000
11
0.413
21
0.931
31
0.000
0
POINT
8
Clients
62
5
10
0.309
20
0.898
30
0.000
0
LINE
8
Facilities_lines
62
3
10
0.391
20
0.864
30
0.000
11
0.309
21
0.898
31
0.000
0
POINT
8
Clients
62
5
10
0.378
20
0.966
30
0.000
0
LINE
8
Facilities_lines
62
3
10
0.391
20
0.864
30
0.000
11
0.378
21
0.966
31
0.000
0
POINT
8
Clients
62
5
10
0.355
20
0.827
30
0.000
0
LINE
8
Facilities_lines
62
3
10
0.391
20
0.864
30
0.000
11
0.355
21
0.827
31
0.000
0
POINT
8
Clients
62
5
10
0.577
20
0.896
30
0.000
0
LINE
8
Facilities_lines
62
3
10
0.391
20
0.864
30
0.000
11
0.577
21
0.896
31
0.000
0
POINT
8
Clients
62
5
10
0.571
20
0.914
30
0.000
0
LINE
8
Facilities_lines
62
3
10
0.391
20
0.864
30
0.000
11
0.571
21
0.914
31
0.000
0
POINT
8
Clients
62
5
10
0.343
20
0.832
30
0.000
0
LINE
8
Facilities_lines
62
3
10
0.391
20
0.864
30
0.000
11
0.343
21
0.832
31
0.000
0
POINT
8
Clients
62
5
10
0.549
20
0.849
30
0.000
0
LINE
8
Facilities_lines
62
3
10
0.391
20
0.864
30
0.000
11
0.549
21
0.849
31
0.000
0
POINT
8
Clients
62
5
10
0.330
20
0.917
30
0.000
0
LINE
8
Facilities_lines
62
3
10
0.391
20
0.864
30
0.000
11
0.330
21
0.917
31
0.000
0
POINT
8
Clients
62
5
10
0.282
20
0.942
30
0.000
0
LINE
8
Facilities_lines
62
3
10
0.391
20
0.864
30
0.000
11
0.282
21
0.942
31
0.000
0
LINE
8
Min_max_boxes
62
1
10
0.258
20
0.613
30
0.000
11
0.577
21
0.613
31
0.000
0
LINE
8
Min_max_boxes
62
1
10
0.577
20
0.613
30
0.000
11
0.577
21
0.997
31
0.000
0
LINE
8
Min_max_boxes
62
1
10
0.577
20
0.997
30
0.000
11
0.258
21
0.997
31
0.000
0
LINE
8
Min_max_boxes
62
1
10
0.258
20
0.997
30
0.000
11
0.258
21
0.613
31
0.000
0
LINE
8
Min_max_boxes
62
1
10
0.258
20
0.613
30
0.000
11
0.577
21
0.613
31
0.000
0
LINE
8
Min_max_boxes
62
1
10
0.577
20
0.613
30
0.000
11
0.577
21
0.997
31
0.000
0
LINE
8
Min_max_boxes
62
1
10
0.577
20
0.997
30
0.000
11
0.258
21
0.997
31
0.000
0
LINE
8
Min_max_boxes
62
1
10
0.258
20
0.997
30
0.000
11
0.258
21
0.613
31
0.000
0
LINE
8
Min_max_boxes
62
1
10
0.258
20
0.613
30
0.000
11
0.258
21
0.613
31
0.000
0
LINE
8
Min_max_boxes
62
1
10
0.577
20
0.613
30
0.000
11
0.577
21
0.613
31
0.000
0
LINE
8
Min_max_boxes
62
1
10
0.577
20
0.997
30
0.000
11
0.577
21
0.997
31
0.000
0
LINE
8
Min_max_boxes
62
1
10
0.258
20
0.997
30
0.000
11
0.258
21
0.997
31
0.000
0
POINT
8
Facilities
62
3
10
0.804
20
0.884
30
0.000
0
POINT
8
Clients
62
5
10
0.636
20
0.934
30
0.000
0
LINE
8
Facilities_lines
62
3
10
0.804
20
0.884
30
0.000
11
0.636
21
0.934
31
0.000
0
POINT
8
Clients
62
5
10
0.871
20
0.811
30
0.000
0
LINE
8
Facilities_lines
62
3
10
0.804
20
0.884
30
0.000
11
0.871
21
0.811
31
0.000
0
POINT
8
Clients
62
5
10
0.957
20
0.795
30
0.000
0
LINE
8
Facilities_lines
62
3
10
0.804
20
0.884
30
0.000
11
0.957
21
0.795
31
0.000
0
POINT
8
Clients
62
5
10
0.824
20
0.923
30
0.000
0
LINE
8
Facilities_lines
62
3
10
0.804
20
0.884
30
0.000
11
0.824
21
0.923
31
0.000
0
POINT
8
Clients
62
5
10
0.894
20
0.985
30
0.000
0
LINE
8
Facilities_lines
62
3
10
0.804
20
0.884
30
0.000
11
0.894
21
0.985
31
0.000
0
POINT
8
Clients
62
5
10
0.703
20
0.839
30
0.000
0
LINE
8
Facilities_lines
62
3
10
0.804
20
0.884
30
0.000
11
0.703
21
0.839
31
0.000
0
POINT
8
Clients
62
5
10
0.933
20
0.939
30
0.000
0
LINE
8
Facilities_lines
62
3
10
0.804
20
0.884
30
0.000
11
0.933
21
0.939
31
0.000
0
POINT
8
Clients
62
5
10
0.795
20
0.801
30
0.000
0
LINE
8
Facilities_lines
62
3
10
0.804
20
0.884
30
0.000
11
0.795
21
0.801
31
0.000
0
POINT
8
Clients
62
5
10
0.752
20
0.944
30
0.000
0
LINE
8
Facilities_lines
62
3
10
0.804
20
0.884
30
0.000
11
0.752
21
0.944
31
0.000
0
POINT
8
Clients
62
5
10
0.816
20
0.937
30
0.000
0
LINE
8
Facilities_lines
62
3
10
0.804
20
0.884
30
0.000
11
0.816
21
0.937
31
0.000
0
POINT
8
Clients
62
5
10
0.997
20
0.934
30
0.000
0
LINE
8
Facilities_lines
62
3
10
0.804
20
0.884
30
0.000
11
0.997
21
0.934
31
0.000
0
POINT
8
Clients
62
5
10
0.842
20
0.784
30
0.000
0
LINE
8
Facilities_lines
62
3
10
0.804
20
0.884
30
0.000
11
0.842
21
0.784
31
0.000
0
POINT
8
Clients
62
5
10
0.734
20
0.883
30
0.000
0
LINE
8
Facilities_lines
62
3
10
0.804
20
0.884
30
0.000
11
0.734
21
0.883
31
0.000
0
POINT
8
Clients
62
5
10
0.925
20
0.900
30
0.000
0
LINE
8
Facilities_lines
62
3
10
0.804
20
0.884
30
0.000
11
0.925
21
0.900
31
0.000
0
POINT
8
Clients
62
5
10
0.815
20
0.849
30
0.000
0
LINE
8
Facilities_lines
62
3
10
0.804
20
0.884
30
0.000
11
0.815
21
0.849
31
0.000
0
POINT
8
Clients
62
5
10
0.746
20
0.827
30
0.000
0
LINE
8
Facilities_lines
62
3
10
0.804
20
0.884
30
0.000
11
0.746
21
0.827
31
0.000
0
POINT
8
Clients
62
5
10
0.801
20
0.896
30
0.000
0
LINE
8
Facilities_lines
62
3
10
0.804
20
0.884
30
0.000
11
0.801
21
0.896
31
0.000
0
POINT
8
Clients
62
5
10
0.986
20
0.721
30
0.000
0
LINE
8
Facilities_lines
62
3
10
0.804
20
0.884
30
0.000
11
0.986
21
0.721
31
0.000
0
POINT
8
Clients
62
5
10
0.680
20
0.974
30
0.000
0
LINE
8
Facilities_lines
62
3
10
0.804
20
0.884
30
0.000
11
0.680
21
0.974
31
0.000
0
POINT
8
Clients
62
5
10
0.887
20
0.819
30
0.000
0
LINE
8
Facilities_lines
62
3
10
0.804
20
0.884
30
0.000
11
0.887
21
0.819
31
0.000
0
POINT
8
Clients
62
5
10
0.767
20
0.836
30
0.000
0
LINE
8
Facilities_lines
62
3
10
0.804
20
0.884
30
0.000
11
0.767
21
0.836
31
0.000
0
POINT
8
Clients
62
5
10
0.934
20
0.731
30
0.000
0
LINE
8
Facilities_lines
62
3
10
0.804
20
0.884
30
0.000
11
0.934
21
0.731
31
0.000
0
POINT
8
Clients
62
5
10
0.772
20
0.706
30
0.000
0
LINE
8
Facilities_lines
62
3
10
0.804
20
0.884
30
0.000
11
0.772
21
0.706
31
0.000
0
POINT
8
Clients
62
5
10
0.629
20
0.834
30
0.000
0
LINE
8
Facilities_lines
62
3
10
0.804
20
0.884
30
0.000
11
0.629
21
0.834
31
0.000
0
POINT
8
Clients
62
5
10
0.731
20
0.864
30
0.000
0
LINE
8
Facilities_lines
62
3
10
0.804
20
0.884
30
0.000
11
0.731
21
0.864
31
0.000
0
POINT
8
Clients
62
5
10
0.833
20
0.908
30
0.000
0
LINE
8
Facilities_lines
62
3
10
0.804
20
0.884
30
0.000
11
0.833
21
0.908
31
0.000
0
POINT
8
Clients
62
5
10
0.979
20
0.767
30
0.000
0
LINE
8
Facilities_lines
62
3
10
0.804
20
0.884
30
0.000
11
0.979
21
0.767
31
0.000
0
POINT
8
Clients
62
5
10
0.619
20
0.987
30
0.000
0
LINE
8
Facilities_lines
62
3
10
0.804
20
0.884
30
0.000
11
0.619
21
0.987
31
0.000
0
POINT
8
Clients
62
5
10
0.973
20
0.763
30
0.000
0
LINE
8
Facilities_lines
62
3
10
0.804
20
0.884
30
0.000
11
0.973
21
0.763
31
0.000
0
POINT
8
Clients
62
5
10
0.625
20
0.840
30
0.000
0
LINE
8
Facilities_lines
62
3
10
0.804
20
0.884
30
0.000
11
0.625
21
0.840
31
0.000
0
POINT
8
Clients
62
5
10
0.715
20
0.867
30
0.000
0
LINE
8
Facilities_lines
62
3
10
0.804
20
0.884
30
0.000
11
0.715
21
0.867
31
0.000
0
LINE
8
Min_max_boxes
62
1
10
0.619
20
0.706
30
0.000
11
0.997
21
0.706
31
0.000
0
LINE
8
Min_max_boxes
62
1
10
0.997
20
0.706
30
0.000
11
0.997
21
0.987
31
0.000
0
LINE
8
Min_max_boxes
62
1
10
0.997
20
0.987
30
0.000
11
0.619
21
0.987
31
0.000
0
LINE
8
Min_max_boxes
62
1
10
0.619
20
0.987
30
0.000
11
0.619
21
0.706
31
0.000
0
LINE
8
Min_max_boxes
62
1
10
0.619
20
0.706
30
0.000
11
0.997
21
0.706
31
0.000
0
LINE
8
Min_max_boxes
62
1
10
0.997
20
0.706
30
0.000
11
0.997
21
0.987
31
0.000
0
LINE
8
Min_max_boxes
62
1
10
0.997
20
0.987
30
0.000
11
0.619
21
0.987
31
0.000
0
LINE
8
Min_max_boxes
62
1
10
0.619
20
0.987
30
0.000
11
0.619
21
0.706
31
0.000
0
LINE
8
Min_max_boxes
62
1
10
0.619
20
0.706
30
0.000
11
0.619
21
0.706
31
0.000
0
LINE
8
Min_max_boxes
62
1
10
0.997
20
0.706
30
0.000
11
0.997
21
0.706
31
0.000
0
LINE
8
Min_max_boxes
62
1
10
0.997
20
0.987
30
0.000
11
0.997
21
0.987
31
0.000
0
LINE
8
Min_max_boxes
62
1
10
0.619
20
0.987
30
0.000
11
0.619
21
0.987
31
0.000
0
ENDSEC
0
EOF
